<svg xmlns="http://www.w3.org/2000/svg" width="100.172" height="97.653" viewBox="0 0 100.172 97.653">
  <g id="_3_User" data-name="3 User" transform="translate(3 3)">
    <path id="Stroke_1" data-name="Stroke 1" d="M34.852,33.764C16.056,33.764,0,31.061,0,20.241S15.952,0,34.852,0C53.647,0,69.7,9.332,69.7,20.147S53.751,33.764,34.852,33.764Z" transform="translate(0 57.89)" fill="none" stroke="#fff" stroke-linecap="round" stroke-linejoin="round" stroke-width="6"/>
    <path id="Stroke_3" data-name="Stroke 3" d="M22.341,42.461c12.337,0,22.341-9.5,22.341-21.228S34.678,0,22.341,0,0,9.508,0,21.233C-.035,32.914,9.888,42.422,22.184,42.461Z" transform="translate(12.511 0)" fill="none" stroke="#fff" stroke-linecap="round" stroke-linejoin="round" stroke-width="6"/>
    <path id="Stroke_5" data-name="Stroke 5" d="M.963,31.122a16.162,16.162,0,0,0,12.47-15.453A16.218,16.218,0,0,0,0,0" transform="translate(70.967 5.509)" fill="none" stroke="#fff" stroke-linecap="round" stroke-linejoin="round" stroke-width="6"/>
    <path id="Stroke_7" data-name="Stroke 7" d="M0,0C10.178,0,18.871,6.557,18.871,12.415c0,3.447-3,7.2-7.549,8.218" transform="translate(75.301 54.019)" fill="none" stroke="#fff" stroke-linecap="round" stroke-linejoin="round" stroke-width="6"/>
  </g>
</svg>
