<svg xmlns="http://www.w3.org/2000/svg" xmlns:xlink="http://www.w3.org/1999/xlink" width="205.726" height="149.717" viewBox="0 0 205.726 149.717">
  <defs>
    <linearGradient id="linear-gradient" x1="0.5" x2="0.5" y2="1" gradientUnits="objectBoundingBox">
      <stop offset="0" stop-color="#3ba937"/>
      <stop offset="1" stop-color="#50a408"/>
    </linearGradient>
    <linearGradient id="linear-gradient-2" x1="0.5" x2="0.5" y2="1" gradientUnits="objectBoundingBox">
      <stop offset="0" stop-color="#39a936"/>
      <stop offset="1" stop-color="#3ea737"/>
    </linearGradient>
  </defs>
  <g id="login_ill" transform="translate(12180.7 -798.506)">
    <path id="Path_149508" data-name="Path 149508" d="M276.066,1170.8s-41.5-84.23-8.192-106.332c26.576-17.633,27.7,24.9,74.5-21.015,48.2-44.055,69.94-13.5,89.822,21.015,14.92,25.9,16.838,39.6,20.239,62.915,3.188,33.553-20.239,43.417-20.239,43.417Z" transform="translate(-12435.631 -223.081)" fill="#3c23b6" opacity="0.05"/>
    <g id="Group_136282" data-name="Group 136282" transform="translate(-12111.543 798.506)">
      <path id="Path_148925" data-name="Path 148925" d="M1094.93,602.123a5.545,5.545,0,0,0-3.809,5.076v48.978a30.874,30.874,0,0,0,12.73,25.118l28.772,18.439a6.083,6.083,0,0,0,6.432,0l28.772-18.439a30.874,30.874,0,0,0,12.73-25.118V607.329a5.588,5.588,0,0,0-4-5.144c-34.951-11.966-48.962-12.286-81.629-.062Z" transform="translate(-1091.121 -593.083)" fill="#070139"/>
      <path id="Path_148926" data-name="Path 148926" d="M1464.626,602.313c-17.013-5.825-29.064-8.881-40.72-9.083V700.781a5.99,5.99,0,0,0,3.216-.92l28.772-18.439a30.873,30.873,0,0,0,12.73-25.118V607.455a5.588,5.588,0,0,0-4-5.143Z" transform="translate(-1379.188 -593.21)" fill="#3c23b6"/>
      <g id="Group_136283" data-name="Group 136283" transform="translate(23.156 22.653)">
        <g id="Group_135223" data-name="Group 135223" transform="translate(7.681)">
          <path id="Path_148927" data-name="Path 148927" d="M1334.536,839.405h-6.371a10.374,10.374,0,0,1-10.362-10.362V827.8a10.374,10.374,0,0,1,10.362-10.363h6.371A10.375,10.375,0,0,1,1344.9,827.8v1.239A10.375,10.375,0,0,1,1334.536,839.405Zm-6.371-17.821a6.226,6.226,0,0,0-6.219,6.22v1.239a6.226,6.226,0,0,0,6.219,6.219h6.371a6.226,6.226,0,0,0,6.22-6.219V827.8a6.226,6.226,0,0,0-6.22-6.22Z" transform="translate(-1317.803 -817.441)" fill="#f5f6ff"/>
        </g>
        <path id="Rectangle_30303" data-name="Rectangle 30303" d="M4.973,0h31.78a6.371,6.371,0,0,1,6.371,6.371V16.6A20.889,20.889,0,0,1,22.235,37.491h0A22.235,22.235,0,0,1,0,15.256V4.973A4.973,4.973,0,0,1,4.973,0Z" transform="translate(0 13.417)" fill="#f5f6ff"/>
        <g id="Group_135224" data-name="Group 135224" transform="translate(14.395 17.5)">
          <circle id="Ellipse_1296" data-name="Ellipse 1296" cx="5.623" cy="5.623" r="5.623" transform="translate(0 3.722) rotate(-19.33)" fill="#070139"/>
          <path id="Path_148928" data-name="Path 148928" d="M1415.812,1026.051h0a1.222,1.222,0,0,1,1.218,1.218v9.372a1.222,1.222,0,0,1-1.218,1.219h0a1.222,1.222,0,0,1-1.218-1.219v-9.372A1.222,1.222,0,0,1,1415.812,1026.051Z" transform="translate(-1408.645 -1016.26)" fill="#070139"/>
        </g>
      </g>
    </g>
    <g id="sofawoman" transform="translate(-12176.01 824.61)">
      <g id="Group_135248" data-name="Group 135248" transform="translate(0 38.647)">
        <path id="Path_148984" data-name="Path 148984" d="M2060.157,1443.782h100.1c13.956-16.038,13.377-35.563-5.664-53.294a36.03,36.03,0,0,0-14.2-7.757,128.244,128.244,0,0,0-19.029-2.648c-.029-.011-11.195-1.566-14.379-5.44-9.893-12.032-12.436-13.753-12.436-13.753-10.083-1.971-18.685-2.55-25.061,1.016,0,0,0,0,0,0-5.907,3.308-9.906,10.177-11.4,22.8q-.426,3.58-.579,7.793c-.365,10.244-2.376,19.356-3.57,27.072,0,0,0,0,0,0C2052.2,1430.75,2050.978,1439.249,2060.157,1443.782Z" transform="translate(-2052.719 -1359.316)" fill="#d2641e" stroke="rgba(0,0,0,0)" stroke-width="1"/>
      </g>
      <path id="Path_148985" data-name="Path 148985" d="M2203.7,1374.7c6.119,3.333,6.8,14.312,16.373,17.147s25.833,2.578,35.053,12.58c8.9,9.65,18.708-14.9,14.483-21.807a128.8,128.8,0,0,0-19.028-2.636c-.029-.011-13.658-.066-16.842-3.922-9.893-11.977-9.972-15.184-9.972-15.184-10.084-1.962-18.685-2.538-25.061,1.011,0,0,0,0,0,0C2191.678,1369.154,2197.582,1371.37,2203.7,1374.7Z" transform="translate(-2181.938 -1320.669)" fill="#a54c23"/>
      <path id="Path_148986" data-name="Path 148986" d="M2374.628,1520.615c14.043-17.529,42.891,6.368,50.356,5.693,6.864-.62-13.385-24.579-38.494-28.144-10.15-1.441-7.72-11.93-7.714-12.254-.284,2.376-.479,4.957-.579,7.758C2377.832,1503.864,2375.822,1512.935,2374.628,1520.615Z" transform="translate(-2373.415 -1421.989)" fill="#a54c23"/>
      <g id="woman" transform="translate(5.787 0)">
        <g id="Group_134833" data-name="Group 134833" transform="translate(0 0)">
          <path id="Path_149458" data-name="Path 149458" d="M29.358,0c-11.217,6.2-4.377,27.175-18.6,34.653C6.814,36.725-5.295,47.237,2.639,61.1c5.19,9.067,20.7,7.113,25.807-.912S29.358,0,29.358,0Z" transform="translate(10.496 0) rotate(9)"/>
          <path id="Path_149457" data-name="Path 149457" d="M9.21,2.766c5.836-5.2,10.122-2.1,13.314,1.368a52.36,52.36,0,0,1,5,6.236,2.512,2.512,0,0,1,.562,1.424c.059,3.164,1.678,16.541-.122,21.157C25.868,38.331,0,40.793,0,40.793Z" transform="translate(28.425 1.608) rotate(9)"/>
          <path id="Path_145417" data-name="Path 145417" d="M1781.757,1613.6a1.3,1.3,0,0,0-.231,1.39.009.009,0,0,0,0,.007,8.632,8.632,0,0,0,2.73,2.995c.164.133.311.253.438.365.033.029.067.059.1.088l.075.068c1.2,1.106.749,1.36,2.905,3.6,2.458,2.558,4.151,2.6,4.632,2.371.407-.2-.42-1.555-1.338-3.08-.044-.074-.088-.148-.134-.222-.122-.2-.243-.408-.365-.612-1.075-1.835-.8-2.7-.544-5.427.207-2.219,3.453-12.4,3.453-12.4l-4.711-.812s-1.419,8.106-2.982,9.354c-.836.666-1.772.674-2.575,1.167-.057.034-.113.069-.167.106A6.171,6.171,0,0,0,1781.757,1613.6Z" transform="translate(-1728.081 -1501.92)" fill="#f09959"/>
          <path id="Path_145418" data-name="Path 145418" d="M1788.44,1675.826a1.3,1.3,0,0,0-.232,1.39.011.011,0,0,0,0,.007,10,10,0,0,0,2.735,2.985c.162.135.306.259.434.375.033.029.067.059.1.088l.076.068c1.2,1.106.749,1.36,2.9,3.6,2.458,2.558,4.151,2.6,4.633,2.371.407-.2-.42-1.555-1.338-3.08a10.479,10.479,0,0,1-4.382-3.229c-1.48-1.889-2.467-4.316-3.476-5.722-.056.034-.112.069-.167.106A6.175,6.175,0,0,0,1788.44,1675.826Z" transform="translate(-1734.764 -1564.143)" fill="#070139"/>
          <path id="Path_145419" data-name="Path 145419" d="M1505.83,1602.18c.291,1.454,2.364,1.212,4.68.646s1.766.107,5.062-.258,4.294-1.594,4.395-2.084c.09-.435-1.539-.589-3.286-.789-.219-.025-.44-.052-.661-.079-1.972-.248-3.417-1.52-5.208-2.565-1.7-.99-4.229-5.024-4.229-5.024l-4.52.358s2.372,3.6,3.29,5.169a5.458,5.458,0,0,1,.444,3.08A5.817,5.817,0,0,0,1505.83,1602.18Z" transform="translate(-1414.166 -1493.44)" fill="#f09959"/>
          <path id="Path_145420" data-name="Path 145420" d="M1506.81,1648.178c2.316-.566,1.766.107,5.062-.258s4.294-1.594,4.395-2.084c.09-.435-1.539-.588-3.286-.79l-.016.034a9.292,9.292,0,0,1-4.72,1.467c-2.236.054-4.605-.586-6.149-.562a5.817,5.817,0,0,0,.035,1.547C1502.422,1648.987,1504.494,1648.744,1506.81,1648.178Z" transform="translate(-1410.467 -1538.792)" fill="#070139"/>
          <path id="Path_145421" data-name="Path 145421" d="M1735.108,1421.029l-4.225,11.37-5.517,14.846a8.938,8.938,0,0,1-2.931-.268,12.713,12.713,0,0,1-2.834-1.38s1.428-15.976,4.286-25.126c.732-2.349-3.536-4-2.63-5.067C1725.686,1410.169,1735.108,1421.029,1735.108,1421.029Z" transform="translate(-1660.767 -1341.191)"/>
          <path id="Path_145422" data-name="Path 145422" d="M1617.408,1324.1c-2.768-.893-10.663.254-18.6,1.806l-1.66-2.739-17.132-1.338s-5.653,12.536-2.558,20.524a2.9,2.9,0,0,0,2.9,1.952h.25s10.2-.006,13.507-.006c8.52,0,18.031-5.857,19.261-6.1,2.014-.4,2.819,3.625,4.833,7.854s18.93,18.729,18.93,18.729a14.9,14.9,0,0,0,3.674-.377,3.62,3.62,0,0,0,1.578-1S1623.651,1326.116,1617.408,1324.1Z" transform="translate(-1547.363 -1262.323)" fill="#070139"/>
          <path id="Path_145425" data-name="Path 145425" d="M1760.1,1470.142l-5.517,14.846a8.936,8.936,0,0,1-2.931-.268,12.72,12.72,0,0,1-2.834-1.38s1.42-16.01,4.277-25.161Z" transform="translate(-1689.984 -1378.934)" fill="#070139"/>
          <path id="Path_145438" data-name="Path 145438" d="M1713.328,1277.8s.2-2.862-.887-2.75c-1.327.138-2.737,3.287-2.09,3.9S1713.315,1278.5,1713.328,1277.8Z" transform="translate(-1637.639 -1222.303)" fill="#f09959"/>
          <path id="Path_145424" data-name="Path 145424" d="M1877.706,1151.359c.353.974,9.615,1.842,14.885,1.492a7.229,7.229,0,0,0,3.4-.735c1.88-1.633,1.693,1.958,1.95-15.224.125-8.381-7.112-15.845-7.112-15.845s-.578,3.58-7.754-.681c-.255-.15-3.081,4.035-5.8,9.189C1874.278,1135.248,1877.346,1150.358,1877.706,1151.359Z" transform="translate(-1846.256 -1090.583)" fill="#3c23b6"/>
          <path id="Path_145426" data-name="Path 145426" d="M1782.432,1125.086s6.552,1.608,8.251,4.431c2.07,3.439,12.39,18.945,12.39,18.945s-10.174,3.6-11.908,1.865-6.034-16.089-6.034-16.089Z" transform="translate(-1737.819 -1094.032)" fill="#3c23b6"/>
          <g id="Group_135394" data-name="Group 135394" transform="translate(37.997 31.054) rotate(2)">
            <path id="Path_145749" data-name="Path 145749" d="M4.732,3.975a5.087,5.087,0,0,1-1.249-.068C2.491,3.665.553,3.457,0,.153A.131.131,0,1,1,.261.11C.786,3.259,2.6,3.422,3.546,3.652A3.81,3.81,0,0,0,7.158,2.337,3.117,3.117,0,0,0,7.346.328.131.131,0,1,1,7.6.273a3.3,3.3,0,0,1-.235,2.222A4.043,4.043,0,0,1,4.732,3.975Z" transform="translate(0 0)" fill="#f5ce5c"/>
          </g>
          <path id="Path_145427" data-name="Path 145427" d="M1919.633,1051.121a11.27,11.27,0,0,0,3.764,2.654c.766.28,2.04.586,2.04.586s1.022-1.034,1.037-1.048c.909-.848,0-1.093.133-2.7.007-.076.013-.154.022-.232a28.946,28.946,0,0,1,.735-3.887.017.017,0,0,0,0-.006l-7.09-6.369.2.35C1920.088,1043.765,1920.494,1051.025,1919.633,1051.121Z" transform="translate(-1881.954 -1020.215)" fill="#f09959"/>
          <g id="Group_135387" data-name="Group 135387" transform="translate(51.903 16.444) rotate(9)">
            <path id="Path_145734" data-name="Path 145734" d="M.266,25.034A.267.267,0,0,1,.253,24.5a2.479,2.479,0,0,0,1.91-1.055c2.9-3.758,1.27-16.3-.151-23.125A.267.267,0,0,1,2.534.212,91.463,91.463,0,0,1,4.206,12.5c.333,5.657-.212,9.45-1.62,11.274A3.022,3.022,0,0,1,.28,25.033Z" transform="translate(0 0)"/>
          </g>
          <g id="Group_135390" data-name="Group 135390" transform="matrix(-0.999, -0.035, 0.035, -0.999, 49.914, 20.271)">
            <path id="Path_148685" data-name="Path 148685" d="M0,7.307S2.259,1.278,5.726.387,10.7.424,10.7.424a9.818,9.818,0,0,0-3.211,5.8S1.7,10.177,0,7.307Z" transform="translate(3.617 0)"/>
            <path id="Path_148686" data-name="Path 148686" d="M4.177,6.566A5.118,5.118,0,0,1,1.813,4.718,8.306,8.306,0,0,1,.7,0S-1,4.1.908,6.416C2.936,8.874,4.177,6.566,4.177,6.566Z" transform="translate(0 0.252)"/>
          </g>
          <path id="Path_149459" data-name="Path 149459" d="M7.432,9.087C7.932,7.867,3,.853,1.671.091L1.063,0C.893.352.419.558.27.9c-1.182,7.347,1.8,10.088,3.446,11.3a7.776,7.776,0,0,0,3.206.777A23.937,23.937,0,0,1,7.432,9.087Z" transform="matrix(0.999, 0.052, -0.052, 0.999, 38.385, 17.252)" fill="#e38540"/>
          <path id="Path_149460" data-name="Path 149460" d="M11.365,8.8c-.793,4.188-2.625,7.567-5.725,6.93S-.718,10.671.139,6.5,4.205-.548,7.305.088,12.422,3.221,11.365,8.8Z" transform="matrix(0.999, 0.052, -0.052, 0.999, 39.625, 11.141)" fill="#f09959"/>
          <g id="Group_135391" data-name="Group 135391" transform="matrix(0.999, 0.052, -0.052, 0.999, 45.534, 17.17)">
            <path id="Path_145759" data-name="Path 145759" d="M1.591,5.27A1.272,1.272,0,0,1,1.4,5.255C.417,5.1-.178,3.836.048,2.366A3.45,3.45,0,0,1,.809.625,1.554,1.554,0,0,1,2.2.014C3.187.165,3.781,1.434,3.556,2.9,3.345,4.277,2.5,5.27,1.591,5.27ZM2.016.456a1.193,1.193,0,0,0-.865.47A2.993,2.993,0,0,0,.5,2.435C.318,3.611.763,4.7,1.469,4.8s1.456-.794,1.636-1.97S2.84.573,2.134.465A.777.777,0,0,0,2.016.456Z" transform="translate(0 0)" fill="#fff"/>
          </g>
          <g id="Group_135392" data-name="Group 135392" transform="matrix(0.999, 0.052, -0.052, 0.999, 49.384, 18.018)">
            <path id="Path_145760" data-name="Path 145760" d="M.944,4.63a.614.614,0,0,1-.094-.007c-.644-.1-.993-1.19-.8-2.484S.915-.093,1.557.007c.332.051.593.354.735.855a3.948,3.948,0,0,1,.06,1.629C2.164,3.723,1.557,4.63.944,4.63ZM1.462.345c-.379,0-.9.73-1.067,1.847C.218,3.351.52,4.224.9,4.283S1.834,3.6,2.012,2.439A3.608,3.608,0,0,0,1.962.957C1.86.6,1.693.377,1.505.348A.294.294,0,0,0,1.462.345Z" transform="translate(0 0)" fill="#fff"/>
          </g>
          <g id="Group_135393" data-name="Group 135393" transform="matrix(0.999, 0.052, -0.052, 0.999, 38.256, 15.544)">
            <path id="Path_145761" data-name="Path 145761" d="M7.867,2.639A.229.229,0,0,1,7.8,2.63L.165.447A.228.228,0,0,1,.29.009L7.93,2.191a.228.228,0,0,1-.062.447Z" transform="translate(0 0)" fill="#fff"/>
          </g>
          <path id="Path_149461" data-name="Path 149461" d="M12.472,4.365C.65,11.329,0,6.652,0,6.652L.7,0,7.717.39Z" transform="matrix(0.999, 0.052, -0.052, 0.999, 39.445, 9.122)"/>
          <path id="Path_149462" data-name="Path 149462" d="M2.764,1.842c.275,1.177-.1,2.271-.839,2.444S.365,3.644.09,2.467.191.2.929.023,2.489.665,2.764,1.842Z" transform="matrix(0.999, 0.052, -0.052, 0.999, 37.265, 15.371)" fill="#f09959"/>
          <path id="Path_149463" data-name="Path 149463" d="M.931.466A.466.466,0,1,1,.466,0,.465.465,0,0,1,.931.466Z" transform="matrix(0.999, 0.052, -0.052, 0.999, 38.134, 18.344)" fill="#f5ce5c"/>
          <g id="Group_135388" data-name="Group 135388" transform="translate(8.519 7.634) rotate(9)">
            <path id="Path_145736" data-name="Path 145736" d="M.267,39.837l-.036,0a.266.266,0,0,1-.229-.3,15.348,15.348,0,0,1,1.373-4.18,18.334,18.334,0,0,1,6.712-7.561C14.67,23.606,19.039,19.658,24.205.2a.267.267,0,1,1,.515.137c-2.5,9.4-4.972,15.76-7.789,20.006-2.617,3.942-5.309,5.837-8.557,7.9A17.527,17.527,0,0,0,.531,39.605.267.267,0,0,1,.267,39.837Z" transform="translate(0 0)"/>
          </g>
          <g id="Group_135389" data-name="Group 135389" transform="matrix(-0.978, -0.208, 0.208, -0.978, 27.919, 46.87)">
            <path id="Path_145737" data-name="Path 145737" d="M.266,35.956a.267.267,0,0,1-.225-.409A20.318,20.318,0,0,1,6.2,29.27c9.244-5.978,10.773-9.415,18.408-29.1a.267.267,0,1,1,.5.193c-3.817,9.842-6.1,15.609-8.594,19.7-2.68,4.39-5.7,6.865-10.022,9.658a19.788,19.788,0,0,0-6,6.114A.267.267,0,0,1,.266,35.956Z" transform="translate(26.969 35.906) rotate(177)"/>
          </g>
          <path id="Path_145435" data-name="Path 145435" d="M1935.187,1110.352s3.754,4.721,5.308,5.223a10.677,10.677,0,0,1-7.526-3.682S1934.009,1110.367,1935.187,1110.352Z" transform="translate(-1897.012 -1081.429)" fill="#fffaf8"/>
          <path id="Path_145432" data-name="Path 145432" d="M1917.43,1120.577s-.523,3.156-1.17,3.745a4.588,4.588,0,0,0,2.417-2.724S1918.1,1120.649,1917.43,1120.577Z" transform="translate(-1872.778 -1090.175)" fill="#fffaf8"/>
          <g id="laptop" transform="translate(41.062 44.67)">
            <g id="Group_135250" data-name="Group 135250">
              <path id="Path_149007" data-name="Path 149007" d="M2220.247,1430.462h25.23l7.589-18.873h-25.191Z" transform="translate(-2212.457 -1411.589)" fill="#ef8035"/>
              <path id="Path_149008" data-name="Path 149008" d="M2285.6,1491.265h-33.316V1492h33.021Z" transform="translate(-2252.287 -1473.127)" fill="#ed7d2b"/>
            </g>
            <path id="Path_149009" data-name="Path 149009" d="M2283.8,1448.966a.874.874,0,0,0-.856-1.2,1.721,1.721,0,0,0-1.546,1.2.874.874,0,0,0,.856,1.2A1.721,1.721,0,0,0,2283.8,1448.966Z" transform="translate(-2257.15 -1439.53)" fill="#fff"/>
          </g>
          <path id="Path_145434" data-name="Path 145434" d="M1957.007,1232.192s-6.875-4.19-6.785-6.624,0-6.9-.647-6.275-2.684,5.643-2.487,7.064,7.138,11.341,8,11.317C1961.213,1237.5,1957.007,1232.192,1957.007,1232.192Z" transform="translate(-1916.972 -1174.563)" fill="#070139"/>
          <path id="Path_145439" data-name="Path 145439" d="M1910.964,1332.09l1.615-.967a4.174,4.174,0,0,1,1.59-.315c.59.084,1.99-.164,2.034.065s-1.346,1.251-1.346,1.251c.836,1.282,3.864,1.518,4.095,2,.279.586-1.089,1.135-1.831,1.453a4.326,4.326,0,0,1-3.736-.223c-.8-.609-2.118-1.41-2.118-1.41Z" transform="translate(-1871.879 -1269.971)" fill="#f09959"/>
          <path id="Path_145440" data-name="Path 145440" d="M1972.96,1120.4s-6.78.443-8.476,3.088-7.14,17.708-6.258,22.319,17.006,10.145,17.006,10.145a3.025,3.025,0,0,0,.714-2.271,4.726,4.726,0,0,0-.516-1.949s-9.894-8.268-9.212-9.914C1968.732,1135.734,1972.96,1120.4,1972.96,1120.4Z" transform="translate(-1935.658 -1090.021)" fill="#3c23b6"/>
          <path id="Path_145433" data-name="Path 145433" d="M1853.828,1194.7s4.772,5.725,4.185,7.8-3.892,2.074-3.892,2.074.617-4.417,0-6.716S1853.116,1194.565,1853.828,1194.7Z" transform="translate(-1803.079 -1153.568)"/>
        </g>
      </g>
      <path id="Path_149013" data-name="Path 149013" d="M2295.828,1456.768s8.052,12.031,25.831,12.436c13.9.318,27.543,4.739,34.384,11.573,1.908,1.906.064,3.548-.522,5.494-.083-.087-22.318,6.349-22.875,5.785s-27.413-13.375-27.413-13.375l-9.406-13Z" transform="translate(-2287.922 -1403.737)" fill="#d2641e" stroke="rgba(0,0,0,0)" stroke-width="1"/>
    </g>
    <path id="Icon_ionic-ios-key" data-name="Icon ionic-ios-key" d="M18.751,10.746A7.135,7.135,0,0,0,16.389,11C13.192,8.282,4.746,1.093,4.1.423A1.274,1.274,0,0,0,3.154,0,2.108,2.108,0,0,0,1.809.606C1.373,1.023-.276,2.8.04,3.133.988,4.106,1.24,4.3,1.632,4.7c.587.6,1.788-.063,2.274.145a.931.931,0,0,1,.657.79,11.806,11.806,0,0,1-.19,1.5,1.58,1.58,0,0,0,.581,1.2,1.329,1.329,0,0,0,.985.55c.569.013,1.32-.809,1.92-.2s-.392,1.5-.316,2.148a2.385,2.385,0,0,0,1.365,1.522c.385.082,1.377-.739,1.939-.613a1.318,1.318,0,0,1,.695.72c.063.291-.436,1.579-.373,1.87a4.442,4.442,0,0,0,.657,1.1,7.115,7.115,0,0,0-.594,3.013,7.687,7.687,0,0,0,7.53,7.833,7.676,7.676,0,0,0,7.517-7.833A7.571,7.571,0,0,0,18.751,10.746Zm1.466,11.491a2.022,2.022,0,1,1,2.022-2.022A2.019,2.019,0,0,1,20.217,22.237Z" transform="translate(-12048.242 906.076) rotate(45)" fill="#070139"/>
    <g id="Group_140340" data-name="Group 140340" transform="translate(-12038.514 867.845)">
      <path id="Path_153148" data-name="Path 153148" d="M2765.89,1269.082c-7.477,0-9.907,11.559-7.851,18.27s4.86,19.2,4.86,19.2l1.869-1.864s-7.1-17.525-5.421-25.355,5.795-9.135,6.542-9.135,0-1.119,0-1.119" transform="translate(-2726.961 -1241.971)" fill="#64be29"/>
      <g id="Group_137502" data-name="Group 137502" transform="translate(0)">
        <g id="Group_137501" data-name="Group 137501">
          <path id="Path_153145" data-name="Path 153145" d="M2776.56,1196.863c-4.3,3.915-2.43,7.83.748,15.1s3.739,34.117,3.739,34.117l-2.617-.373s.374-27.592-3.177-35.049-5.047-11.186-8.225-8.763,9.533-5.034,9.533-5.034" transform="translate(-2743.052 -1179.695)" fill="#64be29"/>
          <path id="Path_153146" data-name="Path 153146" d="M2816.094,1084.265c-.522-2.32-3.623-4.831-7.769-6.96.616,3.422,2.593,9.017.547,10.165-2.759,1.548-.269-6.264-1.333-10.558a51.309,51.309,0,0,0-12.889-4.217c.006.016.011.031.017.047,2.43,6.152,5.607,8.576,4.3,9.508-.984.7-4.19-6.405-8.424-10.048-3.178-.169-5.867.261-7.457,1.517-2.458,1.941-4.108,3.663-1.636,9.574a11.126,11.126,0,0,0,5.368,1.94c5.607.559,8.224.746,4.3,2.61-1.922.913-5.144-.052-7.756-.639.848,1.557,1.889,3.32,3.155,5.328a19.814,19.814,0,0,0,2.627,3.335,8.314,8.314,0,0,0,4.217-.007c2.617-1.119,9.346-4.661,11.028-3.169,1.646,1.46-12.462,2.384-11.485,6.094,6.839,3.93,14.664,2.06,16.047-1.549,1.858-4.846,8.717-5.986,7.145-12.97" transform="translate(-2780.225 -1072.166)" fill="url(#linear-gradient)"/>
          <path id="Path_153147" data-name="Path 153147" d="M2731.052,1337.644c7.477-5.593,15.14-.373,19.066,5.593s1.122,19.389,1.122,19.389-1.5,0-1.5-.559,4.112-15.847-5.608-22.745c-6.081-4.315-10.467-2.237-11.028-.186s2.43,5.779,2.43,5.779Z" transform="translate(-2709.32 -1299.037)" fill="#64be29"/>
          <path id="Path_153150" data-name="Path 153150" d="M2819.378,1336.734c-14.206-5.966-6.721-14.152-19.245-8.746a9.284,9.284,0,0,0-3.033,2.665,9.349,9.349,0,0,0,3.968.318c3.739-.559,2.43,2.424-3.738,3.169a13.886,13.886,0,0,0-2.89.608c-2.939,5.629-4.263,13.037,1.956,15.611a14.123,14.123,0,0,0,4.426.906c1.919-1.521-.469-10.324,2.49-9.109,2.841,1.167-.89,7.546-.379,9.153a41.066,41.066,0,0,0,8.874-1.24,4.41,4.41,0,0,0,2.346-2.693c.934-3.915-5.234-6.339-5.421-9.694-.172-3.085,2.261,6.787,8.706,8.24,5.828-2.715,8.582-6.4,1.941-9.188" transform="translate(-2788.765 -1291.245)" fill="url(#linear-gradient-2)"/>
          <path id="Path_153151" data-name="Path 153151" d="M2587.719,1241.3c-1.5-3.169,2.43-3.915,2.243-1.491-.166,2.147-.184,7.368,2.024,8.789a34.711,34.711,0,0,0,12.907-4.275,1.58,1.58,0,0,0-.165-.972c-1.682-3.356-12.523-6.152-9.159-7.271,2.68-.891,7.375,4.368,11.158,7.016,2.273-1.72,3.8-3.77,3.8-6.058,0-3.1-3.773-6.6-8.653-8.279-2.2.221-4.236,1.418-7.422,3.219-4.707,2.66-3.618-1.641.832-4.194a13.415,13.415,0,0,0-10.5,5.747s.267,1.672-1.507,4.258c-4.84,7.055.746,11.174,7.423,10.906a43.7,43.7,0,0,0-2.979-7.4" transform="translate(-2546.984 -1206.363)" fill="#85b808"/>
          <path id="Path_153152" data-name="Path 153152" d="M2885.725,1350c-3.656,2.817-7.716,6.111-12.7,8.349s-3.988,9.529-3.988,9.529-.748-6.3,3.406-8.452,6.9-4.723,10.053-5.22a45.841,45.841,0,0,0,4.9-.994s-1-1.989-.415-2.735-1.257-.476-1.257-.476" transform="translate(-2863.543 -1311.704)" fill="#74b570"/>
          <path id="Path_153153" data-name="Path 153153" d="M2817.2,1110c13.376,3.563,23.179,12.1,25.007,14.17s1.828,2.652,1.828,2.652l-1.412,2.651-.664-.331s1.08-2.237-1.745-5.138a51.124,51.124,0,0,0-14.871-10.689c-4.071-1.74-8.142-3.314-8.142-3.314" transform="translate(-2813.032 -1104.788)" fill="#74b570"/>
          <path id="Path_153154" data-name="Path 153154" d="M2708.144,1531.91h-5.11a6.571,6.571,0,0,1-6.58-6.562v-11.711h18.27v11.711a6.571,6.571,0,0,1-6.58,6.563" transform="translate(-2667.059 -1452.857)" fill="#0d0f58"/>
          <rect id="Rectangle_31311" data-name="Rectangle 31311" width="18.27" height="1.283" transform="translate(29.396 62.873)" fill="#fff"/>
          <rect id="Rectangle_31312" data-name="Rectangle 31312" width="18.27" height="0.755" transform="translate(29.396 65.212)" fill="#fff"/>
        </g>
      </g>
    </g>
  </g>
</svg>
