<svg width="1125" height="494" viewBox="0 0 1125 494" fill="none" xmlns="http://www.w3.org/2000/svg">
<g clip-path="url(#clip0_239_102)">
<path d="M-22.5212 -961.36C33.6783 -909.276 89.8009 -849.243 159.453 -824.11C237.063 -796.106 305.941 -820.883 360.739 -851.608C415.538 -882.333 468.979 -919.992 543.256 -917.602C633.4 -914.706 735.344 -849.584 797.916 -770.643C860.489 -691.703 888.672 -602.003 897.617 -519.235C903.734 -462.678 902.079 -406.437 926.478 -348.259C967.305 -250.899 1069.72 -171.48 1159.2 -93.2658C1266.26 0.31406 1596.13 20.7526 1623.37 136.495C1644.3 225.383 1387.6 399.116 1319.61 440.416C1251.62 481.716 1147.15 481.28 1049.04 439.276C915.008 381.892 795.279 254.359 661.385 232.517C562.357 216.359 489.481 264.381 421.636 307.033C353.792 349.685 270.302 389.386 170.073 356.975C114.9 339.136 61.8077 300.234 24.6399 254.376C-28.1294 189.264 -48.409 110.149 -27.1888 52.2075C20.1696 -77.0604 210.76 -155.728 106.194 -350.233C20.3927 -509.839 -186.989 -619.809 -272.984 -783.561C-310.907 -855.782 -319.645 -932.028 -296.795 -991.345C-283.721 -1025.27 -258.1 -1055.03 -216.156 -1059.2C-152.876 -1065.49 -78.7311 -1013.45 -22.5212 -961.36Z" fill="url(#paint0_linear_239_102)"/>
</g>
<defs>
<linearGradient id="paint0_linear_239_102" x1="876.303" y1="-738.022" x2="125.909" y2="340.767" gradientUnits="userSpaceOnUse">
<stop stop-color="#AB01FC"/>
<stop offset="1" stop-color="#3325B0"/>
</linearGradient>
<clipPath id="clip0_239_102">
<rect width="1125" height="494" fill="white"/>
</clipPath>
</defs>
</svg>
