<svg width="1125" height="494" viewBox="0 0 1125 494" fill="none" xmlns="http://www.w3.org/2000/svg">
<g clip-path="url(#clip0_239_102)">
<path d="M-96.2684 -881.319C-34.6828 -831.595 26.8184 -774.282 103.146 -750.288C188.193 -723.552 263.673 -747.207 323.723 -776.539C383.773 -805.872 442.336 -841.825 523.732 -839.544C622.515 -836.779 734.228 -774.607 802.798 -699.243C871.367 -623.879 902.251 -538.243 912.054 -459.224C918.757 -405.23 916.943 -351.537 943.681 -295.994C988.42 -203.046 1100.65 -127.225 1198.7 -52.554C1316.03 36.7862 1677.51 56.2987 1707.37 166.797C1730.3 251.658 1448.99 417.52 1374.49 456.949C1299.99 496.378 1185.5 495.962 1077.98 455.86C931.112 401.077 799.908 279.321 653.182 258.469C544.663 243.043 464.803 288.889 390.456 329.609C316.109 370.329 224.618 408.231 114.783 377.288C54.3229 360.258 -3.85754 323.118 -44.5874 279.338C-102.414 217.175 -124.637 141.645 -101.383 86.3286C-49.4861 -37.0828 159.369 -112.186 44.7831 -297.879C-49.2416 -450.254 -276.498 -555.242 -370.734 -711.575C-412.292 -780.525 -421.867 -853.316 -396.827 -909.946C-382.501 -942.336 -354.424 -970.743 -308.461 -974.726C-239.116 -980.732 -157.865 -931.05 -96.2684 -881.319Z" fill="url(#paint0_linear_239_102)"/>
</g>
<defs>
<linearGradient id="paint0_linear_239_102" x1="888.696" y1="-668.099" x2="211.339" y2="449.655" gradientUnits="userSpaceOnUse">
<stop stop-color="#AB01FC"/>
<stop offset="1" stop-color="#3325B0"/>
</linearGradient>
<clipPath id="clip0_239_102">
<rect width="1125" height="494" fill="white"/>
</clipPath>
</defs>
</svg>
