<svg xmlns="http://www.w3.org/2000/svg" xmlns:xlink="http://www.w3.org/1999/xlink" width="111.072" height="80.291" viewBox="0 0 111.072 80.291">
  <defs>
    <linearGradient id="linear-gradient" x1="0.5" x2="0.5" y2="1" gradientUnits="objectBoundingBox">
      <stop offset="0" stop-color="#ab01fc"/>
      <stop offset="1" stop-color="#3325b0"/>
    </linearGradient>
  </defs>
  <path id="Path_comment-quote" data-name="Path comment-quote" d="M107.734,80.291H69.981a3.393,3.393,0,0,1-3.338-3.447V32.879a3.516,3.516,0,0,1,.311-1.451L80.186,2a3.333,3.333,0,0,1,3.027-2H98.057a3.443,3.443,0,0,1,3.024,4.906l-11.118,24.6a3.441,3.441,0,0,0,3.027,4.9h14.745a3.4,3.4,0,0,1,3.338,3.45V76.844A3.393,3.393,0,0,1,107.734,80.291Zm-66.643,0H3.338A3.393,3.393,0,0,1,0,76.844V32.879a3.517,3.517,0,0,1,.311-1.451L13.542,2a3.333,3.333,0,0,1,3.027-2H31.414a3.443,3.443,0,0,1,3.024,4.906L23.32,29.507a3.441,3.441,0,0,0,3.027,4.9H41.091a3.4,3.4,0,0,1,3.338,3.45V76.844A3.393,3.393,0,0,1,41.091,80.291Z" transform="translate(111.072 80.291) rotate(180)" opacity="0.13" fill="url(#linear-gradient)"/>
</svg>
