<svg xmlns="http://www.w3.org/2000/svg" width="24.247" height="22.033" viewBox="0 0 24.247 22.033">
  <g id="blog" transform="translate(4.205 2.033)">
    <path id="Stroke_4" data-name="Stroke 4" d="M1.713,5.74C1.129,1.558-1.159,0-7.137,0-15.1,0-16.1,2.564-16.1,10.266s1,10.266,8.964,10.266c5.978,0,8.579-1.145,8.851-7.1" transform="translate(12.646 -1.283)" fill="none" stroke="#555" stroke-linecap="round" stroke-linejoin="round" stroke-width="1.5"/>
    <path id="Stroke_3" data-name="Stroke 3" d="M10.071.6h0A2.4,2.4,0,0,0,6.682.809S2.313,5.744.8,7.457s-.4,4.077-.4,4.077,2.5.793,4-.9l5.886-6.647A2.4,2.4,0,0,0,10.071.6Z" transform="translate(8.224 3.248)" fill="none" stroke="#555" stroke-linecap="round" stroke-linejoin="round" stroke-width="1.5"/>
    <path id="Stroke_5" data-name="Stroke 5" d="M0,0,3.6,3.183" transform="translate(13.775 5.348)" fill="none" stroke="#555" stroke-linecap="round" stroke-linejoin="round" stroke-width="1.5"/>
    <path id="Path_149570" data-name="Path 149570" d="M-1,0H4" transform="translate(2.655 5.968)" fill="none" stroke="#555" stroke-linecap="round" stroke-width="1.5"/>
    <line id="Line_149" data-name="Line 149" x2="4" transform="translate(1.655 9.968)" fill="none" stroke="#555" stroke-linecap="round" stroke-width="1.5"/>
  </g>
</svg>
