<svg id="noun-scroll-down-2047489" xmlns="http://www.w3.org/2000/svg" width="29.505" height="44.93" viewBox="0 0 29.505 44.93">
  <path id="Path_148174" data-name="Path 148174" d="M199.75,80.769h-2.636a13.561,13.561,0,0,1-13.434-13.638V49.478A13.561,13.561,0,0,1,197.113,35.84h2.636a13.561,13.561,0,0,1,13.434,13.638V67.131A13.56,13.56,0,0,1,199.75,80.769Zm-2.636-42.356a11,11,0,0,0-10.9,11.065V67.131a11,11,0,0,0,10.9,11.065h2.636a11,11,0,0,0,10.9-11.065V49.479a11,11,0,0,0-10.9-11.065Z" transform="translate(-183.679 -35.84)" fill="#fff"/>
  <path id="Path_148175" data-name="Path 148175" d="M286.716,188.835a1.212,1.212,0,0,0-1.775,0l-3.245,3.6V179.366a1.268,1.268,0,1,0-2.535,0v13.124l-3.245-3.6a1.212,1.212,0,0,0-1.775,0,1.267,1.267,0,0,0,0,1.647l5.374,6.021a1.212,1.212,0,0,0,1.775,0l5.425-6.021a1.337,1.337,0,0,0,0-1.7Z" transform="translate(-265.678 -159.007)" fill="#fff"/>
  <path id="Path_148141" data-name="Path 148141" d="M340.14,112a1.35,1.35,0,0,0-1.339,1.352v4.057a1.339,1.339,0,1,0,2.679,0v-4.057A1.35,1.35,0,0,0,340.14,112Z" transform="translate(-325.388 -104.693)" fill="#fff"/>
</svg>
