<svg xmlns="http://www.w3.org/2000/svg" width="20.019" height="17.278" viewBox="0 0 20.019 17.278">
  <path id="Icon_awesome-twitter" data-name="Icon awesome-twitter" d="M17.962,7.687c.013.189.013.378.013.567,0,5.764-4.128,12.405-11.674,12.405A11.1,11.1,0,0,1,0,18.7a7.992,7.992,0,0,0,.991.054,7.915,7.915,0,0,0,5.094-1.863,4.15,4.15,0,0,1-3.836-3.024,4.876,4.876,0,0,0,.775.067,4.1,4.1,0,0,0,1.08-.148A4.3,4.3,0,0,1,.813,9.509V9.455a3.95,3.95,0,0,0,1.855.553A4.434,4.434,0,0,1,.838,6.377a4.536,4.536,0,0,1,.559-2.2A11.451,11.451,0,0,0,9.857,8.74a5.218,5.218,0,0,1-.1-1,4.236,4.236,0,0,1,4.1-4.36,3.985,3.985,0,0,1,3,1.377A7.8,7.8,0,0,0,19.46,3.7a4.311,4.311,0,0,1-1.8,2.4,7.847,7.847,0,0,0,2.363-.675,9.142,9.142,0,0,1-2.058,2.254Z" transform="translate(0 -3.381)" fill="#fff"/>
</svg>
