<svg xmlns="http://www.w3.org/2000/svg" width="26.76" height="20.052" viewBox="0 0 26.76 20.052">
  <path id="Icon_awesome-youtube" data-name="Icon awesome-youtube" d="M27.25,7.637A3.482,3.482,0,0,0,24.885,5.1C22.8,4.5,14.43,4.5,14.43,4.5s-8.368,0-10.455.6A3.482,3.482,0,0,0,1.609,7.637a40.008,40.008,0,0,0-.559,6.909,40.008,40.008,0,0,0,.559,6.909,3.425,3.425,0,0,0,2.366,2.5c2.087.6,10.455.6,10.455.6s8.368,0,10.455-.6a3.425,3.425,0,0,0,2.366-2.5,40.008,40.008,0,0,0,.559-6.909,40.008,40.008,0,0,0-.559-6.909ZM11.693,18.787V10.306l6.994,4.24-6.994,4.24Z" transform="translate(-1.05 -4.5)" fill="#fff"/>
</svg>
