<svg width="78" height="86" viewBox="0 0 78 86" fill="none" xmlns="http://www.w3.org/2000/svg">
<path opacity="0.2" d="M25.1367 25.7998C25.1367 7.57593 31.5355 1.5 50.7279 1.5C69.9203 1.5 76.319 7.57593 76.319 25.7998C76.319 44.0237 69.9193 50.0996 50.7279 50.0996C31.5365 50.0996 25.1367 44.0237 25.1367 25.7998Z" fill="url(#paint0_linear_3343_2789)"/>
<path d="M12.3809 54.4782C12.3809 54.4782 13.4703 73.408 40.1351 73.3233C66.8011 73.2386 66.6523 49.6797 66.6523 49.6797" stroke="#3C23B6" stroke-width="4.5" stroke-linecap="round"/>
<path d="M5.08008 53.3833C5.08008 53.3833 9.40363 45.9766 12.3828 45.9766C15.3632 45.9766 19.6867 53.3833 19.6867 53.3833" stroke="#3C23B6" stroke-width="4.5" stroke-linecap="round" stroke-linejoin="round"/>
<path d="M65.4883 31.5183C65.4883 31.5183 64.3988 12.5875 37.734 12.6722C11.0692 12.7569 11.2168 36.3158 11.2168 36.3158" stroke="#3C23B6" stroke-width="4.5" stroke-linecap="round"/>
<path d="M72.9204 32.6094C72.9204 32.6094 68.5956 40.0162 65.6164 40.0162C62.6361 40.0162 58.3125 32.6094 58.3125 32.6094" stroke="#3C23B6" stroke-width="4.5" stroke-linecap="round" stroke-linejoin="round"/>
<path d="M53.0646 35.7975L51.8861 39.8179H29.4277L30.6062 35.7975H53.0646ZM42.529 62.9001L29.8437 47.3734L29.7742 44.462H36.0827C37.7235 44.462 39.1204 44.231 40.2757 43.7689C41.431 43.2953 42.3155 42.5905 42.9279 41.6548C43.5403 40.7074 43.8453 39.5175 43.8453 38.0849C43.8453 35.9708 43.2109 34.313 41.9397 33.1115C40.6685 31.8985 38.7166 31.2919 36.0827 31.2919H29.4277L30.6062 27.4102H36.0827C38.9008 27.4102 41.2114 27.8781 43.0145 28.8139C44.8274 29.7381 46.1681 31.0089 47.0343 32.6263C47.9127 34.2321 48.3518 36.0516 48.3518 38.0849C48.3518 39.9218 47.9468 41.6143 47.138 43.1623C46.3413 44.6988 45.0592 45.935 43.2914 46.8707C41.5359 47.8066 39.2131 48.2744 36.3254 48.2744H36.2205L47.9359 62.623V62.9001H42.529ZM53.0646 27.4102L51.8861 31.4306L34.2112 31.2919L35.3897 27.4102H53.0646Z" fill="#3C23B6"/>
<defs>
<linearGradient id="paint0_linear_3343_2789" x1="25.1367" y1="1.5" x2="73.6713" y2="52.6138" gradientUnits="userSpaceOnUse">
<stop stop-color="#AB01FC"/>
<stop offset="1" stop-color="#3325B0"/>
</linearGradient>
</defs>
</svg>
