<?xml version="1.0" encoding="utf-8"?>
<!-- Generator: Adobe Illustrator 25.2.0, SVG Export Plug-In . SVG Version: 6.00 Build 0)  -->
<svg version="1.1" id="Layer_1" xmlns="http://www.w3.org/2000/svg" xmlns:xlink="http://www.w3.org/1999/xlink" x="0px" y="0px"
	 viewBox="0 0 27.5 28.2" style="enable-background:new 0 0 27.5 28.2;" xml:space="preserve">
<style type="text/css">
	.st0{fill:none;stroke:#555555;stroke-width:1.5;stroke-linecap:round;}
	.st1{fill:#555555;}
</style>
<g>
	<path class="st0" d="M3.7,18.4c0,0,0.4,7.1,10.4,7.1c10,0,10-8.9,10-8.9"/>
	<path class="st0" d="M1,18c0,0,1.6-2.8,2.7-2.8c1.1,0,2.7,2.8,2.7,2.8"/>
	<path class="st0" d="M23.7,9.8c0,0-0.4-7.1-10.4-7.1c-10,0-10,8.9-10,8.9"/>
	<path class="st0" d="M26.5,10.2c0,0-1.6,2.8-2.7,2.8c-1.1,0-2.7-2.8-2.7-2.8"/>
	<path class="st1" d="M19.1,11.4l-0.4,1.5h-8.5l0.4-1.5H19.1z M15.1,21.6l-4.8-5.8l0-1.1h2.4c0.6,0,1.1-0.1,1.6-0.3
		c0.4-0.2,0.8-0.4,1-0.8c0.2-0.4,0.3-0.8,0.3-1.3c0-0.8-0.2-1.4-0.7-1.9c-0.5-0.5-1.2-0.7-2.2-0.7h-2.5l0.4-1.5h2.1
		c1.1,0,1.9,0.2,2.6,0.5c0.7,0.3,1.2,0.8,1.5,1.4c0.3,0.6,0.5,1.3,0.5,2.1c0,0.7-0.2,1.3-0.5,1.9c-0.3,0.6-0.8,1-1.4,1.4
		c-0.7,0.4-1.5,0.5-2.6,0.5h0l4.4,5.4v0.1H15.1z M19.1,8.2l-0.4,1.5L12,9.7l0.4-1.5H19.1z"/>
</g>
</svg>
