<svg xmlns="http://www.w3.org/2000/svg" width="20.24" height="20.204" viewBox="0 0 20.24 20.204">
  <path id="Icon_awesome-instagram" data-name="Icon awesome-instagram" d="M10.117,7.16A5.18,5.18,0,1,0,15.3,12.34,5.176,5.176,0,0,0,10.117,7.16Zm0,8.548A3.368,3.368,0,1,1,13.49,12.34a3.376,3.376,0,0,1-3.373,3.368Zm6.61-8.76a1.21,1.21,0,1,1-1.21-1.208A1.206,1.206,0,0,1,16.727,6.948Zm3.436,1.226a5.974,5.974,0,0,0-1.635-4.233,6.033,6.033,0,0,0-4.24-1.632c-1.671-.095-6.678-.095-8.349,0A6.024,6.024,0,0,0,1.7,3.936,5.994,5.994,0,0,0,.066,8.169c-.095,1.668-.095,6.668,0,8.336A5.974,5.974,0,0,0,1.7,20.739,6.041,6.041,0,0,0,5.94,22.37c1.671.095,6.678.095,8.349,0a5.994,5.994,0,0,0,4.24-1.632,6.013,6.013,0,0,0,1.635-4.233c.095-1.668.095-6.663,0-8.331ZM18.005,18.3a3.412,3.412,0,0,1-1.924,1.921c-1.332.527-4.493.406-5.965.406s-4.637.117-5.965-.406A3.412,3.412,0,0,1,2.229,18.3c-.528-1.33-.406-4.486-.406-5.955S1.7,7.71,2.229,6.384A3.412,3.412,0,0,1,4.152,4.464c1.332-.527,4.493-.406,5.965-.406s4.637-.117,5.965.406a3.412,3.412,0,0,1,1.924,1.921c.528,1.33.406,4.486.406,5.955S18.533,16.97,18.005,18.3Z" transform="translate(0.005 -2.238)" fill="#fff"/>
</svg>
