<svg xmlns="http://www.w3.org/2000/svg" xmlns:xlink="http://www.w3.org/1999/xlink" width="78.819" height="67.877" viewBox="0 0 78.819 67.877">
  <defs>
    <linearGradient id="linear-gradient" x1="0.5" x2="0.5" y2="1" gradientUnits="objectBoundingBox">
      <stop offset="0" stop-color="#ab01fc"/>
      <stop offset="1" stop-color="#3325b0"/>
    </linearGradient>
  </defs>
  <g id="Group_140428" data-name="Group 140428" transform="translate(-0.074 -56.401)">
    <g id="Group_136296" data-name="Group 136296" transform="translate(0.074 72.058)">
      <path id="Subtraction_25" data-name="Subtraction 25" d="M37.354,52.22A8.38,8.38,0,0,1,34.88,51.8,14.669,14.669,0,0,1,29.7,48.636C25.117,44.746,21.4,41.462,18.023,38.3a48.9,48.9,0,0,1-3.841-4.194l-.265-.312c-.3-.346-.6-.7-.893-1.04a1.061,1.061,0,0,1-.151-.241l-.01-.025c-.033-.069-.081-.148-.129-.236-.033.081-.056.146-.081.2-.015.036-.023.067-.038.094-.023.062-.043.11-.061.156-.661,2.068-.684,2.087-2.64,2.087-.666,0-1.33,0-2,0H7.778c-.712,0-1.421,0-2.132,0-1.4,0-2.531.01-3.561.03H1.994A2,2,0,0,1,0,33.616V1.305C.379.414.858,0,1.519,0c.043,0,.091,0,.139.006C6.528.4,10.9.844,15.156,2.288A9.776,9.776,0,0,1,17.279,3.3c1.168.74,1.411,1.316,1.191,2.8-.053.337-.061.59.058.733a.7.7,0,0,0,.55.158h.038c1.5-.017,3.081-.024,4.989-.024,1.479,0,2.955,0,4.436.009l1.595,0a1.623,1.623,0,0,0,1.131-.419A10.323,10.323,0,0,1,38,3.694a8.585,8.585,0,0,1,.977.056,16.027,16.027,0,0,1,5.181,1.709c2.705,1.351,5.5,2.615,7.876,3.673a1.161,1.161,0,0,0,.4.127.2.2,0,0,0,.144-.053.874.874,0,0,0,.1-.544,1.866,1.866,0,0,1,1.358-1.78,38.506,38.506,0,0,1,8.31-2.476,60.844,60.844,0,0,1,9.88-.941h.086a1.9,1.9,0,0,1,1.966,1.27V37.044a1.96,1.96,0,0,1-1.978,1.27h-.081c-1.007-.012-2.1-.017-3.447-.017-.77,0-1.534,0-2.3,0h-.177l-2.117,0c-1.671,0-1.961-.245-2.4-2.016-.109-.456-.242-.669-.421-.669-.129,0-.29.105-.49.321a.679.679,0,0,1-.177.143A2.9,2.9,0,0,0,59.1,38.916a5.252,5.252,0,0,1-4.7,5.065.979.979,0,0,0-.815.6,5.582,5.582,0,0,1-5.153,3.182c-.179,0-.373-.007-.555-.02q-.08-.007-.151-.007a.561.561,0,0,0-.575.4,5.774,5.774,0,0,1-4.838,3.28,3.8,3.8,0,0,1-1.4-.262.532.532,0,0,0-.189-.042.472.472,0,0,0-.278.1A5.118,5.118,0,0,1,37.354,52.22ZM19.091,10.442c-1.181,0-1.181,0-1.428,1.279-.053.286-.109.57-.167.854l-.005.014h0c-.056.289-.114.579-.169.871-.931,4.655-2.047,9.146-3.44,14.457l-.028.088a.821.821,0,0,0,.1.874c.744.806,1.466,1.666,2.2,2.549a45.752,45.752,0,0,0,3.432,3.794c3.8,3.611,7.977,7.285,13.125,11.562a8.987,8.987,0,0,0,3.389,1.77l.066.018a3.848,3.848,0,0,0,1,.176,1.489,1.489,0,0,0,.555-.092.85.85,0,0,0-.313-.48c-.028-.023-.05-.046-.076-.07l-.033-.033c-1.784-1.964-3.652-4.116-5.865-6.774a1.872,1.872,0,0,1,.02-2.548,1.384,1.384,0,0,1,1.007-.449,1.635,1.635,0,0,1,1.2.592c.255.286.5.578.749.878.146.178.3.357.452.534.179.208.361.417.535.626.144.167.285.335.429.5l.028.034c1.719,2.011,3.5,4.09,5.413,5.94a1.518,1.518,0,0,0,1.088.5,1.751,1.751,0,0,0,.787-.207,3.143,3.143,0,0,0,1.307-1.248.652.652,0,0,0-.086-.941c-.785-.766-1.5-1.578-2.095-2.271-1.529-1.766-3.086-3.584-4.631-5.4a1.841,1.841,0,0,1-.4-1.862,1.523,1.523,0,0,1,1.282-1.146,1.282,1.282,0,0,1,.2-.016,1.783,1.783,0,0,1,1.312.8l1.052,1.258c1.883,2.243,3.828,4.563,5.951,6.651a2.383,2.383,0,0,0,1.691.741,2.468,2.468,0,0,0,1.86-.915.813.813,0,0,0-.008-1.32c-2.418-2.551-4.749-5.282-7.01-7.922l-.033-.042c-.389-.456-.777-.912-1.171-1.367a1.9,1.9,0,0,1-.124-2.6,1.388,1.388,0,0,1,1.04-.528,1.8,1.8,0,0,1,1.31.723c.409.466.825.948,1.211,1.4l.3.346c.225.258.442.514.666.769l.023.026c.3.337.585.675.878,1.012,1.653,1.9,3.528,4.061,5.408,6.062a1.538,1.538,0,0,0,1.078.586,1.21,1.21,0,0,0,.28-.034,2.02,2.02,0,0,0,1.34-1.012,2.44,2.44,0,0,0,.124-2.026,6.786,6.786,0,0,0-.946-1.647,29.247,29.247,0,0,0-3.084-3.54c-2.095-2.131-4.323-4.158-6.473-6.118l-.053-.048C43.1,24.04,40.78,21.931,38.61,19.7a.511.511,0,0,0-.368-.189.811.811,0,0,0-.333.1c-.124.061-.252.126-.376.191l-.119.061a6.645,6.645,0,0,1-1.519.648,3.03,3.03,0,0,0-1.708,1.207,7.226,7.226,0,0,1-5.726,3.056,7.832,7.832,0,0,1-1.34-.12c-2.892-.518-4.293-2.4-4.04-5.443a9.583,9.583,0,0,1,.646-2.66,20.883,20.883,0,0,1,3.631-6.108Zm51.46-3.45-.1,0A47.219,47.219,0,0,0,57.956,9.1a4.468,4.468,0,0,1-.472.12c-.384.085-.782.173-.929.433-.172.318.045.714.25,1.1l.02.033a4,4,0,0,1,.217.455c2.413,6.523,4.749,13.779,7.356,22.837.146.558.356.737.845.737h.043c.992-.023,1.89-.035,2.753-.035s1.676.011,2.468.035h.073c.545,0,.631-.241.631-.819-.015-3.26-.015-6.577-.015-9.785,0-.545.005-1.09.005-1.634V20.939L71.2,18.555c0-3.52,0-7.16.03-10.742C71.227,7.176,71.078,6.992,70.551,6.992ZM38.7,15.683a1.539,1.539,0,0,1,1.146.56c1.87,2.031,3.917,3.9,5.892,5.7.2.182.4.366.6.551.444.409.9.825,1.343,1.238.409.379.823.761,1.229,1.136l.437.4a58.867,58.867,0,0,1,8.159,8.561c.1.138.179.195.28.195a.506.506,0,0,0,.247-.124l.05-.04.472-.361.028-.019c.49-.381,1.017-.785,1.552-1.165a.65.65,0,0,0,.27-.849c-2-6.6-3.755-12-5.529-17.015a1.047,1.047,0,0,0-.623-.706C49.908,12.015,45.638,10,42.04,8.252a9.539,9.539,0,0,0-3.99-1.074,6.457,6.457,0,0,0-3.821,1.31A25.307,25.307,0,0,0,28.1,14.882a11.775,11.775,0,0,0-1.915,4.43c-.194,1.1.005,1.464.974,1.77a4.132,4.132,0,0,0,1.32.239,3.186,3.186,0,0,0,.462-.034,5.322,5.322,0,0,0,3.556-2.7,1.09,1.09,0,0,0,.066-.108c.02-.027.038-.055.058-.083l.005-.012c.255-.412.527-.838.977-.882a9.521,9.521,0,0,0,3.112-1.077l.018-.009.081-.04c.381-.182.775-.37,1.163-.532A1.85,1.85,0,0,1,38.7,15.683ZM5.186,31.318c.288,0,.573,0,.863.006H7.4a6.428,6.428,0,0,1,.689.051H8.1a6.776,6.776,0,0,0,.691.05,1.339,1.339,0,0,0,.8-.2,2.421,2.421,0,0,0,.616-1.558v-.02c.043-.248.091-.534.162-.786A190.292,190.292,0,0,0,15.136,7.925l.015-.094.005-.013c.275-1.862.285-1.9-1.438-2.4a56.822,56.822,0,0,0-9.925-1.76,2.257,2.257,0,0,0-.237-.015c-.384,0-.49.157-.49.731.015,3.261.015,6.577.015,9.784,0,.544-.005,1.087-.005,1.631v3.28c0,.55.005,1.1.005,1.65,0,3.244,0,6.6-.015,9.9,0,.565.124.728.555.728l.078,0C4.154,31.327,4.638,31.318,5.186,31.318Z" transform="translate(0 0)" fill="#3c23b6"/>
    </g>
    <path id="Stroke_3" data-name="Stroke 3" d="M0,24.9C0,6.226,6.486,0,25.94,0s25.94,6.226,25.94,24.9S45.393,49.8,25.94,49.8,0,43.574,0,24.9Z" transform="translate(27.014 56.401)" opacity="0.2" fill="url(#linear-gradient)"/>
  </g>
</svg>
