<svg width="78" height="85" viewBox="0 0 78 85" fill="none" xmlns="http://www.w3.org/2000/svg">
<path d="M26.695 82.089C13.9172 82.089 3 80.1811 3 72.5379C3 64.8947 13.8521 58.0078 26.695 58.0078C39.4738 58.0078 50.387 64.8293 50.387 72.4696C50.387 80.1099 39.5439 82.089 26.695 82.089Z" stroke="#3C23B6" stroke-width="4.5" stroke-linecap="round" stroke-linejoin="round"/>
<path d="M26.6963 47.1074C30.705 47.0933 34.5443 45.5063 37.3714 42.6948C40.1985 39.8834 41.7823 36.0771 41.7752 32.1116C41.7681 28.1461 40.1706 24.3455 37.3334 21.5439C34.4963 18.7424 30.6513 17.1689 26.6425 17.1689C22.6337 17.1689 18.7887 18.7424 15.9515 21.5439C13.1144 24.3455 11.5169 28.1461 11.5098 32.1116C11.5027 36.0771 13.0865 39.8834 15.9136 42.6948C18.7406 45.5063 22.58 47.0933 26.5887 47.1074H26.6963Z" stroke="#3C23B6" stroke-width="4.5" stroke-linecap="round" stroke-linejoin="round"/>
<path d="M51.8992 42.9879C54.3311 42.3466 56.481 40.9291 58.0151 38.9554C59.5492 36.9817 60.3818 34.5622 60.3835 32.0725C60.3823 29.469 59.4726 26.9456 57.8081 24.9288C56.1437 22.912 53.8265 21.5253 51.248 21.0029" stroke="#3C23B6" stroke-width="4.5" stroke-linecap="round" stroke-linejoin="round"/>
<path d="M54.1953 55.2734C61.114 55.2734 67.0205 59.906 67.0205 64.0409C67.0205 66.4806 64.9842 68.9799 61.8904 69.7011" stroke="#3C23B6" stroke-width="4.5" stroke-linecap="round" stroke-linejoin="round"/>
<path opacity="0.2" d="M25.1367 25.2998C25.1367 7.07593 31.5355 1 50.7279 1C69.9203 1 76.319 7.07593 76.319 25.2998C76.319 43.5237 69.9193 49.5996 50.7279 49.5996C31.5365 49.5996 25.1367 43.5237 25.1367 25.2998Z" fill="url(#paint0_linear_239_127)"/>
<defs>
<linearGradient id="paint0_linear_239_127" x1="25.1367" y1="1" x2="73.6713" y2="52.1138" gradientUnits="userSpaceOnUse">
<stop stop-color="#AB01FC"/>
<stop offset="1" stop-color="#3325B0"/>
</linearGradient>
</defs>
</svg>
