<svg xmlns="http://www.w3.org/2000/svg" width="35.456" height="25.22" viewBox="0 0 35.456 25.22">
  <g id="Group_136293" data-name="Group 136293" transform="translate(0.426 -71.558)">
    <g id="Group_136296" data-name="Group 136296" transform="translate(0.074 72.058)">
      <path id="Subtraction_25" data-name="Subtraction 25" d="M17.325,24.22a3.887,3.887,0,0,1-1.147-.2,6.8,6.8,0,0,1-2.4-1.466c-2.126-1.8-3.847-3.327-5.416-4.793A22.683,22.683,0,0,1,6.578,15.82l-.123-.145c-.137-.16-.276-.323-.414-.482a.492.492,0,0,1-.07-.112l0-.011c-.015-.032-.037-.069-.06-.109-.015.038-.026.068-.037.093s-.011.031-.018.044c-.011.029-.02.051-.028.073-.307.959-.317.968-1.224.968l-.926,0H3.607l-.989,0c-.65,0-1.174,0-1.652.014H.925A.926.926,0,0,1,0,15.592V.605C.176.192.4,0,.7,0L.769,0A25.575,25.575,0,0,1,7.03,1.061a4.534,4.534,0,0,1,.984.47,1.05,1.05,0,0,1,.552,1.3c-.025.156-.028.274.027.34a.323.323,0,0,0,.255.073h.018c.7-.008,1.429-.011,2.314-.011.686,0,1.371,0,2.058,0l.74,0a.753.753,0,0,0,.524-.195,4.788,4.788,0,0,1,3.125-1.331,3.982,3.982,0,0,1,.453.026,7.433,7.433,0,0,1,2.4.792c1.255.627,2.553,1.213,3.653,1.7a.539.539,0,0,0,.187.059.091.091,0,0,0,.067-.025.405.405,0,0,0,.048-.252.865.865,0,0,1,.63-.826,17.86,17.86,0,0,1,3.854-1.148A28.22,28.22,0,0,1,33.5,1.607h.04a.881.881,0,0,1,.912.589V17.181a.909.909,0,0,1-.918.589H33.5c-.467-.005-.976-.008-1.6-.008l-1.066,0H29.772c-.775,0-.909-.114-1.114-.935-.05-.212-.112-.31-.2-.31-.06,0-.135.049-.227.149a.315.315,0,0,1-.082.066,1.343,1.343,0,0,0-.74,1.315A2.436,2.436,0,0,1,25.235,20.4a.454.454,0,0,0-.378.28,2.589,2.589,0,0,1-2.39,1.476c-.083,0-.173,0-.258-.009q-.037,0-.07,0a.26.26,0,0,0-.267.184,2.678,2.678,0,0,1-2.244,1.521,1.764,1.764,0,0,1-.65-.121.247.247,0,0,0-.088-.019.219.219,0,0,0-.129.048A2.374,2.374,0,0,1,17.325,24.22ZM8.855,4.843c-.548,0-.548,0-.662.593-.025.133-.05.264-.077.4l0,.006h0c-.026.134-.053.269-.078.4-.432,2.159-.949,4.242-1.6,6.705l-.013.041a.381.381,0,0,0,.047.405c.345.374.68.773,1.022,1.182a21.22,21.22,0,0,0,1.592,1.76c1.764,1.675,3.7,3.379,6.088,5.362a4.168,4.168,0,0,0,1.572.821l.03.008a1.784,1.784,0,0,0,.465.082.691.691,0,0,0,.258-.043.394.394,0,0,0-.145-.223c-.013-.011-.023-.021-.035-.032L17.3,22.3c-.828-.911-1.694-1.909-2.72-3.142a.868.868,0,0,1,.009-1.182.642.642,0,0,1,.467-.208.758.758,0,0,1,.557.275c.118.132.233.268.348.407.068.083.139.166.21.248s.167.193.248.29l.2.233.013.016c.8.933,1.623,1.9,2.511,2.755a.7.7,0,0,0,.5.233.812.812,0,0,0,.365-.1,1.458,1.458,0,0,0,.606-.579.3.3,0,0,0-.04-.437c-.364-.355-.7-.732-.971-1.053-.709-.819-1.431-1.662-2.148-2.506a.854.854,0,0,1-.186-.864.706.706,0,0,1,.595-.531.6.6,0,0,1,.094-.008.827.827,0,0,1,.609.373l.488.583c.873,1.04,1.776,2.116,2.76,3.085a1.105,1.105,0,0,0,.784.344,1.145,1.145,0,0,0,.863-.425.377.377,0,0,0,0-.612c-1.121-1.183-2.2-2.45-3.252-3.674L20.2,15.8c-.18-.211-.361-.423-.543-.634a.879.879,0,0,1-.057-1.205.644.644,0,0,1,.482-.245.835.835,0,0,1,.607.335c.19.216.383.44.562.65l.138.16c.1.119.2.239.309.357l.011.012c.137.156.272.313.407.47.767.883,1.636,1.883,2.508,2.812a.713.713,0,0,0,.5.272.561.561,0,0,0,.13-.016.937.937,0,0,0,.622-.47,1.132,1.132,0,0,0,.057-.94,3.148,3.148,0,0,0-.439-.764,13.565,13.565,0,0,0-1.43-1.642c-.971-.988-2-1.929-3-2.838l-.025-.022c-1.042-.946-2.119-1.924-3.125-2.958a.237.237,0,0,0-.171-.088.376.376,0,0,0-.155.045c-.057.028-.117.058-.174.089l-.055.028a3.082,3.082,0,0,1-.7.3,1.405,1.405,0,0,0-.792.56A3.352,3.352,0,0,1,13.2,11.49a3.633,3.633,0,0,1-.622-.056A2.113,2.113,0,0,1,10.705,8.91,4.445,4.445,0,0,1,11,7.676a9.686,9.686,0,0,1,1.684-2.833Zm23.868-1.6h-.048a21.9,21.9,0,0,0-5.794.978,2.072,2.072,0,0,1-.219.056c-.178.04-.363.08-.431.2-.08.148.021.331.116.509L26.356,5a1.855,1.855,0,0,1,.1.211c1.119,3.025,2.2,6.391,3.412,10.592.068.259.165.342.392.342h.02c.46-.011.877-.016,1.277-.016s.777.005,1.145.016h.034c.253,0,.293-.112.293-.38-.007-1.512-.007-3.051-.007-4.538,0-.253,0-.505,0-.758V9.712l0-1.106c0-1.633,0-3.321.014-4.982C33.036,3.328,32.967,3.243,32.722,3.243ZM17.95,7.274a.714.714,0,0,1,.531.26c.867.942,1.817,1.807,2.733,2.644l.28.256c.206.19.418.383.623.574l.57.527.2.186a27.3,27.3,0,0,1,3.784,3.971c.046.064.083.09.13.09a.235.235,0,0,0,.115-.058l.023-.018.219-.167.013-.009c.227-.176.472-.364.72-.54a.3.3,0,0,0,.125-.394c-.927-3.059-1.742-5.567-2.564-7.892a.486.486,0,0,0-.289-.327c-2.017-.8-4-1.739-5.666-2.548a4.424,4.424,0,0,0-1.85-.5,3,3,0,0,0-1.772.607A11.738,11.738,0,0,0,13.035,6.9a5.461,5.461,0,0,0-.888,2.055c-.09.51,0,.679.452.821a1.917,1.917,0,0,0,.612.111,1.478,1.478,0,0,0,.214-.016,2.469,2.469,0,0,0,1.649-1.253.506.506,0,0,0,.03-.05l.027-.038,0-.005c.118-.191.245-.389.453-.409a4.416,4.416,0,0,0,1.443-.5l.008,0,.037-.019c.177-.084.359-.172.54-.247A.858.858,0,0,1,17.95,7.274ZM2.405,14.526l.4,0h.625a2.981,2.981,0,0,1,.32.024h.007a3.143,3.143,0,0,0,.321.023.621.621,0,0,0,.371-.095,1.123,1.123,0,0,0,.286-.723V13.75c.02-.115.042-.248.075-.364A88.26,88.26,0,0,0,7.02,3.676l.007-.044,0-.006c.128-.863.132-.88-.667-1.113a26.355,26.355,0,0,0-4.6-.816,1.047,1.047,0,0,0-.11-.007c-.178,0-.227.073-.227.339.007,1.513.007,3.051.007,4.538,0,.252,0,.5,0,.756V8.845c0,.255,0,.51,0,.765,0,1.5,0,3.061-.007,4.591,0,.262.057.338.258.338h.036C1.927,14.53,2.151,14.526,2.405,14.526Z" transform="translate(0 0)" fill="#555" stroke="rgba(0,0,0,0)" stroke-width="1"/>
    </g>
  </g>
</svg>
