<svg width="122" height="122" viewBox="0 0 122 122" fill="none" xmlns="http://www.w3.org/2000/svg">
<circle cx="61.5" cy="61.5" r="60.5" fill="white"/>
<path d="M61.345 88.2626C49.832 88.2626 40 86.5256 40 79.5666C40 72.6076 49.769 66.1826 61.345 66.1826C72.857 66.1826 82.689 72.5446 82.689 79.5036C82.689 86.4626 72.92 88.2626 61.345 88.2626Z" stroke="#3C23B6" stroke-width="5" stroke-linecap="round" stroke-linejoin="round"/>
<path d="M61.3226 59.5395C64.8957 59.5932 68.3438 58.2257 70.9088 55.7376C73.4738 53.2495 74.9456 49.8446 75.0006 46.2715C74.9456 42.6983 73.4739 39.2931 70.9089 36.8047C68.344 34.3163 64.8959 32.9483 61.3226 33.0015C57.7489 32.9481 54.3002 34.3158 51.7346 36.8042C49.169 39.2925 47.6964 42.6978 47.6406 46.2715C47.6614 48.0347 48.0292 49.7766 48.7232 51.3976C49.4172 53.0187 50.4236 54.4871 51.6851 55.7192C52.9466 56.9512 54.4384 57.9228 56.0754 58.5783C57.7124 59.2337 59.4624 59.5604 61.2256 59.5395H61.3226Z" stroke="#3C23B6" stroke-width="5" stroke-linecap="round" stroke-linejoin="round"/>
</svg>
