<svg xmlns="http://www.w3.org/2000/svg" width="31.478" height="30.094" viewBox="0 0 31.478 30.094">
  <g id="Group_136347" data-name="Group 136347" transform="translate(17515.936 258.922)">
    <path id="Path_149379" data-name="Path 149379" d="M4.706,7.672c.939.174,1.854.3,2.742.524a11.244,11.244,0,0,1,1.8.7c1.108.5,2.18,1.08,3.308,1.526a7.179,7.179,0,0,0,5.326.02,43.477,43.477,0,0,0,6.3-3.048q2.079-1.187,4.1-2.482a9.488,9.488,0,0,0,1.384-1.2c.118-.113.231-.393.172-.49a.679.679,0,0,0-.511-.291,5.494,5.494,0,0,0-1.336.216A26.533,26.533,0,0,0,23.727,5.1c-.677.349-2.335,1.062-3.01,1.415-.24.125-.143.031-.345-.158-.181-.169-.323-.382-.216-.6a6.229,6.229,0,0,1,.987-.521c1.929-.963,3.851-1.942,5.8-2.865A5,5,0,0,1,29.4,1.834a1.609,1.609,0,0,1,1.554,1.258,1.329,1.329,0,0,1-.317,1.126A6.509,6.509,0,0,1,29.4,5.43q-2.225,1.463-4.523,2.813a57.007,57.007,0,0,1-5.836,2.928,9.248,9.248,0,0,1-8.145-.245c-.619-.3-1.251-.578-1.843-.923a9.754,9.754,0,0,0-3.9-1.138c-.136-.015-.272-.028-.45-.046-.007.122-.016.233-.018.344a.838.838,0,0,1-.909.91q-1.445,0-2.89,0A.814.814,0,0,1,0,9.209Q0,5.1,0,.985A.926.926,0,0,1,.9-.007S1.605-.082,2.28-.083H3.445c.766,0,1.1.354,1.284,1.139C5.242.9,5.756.748,6.265.584A10.815,10.815,0,0,1,9.432-.007a5.555,5.555,0,0,1,2.858.714c.368.208.719.447,1.089.651.914.5,1.817,1.035,2.758,1.486a13.078,13.078,0,0,1,3.891,2.523,3.969,3.969,0,0,1,.829,1.22,1.5,1.5,0,0,1-1.442,2.107A7.074,7.074,0,0,1,17.1,8.187c-1.446-.472-2.879-.992-4.338-1.418a19,19,0,0,0-2.338-.414.523.523,0,0,1-.514-.468c-.052-.4.233-.644.687-.6A15.088,15.088,0,0,1,14.071,6c1.323.442,2.637.913,3.965,1.34A6.409,6.409,0,0,0,19.4,7.6a.425.425,0,0,0,.439-.652,3.431,3.431,0,0,0-.6-.845A9.244,9.244,0,0,0,16.3,4.138a23.764,23.764,0,0,1-3.977-2.164,5.464,5.464,0,0,0-4.773-.632c-.9.243-1.786.52-2.674.8a.318.318,0,0,0-.186.227c-.008,1.757,0,3.514,0,5.271a.072.072,0,0,0,.014.037M3.6,1.19c-.784,0-1.514.008-2.243,0-.225,0-.287.073-.286.291q.009,3.619,0,7.238c0,.224.074.292.292.288.614-.012,1.229-.025,1.841,0,.331.015.405-.092.4-.408C3.6,6.261,3.6,3.922,3.6,1.583V1.19" transform="translate(-17515.686 -241.074)" fill="#555" stroke="#555" stroke-width="0.5"/>
    <text id="_" data-name="₹" transform="translate(-17503.186 -244.922)" fill="#555" font-size="13" font-family="SegoeUI-Semibold, Segoe UI" font-weight="600"><tspan x="0" y="0">₹</tspan></text>
    <g id="Ellipse_1338" data-name="Ellipse 1338" transform="translate(-17507.686 -257.922)" fill="none" stroke="#555" stroke-width="1.5">
      <circle cx="8" cy="8" r="8" stroke="none"/>
      <circle cx="8" cy="8" r="7.25" fill="none"/>
    </g>
  </g>
</svg>
