<svg xmlns="http://www.w3.org/2000/svg" width="27.526" height="28.228" viewBox="0 0 27.526 28.228">
  <g id="Group_136363" data-name="Group 136363" transform="translate(-9503.376 -1236.522)">
    <path id="Path_149560" data-name="Path 149560" d="M9487.24,1252.995h-9.647s-.064.342-.137,7.308,1.91,7.28,8.527,7.2c5.506-.065,8.938-.124,8.944-4.934s0-4.214,0-4.214" transform="translate(31.044 -9)" fill="none" stroke="#555" stroke-linecap="round" stroke-width="1.5"/>
    <path id="Icon_feather-thumbs-up" data-name="Icon feather-thumbs-up" d="M10.2,7.2V4.8A1.8,1.8,0,0,0,8.4,3L6,8.4V15h6.768a1.2,1.2,0,0,0,1.2-1.02l.828-5.4A1.2,1.2,0,0,0,13.6,7.2ZM6,15H4.2A1.2,1.2,0,0,1,3,13.8V9.6A1.2,1.2,0,0,1,4.2,8.4H6" transform="translate(9515.34 1234.272)" fill="none" stroke="#555" stroke-linecap="round" stroke-linejoin="round" stroke-width="1.5"/>
    <path id="Path_149561" data-name="Path 149561" d="M9235.32,1244.313a24.742,24.742,0,0,1,2.875,0,2.094,2.094,0,0,1,1.336,1.023,7.44,7.44,0,0,1,.247,1.881" transform="translate(268.84 -3.468)" fill="none" stroke="#555" stroke-linecap="round" stroke-width="1.5"/>
    <g id="Ellipse_1339" data-name="Ellipse 1339" transform="translate(9510.84 1259.75)" fill="none" stroke="#555" stroke-width="1.5">
      <circle cx="2.5" cy="2.5" r="2.5" stroke="none"/>
      <circle cx="2.5" cy="2.5" r="1.75" fill="none"/>
    </g>
    <g id="Ellipse_1340" data-name="Ellipse 1340" transform="translate(9519.84 1259.75)" fill="none" stroke="#555" stroke-width="1.5">
      <circle cx="2.5" cy="2.5" r="2.5" stroke="none"/>
      <circle cx="2.5" cy="2.5" r="1.75" fill="none"/>
    </g>
  </g>
</svg>
