<svg width="256" height="142" viewBox="0 0 256 142" fill="none" xmlns="http://www.w3.org/2000/svg">
<g clip-path="url(#clip0_204_9)">
<g clip-path="url(#clip1_204_9)">
<path opacity="0.1" d="M84.0519 170.254C69.4519 163.373 49.2259 143.508 62.1089 114.68C74.9919 85.8515 99.4679 92.6915 133.822 63.3745C175.522 27.7835 204.812 25.8275 242.036 41.3865C263.078 50.1865 266.513 86.3395 300.007 108.817C330.202 129.079 305.589 163.542 289.701 168.917C273.813 174.292 263.077 174.292 263.077 174.292C263.077 174.292 98.6499 177.134 84.0519 170.254Z" fill="#3C23B6"/>
<g clip-path="url(#clip2_204_9)">
<path d="M170.5 93.4475C185.964 93.4475 198.5 80.935 198.5 65.5001C198.5 50.0652 185.964 37.5527 170.5 37.5527C155.036 37.5527 142.5 50.0652 142.5 65.5001C142.5 80.935 155.036 93.4475 170.5 93.4475Z" stroke="#3C23B6" stroke-width="3"/>
<path d="M171.296 60.0024C170.392 60.0024 169.51 59.8337 168.651 59.4964C167.793 59.159 167.126 58.7527 166.65 58.2774L168.375 55.6094C168.651 55.9467 169.042 56.2304 169.548 56.4604C170.07 56.675 170.568 56.7824 171.043 56.7824C171.396 56.7824 171.726 56.7057 172.032 56.5524C172.339 56.399 172.584 56.169 172.768 55.8624C172.952 55.5557 173.044 55.18 173.044 54.7354C173.044 54.2447 172.945 53.8154 172.745 53.4474C172.561 53.0794 172.285 52.7957 171.917 52.5964C171.565 52.3817 171.143 52.2744 170.652 52.2744C170.177 52.2744 169.725 52.3434 169.295 52.4814C168.866 52.604 168.36 52.8187 167.777 53.1254H167.754V44.5694H175.367V47.7894H170.629V50.2504L170.238 49.5604C170.453 49.5297 170.66 49.5067 170.859 49.4914C171.059 49.476 171.258 49.4684 171.457 49.4684C172.531 49.4684 173.435 49.706 174.171 50.1814C174.923 50.6567 175.498 51.2854 175.896 52.0674C176.295 52.8494 176.494 53.7004 176.494 54.6204C176.494 55.6324 176.264 56.5447 175.804 57.3574C175.344 58.17 174.716 58.814 173.918 59.2894C173.136 59.7647 172.262 60.0024 171.296 60.0024Z" fill="#3C23B6"/>
<path d="M157.699 80.8999C157.469 80.8999 157.253 80.8814 157.051 80.8445C156.852 80.8104 156.687 80.7663 156.557 80.7124L156.966 79.3572C157.179 79.4226 157.371 79.4581 157.541 79.4638C157.714 79.4695 157.863 79.4297 157.988 79.3445C158.116 79.2592 158.22 79.1143 158.3 78.9098L158.406 78.6328L156.058 71.8999H157.967L159.322 76.7067H159.39L160.758 71.8999H162.68L160.136 79.1527C160.014 79.505 159.848 79.8118 159.638 80.0732C159.43 80.3374 159.167 80.5405 158.849 80.6825C158.531 80.8274 158.148 80.8999 157.699 80.8999ZM166.381 78.5732C165.708 78.5732 165.128 78.4368 164.643 78.1641C164.16 77.8885 163.787 77.4993 163.526 76.9964C163.265 76.4908 163.134 75.8928 163.134 75.2024C163.134 74.5291 163.265 73.9382 163.526 73.4297C163.787 72.9212 164.155 72.5249 164.63 72.2408C165.107 71.9567 165.667 71.8146 166.309 71.8146C166.741 71.8146 167.143 71.8842 167.515 72.0234C167.89 72.1598 168.216 72.3658 168.495 72.6413C168.776 72.9169 168.995 73.2635 169.151 73.6811C169.307 74.0959 169.385 74.5817 169.385 75.1385V75.6371H163.858V74.5121H167.677C167.677 74.2507 167.62 74.0192 167.506 73.8175C167.393 73.6158 167.235 73.4581 167.033 73.3445C166.834 73.228 166.603 73.1697 166.339 73.1697C166.063 73.1697 165.819 73.2337 165.606 73.3615C165.395 73.4865 165.231 73.6555 165.111 73.8686C164.992 74.0788 164.931 74.3132 164.928 74.5717V75.6413C164.928 75.9652 164.988 76.245 165.107 76.4808C165.229 76.7166 165.401 76.8984 165.623 77.0263C165.844 77.1541 166.107 77.218 166.411 77.218C166.613 77.218 166.797 77.1896 166.965 77.1328C167.133 77.076 167.276 76.9908 167.395 76.8771C167.515 76.7635 167.606 76.6243 167.668 76.4595L169.347 76.5703C169.262 76.9737 169.087 77.326 168.823 77.6271C168.562 77.9254 168.224 78.1584 167.809 78.326C167.397 78.4908 166.921 78.5732 166.381 78.5732ZM172.437 78.5689C172.019 78.5689 171.647 78.4964 171.32 78.3516C170.993 78.2038 170.735 77.9865 170.545 77.6996C170.357 77.4098 170.263 77.049 170.263 76.6172C170.263 76.2536 170.33 75.9482 170.464 75.701C170.597 75.4538 170.779 75.255 171.009 75.1044C171.239 74.9538 171.501 74.8402 171.793 74.7635C172.089 74.6868 172.398 74.6328 172.722 74.6016C173.103 74.5618 173.41 74.5249 173.643 74.4908C173.876 74.4538 174.045 74.3999 174.15 74.3288C174.255 74.2578 174.307 74.1527 174.307 74.0135V73.9879C174.307 73.718 174.222 73.5092 174.052 73.3615C173.884 73.2138 173.645 73.1399 173.336 73.1399C173.009 73.1399 172.749 73.2124 172.556 73.3572C172.363 73.4993 172.235 73.6783 172.172 73.8942L170.493 73.7578C170.579 73.3601 170.746 73.0163 170.996 72.7266C171.246 72.4339 171.569 72.2095 171.964 72.0533C172.361 71.8942 172.822 71.8146 173.344 71.8146C173.708 71.8146 174.056 71.8572 174.388 71.9425C174.724 72.0277 175.02 72.1598 175.279 72.3388C175.54 72.5178 175.746 72.7479 175.897 73.0291C176.047 73.3075 176.123 73.6413 176.123 74.0305V78.4453H174.401V77.5376H174.35C174.245 77.7422 174.104 77.9226 173.928 78.0788C173.752 78.2322 173.54 78.353 173.293 78.4411C173.046 78.5263 172.76 78.5689 172.437 78.5689ZM172.956 77.3161C173.224 77.3161 173.459 77.2635 173.664 77.1584C173.868 77.0504 174.029 76.9055 174.145 76.7237C174.262 76.5419 174.32 76.3359 174.32 76.1058V75.4112C174.263 75.4482 174.185 75.4822 174.086 75.5135C173.989 75.5419 173.88 75.5689 173.758 75.5945C173.635 75.6172 173.513 75.6385 173.391 75.6584C173.269 75.6754 173.158 75.6911 173.059 75.7053C172.846 75.7365 172.66 75.7862 172.501 75.8544C172.341 75.9226 172.218 76.0149 172.13 76.1314C172.042 76.245 171.998 76.3871 171.998 76.5575C171.998 76.8047 172.087 76.9936 172.266 77.1243C172.448 77.2521 172.678 77.3161 172.956 77.3161ZM177.531 78.4453V71.8999H179.291V73.0419H179.359C179.479 72.6357 179.679 72.3288 179.96 72.1214C180.241 71.9112 180.565 71.8061 180.932 71.8061C181.023 71.8061 181.121 71.8118 181.226 71.8232C181.331 71.8345 181.423 71.8501 181.503 71.87V73.4808C181.417 73.4553 181.3 73.4325 181.149 73.4126C180.998 73.3928 180.861 73.3828 180.736 73.3828C180.469 73.3828 180.23 73.4411 180.02 73.5575C179.812 73.6712 179.648 73.8303 179.525 74.0348C179.406 74.2393 179.346 74.4751 179.346 74.7422V78.4453H177.531ZM187.887 73.7663L186.225 73.8686C186.197 73.7266 186.136 73.5987 186.042 73.4851C185.948 73.3686 185.825 73.2763 185.671 73.2081C185.521 73.1371 185.34 73.1016 185.13 73.1016C184.849 73.1016 184.612 73.1612 184.419 73.2805C184.225 73.397 184.129 73.5533 184.129 73.7493C184.129 73.9055 184.191 74.0376 184.316 74.1456C184.441 74.2536 184.656 74.3402 184.96 74.4055L186.144 74.6442C186.781 74.7749 187.255 74.9851 187.568 75.2749C187.88 75.5646 188.036 75.9453 188.036 76.4169C188.036 76.8459 187.91 77.2223 187.657 77.5462C187.407 77.87 187.063 78.1229 186.626 78.3047C186.191 78.4837 185.69 78.5732 185.122 78.5732C184.255 78.5732 183.565 78.3928 183.051 78.032C182.539 77.6683 182.24 77.174 182.151 76.549L183.937 76.4553C183.991 76.7195 184.122 76.9212 184.329 77.0604C184.536 77.1967 184.802 77.2649 185.126 77.2649C185.444 77.2649 185.7 77.2038 185.893 77.0817C186.089 76.9567 186.188 76.7962 186.191 76.6001C186.188 76.4354 186.119 76.3004 185.982 76.1953C185.846 76.0874 185.636 76.005 185.352 75.9482L184.218 75.7223C183.579 75.5945 183.103 75.3729 182.791 75.0575C182.481 74.7422 182.326 74.3402 182.326 73.8516C182.326 73.4311 182.44 73.0689 182.667 72.7649C182.897 72.4609 183.22 72.2266 183.634 72.0618C184.052 71.897 184.541 71.8146 185.1 71.8146C185.927 71.8146 186.578 71.9893 187.052 72.3388C187.529 72.6882 187.808 73.1641 187.887 73.7663Z" fill="#3C23B6"/>
<path d="M146 66.0177C153.18 66.0177 159 59.9932 159 52.5616C159 45.13 153.18 39.1055 146 39.1055C138.82 39.1055 133 45.13 133 52.5616C133 59.9932 138.82 66.0177 146 66.0177Z" fill="white"/>
<path d="M146 64.4652C152.351 64.4652 157.5 59.1358 157.5 52.5617C157.5 45.9876 152.351 40.6582 146 40.6582C139.649 40.6582 134.5 45.9876 134.5 52.5617C134.5 59.1358 139.649 64.4652 146 64.4652Z" stroke="#3C23B6" stroke-width="3"/>
<path d="M146.361 48.5908V53.8491L151.262 55.881" stroke="#3C23B6" stroke-width="2"/>
</g>
</g>
</g>
<defs>
<clipPath id="clip0_204_9">
<rect width="256" height="142" fill="white"/>
</clipPath>
<clipPath id="clip1_204_9">
<rect width="260" height="308" fill="white" transform="translate(0 -166)"/>
</clipPath>
<clipPath id="clip2_204_9">
<rect width="67" height="59" fill="white" transform="translate(133 36)"/>
</clipPath>
</defs>
</svg>
