<svg width="256" height="142" viewBox="0 0 256 142" fill="none" xmlns="http://www.w3.org/2000/svg">
<g clip-path="url(#clip0_202_2)">
<g clip-path="url(#clip1_202_2)">
<path opacity="0.1" d="M68.9302 260.022C71.7854 277.26 67.1254 296.837 77.8797 310.884C86.3852 321.993 102.416 325.565 116.297 322.998C130.178 320.43 142.403 312.816 154.015 305.048C165.628 297.28 177.27 289.071 190.761 285.037C213.144 278.343 239.383 283.477 258.99 271.092C266.837 266.135 272.8 258.744 277.222 250.712C291.936 223.973 290.173 190.544 282.486 161.756C279.836 151.835 274.485 142.734 272.785 132.601C270.433 118.579 272.509 105.478 265.582 92.2043C256.824 75.4178 239.34 64.7026 221.909 56.557C206 49.1219 189.047 43.0231 171.481 42.3846C153.915 41.7461 135.547 47.2168 123.887 59.8939C115.112 69.4378 110.69 82.2587 101.646 91.5629C91.2211 102.286 74.8676 107.186 59.9309 104.064C52.9971 102.614 46.0578 99.553 39.1153 100.821C30.2583 102.436 24.3591 110.59 20.9023 118.673C13.4227 136.413 13.0863 156.356 19.9637 174.338C31.8293 205.156 63.5599 227.589 68.9302 260.022Z" fill="#3C23B6"/>
<g clip-path="url(#clip2_202_2)">
<path d="M173.461 32C170.079 32 166.831 33.49 164.317 36.1955C161.842 38.8597 160.422 42.3858 160.422 45.8697C160.422 49.2936 161.774 52.5145 164.228 54.939C166.692 57.3733 169.971 58.7139 173.461 58.7139C176.951 58.7139 180.23 57.3733 182.694 54.939C185.149 52.5145 186.501 49.2936 186.501 45.8697C186.501 42.3858 185.081 38.8597 182.605 36.1955C180.091 33.49 176.844 32 173.461 32ZM173.461 29C182.319 29 189.501 37.1191 189.501 45.8697C189.501 54.6202 182.319 61.714 173.461 61.714C164.603 61.714 157.422 54.6202 157.422 45.8697C157.422 37.1191 164.603 29 173.461 29Z" fill="#3C23B6"/>
<path d="M183.883 65.9172C183.667 65.6516 183.395 65.4375 183.086 65.2904C182.777 65.1434 182.44 65.0671 182.098 65.0671C181.755 65.0671 181.418 65.1434 181.109 65.2904C180.8 65.4375 180.528 65.6516 180.312 65.9172L172.567 73.9882C172.143 74.4591 171.626 74.8378 171.049 75.1008C170.472 75.3638 169.848 75.5055 169.214 75.5172H159.3C158.894 75.4554 158.528 75.2391 158.278 74.9135C158.028 74.5879 157.914 74.1782 157.959 73.7702C157.913 73.3619 158.027 72.9517 158.277 72.6257C158.527 72.2996 158.894 72.083 159.3 72.0212H165.863C166.599 71.9542 167.287 71.6241 167.799 71.0915C168.312 70.5589 168.615 69.8594 168.654 69.1212C168.93 66.9322 167.639 65.0322 166 65.0322H152.593C151.416 65.0591 150.257 65.328 149.189 65.8221C148.12 66.3162 147.165 67.0249 146.382 67.9042L142.482 72.0212H137.841C137.435 72.083 137.069 72.2995 136.819 72.6253C136.569 72.9512 136.455 73.3611 136.5 73.7692V84.2532C136.455 84.6612 136.569 85.0709 136.819 85.3965C137.069 85.7221 137.435 85.9384 137.841 86.0002H167.748C168.381 85.9867 169.005 85.8442 169.582 85.5813C170.158 85.3184 170.675 84.9407 171.1 84.4712L183.774 71.2572C184.406 70.5165 184.762 69.58 184.782 68.6067C184.802 67.6333 184.484 66.6831 183.883 65.9172Z" stroke="#3C23B6" stroke-width="3"/>
<path d="M178.498 40.892L178.015 42.5398H168.81L169.293 40.892H178.498ZM174.18 52L168.981 45.6364L168.952 44.4432H171.538C172.21 44.4432 172.783 44.3485 173.256 44.1591C173.73 43.965 174.092 43.6761 174.343 43.2926C174.594 42.9044 174.719 42.4167 174.719 41.8295C174.719 40.9631 174.459 40.2836 173.938 39.7912C173.417 39.294 172.617 39.0455 171.538 39.0455H168.81L169.293 37.4545H171.538C172.693 37.4545 173.64 37.6463 174.379 38.0298C175.122 38.4086 175.671 38.9295 176.026 39.5923C176.386 40.2505 176.566 40.9962 176.566 41.8295C176.566 42.5824 176.4 43.276 176.069 43.9105C175.742 44.5402 175.217 45.0469 174.492 45.4304C173.772 45.8139 172.821 46.0057 171.637 46.0057H171.594L176.396 51.8864V52H174.18ZM178.498 37.4545L178.015 39.1023L170.771 39.0455L171.254 37.4545H178.498Z" fill="#3C23B6"/>
</g>
</g>
</g>
<defs>
<clipPath id="clip0_202_2">
<rect width="256" height="142" fill="white"/>
</clipPath>
<clipPath id="clip1_202_2">
<rect width="260" height="308" fill="white" transform="translate(-4 -166)"/>
</clipPath>
<clipPath id="clip2_202_2">
<rect width="54.5" height="58.5" fill="white" transform="translate(135 29)"/>
</clipPath>
</defs>
</svg>
