<svg width="256" height="142" viewBox="0 0 256 142" fill="none" xmlns="http://www.w3.org/2000/svg">
<g clip-path="url(#clip0_204_5)">
<g clip-path="url(#clip1_204_5)">
<path opacity="0.1" d="M132.417 270.073C114.976 268.719 77.0008 187.784 83.8111 139.427C90.6213 91.0688 130.512 139.412 147.263 73.4703C162.967 14.7592 198.136 55.5516 241.553 55.9824C266.094 56.2275 259.719 28.8971 303.309 42.1623C342.604 54.1211 337.785 121.806 325.669 139.872C313.552 157.938 303.427 164.628 303.427 164.628C303.427 164.628 149.858 271.427 132.417 270.073Z" fill="#3C23B6"/>
<g clip-path="url(#clip2_204_5)">
<path d="M144.744 76.572C144.744 76.572 145.637 92.0886 167.494 92.0192C189.352 91.9498 189.23 72.6387 189.23 72.6387" stroke="#3C23B6" stroke-width="3" stroke-linecap="round"/>
<path d="M138.759 75.6738C138.759 75.6738 142.303 69.6025 144.745 69.6025C147.188 69.6025 150.732 75.6738 150.732 75.6738" stroke="#3C23B6" stroke-width="3" stroke-linecap="round" stroke-linejoin="round"/>
<path d="M188.279 57.749C188.279 57.749 187.386 42.2316 165.529 42.301C143.672 42.3704 143.793 61.6815 143.793 61.6815" stroke="#3C23B6" stroke-width="3" stroke-linecap="round"/>
<path d="M194.363 58.6455C194.363 58.6455 190.818 64.7168 188.376 64.7168C185.933 64.7168 182.389 58.6455 182.389 58.6455" stroke="#3C23B6" stroke-width="3" stroke-linecap="round" stroke-linejoin="round"/>
<path d="M178.097 61.2538L177.131 64.5493L158.722 64.5493L159.688 61.2538L178.097 61.2538ZM169.461 83.4697L159.063 70.7425L159.006 68.3561L164.177 68.3561C165.522 68.3561 166.667 68.1667 167.614 67.7879C168.561 67.3997 169.286 66.822 169.788 66.055C170.29 65.2784 170.54 64.3031 170.54 63.1288C170.54 61.3959 170.02 60.037 168.978 59.0521C167.936 58.0578 166.336 57.5606 164.177 57.5606L158.722 57.5606L159.688 54.3788L164.177 54.3788C166.487 54.3788 168.381 54.7623 169.859 55.5294C171.345 56.287 172.444 57.3286 173.154 58.6544C173.874 59.9707 174.234 61.4621 174.234 63.1288C174.234 64.6345 173.902 66.0218 173.239 67.2907C172.586 68.5502 171.535 69.5635 170.086 70.3305C168.647 71.0976 166.743 71.4811 164.376 71.4811L164.29 71.4811L173.893 83.2425L173.893 83.4697L169.461 83.4697ZM178.097 54.3788L177.131 57.6743L162.643 57.5606L163.609 54.3788L178.097 54.3788Z" fill="#3C23B6"/>
</g>
</g>
</g>
<defs>
<clipPath id="clip0_204_5">
<rect width="256" height="142" fill="white"/>
</clipPath>
<clipPath id="clip1_204_5">
<rect width="277.909" height="508.671" fill="white" transform="translate(-65.9531 -299.065) rotate(-8.17046)"/>
</clipPath>
<clipPath id="clip2_204_5">
<rect width="59.12" height="52.32" fill="white" transform="translate(137 41)"/>
</clipPath>
</defs>
</svg>
