<svg xmlns="http://www.w3.org/2000/svg" width="44.436" height="43.327" viewBox="0 0 44.436 43.327">
  <g id="_3_User" data-name="3 User" transform="translate(-8.435 0.75)">
    <path id="Stroke_1" data-name="Stroke 1" d="M15.335,14.856C7.065,14.856,0,13.667,0,8.906S7.019,0,15.335,0C23.6,0,30.67,4.106,30.67,8.865S23.651,14.856,15.335,14.856Z" transform="translate(9.935 26.221)" fill="none" stroke="#3c23b6" stroke-linecap="round" stroke-linejoin="round" stroke-miterlimit="10" stroke-width="3"/>
    <path id="Stroke_3" data-name="Stroke 3" d="M9.83,18.683a9.6,9.6,0,0,0,9.83-9.34A9.6,9.6,0,0,0,9.83,0,9.6,9.6,0,0,0,0,9.343a9.559,9.559,0,0,0,9.761,9.34Z" transform="translate(15.44 0.75)" fill="none" stroke="#3c23b6" stroke-linecap="round" stroke-linejoin="round" stroke-miterlimit="10" stroke-width="3"/>
    <path id="Stroke_5" data-name="Stroke 5" d="M.424,13.694a7.111,7.111,0,0,0,5.487-6.8A7.136,7.136,0,0,0,0,0" transform="translate(41.16 3.174)" fill="none" stroke="#3c23b6" stroke-linecap="round" stroke-linejoin="round" stroke-miterlimit="10" stroke-width="3"/>
    <path id="Stroke_7" data-name="Stroke 7" d="M0,0C4.478,0,8.3,2.885,8.3,5.462A4.046,4.046,0,0,1,4.981,9.078" transform="translate(43.067 24.518)" fill="none" stroke="#3c23b6" stroke-linecap="round" stroke-linejoin="round" stroke-miterlimit="10" stroke-width="3"/>
  </g>
</svg>
