<svg id="Layer_1" data-name="Layer 1" xmlns="http://www.w3.org/2000/svg" viewBox="0 0 78 85"><defs><style>.cls-1{fill:none;stroke:#555;stroke-linecap:round;stroke-linejoin:round;stroke-width:4.5px;}</style></defs><path class="cls-1" d="M30.18,78.88c-13.55,0-25.12-2-25.12-10.13S16.57,53.34,30.18,53.34,55.3,60.58,55.3,68.68,43.81,78.88,30.18,78.88Z"/><path class="cls-1" d="M30.18,41.79A16.15,16.15,0,0,0,41.5,37.11a15.75,15.75,0,0,0,0-22.43,16.17,16.17,0,0,0-22.67,0,15.75,15.75,0,0,0,0,22.43,16.17,16.17,0,0,0,11.32,4.68Z"/><path class="cls-1" d="M56.91,37.42a12.11,12.11,0,0,0,6.48-4.28,11.87,11.87,0,0,0-.22-14.87,12.09,12.09,0,0,0-7-4.16"/><path class="cls-1" d="M59.34,50.44c7.34,0,13.6,4.92,13.6,9.3,0,2.59-2.16,5.24-5.44,6"/></svg>