<svg width="286" height="207" viewBox="0 0 286 207" fill="none" xmlns="http://www.w3.org/2000/svg">
<g clip-path="url(#clip0_214_20)">
<path opacity="0.1" d="M17.0763 -52.1758C8.91218 -39.9559 3.18892 -27.0611 -4.61735 -14.7334C-9.21842 -7.4685 -14.7639 -0.205446 -22.993 5.05053C-39.863 15.8201 -62.9831 15.4764 -83.407 14.3222C-103.831 13.168 -126.724 12.4179 -144.072 22.7092C-159.021 31.5766 -165.551 46.6805 -165.071 60.1706C-164.591 73.6607 -158.238 86.0357 -152.296 98.2597C-146.353 110.484 -140.675 123.196 -141.617 136.803C-142.649 151.709 -151.532 166.366 -154.953 181.287C-158.373 196.207 -154.186 213.498 -136.85 218.877C-128.577 221.442 -118.672 220.783 -109.409 218.823C-93.0333 215.353 -77.976 208.09 -63.5812 200.548C-56.1908 196.677 -48.4423 192.564 -39.9345 191.733C-26.0028 190.373 -14.7816 198.12 -1.23485 199.32C14.3421 200.7 30.7812 193.025 41.5868 183.098C52.3923 173.172 58.7995 161.207 65.6156 149.634C78.1612 128.332 93.7412 113.416 120.179 100.908C147.796 87.8398 182.755 79.6593 201.585 57.6705C217.274 39.3518 214.855 14.4646 196.101 1.22491C181.567 -9.03805 160.144 -12.0085 142.947 -19.7209C121.563 -29.3121 107.396 -46.154 100.773 -64.7571C97.9423 -72.7099 95.8276 -81.697 87.1233 -86.2659C77.448 -91.3429 62.8512 -88.8693 51.7104 -83.5582C36.336 -76.2427 25.2393 -64.3954 17.0763 -52.1758Z" fill="#3C23B6"/>
</g>
<defs>
<clipPath id="clip0_214_20">
<rect width="286" height="207" fill="white"/>
</clipPath>
</defs>
</svg>
