<svg width="44" height="44" viewBox="0 0 44 44" fill="none" xmlns="http://www.w3.org/2000/svg">
<g id="check 1">
<g id="Check">
<path id="Vector" d="M20.0758 39.1124C16.6911 39.1138 13.382 38.1114 10.5671 36.2319C7.75213 34.3525 5.55779 31.6804 4.26158 28.5538C2.96537 25.4271 2.62551 21.9862 3.285 18.6664C3.94449 15.3466 5.5737 12.2969 7.96656 9.90306C10.3594 7.50924 13.4085 5.87881 16.728 5.21798C20.0476 4.55716 23.4886 4.89563 26.6158 6.19059C29.7429 7.48554 32.4159 9.67881 34.2964 12.493C36.177 15.3072 37.1808 18.6159 37.1808 22.0006C37.1753 26.536 35.3717 30.8843 32.1652 34.092C28.9588 37.2997 24.6113 39.1052 20.0758 39.1124ZM20.0758 7.63868C17.235 7.63732 14.4576 8.47847 12.0949 10.0557C9.73218 11.633 7.89032 13.8756 6.80225 16.4997C5.71418 19.1239 5.42878 22.0118 5.98216 24.7982C6.53554 27.5846 7.90283 30.1443 9.9111 32.1535C11.9194 34.1627 14.4784 35.5313 17.2645 36.086C20.0506 36.6407 22.9387 36.3567 25.5634 35.2699C28.1881 34.183 30.4315 32.3422 32.0099 29.9803C33.5883 27.6184 34.4308 24.8414 34.4308 22.0006C34.4272 18.1939 32.9138 14.544 30.2227 11.8516C27.5316 9.15923 23.8825 7.64414 20.0758 7.63868Z" fill="#170F49"/>
<path id="Vector_2" d="M19.5822 28.5318C19.3762 28.5317 19.1729 28.4853 18.9873 28.396C18.8017 28.3068 18.6384 28.177 18.5097 28.0162L11.6347 19.4087C11.4592 19.1244 11.3932 18.7859 11.449 18.4565C11.5049 18.1271 11.6787 17.8293 11.9381 17.6188C12.1976 17.4082 12.5248 17.2993 12.8586 17.3124C13.1924 17.3255 13.5101 17.4597 13.7522 17.6899L19.4241 24.7506C21.8647 20.9487 28.5197 11.9012 39.0866 6.97868C39.4133 6.84549 39.7788 6.843 40.1073 6.97174C40.4358 7.10047 40.7023 7.35058 40.8515 7.6703C41.0008 7.99002 41.0214 8.35488 40.9092 8.68939C40.7969 9.02391 40.5604 9.30247 40.2485 9.46743C27.7635 15.2974 20.8541 27.6931 20.7853 27.8168C20.674 28.0112 20.5168 28.1755 20.3275 28.2953C20.1382 28.4151 19.9225 28.4869 19.6991 28.5043L19.5822 28.5318Z" fill="#170F49"/>
</g>
</g>
</svg>
