<svg xmlns="http://www.w3.org/2000/svg" width="27.501" height="26.694" viewBox="0 0 27.501 26.694">
  <g id="Group_136355" data-name="Group 136355" transform="translate(-9465.063 -1195.417)">
    <path id="Path_149552" data-name="Path 149552" d="M9440.36,1200.984c-2,.888-5.065,2.98-5.387,9.878a61.524,61.524,0,0,0,0,9.271" transform="translate(31 -1)" fill="none" stroke="#555" stroke-linecap="round" stroke-width="1.5"/>
    <path id="Path_149553" data-name="Path 149553" d="M9434.733,1200.768c2.3,1.121,5.6,3.234,5.921,10.132a63.231,63.231,0,0,1,0,9.36" transform="translate(51 -1)" fill="none" stroke="#555" stroke-linecap="round" stroke-width="1.5"/>
    <path id="Subtraction_29" data-name="Subtraction 29" d="M7.971,26.694h-.43a7.021,7.021,0,0,1-1.046-.8c-.131-.113-.266-.23-.4-.342-.473-.386-.948-.781-1.406-1.164l0,0c-.373-.311-.76-.634-1.142-.947a.916.916,0,0,1-.3-.4.979.979,0,0,1-.03-.5c.274-1.644.547-3.317.81-4.934l0-.027.074-.451c.072-.441.146-.9.219-1.345.282-1.724.632-3.87.977-5.96a.651.651,0,0,0-.011-.28l-.053-.2-.01-.038v0c-.068-.251-.139-.512-.194-.77-.019-.09-.045-.131-.084-.131a.235.235,0,0,0-.119.063c-.061.047-.125.09-.188.132h0l-.072.049a1.071,1.071,0,0,1-.594.217.707.707,0,0,1-.376-.11,1.23,1.23,0,0,1-.338-.331C2.726,7.695,2.19,6.952,1.671,6.233l-.055-.076-.068-.094L.483,4.588a2.322,2.322,0,0,1-.427-.916A2.417,2.417,0,0,1,.083,2.519,2.178,2.178,0,0,1,.69,1.541,13.505,13.505,0,0,1,2.012.477h0c.146-.107.311-.229.467-.348A1.088,1.088,0,0,1,2.626.04h0L2.7,0H12.812a14.675,14.675,0,0,1,1.972,1.5,2.242,2.242,0,0,1,.727,1.379,2.151,2.151,0,0,1-.357,1.5c-.816,1.183-1.679,2.363-2.513,3.5h0l-.479.655a.767.767,0,0,1-.279.238.755.755,0,0,1-.341.08.888.888,0,0,1-.457-.132c-.111-.067-.219-.144-.323-.219h0l0,0-.087-.062a.206.206,0,0,0-.1-.049c-.034,0-.057.033-.074.107-.032.142-.072.284-.111.422v0a5.317,5.317,0,0,0-.16.686,2.186,2.186,0,0,0,.076.768h0v0c.022.1.044.2.061.3.32,1.983.651,4,.971,5.949l.01.059.237,1.444,0,.025.125.765,0,.024c.194,1.181.394,2.4.6,3.6a.923.923,0,0,1-.03.474.881.881,0,0,1-.283.384l-1.55,1.287-.064.053-.022.019c-.661.549-1.344,1.117-2.018,1.674a1.994,1.994,0,0,1-.248.166h0c-.037.022-.079.047-.119.073ZM7.009,10.422c-.137,0-.2.056-.217.208-.063.452-.139.911-.211,1.355l0,.018-.015.093-.115.7-.115.706c-.445,2.72-.949,5.8-1.442,8.767a.322.322,0,0,0,.141.349c.779.641,1.685,1.387,2.57,2.138a.252.252,0,0,0,.156.075.28.28,0,0,0,.171-.088l.513-.434c.561-.476,1.141-.969,1.737-1.425.363-.277.554-.54.386-.994a1.558,1.558,0,0,1-.071-.365h0c-.006-.054-.013-.114-.022-.172l-.342-2.089-.007-.044-.043-.265c-.231-1.413-.471-2.875-.705-4.311-.205-1.254-.427-2.611-.654-4.036-.019-.119-.057-.187-.192-.187H8.5c-.086,0-.179.007-.292.007l-.217,0h0l-.215,0-.216,0h0l-.218,0c-.112,0-.2,0-.29-.008Zm.747-3.947a.25.25,0,0,0-.147.058c-.365.265-.731.519-1.088.756a.2.2,0,0,0-.092.26h0c.1.374.209.762.3,1.156a.172.172,0,0,0,.2.16h.018c.1,0,.2,0,.33,0h.958c.135,0,.246,0,.347,0H8.6a.162.162,0,0,0,.186-.149c.08-.34.178-.716.306-1.181a.2.2,0,0,0-.107-.256c-.362-.242-.72-.491-1.067-.74A.273.273,0,0,0,7.756,6.475ZM2.845,1.868a.186.186,0,0,0-.113.054c-.155.129-.317.254-.475.375l0,0c-.1.08-.222.17-.336.261a.742.742,0,0,0-.3.631.7.7,0,0,0,.164.464l.7.968c.527.728,1.071,1.482,1.606,2.229.047.065.082.092.123.092A.227.227,0,0,0,4.33,6.89c.657-.461,1.34-.934,2.03-1.406.062-.042.1-.074.1-.112s-.019-.069-.07-.119c-1.006-.968-2.06-1.99-3.42-3.313A.193.193,0,0,0,2.845,1.868Zm9.825.006a.218.218,0,0,0-.145.082c-1.219,1.19-2.325,2.262-3.38,3.276-.065.062-.091.1-.087.139s.048.081.114.125c.709.48,1.4.964,1.986,1.375a.277.277,0,0,0,.145.067c.046,0,.089-.032.14-.1.549-.772,1.111-1.549,1.654-2.3l.112-.155.506-.7a.757.757,0,0,0,.18-.5.751.751,0,0,0-.317-.639c-.1-.075-.194-.151-.281-.218h0c-.162-.124-.33-.253-.489-.386A.219.219,0,0,0,12.67,1.874Zm-7.794-.3.7.676c.67.649,1.364,1.319,2.048,1.993a.208.208,0,0,0,.136.076c.052,0,.094-.041.146-.093l.01-.01L9.125,3.04c.447-.434.91-.883,1.369-1.33a.262.262,0,0,1,.032-.025c.037-.026.075-.053.058-.112Z" transform="translate(9470.729 1195.417)" fill="#555"/>
  </g>
</svg>
