<svg width="256" height="142" viewBox="0 0 256 142" fill="none" xmlns="http://www.w3.org/2000/svg">
<g clip-path="url(#clip0_229_20)">
<g clip-path="url(#clip1_229_20)">
<path d="M131.632 57.3797C131.608 55.9327 131.604 54.4793 131.548 53.0379C131.508 52.7905 131.558 52.5369 131.69 52.3239C131.822 52.1108 132.027 51.9526 132.266 51.8783C133.788 51.2353 135.277 50.5157 136.798 49.8727C137.336 49.6455 137.392 49.4835 137.054 48.9771C136.365 47.9735 135.936 46.814 135.807 45.6033C135.678 44.3926 135.852 43.1688 136.315 42.0424C136.777 40.916 137.513 39.9226 138.456 39.1518C139.398 38.381 140.518 37.8572 141.714 37.6276C143.12 37.3038 144.591 37.4228 145.927 37.9681C147.263 38.5134 148.397 39.4585 149.175 40.6737C150.017 41.8266 150.492 43.2072 150.536 44.6344C150.58 46.0616 150.192 47.4689 149.423 48.6718C149.013 49.398 148.996 49.3853 149.776 49.7011C151.287 50.3126 152.789 50.9393 154.309 51.5356C154.518 51.5956 154.699 51.7262 154.823 51.9053C154.946 52.0843 155.004 52.3007 154.986 52.5174C155.021 55.4816 155.071 58.4453 155.137 61.4084C155.161 61.636 155.107 61.8651 154.983 62.0575C154.858 62.2499 154.672 62.3938 154.454 62.4653C150.973 64.0189 147.495 65.5785 144.02 67.144C143.857 67.2229 143.678 67.2642 143.496 67.2651C143.315 67.2659 143.136 67.2262 142.972 67.1488C139.429 65.6879 135.881 64.2381 132.33 62.7994C132.133 62.7384 131.963 62.6116 131.848 62.4402C131.733 62.2688 131.681 62.0632 131.7 61.8578C131.693 60.3665 131.659 58.8727 131.632 57.3797ZM143.047 38.7703C141.848 38.7859 140.679 39.1561 139.69 39.8343C138.7 40.5125 137.933 41.4684 137.485 42.5816C137.038 43.6948 136.93 44.9156 137.174 46.0901C137.419 47.2647 138.006 48.3406 138.861 49.1823C139.716 50.0241 140.801 50.594 141.979 50.8204C143.158 51.0467 144.377 50.9194 145.483 50.4544C146.589 49.9895 147.532 49.2076 148.195 48.2074C148.858 47.2071 149.21 46.0332 149.206 44.8334C149.207 44.0286 149.048 43.2317 148.738 42.4892C148.428 41.7467 147.972 41.0734 147.399 40.5087C146.826 39.944 146.146 39.4991 145.398 39.2001C144.651 38.9012 143.852 38.754 143.047 38.7673L143.047 38.7703ZM142.764 61.6027C142.745 60.4317 142.713 59.2629 142.712 58.0926C142.729 57.9476 142.695 57.8011 142.614 57.6792C142.534 57.5573 142.413 57.4679 142.272 57.4269C139.298 56.2224 136.327 55.0092 133.361 53.7873C132.979 53.6297 132.827 53.6663 132.837 54.1233C132.892 56.4863 132.935 58.8496 132.966 61.2131C132.955 61.3594 132.995 61.5049 133.081 61.6243C133.166 61.7437 133.29 61.8294 133.432 61.8664C136.387 63.0585 139.336 64.2628 142.28 65.4791C142.704 65.6549 142.849 65.5934 142.833 65.1125C142.794 63.9428 142.787 62.7717 142.765 61.6027L142.764 61.6027ZM144.07 61.5725C144.09 62.7215 144.127 63.8722 144.121 65.0187C144.118 65.5489 144.247 65.6396 144.745 65.4131C147.605 64.1061 150.475 62.8187 153.354 61.5507C153.515 61.5029 153.655 61.3987 153.746 61.2572C153.838 61.1157 153.876 60.9461 153.854 60.779C153.803 58.4792 153.76 56.1843 153.742 53.8869C153.732 53.3379 153.586 53.2724 153.103 53.4977C150.222 54.8137 147.333 56.1112 144.437 57.3901C144.297 57.4315 144.176 57.5221 144.097 57.6455C144.018 57.7688 143.986 57.9166 144.007 58.0616C144.043 59.2283 144.051 60.4005 144.071 61.5725L144.07 61.5725ZM152.688 52.2784C151.111 51.628 149.714 51.0556 148.322 50.472C148.028 50.348 147.845 50.5161 147.643 50.6636C146.399 51.6461 144.867 52.1948 143.282 52.2261C141.697 52.2574 140.145 51.7695 138.863 50.8369C138.726 50.7234 138.556 50.6555 138.378 50.6428C138.201 50.63 138.023 50.673 137.871 50.7657C137.11 51.1378 136.317 51.4443 135.555 51.8124C135.004 52.0155 134.477 52.2795 133.985 52.5993C134.029 52.6448 134.078 52.6852 134.131 52.7199C136.569 53.7197 139.043 54.6369 141.432 55.7446C141.992 56.088 142.638 56.2644 143.294 56.2533C143.951 56.2421 144.59 56.0438 145.137 55.6817C145.537 55.4573 145.955 55.2669 146.386 55.1123L152.688 52.2784Z" fill="#3C23B6" stroke="#472FBA" stroke-width="1.50022"/>
<path d="M161.064 97.3546C159.391 97.4678 157.709 97.3619 156.063 97.0396C155.636 96.95 155.22 96.8142 154.822 96.6345C154.509 96.5138 154.243 96.2961 154.062 96.0132C153.882 95.7303 153.796 95.397 153.818 95.0621C153.764 94.1926 153.805 93.3197 153.942 92.4593C154.203 91.3299 154.837 90.3212 155.741 89.5961C156.645 88.871 157.768 88.4716 158.927 88.4624C160.26 88.4298 161.591 88.4101 162.927 88.3944C164.203 88.3715 165.442 88.8242 166.403 89.6645C167.364 90.5048 167.977 91.6725 168.124 92.9404C168.181 93.5116 168.207 94.0855 168.202 94.6595C168.282 95.0872 168.191 95.5293 167.948 95.8903C167.705 96.2512 167.33 96.5019 166.903 96.5882C165.78 96.9976 164.602 97.2387 163.408 97.3038C162.63 97.375 161.845 97.3413 161.064 97.3546ZM161.02 89.7352L161.02 89.7142C160.332 89.7259 159.642 89.7256 158.956 89.7493C158.148 89.7534 157.361 90.0081 156.705 90.4783C156.048 90.9485 155.553 91.611 155.289 92.3744C155.126 93.1351 155.064 93.9142 155.106 94.6911C155.061 95.3121 155.352 95.5332 155.887 95.6781C156.82 95.9188 157.776 96.0595 158.738 96.0978C161.097 96.2784 163.468 96.1167 165.78 95.618C166.908 95.3457 166.914 95.3166 166.892 94.1376C166.887 93.8376 166.882 93.5377 166.867 93.2438C166.801 92.3092 166.393 91.4317 165.72 90.779C165.048 90.1262 164.159 89.7438 163.223 89.7048C162.488 89.6802 161.754 89.7227 161.02 89.7352Z" fill="#3C23B6" stroke="#472FBA" stroke-width="1.50022"/>
<path d="M126.955 97.9371C125.143 98.0695 123.322 97.9213 121.556 97.4977C120.082 97.0846 119.795 96.6894 119.765 95.1684C119.669 94.1125 119.826 93.0489 120.223 92.0658C120.542 91.296 121.057 90.6231 121.717 90.1137C122.377 89.6044 123.158 89.2763 123.984 89.162C125.872 88.8897 127.787 88.8572 129.684 89.0651C130.896 89.2052 132.017 89.7828 132.834 90.6896C133.651 91.5965 134.11 92.7703 134.124 93.9911C134.14 94.3349 134.135 94.6801 134.141 95.0251C134.176 96.3999 133.864 96.8433 132.536 97.292C131.483 97.6191 130.394 97.8187 129.292 97.8863C128.521 97.9514 127.735 97.9238 126.955 97.9371ZM126.639 90.3052C125.694 90.2505 124.746 90.3116 123.816 90.4872C122.927 90.7534 122.16 91.3263 121.653 92.1041C121.146 92.8819 120.931 93.8142 121.046 94.7355C121.137 96.1114 121.077 96.1464 122.451 96.3962C125.371 96.9122 128.362 96.8786 131.27 96.2972C132.882 95.9867 132.871 95.9319 132.837 94.3C132.835 94.208 132.833 94.116 132.832 94.025C132.811 93.0156 132.393 92.0552 131.668 91.3523C130.943 90.6493 129.971 90.2607 128.961 90.2708C128.251 90.2608 127.54 90.2899 126.639 90.3052V90.3052Z" fill="#3C23B6" stroke="#472FBA" stroke-width="1.50022"/>
<path d="M143.965 97.6516C142.362 97.7589 140.752 97.6596 139.175 97.356C138.749 97.2676 138.331 97.1428 137.926 96.9831C137.575 96.8721 137.272 96.6454 137.067 96.3399C136.862 96.0345 136.767 95.6685 136.797 95.3018C136.65 93.9516 136.88 92.5871 137.463 91.3603C137.898 90.5857 138.527 89.9384 139.29 89.4829C140.052 89.0275 140.921 88.7799 141.808 88.7647C143.161 88.7087 144.515 88.7037 145.869 88.6867C146.554 88.6699 147.234 88.7899 147.872 89.0396C148.509 89.2893 149.09 89.6636 149.581 90.1407C150.071 90.6179 150.462 91.1881 150.73 91.8181C150.997 92.4481 151.136 93.1251 151.139 93.8096C151.146 94.2456 151.122 94.6852 151.169 95.1165C151.218 95.4727 151.139 95.8347 150.946 96.1383C150.754 96.442 150.46 96.6677 150.117 96.7758C148.857 97.2762 147.521 97.5581 146.167 97.6092C145.437 97.6717 144.699 97.6391 143.965 97.6516ZM144.224 96.4269C145.511 96.4232 146.794 96.3029 148.058 96.0676C149.876 95.7476 149.952 95.6624 149.878 93.8421C149.879 93.3296 149.777 92.8221 149.579 92.3494C149.381 91.8766 149.091 91.4479 148.726 91.0885C148.361 90.729 147.928 90.4459 147.452 90.2557C146.976 90.0655 146.467 89.972 145.954 89.9807C144.532 89.9678 143.106 89.986 141.687 90.0672C140.969 90.091 140.275 90.324 139.689 90.7374C139.102 91.1508 138.649 91.7266 138.386 92.394C138.108 93.2189 137.996 94.0908 138.058 94.9593C138.038 95.0763 138.042 95.1963 138.071 95.3116C138.099 95.4269 138.152 95.5349 138.225 95.6288C138.297 95.7228 138.389 95.8006 138.493 95.8573C138.597 95.9141 138.712 95.9485 138.831 95.9584C140.599 96.3632 142.414 96.5209 144.225 96.4269L144.224 96.4269Z" fill="#3C23B6" stroke="#472FBA" stroke-width="1.50022"/>
<path d="M143.759 79.4441C144.296 79.4379 144.83 79.5383 145.329 79.7394C145.828 79.9405 146.282 80.2384 146.665 80.6158C147.048 80.9932 147.353 81.4427 147.561 81.9385C147.77 82.4342 147.878 82.9663 147.88 83.5041C147.882 84.0419 147.777 84.5748 147.572 85.072C147.367 85.5692 147.066 86.0208 146.685 86.4009C146.305 86.7811 145.853 87.0821 145.355 87.2867C144.858 87.4912 144.325 87.5953 143.787 87.5929C142.712 87.5882 141.683 87.1587 140.923 86.3982C140.163 85.6376 139.735 84.6077 139.731 83.5326C139.727 82.4576 140.148 81.4246 140.903 80.6588C141.657 79.893 142.684 79.4564 143.759 79.4441ZM141.006 83.5701C141.013 84.3089 141.313 85.0148 141.84 85.5325C142.367 86.0502 143.078 86.3373 143.817 86.3306C144.556 86.3239 145.262 86.0239 145.78 85.4967C146.297 84.9695 146.584 84.2582 146.578 83.5194C146.581 83.1494 146.51 82.7826 146.37 82.4403C146.23 82.0979 146.022 81.7869 145.761 81.5255C145.499 81.264 145.188 81.0573 144.845 80.9173C144.503 80.7774 144.136 80.7071 143.766 80.7104C143.396 80.7138 143.031 80.7908 142.691 80.9369C142.351 81.0831 142.044 81.2955 141.787 81.5617C141.53 81.8278 141.328 82.1425 141.194 82.4873C141.06 82.8322 140.996 83.2002 141.006 83.5701V83.5701Z" fill="#3C23B6" stroke="#472FBA" stroke-width="1.50022"/>
<path d="M126.761 79.7336C127.568 79.733 128.357 79.9719 129.028 80.4202C129.699 80.8685 130.222 81.5058 130.53 82.2515C130.838 82.9972 130.918 83.8177 130.76 84.6089C130.601 85.4001 130.211 86.1264 129.639 86.6957C129.067 87.265 128.339 87.6517 127.548 87.8068C126.756 87.9619 125.936 87.8784 125.191 87.5668C124.447 87.2552 123.812 86.7297 123.366 86.0567C122.921 85.3838 122.686 84.5938 122.69 83.7869C122.688 83.2526 122.792 82.7232 122.996 82.2295C123.201 81.7357 123.501 81.2873 123.879 80.9103C124.258 80.5333 124.708 80.2352 125.202 80.0333C125.697 79.8313 126.227 79.7294 126.761 79.7336V79.7336ZM126.725 80.9986C126.17 81.0082 125.63 81.1821 125.174 81.4983C124.718 81.8145 124.366 82.2588 124.163 82.775C123.959 83.2913 123.913 83.8563 124.031 84.3987C124.148 84.941 124.424 85.4363 124.823 85.8221C125.222 86.2078 125.726 86.4666 126.272 86.5658C126.818 86.665 127.381 86.6 127.89 86.3792C128.399 86.1584 128.831 85.7916 129.132 85.3252C129.433 84.8588 129.588 84.3137 129.579 83.7588C129.559 83.0166 129.248 82.3121 128.714 81.796C128.181 81.2799 127.466 80.9933 126.724 80.9976L126.725 80.9986Z" fill="#3C23B6" stroke="#472FBA" stroke-width="1.50022"/>
<path d="M160.783 79.1555C161.587 79.1487 162.374 79.3799 163.047 79.8199C163.719 80.2599 164.247 80.889 164.562 81.628C164.878 82.367 164.968 83.1829 164.821 83.973C164.674 84.7631 164.297 85.492 163.736 86.068C163.176 86.644 162.458 87.0413 161.672 87.2099C160.886 87.3785 160.068 87.3109 159.32 87.0155C158.573 86.7201 157.93 86.2103 157.472 85.55C157.013 84.8898 156.761 84.1088 156.745 83.3053C156.73 82.7655 156.823 82.2281 157.019 81.7249C157.214 81.2217 157.509 80.763 157.886 80.376C158.263 79.9889 158.713 79.6814 159.211 79.4718C159.708 79.2621 160.243 79.1546 160.783 79.1555V79.1555ZM160.772 80.4171C160.029 80.4333 159.322 80.741 158.804 81.2737C158.285 81.8065 157.997 82.5216 158.001 83.265C158.008 83.822 158.18 84.3644 158.495 84.8237C158.81 85.283 159.254 85.6384 159.772 85.8449C160.289 86.0514 160.856 86.0999 161.401 85.984C161.946 85.8681 162.444 85.5931 162.832 85.1939C163.221 84.7947 163.482 84.2893 163.583 83.7415C163.684 83.1937 163.62 82.6283 163.4 82.1168C163.179 81.6053 162.812 81.1707 162.344 80.8682C161.876 80.5656 161.329 80.4086 160.772 80.4171V80.4171Z" fill="#3C23B6" stroke="#472FBA" stroke-width="1.50022"/>
<path d="M126.713 77.6967C126.575 77.7168 126.435 77.6879 126.317 77.6152C126.198 77.5424 126.109 77.4304 126.065 77.2986C126.012 77.1452 126.014 76.9783 126.069 76.8258C126.124 76.6732 126.23 76.5442 126.369 76.4602C127.512 75.5405 128.649 74.6089 129.79 73.6853C131.323 72.4428 132.861 71.2074 134.39 69.959C134.761 69.6526 135.152 69.4239 135.524 69.8617C135.914 70.3192 135.577 70.653 135.214 70.9483C132.577 73.0891 129.942 75.2311 127.309 77.3745C127.11 77.5329 126.93 77.721 126.713 77.6967Z" fill="#3C23B6" stroke="#472FBA" stroke-width="1.50022"/>
<path d="M152.095 69.3461C152.326 69.3644 152.543 69.4643 152.707 69.6277C155.431 71.694 158.156 73.7596 160.88 75.8246C161.249 76.1044 161.515 76.414 161.198 76.8565C160.881 77.299 160.494 77.1555 160.123 76.8748C157.364 74.7784 154.603 72.6844 151.84 70.5928C151.565 70.3844 151.355 70.1558 151.471 69.7848C151.505 69.649 151.587 69.5301 151.701 69.4496C151.816 69.369 151.956 69.3323 152.095 69.3461V69.3461Z" fill="#3C23B6" stroke="#472FBA" stroke-width="1.50022"/>
<path d="M144.272 73.4541L144.323 76.4801C144.331 76.9501 144.268 77.3942 143.666 77.3985C143.101 77.4031 143.029 76.9762 143.022 76.5362C142.987 74.4735 142.952 72.4105 142.917 70.3472C142.909 69.8892 143.01 69.4914 143.568 69.4959C144.127 69.5004 144.213 69.911 144.22 70.36C144.238 71.3914 144.255 72.423 144.273 73.455L144.272 73.4541Z" fill="#3C23B6" stroke="#472FBA" stroke-width="1.50022"/>
<path d="M143.049 38.7695C144.251 38.7534 145.431 39.0941 146.44 39.7486C147.448 40.403 148.24 41.3418 148.715 42.4462C149.19 43.5506 149.327 44.771 149.108 45.9532C148.89 47.1353 148.325 48.2261 147.487 49.0876C146.648 49.9492 145.573 50.5427 144.397 50.7933C143.222 51.0438 141.998 50.94 140.881 50.4952C139.764 50.0503 138.804 49.2842 138.123 48.2939C137.441 47.3035 137.069 46.1333 137.052 44.9312C137.038 44.132 137.183 43.338 137.477 42.595C137.772 41.8519 138.21 41.1744 138.768 40.6016C139.325 40.0288 139.991 39.5721 140.725 39.2576C141.46 38.9432 142.25 38.7773 143.049 38.7695V38.7695ZM140.845 46.5982C140.864 47.0128 140.993 47.4147 141.22 47.7626C141.446 48.1104 141.761 48.3915 142.133 48.5769C142.406 48.7173 142.574 48.8425 142.567 49.1807C142.558 49.588 142.737 49.915 143.197 49.9282C143.657 49.9414 143.846 49.5961 143.841 49.2001C143.835 48.8041 144.026 48.6568 144.336 48.4914C144.59 48.3552 144.813 48.1678 144.991 47.9409C145.17 47.7141 145.299 47.4528 145.371 47.1735C145.473 46.8373 145.496 46.4822 145.439 46.1356C145.383 45.7889 145.247 45.4598 145.044 45.1736C144.84 44.8873 144.574 44.6515 144.265 44.4842C143.956 44.3169 143.613 44.2226 143.262 44.2085C142.825 44.1649 142.435 44.0945 142.219 43.678C142.116 43.5103 142.066 43.3149 142.077 43.1181C142.087 42.9212 142.158 42.7324 142.279 42.5767C142.379 42.4208 142.523 42.2977 142.693 42.2225C142.862 42.1472 143.05 42.1232 143.233 42.1534C143.464 42.1805 143.678 42.2863 143.841 42.4529C144.003 42.6195 144.103 42.8369 144.124 43.0685C144.195 43.5544 144.417 43.8697 144.942 43.7308C145.467 43.5918 145.471 43.1636 145.374 42.7231C145.318 42.405 145.192 42.1035 145.004 41.8406C144.817 41.5777 144.573 41.3602 144.29 41.2041C143.927 41.0102 143.652 40.8389 143.675 40.3483C143.664 40.1901 143.592 40.0424 143.475 39.9354C143.358 39.8285 143.204 39.7704 143.045 39.7731C142.887 39.7758 142.735 39.8391 142.622 39.9499C142.508 40.0608 142.442 40.2109 142.435 40.3694C142.465 40.853 142.206 41.0345 141.85 41.2516C141.464 41.4845 141.159 41.8302 140.976 42.2421C140.793 42.654 140.741 43.1122 140.827 43.5547C140.906 44.0336 141.137 44.4747 141.484 44.8137C141.832 45.1527 142.279 45.3719 142.76 45.4394C142.988 45.4572 143.216 45.4891 143.44 45.5348C143.668 45.5858 143.869 45.7194 144.004 45.9098C144.139 46.1002 144.198 46.3339 144.171 46.5657C144.178 46.7872 144.104 47.0037 143.963 47.1746C143.822 47.3456 143.624 47.4591 143.405 47.494C143.182 47.5626 142.942 47.5464 142.73 47.4487C142.518 47.3509 142.35 47.1784 142.258 46.9643C142.185 46.7963 142.133 46.6203 142.101 46.4398C142.093 46.359 142.068 46.2807 142.028 46.2099C141.988 46.1392 141.933 46.0775 141.868 46.0287C141.803 45.98 141.729 45.9452 141.65 45.9265C141.57 45.9079 141.488 45.9058 141.408 45.9205C141.327 45.9271 141.247 45.9501 141.174 45.9879C141.101 46.0258 141.037 46.0778 140.984 46.1409C140.932 46.204 140.892 46.277 140.868 46.3555C140.844 46.434 140.836 46.5166 140.845 46.5982V46.5982Z" fill="#472FBA"/>
</g>
<path opacity="0.1" d="M107.667 262.396C116.884 253.729 124.759 243.625 133.781 234.738C139.099 229.502 145.02 224.58 152.004 222.416C166.318 217.986 181.003 225.972 193.697 233.819C206.391 241.665 220.797 249.954 235.262 246.128C247.725 242.831 256.838 230.937 260.937 218.222C265.036 205.506 265.012 191.88 265.202 178.532C265.392 165.183 265.91 151.468 270.958 139.114C276.487 125.583 286.959 114.885 294.022 102.131C301.085 89.3778 304.053 71.8948 294.715 61.1396C290.258 56.0085 283.704 53.3375 277.135 52.0911C265.522 49.8912 253.513 51.6585 241.837 53.9055C235.843 55.0579 229.54 56.3175 223.824 54.2694C214.463 50.916 209.812 39.9846 201.535 34.3755C192.016 27.9258 178.988 29.6187 168.83 35.2756C158.672 40.9326 150.664 49.9444 142.521 58.4571C127.534 74.1248 112.691 82.8425 91.6855 85.7187C69.742 88.7251 44.6969 84.7478 25.4631 98.9712C9.43904 110.82 2.85773 134.787 10.536 153.329C16.4852 167.701 29.2257 177.57 37.712 190.451C48.2649 206.469 51.8306 226.843 49.9925 246.355C49.2066 254.696 47.6245 263.762 51.7028 270.901C56.2366 278.835 66.3864 281.373 75.2512 280.123C87.4802 278.412 98.4518 271.064 107.667 262.396Z" fill="#3C23B6"/>
</g>
<defs>
<clipPath id="clip0_229_20">
<rect width="256" height="142" fill="white"/>
</clipPath>
<clipPath id="clip1_229_20">
<rect width="50.108" height="62.337" fill="white" transform="translate(119 36)"/>
</clipPath>
</defs>
</svg>
