<svg width="256" height="142" viewBox="0 0 256 142" fill="none" xmlns="http://www.w3.org/2000/svg">
<g clip-path="url(#clip0_229_24)">
<g clip-path="url(#clip1_229_24)">
<path opacity="0.1" d="M214.133 27.9088C205.108 39.5088 198.017 52.4198 189.274 64.2218C184.121 71.1768 178.174 77.9108 170.324 81.8068C154.232 89.7878 134.845 84.0498 117.869 78.0418C100.893 72.0338 81.7692 65.8998 65.3592 73.2418C51.2192 79.5678 43.0592 94.7308 41.0812 109.737C39.1032 124.743 42.2622 139.879 45.1022 154.753C47.9422 169.627 50.4742 184.979 47.2792 199.785C43.7792 216.003 33.7192 230.128 28.2072 245.809C22.6952 261.49 23.1642 281.552 36.7972 291.509C43.3032 296.259 51.7512 297.827 59.8892 297.809C74.2762 297.773 88.2241 293.244 101.664 288.253C108.564 285.692 115.808 282.946 123.111 284.001C135.07 285.728 143.141 296.882 154.324 301.347C167.183 306.481 182.366 301.817 193.208 293.361C204.05 284.905 211.552 273.18 219.329 261.981C233.643 241.369 249.382 228.511 273.829 220.828C299.367 212.8 330.217 211.87 349.939 191.956C366.37 175.366 368.73 147.327 355.292 128.362C344.879 113.662 327.383 105.417 314.28 92.9158C297.986 77.3698 289.043 55.4908 286.757 33.4158C285.78 23.9788 285.588 13.5658 279.073 6.50378C271.831 -1.34422 259.116 -1.99621 248.807 1.28579C234.583 5.79979 223.157 16.3088 214.133 27.9088Z" fill="#3C23B6"/>
<g clip-path="url(#clip2_229_24)">
<path d="M119.999 57.1484H117.5C116.948 57.1484 116.5 57.5962 116.5 58.1484V91.8564C116.5 92.4087 116.948 92.8564 117.5 92.8564H119.999C120.551 92.8564 120.999 92.4087 120.999 91.8564V58.1484C120.999 57.5962 120.551 57.1484 119.999 57.1484Z" stroke="#3C23B6" stroke-width="3"/>
<path d="M132.731 63.5615H130.232C129.68 63.5615 129.232 64.0092 129.232 64.5615V91.8565C129.232 92.4088 129.68 92.8565 130.232 92.8565H132.731C133.284 92.8565 133.731 92.4088 133.731 91.8565V64.5615C133.731 64.0092 133.284 63.5615 132.731 63.5615Z" stroke="#3C23B6" stroke-width="3"/>
<path d="M145.56 69.9746H143.061C142.508 69.9746 142.061 70.4223 142.061 70.9746V91.8556C142.061 92.4079 142.508 92.8556 143.061 92.8556H145.56C146.112 92.8556 146.56 92.4079 146.56 91.8556V70.9746C146.56 70.4223 146.112 69.9746 145.56 69.9746Z" stroke="#3C23B6" stroke-width="3"/>
<path d="M158.292 76.3887H155.793C155.241 76.3887 154.793 76.8364 154.793 77.3887V91.8547C154.793 92.407 155.241 92.8547 155.793 92.8547H158.292C158.844 92.8547 159.292 92.407 159.292 91.8547V77.3887C159.292 76.8364 158.844 76.3887 158.292 76.3887Z" stroke="#3C23B6" stroke-width="3"/>
<path d="M171.12 82.708H168.621C168.069 82.708 167.621 83.1557 167.621 83.708V91.856C167.621 92.4083 168.069 92.856 168.621 92.856H171.12C171.672 92.856 172.12 92.4083 172.12 91.856V83.708C172.12 83.1557 171.672 82.708 171.12 82.708Z" stroke="#3C23B6" stroke-width="3"/>
<path d="M174.13 74.5692L172.407 68.8251C172.338 68.5911 172.179 68.3933 171.966 68.2737C171.753 68.1541 171.502 68.122 171.266 68.1842C171.03 68.2464 170.827 68.398 170.701 68.607C170.574 68.816 170.534 69.066 170.588 69.3042L171.641 72.8461L122.051 46.5191C121.938 46.4512 121.812 46.4067 121.681 46.3884C121.55 46.3701 121.417 46.3783 121.289 46.4125C121.162 46.4468 121.042 46.5064 120.938 46.5877C120.834 46.6691 120.747 46.7706 120.683 46.8861C120.618 47.0017 120.578 47.129 120.564 47.2605C120.55 47.392 120.563 47.5249 120.601 47.6514C120.64 47.7779 120.703 47.8954 120.788 47.9969C120.873 48.0984 120.977 48.1818 121.094 48.2421L170.684 74.5692L167.237 75.6221C167.009 75.7051 166.817 75.8655 166.694 76.0754C166.572 76.2853 166.527 76.5315 166.567 76.7711C166.64 77.0063 166.799 77.2056 167.012 77.3297C167.224 77.4537 167.476 77.4935 167.716 77.4411L173.46 75.7182C173.587 75.6998 173.708 75.6531 173.814 75.5816C173.92 75.5101 174.008 75.4156 174.072 75.3052C174.137 75.1947 174.175 75.0712 174.186 74.9438C174.196 74.8164 174.177 74.6883 174.13 74.5692V74.5692Z" fill="#3C23B6"/>
<path d="M175.183 45.0841L172.407 44.2221C172.192 43.5993 171.936 42.9916 171.641 42.4031L172.982 39.7181C173.071 39.53 173.101 39.319 173.066 39.1136C173.032 38.9082 172.936 38.7181 172.791 38.5691L170.685 36.4631C170.536 36.3175 170.346 36.2212 170.14 36.187C169.935 36.1529 169.724 36.1826 169.536 36.2721L166.855 37.6121C166.266 37.3164 165.658 37.0605 165.036 36.8461L164.174 34.0701C164.174 33.7831 163.791 33.4961 163.408 33.4961H160.442C160.237 33.5124 160.04 33.5831 159.872 33.7009C159.704 33.8187 159.57 33.9793 159.485 34.1661L158.623 37.0381C157.993 37.2349 157.384 37.4914 156.804 37.8041L154.22 36.3681C154.032 36.2787 153.821 36.2491 153.615 36.2832C153.41 36.3174 153.22 36.4137 153.071 36.5591L150.965 38.5701C150.819 38.7191 150.723 38.9091 150.689 39.1146C150.654 39.32 150.684 39.531 150.774 39.7191L152.114 42.3041C151.818 42.8927 151.562 43.5003 151.348 44.1231L148.572 44.9851C148.369 45.0473 148.194 45.1753 148.072 45.3486C147.951 45.5219 147.891 45.7308 147.902 45.9421V48.8181C147.918 49.0228 147.989 49.2195 148.106 49.3877C148.224 49.556 148.385 49.6897 148.572 49.7751L151.348 50.6371C151.562 51.2599 151.818 51.8676 152.114 52.4561L150.774 55.0411C150.684 55.2292 150.655 55.4401 150.689 55.6456C150.723 55.851 150.819 56.041 150.965 56.1901L153.071 58.2961C153.22 58.4416 153.41 58.538 153.615 58.5722C153.821 58.6063 154.032 58.5766 154.22 58.4871L156.901 57.1471C157.481 57.4595 158.09 57.716 158.72 57.9131L159.582 60.7851C159.644 60.9873 159.772 61.163 159.945 61.2844C160.118 61.4057 160.327 61.4658 160.539 61.4551H163.41C163.614 61.4388 163.811 61.3681 163.979 61.2503C164.147 61.1325 164.281 60.9719 164.367 60.7851L165.229 58.0091C165.851 57.7948 166.459 57.5389 167.048 57.2431L169.729 58.5831C169.917 58.6725 170.128 58.7021 170.333 58.6679C170.538 58.6338 170.729 58.5375 170.878 58.3921L172.984 56.2861C173.129 56.1371 173.226 55.9471 173.26 55.7416C173.294 55.5361 173.264 55.3252 173.175 55.1371L171.835 52.5521C172.13 51.9636 172.386 51.3559 172.601 50.7331L175.377 49.8711C175.579 49.8088 175.754 49.6809 175.876 49.5076C175.997 49.3343 176.057 49.1254 176.047 48.9141V46.0411C175.986 45.826 175.877 45.6277 175.728 45.4617C175.578 45.2957 175.392 45.1665 175.185 45.0841H175.183Z" stroke="#3C23B6" stroke-width="3"/>
<path d="M162.756 41.6514C161.603 41.6514 160.477 41.9931 159.519 42.6332C158.561 43.2734 157.814 44.1833 157.373 45.2479C156.932 46.3124 156.817 47.4838 157.042 48.614C157.266 49.7441 157.821 50.7822 158.636 51.597C159.451 52.4118 160.489 52.9666 161.619 53.1914C162.749 53.4162 163.921 53.3008 164.985 52.8599C166.05 52.4189 166.96 51.6722 167.6 50.7141C168.24 49.756 168.582 48.6296 168.582 47.4774C168.579 45.933 167.964 44.4527 166.872 43.3607C165.78 42.2687 164.3 41.654 162.756 41.6514V41.6514ZM162.756 50.9254C162.074 50.9254 161.407 50.7231 160.84 50.3443C160.273 49.9654 159.831 49.4269 159.57 48.7969C159.309 48.1668 159.241 47.4735 159.374 46.8047C159.507 46.1358 159.835 45.5215 160.318 45.0393C160.8 44.557 161.414 44.2287 162.083 44.0956C162.752 43.9626 163.445 44.0309 164.075 44.2918C164.705 44.5528 165.244 44.9947 165.623 45.5618C166.001 46.1288 166.204 46.7954 166.204 47.4774C166.203 48.3919 165.84 49.269 165.194 49.9159C164.547 50.5628 163.67 50.9266 162.756 50.9274V50.9254Z" fill="#3C23B6"/>
</g>
</g>
</g>
<defs>
<clipPath id="clip0_229_24">
<rect width="256" height="142" fill="white"/>
</clipPath>
<clipPath id="clip1_229_24">
<rect width="260" height="308" fill="white" transform="translate(-4 -143)"/>
</clipPath>
<clipPath id="clip2_229_24">
<rect width="62.545" height="62.355" fill="white" transform="translate(115 32)"/>
</clipPath>
</defs>
</svg>
