<svg width="256" height="142" viewBox="0 0 256 142" fill="none" xmlns="http://www.w3.org/2000/svg">
<g clip-path="url(#clip0_229_28)">
<g clip-path="url(#clip1_229_28)">
<path d="M168.04 35.5H170.295C170.399 35.5476 170.507 35.5855 170.618 35.613C172.832 35.9096 174.905 36.8678 176.566 38.3621C178.226 39.8564 179.397 41.8172 179.925 43.988C180.049 44.479 180.152 44.975 180.264 45.469V47.724C180.222 47.895 180.164 48.063 180.141 48.237C179.782 50.7443 178.575 53.0529 176.72 54.7778C174.866 56.5028 172.476 57.5398 169.949 57.716C168.215 57.824 166.47 57.769 164.731 57.791C164.522 57.791 164.313 57.81 164.101 57.819V73.976C165.725 73.976 167.301 73.968 168.885 73.976C171.439 73.9271 173.933 74.7565 175.949 76.3255C177.965 77.8945 179.382 80.108 179.962 82.596C180.082 83.072 180.162 83.558 180.262 84.039V86.294C180.214 86.3977 180.177 86.5059 180.151 86.617C179.854 88.8309 178.895 90.9036 177.401 92.564C175.907 94.2245 173.946 95.3955 171.776 95.924C171.285 96.048 170.789 96.151 170.294 96.263H168.039C167.849 96.22 167.66 96.163 167.468 96.134C164.984 95.7616 162.699 94.5571 160.989 92.7177C159.278 90.8782 158.242 88.5127 158.051 86.008C157.943 84.253 157.997 82.49 157.974 80.73C157.974 80.521 157.955 80.312 157.945 80.1H141.788C141.788 81.723 141.797 83.3 141.788 84.884C141.836 87.2666 141.118 89.6016 139.74 91.5457C138.362 93.4898 136.396 94.9404 134.132 95.684C133.353 95.95 132.532 96.076 131.726 96.268H129.471C129.367 96.2203 129.259 96.1825 129.148 96.155C126.934 95.8577 124.862 94.8994 123.201 93.4054C121.541 91.9114 120.37 89.9512 119.841 87.781C119.717 87.29 119.614 86.792 119.502 86.299V84.044C119.552 83.8752 119.593 83.704 119.625 83.531C119.984 81.0238 121.191 78.7155 123.046 76.9906C124.901 75.2657 127.29 74.2286 129.817 74.052C131.551 73.944 133.297 73.999 135.036 73.977C135.245 73.977 135.452 73.959 135.665 73.949V57.789C134.042 57.789 132.465 57.798 130.883 57.789C128.329 57.8378 125.835 57.0083 123.819 55.4391C121.802 53.87 120.386 51.6562 119.806 49.168C119.686 48.692 119.606 48.206 119.506 47.725V45.468C119.554 45.3644 119.592 45.2562 119.619 45.145C119.916 42.9311 120.875 40.8585 122.369 39.198C123.863 37.5375 125.824 36.3665 127.994 35.838C128.485 35.714 128.981 35.611 129.475 35.499H131.731C131.921 35.543 132.108 35.599 132.301 35.628C134.785 36.0012 137.069 37.2059 138.78 39.0452C140.49 40.8844 141.526 43.2496 141.719 45.754C141.825 47.509 141.773 49.273 141.796 51.033C141.796 51.241 141.815 51.45 141.825 51.662H157.982C157.982 50.039 157.973 48.462 157.982 46.878C157.934 44.4956 158.652 42.1607 160.03 40.2167C161.408 38.2726 163.373 36.8219 165.637 36.078C166.411 35.818 167.236 35.691 168.04 35.5ZM160.001 78.062C160.001 78.328 160.001 78.562 160.001 78.791C160.017 81.123 159.935 83.461 160.071 85.791C160.223 88.0951 161.25 90.254 162.942 91.8255C164.633 93.397 166.862 94.2623 169.171 94.244C170.378 94.2443 171.573 94.0048 172.687 93.5395C173.801 93.0742 174.811 92.3923 175.659 91.5335C176.507 90.6747 177.176 89.6559 177.628 88.5364C178.079 87.4169 178.303 86.219 178.288 85.012C178.273 83.8051 178.018 82.6131 177.538 81.5055C177.059 80.3978 176.364 79.3965 175.494 78.5595C174.624 77.7225 173.597 77.0666 172.472 76.6298C171.346 76.193 170.146 75.9841 168.939 76.015C156.226 75.987 143.512 75.987 130.798 76.015C129.02 75.9761 127.269 76.4585 125.761 77.4026C124.254 78.3467 123.055 79.7112 122.314 81.3281C121.572 82.945 121.32 84.7435 121.588 86.502C121.856 88.2605 122.633 89.9021 123.823 91.2245C125.013 92.5468 126.563 93.4921 128.284 93.9439C130.004 94.3957 131.819 94.3342 133.505 93.767C135.191 93.1998 136.674 92.1517 137.772 90.7518C138.869 89.352 139.533 87.6616 139.682 85.889C139.82 83.524 139.74 81.146 139.759 78.775C139.759 78.546 139.759 78.317 139.759 78.066L160.001 78.062ZM157.95 57.829H141.824V73.924H157.95V57.829ZM139.736 73.943C139.747 73.782 139.761 73.686 139.761 73.59C139.761 64.632 139.808 55.674 139.745 46.717C139.774 44.3097 138.849 41.9889 137.172 40.2618C135.494 38.5347 133.202 37.5417 130.795 37.4999C128.388 37.4582 126.062 38.371 124.326 40.0389C122.59 41.7068 121.585 43.9942 121.53 46.401C121.455 48.547 122.153 50.6485 123.498 52.3225C124.843 53.9966 126.744 55.1317 128.856 55.521C131.077 55.73 133.308 55.8038 135.538 55.742C135.57 55.742 135.604 55.707 135.653 55.678V53.737C135.364 53.737 135.129 53.737 134.895 53.737C133.273 53.721 131.649 53.77 130.033 53.672C128.623 53.5672 127.279 53.0364 126.178 52.1498C125.077 51.2633 124.271 50.0629 123.868 48.708C123.453 47.3472 123.457 45.8931 123.88 44.5347C124.303 43.1764 125.125 41.9767 126.239 41.092C127.348 40.199 128.703 39.6655 130.124 39.5628C131.544 39.4601 132.962 39.793 134.188 40.517C135.327 41.1723 136.262 42.1305 136.889 43.2852C137.516 44.4399 137.811 45.7459 137.74 47.058C137.733 55.7586 137.733 64.4587 137.74 73.158V73.94L139.736 73.943ZM162.028 73.943V73.119C162.028 64.4777 162.028 55.8367 162.028 47.196C162.018 46.6024 162.058 46.009 162.147 45.422C162.365 44.1553 162.924 42.9717 163.763 41.9982C164.602 41.0248 165.691 40.2981 166.911 39.8961C168.132 39.494 169.439 39.4318 170.693 39.7161C171.946 40.0004 173.099 40.6206 174.027 41.5099C174.955 42.3993 175.623 43.5245 175.96 44.7648C176.298 46.0052 176.291 47.3139 175.941 48.5507C175.591 49.7875 174.911 50.9057 173.974 51.7855C173.037 52.6654 171.878 53.2736 170.622 53.545C169.942 53.671 169.252 53.7319 168.561 53.727C167.082 53.754 165.603 53.736 164.102 53.736V55.736C165.928 55.736 167.702 55.747 169.482 55.728C169.956 55.7141 170.428 55.6595 170.893 55.565C172.596 55.2201 174.164 54.395 175.413 53.1872C176.661 51.9794 177.538 50.4394 177.94 48.7492C178.341 47.059 178.251 45.2891 177.678 43.6488C177.106 42.0085 176.077 40.5663 174.711 39.4925C173.345 38.4187 171.701 37.7583 169.972 37.5893C168.243 37.4203 166.501 37.7498 164.953 38.5388C163.406 39.3277 162.116 40.5433 161.237 42.0417C160.358 43.5402 159.926 45.259 159.993 46.995C159.988 55.755 159.988 64.515 159.993 73.275V73.942L162.028 73.943ZM135.664 51.733C135.664 49.851 135.698 48.095 135.655 46.34C135.581 45.0519 135.014 43.8416 134.073 42.9594C133.131 42.0771 131.887 41.5903 130.597 41.5997C129.307 41.609 128.069 42.1138 127.141 43.0097C126.212 43.9056 125.664 45.124 125.608 46.413C125.532 47.5083 125.828 48.5971 126.45 49.5023C127.071 50.4075 127.98 51.0757 129.03 51.398C131.191 52.048 133.421 51.558 135.664 51.733V51.733ZM164.057 51.656C164.174 51.6786 164.291 51.6946 164.41 51.704C165.952 51.704 167.493 51.715 169.035 51.704C170.023 51.7302 170.998 51.4665 171.838 50.9453C172.679 50.4242 173.348 49.6684 173.764 48.7713C174.18 47.8742 174.324 46.8749 174.179 45.8968C174.034 44.9187 173.606 44.0044 172.947 43.2669C172.288 42.5294 171.428 42.0008 170.472 41.7463C169.517 41.4919 168.508 41.5227 167.569 41.835C166.631 42.1473 165.805 42.7274 165.193 43.5038C164.58 44.2802 164.208 45.2188 164.123 46.204C164.042 47.385 164.072 48.573 164.058 49.757C164.051 50.383 164.058 51.01 164.058 51.656H164.057ZM157.944 53.773H141.837V55.728H157.944V53.773Z" fill="#3C23B6" stroke="#3C23B6"/>
<path d="M137.671 82.1648C137.671 83.3698 137.742 84.5798 137.658 85.7788C137.526 87.1487 136.997 88.4503 136.136 89.5239C135.274 90.5975 134.118 91.3963 132.81 91.8225C131.501 92.2486 130.097 92.2835 128.768 91.9229C127.44 91.5623 126.246 90.8218 125.333 89.7923C124.419 88.7628 123.826 87.4891 123.626 86.1274C123.426 84.7656 123.628 83.3752 124.206 82.1265C124.785 80.8778 125.716 79.8252 126.884 79.0978C128.053 78.3705 129.408 78 130.784 78.0318C132.917 77.9968 135.053 78.0317 137.184 78.0177C137.589 78.0177 137.738 78.1258 137.73 78.5478C137.705 79.7528 137.721 80.9598 137.721 82.1648H137.671ZM135.723 80.0988C133.836 80.0988 132.078 80.0638 130.323 80.1068C129.035 80.183 127.825 80.7515 126.944 81.6948C126.063 82.6381 125.578 83.8838 125.589 85.1745C125.601 86.4652 126.108 87.7021 127.006 88.6292C127.904 89.5564 129.124 90.1029 130.414 90.1557C131.509 90.2292 132.598 89.9302 133.502 89.3071C134.405 88.684 135.072 87.7736 135.393 86.7238C136.035 84.5618 135.549 82.3328 135.723 80.0988Z" fill="#3C23B6" stroke="#3C23B6"/>
<path d="M162.017 82.0898C162.017 80.9038 162.023 79.7178 162.017 78.5328C162.017 78.2138 162.05 78.0108 162.454 78.0178C164.924 78.0508 167.4 77.9618 169.862 78.1078C171.583 78.2691 173.183 79.0612 174.354 80.3315C175.526 81.6019 176.186 83.2608 176.208 84.9888C176.227 85.9342 176.056 86.8738 175.707 87.7524C175.357 88.6309 174.835 89.4306 174.172 90.1046C173.508 90.7786 172.717 91.3131 171.844 91.6768C170.971 92.0405 170.035 92.2261 169.089 92.2226C168.143 92.2191 167.208 92.0265 166.338 91.6562C165.468 91.286 164.681 90.7456 164.022 90.0667C163.364 89.3878 162.848 88.5841 162.505 87.703C162.162 86.8219 161.998 85.881 162.024 84.9358C162.001 83.9878 162.017 83.0388 162.017 82.0898ZM164.089 80.0278C164.089 81.9088 164.055 83.6648 164.097 85.4198C164.171 86.7082 164.738 87.9187 165.68 88.8011C166.621 89.6836 167.866 90.1705 169.156 90.1611C170.447 90.1518 171.684 89.6468 172.613 88.7508C173.542 87.8547 174.091 86.6361 174.146 85.3468C174.222 84.2516 173.926 83.1628 173.304 82.2576C172.683 81.3525 171.774 80.6843 170.724 80.3618C168.563 79.7118 166.332 80.1988 164.089 80.0278V80.0278Z" fill="#3C23B6" stroke="#3C23B6"/>
</g>
<path opacity="0.1" d="M107.667 262.396C116.884 253.729 124.759 243.625 133.781 234.738C139.099 229.502 145.02 224.58 152.004 222.416C166.318 217.986 181.003 225.972 193.697 233.819C206.391 241.665 220.797 249.954 235.262 246.128C247.725 242.831 256.838 230.937 260.937 218.222C265.036 205.506 265.012 191.88 265.202 178.532C265.392 165.183 265.91 151.468 270.958 139.114C276.487 125.583 286.959 114.885 294.022 102.131C301.085 89.3778 304.053 71.8948 294.715 61.1396C290.258 56.0085 283.704 53.3375 277.135 52.0911C265.522 49.8912 253.513 51.6585 241.837 53.9055C235.843 55.0579 229.54 56.3175 223.824 54.2694C214.463 50.916 209.812 39.9846 201.535 34.3755C192.016 27.9258 178.988 29.6187 168.83 35.2756C158.672 40.9326 150.664 49.9444 142.521 58.4571C127.534 74.1248 112.691 82.8425 91.6855 85.7187C69.742 88.7251 44.6969 84.7478 25.4631 98.9712C9.43904 110.82 2.85773 134.787 10.536 153.329C16.4852 167.701 29.2257 177.57 37.712 190.451C48.2649 206.469 51.8306 226.843 49.9925 246.355C49.2066 254.696 47.6245 263.762 51.7028 270.901C56.2366 278.835 66.3864 281.373 75.2512 280.123C87.4802 278.412 98.4518 271.064 107.667 262.396Z" fill="#3C23B6"/>
</g>
<defs>
<clipPath id="clip0_229_28">
<rect width="256" height="142" fill="white"/>
</clipPath>
<clipPath id="clip1_229_28">
<rect width="61.764" height="61.764" fill="white" transform="translate(119 35)"/>
</clipPath>
</defs>
</svg>
