<svg width="256" height="142" viewBox="0 0 256 142" fill="none" xmlns="http://www.w3.org/2000/svg">
<g clip-path="url(#clip0_229_7)">
<g clip-path="url(#clip1_229_7)">
<path opacity="0.1" d="M84.0519 170.254C69.4519 163.373 49.2259 143.508 62.1089 114.68C74.9919 85.8515 99.4679 92.6915 133.822 63.3745C175.522 27.7835 204.812 25.8275 242.036 41.3865C263.078 50.1865 266.513 86.3395 300.007 108.817C330.202 129.079 305.589 163.542 289.701 168.917C273.813 174.292 263.077 174.292 263.077 174.292C263.077 174.292 98.6499 177.134 84.0519 170.254Z" fill="#3C23B6"/>
<g clip-path="url(#clip2_229_7)">
<path d="M113.947 59.5571C113.909 59.5187 113.878 59.473 113.858 59.4227C113.838 59.3724 113.828 59.3187 113.828 59.2644C113.829 59.2102 113.841 59.1567 113.862 59.107C113.884 59.0573 113.916 59.0124 113.955 58.9751C114.366 58.5871 114.738 58.2291 115.132 57.9001C115.204 57.851 115.265 57.7882 115.312 57.7154C115.36 57.6425 115.392 57.561 115.408 57.4756C115.424 57.3901 115.423 57.3023 115.405 57.2173C115.387 57.1323 115.352 57.0517 115.303 56.9801V56.9731C114.695 55.6311 114.711 55.6251 113.212 55.6401H112.843C112.687 55.6399 112.538 55.5779 112.428 55.4679C112.318 55.3578 112.256 55.2087 112.256 55.0531V48.4461C112.256 48.2913 112.317 48.1429 112.426 48.0331C112.535 47.9232 112.683 47.8607 112.838 47.8591C113.277 47.8531 113.716 47.8471 114.153 47.8741C114.611 47.9021 114.765 47.6891 114.996 47.3151C115.144 47.1348 115.249 46.9233 115.303 46.6965C115.357 46.4697 115.359 46.2336 115.309 46.0059C115.259 45.7782 115.157 45.5649 115.013 45.382C114.868 45.1991 114.684 45.0514 114.474 44.9501C114.343 44.8581 114.216 44.7601 114.09 44.6601C114.039 44.6211 113.997 44.5717 113.967 44.5152C113.937 44.4587 113.919 44.3963 113.915 44.3324C113.911 44.2684 113.921 44.2043 113.943 44.1445C113.966 44.0846 114.001 44.0302 114.047 43.9851L119.054 39.0851C119.096 39.0435 119.146 39.0106 119.201 38.9885C119.256 38.9664 119.314 38.9555 119.373 38.9565C119.433 38.9574 119.491 38.9701 119.545 38.9939C119.599 39.0177 119.648 39.0522 119.689 39.0951C119.989 39.4081 120.315 39.7561 120.62 40.1231C120.905 40.4661 121.159 40.3981 121.549 40.3001C121.781 40.28 122.006 40.2076 122.206 40.0883C122.407 39.969 122.578 39.8058 122.706 39.6111C122.834 39.4163 122.917 39.1951 122.947 38.9639C122.978 38.7327 122.956 38.4975 122.883 38.2761C122.864 38.0817 122.855 37.8864 122.856 37.6911C122.859 37.5715 122.909 37.4579 122.995 37.375C123.082 37.2921 123.197 37.2465 123.317 37.2481H130.192C130.313 37.2483 130.429 37.2963 130.514 37.3815C130.6 37.4666 130.649 37.5822 130.65 37.7031C130.657 38.1651 130.666 38.6231 130.637 39.0771C130.599 39.2758 130.641 39.4813 130.753 39.6495C130.865 39.8178 131.039 39.9354 131.237 39.9771C132.55 40.4621 132.545 40.4901 133.537 39.4901C133.681 39.3441 133.811 39.1901 133.968 38.9901C134.009 38.9382 134.062 38.896 134.121 38.8662C134.181 38.8364 134.246 38.8198 134.312 38.8175C134.379 38.8153 134.445 38.8274 134.506 38.853C134.568 38.8786 134.623 38.9172 134.668 38.9661C135.143 39.4761 135.568 39.9391 136.01 40.3881C136.82 41.2131 137.619 42.0491 138.479 42.8211C138.773 43.0737 139.152 43.2056 139.54 43.1901C145.798 42.4697 152.091 44.2102 157.09 48.0439C162.088 51.8775 165.401 57.5042 166.328 63.7351C166.702 66.2039 166.679 68.7165 166.26 71.1781C166.196 71.4426 166.236 71.7217 166.373 71.9571C168.131 73.8925 169.219 76.3435 169.473 78.9461H171.407C171.658 78.9464 171.9 79.0465 172.077 79.2244C172.255 79.4024 172.355 79.6436 172.355 79.8951C172.355 80.1465 172.255 80.3877 172.077 80.5655C171.899 80.7433 171.658 80.8431 171.407 80.8431H169.64C169.193 82.2531 168.854 83.5931 168.34 84.8631C167.765 86.3335 166.803 87.6205 165.555 88.5871C165.212 88.8018 164.942 89.1147 164.779 89.4851C164.616 89.8556 164.569 90.2664 164.643 90.6641C164.663 90.9467 164.665 91.2303 164.649 91.5131H165.522C165.781 91.5131 166.029 91.616 166.212 91.799C166.395 91.982 166.498 92.2303 166.498 92.4891C166.498 92.748 166.395 92.9962 166.212 93.1792C166.029 93.3623 165.781 93.4651 165.522 93.4651H164.671V96.3341C164.671 96.4623 164.646 96.5893 164.597 96.7077C164.548 96.8262 164.476 96.9339 164.385 97.0245C164.295 97.1152 164.187 97.1871 164.068 97.2361C163.95 97.2851 163.823 97.3102 163.695 97.3101H152.031C151.903 97.3102 151.776 97.2851 151.657 97.2361C151.539 97.1871 151.431 97.1152 151.34 97.0245C151.25 96.9339 151.178 96.8262 151.129 96.7077C151.08 96.5893 151.055 96.4623 151.055 96.3341V93.5121H150.094C149.966 93.5123 149.839 93.4871 149.72 93.4381C149.602 93.3891 149.494 93.3172 149.403 93.2265C149.313 93.1359 149.241 93.0282 149.192 92.9098C149.143 92.7913 149.118 92.6643 149.118 92.5361V92.5261C149.118 92.2673 149.221 92.019 149.404 91.836C149.587 91.6529 149.835 91.5501 150.094 91.5501H150.96V90.0811C149.446 90.5251 147.911 90.8923 146.36 91.1811C136.28 92.5911 128.171 89.1731 122.26 80.9041C118.872 76.1664 117.425 70.3126 118.214 64.5421C118.253 64.3316 118.237 64.1144 118.167 63.912C118.097 63.7097 117.975 63.5291 117.814 63.3881C116.541 62.1681 115.298 60.9051 113.947 59.5571ZM164.314 70.2291C164.362 70.1647 164.403 70.0957 164.437 70.0231C164.455 69.9483 164.467 69.872 164.473 69.7951C164.845 66.4521 164.459 63.0682 163.342 59.8954C162.225 56.7227 160.406 53.8429 158.021 51.4707C155.636 49.0985 152.747 47.2951 149.568 46.1949C146.39 45.0946 143.004 44.7259 139.663 45.1161C139.33 45.1109 139.003 45.1979 138.717 45.3675C138.43 45.5372 138.197 45.7828 138.042 46.0771L138.807 47.8921H140.85C140.967 47.8921 141.08 47.9388 141.163 48.0218C141.246 48.1049 141.293 48.2176 141.293 48.3351C141.293 48.3351 142.444 54.1911 141.293 55.5931C141.161 55.7541 140.88 55.6481 140.672 55.6361C140.387 55.5299 140.081 55.4924 139.779 55.5266C139.477 55.5608 139.187 55.6659 138.933 55.8332C138.679 56.0005 138.468 56.2253 138.318 56.4894C138.167 56.7535 138.081 57.0494 138.066 57.3531C138.057 57.4021 138.052 57.4531 138.046 57.5001L137.869 57.6771L139.247 58.8561C139.3 58.902 139.344 58.9585 139.374 59.0219C139.405 59.0853 139.422 59.1544 139.425 59.2248C139.428 59.2952 139.416 59.3654 139.39 59.431C139.364 59.4966 139.326 59.5562 139.276 59.6061L134.698 64.1891C134.632 64.2549 134.553 64.3066 134.466 64.3412C134.379 64.3758 134.286 64.3926 134.193 64.3904C134.1 64.3883 134.008 64.3673 133.923 64.3287C133.837 64.2902 133.761 64.2349 133.698 64.1661L132.606 62.9661C132.177 63.1773 131.737 63.3623 131.286 63.5201C131.084 63.5451 130.9 63.6491 130.775 63.8094C130.649 63.9696 130.593 64.1731 130.617 64.3751C130.62 64.4014 130.625 64.4274 130.631 64.4531C130.683 65.0531 130.643 65.6641 130.643 66.2851H122.876C122.851 65.9101 122.853 65.5337 122.885 65.1591C123.004 64.789 122.972 64.3865 122.795 64.0401C122.618 63.6938 122.311 63.4319 121.941 63.3121C121.836 63.2782 121.727 63.2561 121.617 63.2461C121.493 63.1959 121.361 63.1703 121.228 63.1711C121.095 63.1719 120.963 63.1989 120.84 63.2507C120.718 63.3024 120.606 63.3778 120.513 63.4726C120.419 63.5674 120.345 63.6797 120.295 63.8031C120.276 63.8482 120.261 63.8947 120.249 63.9421C120.194 64.1667 120.156 64.395 120.135 64.6251C119.633 68.6492 120.256 72.7336 121.935 76.4251C123.883 80.7704 127.171 84.3775 131.318 86.7177C135.466 89.0579 140.253 90.0081 144.98 89.4291C146.558 89.2291 148.107 88.7911 149.86 88.4211C147.776 86.4089 146.481 83.7178 146.208 80.8341H144.245C143.992 80.8341 143.75 80.7337 143.571 80.555C143.392 80.3763 143.292 80.1338 143.292 79.8811V79.8811C143.292 79.6302 143.391 79.3895 143.567 79.2111C143.743 79.0327 143.983 78.931 144.234 78.9281C144.634 78.9281 145.017 78.9281 145.403 78.9471C145.993 78.9841 146.235 78.8331 146.321 78.1771C146.763 75.2387 148.31 72.5801 150.648 70.7451C152.985 68.9101 155.935 68.0372 158.894 68.3051C160.825 68.5167 162.68 69.1755 164.312 70.2291H164.314ZM125.399 39.1861C125.324 39.1861 125.25 39.2009 125.181 39.2298C125.112 39.2586 125.05 39.3009 124.998 39.3542C124.945 39.4074 124.904 39.4705 124.876 39.5399C124.848 39.6092 124.835 39.6834 124.836 39.7581C124.847 40.0953 124.839 40.4329 124.811 40.7691C124.796 40.8824 124.756 40.9909 124.693 41.0867C124.631 41.1825 124.548 41.2633 124.451 41.3231C123.202 41.8331 121.935 42.2981 120.419 42.8741L119.786 42.0971C119.733 42.0317 119.667 41.9781 119.591 41.9397C119.516 41.9014 119.434 41.8791 119.35 41.8743C119.266 41.8695 119.182 41.8823 119.103 41.9119C119.024 41.9415 118.952 41.9872 118.892 42.0461L116.907 43.9851C116.853 44.0378 116.811 44.1011 116.783 44.1711C116.755 44.241 116.742 44.316 116.744 44.3913C116.747 44.4665 116.765 44.5404 116.798 44.6083C116.831 44.6761 116.878 44.7363 116.935 44.7851L117.497 45.2621C117.592 45.3439 117.659 45.4529 117.69 45.5743C117.721 45.6958 117.714 45.8238 117.67 45.9411C117.21 47.1631 116.798 48.2831 116.346 49.3861C116.287 49.4951 116.204 49.5895 116.104 49.6627C116.005 49.7359 115.89 49.7859 115.768 49.8091C115.406 49.8358 115.043 49.8471 114.679 49.8431C114.618 49.8415 114.558 49.8521 114.501 49.8742C114.444 49.8964 114.393 49.9296 114.349 49.972C114.305 50.0144 114.271 50.0651 114.247 50.1211C114.223 50.1771 114.211 50.2373 114.211 50.2981V53.1631C114.211 53.3103 114.269 53.4514 114.373 53.5555C114.477 53.6596 114.619 53.7181 114.766 53.7181H115.777C115.873 53.7182 115.967 53.7467 116.047 53.8001C116.127 53.8535 116.19 53.9293 116.227 54.0181L117.749 57.6591C117.795 57.7694 117.803 57.8916 117.773 58.0072C117.743 58.1228 117.676 58.2254 117.582 58.2991L116.822 58.8991C116.78 58.9318 116.745 58.973 116.72 59.0199C116.696 59.0669 116.681 59.1186 116.677 59.1716C116.674 59.2246 116.681 59.2779 116.7 59.3277C116.718 59.3776 116.747 59.4231 116.784 59.4611L119.274 62.0241C119.606 61.6403 119.964 61.2798 120.346 60.9451C120.456 60.872 120.582 60.8237 120.713 60.8035C120.844 60.7833 120.977 60.7917 121.105 60.8281C122.204 61.2414 123.289 61.6925 124.359 62.1811C124.475 62.2466 124.575 62.336 124.654 62.4435C124.732 62.5509 124.787 62.6739 124.814 62.8041C124.856 63.3057 124.863 63.8096 124.835 64.3121H128.726V62.4461C130.039 61.8601 131.219 61.3121 132.426 60.8191C132.553 60.7814 132.688 60.7732 132.819 60.7952C132.95 60.8172 133.074 60.8688 133.182 60.9461C133.544 61.3111 133.675 62.0761 134.188 62.1151C135.199 62.1921 137.199 60.2671 137.072 59.2611C137.004 58.7251 136.26 58.5501 135.903 58.1541C135.833 58.0655 135.784 57.9621 135.76 57.8517C135.736 57.7412 135.738 57.6268 135.765 57.5171C136.218 56.4491 136.704 55.3961 137.22 54.2611C137.295 54.0957 137.416 53.9553 137.569 53.8566C137.721 53.7579 137.899 53.705 138.081 53.7041H138.631C138.815 53.7028 138.99 53.6293 139.12 53.4994C139.251 53.3696 139.324 53.1939 139.326 53.0101V50.5211C139.326 50.4276 139.307 50.335 139.271 50.2488C139.234 50.1626 139.181 50.0845 139.114 50.0193C139.047 49.954 138.968 49.9029 138.881 49.8688C138.793 49.8348 138.7 49.8185 138.607 49.8211C138.4 49.8211 138.193 49.8288 137.986 49.8441C137.451 49.9061 137.213 49.7211 137.086 49.1861C136.918 48.5419 136.701 47.9118 136.437 47.3011C136.208 46.7391 135.648 46.1581 135.731 45.6681C135.814 45.1781 136.502 44.7681 136.922 44.3151C136.949 44.2861 136.945 44.2281 136.922 44.3151L134.468 41.7981C134.428 41.7582 134.381 41.7271 134.328 41.7068C134.276 41.6865 134.22 41.6774 134.164 41.6802C134.107 41.683 134.053 41.6977 134.003 41.7232C133.952 41.7487 133.908 41.7844 133.873 41.8281L133.226 42.6421C133.156 42.7295 133.057 42.7889 132.947 42.8096C132.837 42.8303 132.723 42.811 132.626 42.7551C131.934 42.3673 131.207 42.0459 130.454 41.7951C129.039 41.5031 128.371 40.8531 128.684 39.3831C128.693 39.3431 128.554 39.2471 128.461 39.1831C127.819 38.7591 125.399 39.1861 125.399 39.1861ZM156.84 91.4861C156.84 89.0561 156.827 86.6971 156.85 84.3391C156.875 84.1422 156.83 83.9427 156.722 83.776C156.614 83.6094 156.451 83.4865 156.261 83.4291C155.398 83.0669 154.699 82.3984 154.299 81.5522C153.899 80.7061 153.826 79.742 154.094 78.8451C154.331 78.0119 154.841 77.2822 155.542 76.7728C156.243 76.2634 157.094 76.0035 157.96 76.0347C158.826 76.0659 159.656 76.3864 160.319 76.9449C160.981 77.5035 161.437 78.268 161.614 79.1161C161.81 79.9494 161.711 80.8248 161.334 81.5934C160.958 82.362 160.326 82.9761 159.547 83.3311C159.29 83.4134 159.071 83.5852 158.93 83.8154C158.789 84.0456 158.735 84.3188 158.779 84.5851C158.826 86.6151 158.796 88.6451 158.796 90.6751V91.4831H162.659C162.659 90.7411 162.709 90.0491 162.646 89.3661C162.605 89.0433 162.663 88.7157 162.813 88.4269C162.964 88.1382 163.198 87.9021 163.486 87.7501C165.154 86.5482 166.397 84.8467 167.035 82.8916C167.672 80.9366 167.671 78.8294 167.032 76.875C166.393 74.9205 165.148 73.2201 163.479 72.0198C161.809 70.8194 159.801 70.1813 157.744 70.1978C155.688 70.2143 153.69 70.8846 152.04 72.1117C150.39 73.3387 149.173 75.0589 148.565 77.0234C147.957 78.9878 147.99 81.0947 148.659 83.0393C149.328 84.9838 150.598 86.6652 152.286 87.8401C152.517 87.9636 152.707 88.1532 152.83 88.3847C152.953 88.6163 153.004 88.8793 152.977 89.1401C152.925 89.9011 152.965 90.6681 152.965 91.4841L156.84 91.4861ZM153.92 95.3861H161.682C161.927 95.3861 162.161 95.2889 162.335 95.1158C162.508 94.9427 162.605 94.7079 162.605 94.4631V94.4631C162.605 94.2183 162.508 93.9836 162.335 93.8105C162.161 93.6374 161.927 93.5401 161.682 93.5401H153.919C153.674 93.5401 153.439 93.6374 153.266 93.8105C153.093 93.9836 152.996 94.2183 152.996 94.4631V94.4631C152.996 94.5845 153.019 94.7047 153.066 94.8169C153.112 94.9292 153.18 95.0311 153.266 95.117C153.351 95.203 153.453 95.2712 153.565 95.3177C153.677 95.3642 153.797 95.3881 153.919 95.3881L153.92 95.3861ZM157.819 81.8291C158.331 81.8139 158.818 81.6017 159.178 81.2366C159.537 80.8715 159.742 80.3816 159.75 79.8691C159.758 79.3736 159.568 78.8951 159.224 78.5389C158.879 78.1827 158.407 77.9778 157.912 77.9691H157.834C157.329 77.9774 156.846 78.1774 156.483 78.5285C156.12 78.8797 155.905 79.3557 155.88 79.8601C155.873 80.375 156.071 80.8716 156.43 81.2406C156.789 81.6097 157.28 81.821 157.795 81.8281H157.817L157.819 81.8291Z" fill="#3C23B6" stroke="#3C23B6" stroke-width="0.5"/>
<path d="M127.15 68.3369L132.15 70.8309C132.379 70.9453 132.554 71.1452 132.636 71.3874C132.719 71.6296 132.703 71.8946 132.591 72.1249C132.535 72.2406 132.457 72.3441 132.361 72.4293C132.265 72.5146 132.153 72.5799 132.031 72.6216C131.91 72.6632 131.781 72.6804 131.653 72.6721C131.525 72.6637 131.399 72.63 131.284 72.5729L128.284 71.0869C129.04 73.8673 130.602 76.3617 132.773 78.2557C134.944 80.1498 137.627 81.3586 140.484 81.7299C140.727 81.7636 140.947 81.8882 141.101 82.0786C141.255 82.2689 141.331 82.5108 141.313 82.7549C141.303 82.8916 141.265 83.0247 141.2 83.1456C141.136 83.2664 141.046 83.3724 140.938 83.4567C140.83 83.5409 140.706 83.6015 140.573 83.6346C140.44 83.6678 140.301 83.6726 140.166 83.6489C133.276 82.4909 128.757 78.5429 126.371 71.7859L125.171 73.7559C125.038 73.9747 124.823 74.1317 124.574 74.1928C124.325 74.2539 124.062 74.214 123.842 74.0819V74.0819C123.622 73.9493 123.464 73.7347 123.402 73.4854C123.34 73.236 123.379 72.9722 123.511 72.7519L125.948 68.6869C126.068 68.4876 126.258 68.3409 126.481 68.2759C126.704 68.211 126.943 68.2328 127.15 68.3369V68.3369Z" fill="#3C23B6" stroke="#3C23B6" stroke-width="0.5"/>
<path d="M158.216 62.7764L159.416 60.8184C159.549 60.6004 159.763 60.4438 160.011 60.3827C160.259 60.3216 160.521 60.3611 160.74 60.4924C160.96 60.6245 161.118 60.8386 161.181 61.0877C161.243 61.3367 161.204 61.6003 161.072 61.8204L158.661 65.8434C158.547 66.0323 158.373 66.1771 158.167 66.2536C157.96 66.3302 157.734 66.334 157.525 66.2644L152.617 64.6284C152.374 64.5475 152.173 64.374 152.058 64.1456C151.943 63.9173 151.923 63.6526 152.002 63.4094C152.081 63.1654 152.255 62.9631 152.483 62.8466C152.712 62.7302 152.978 62.7093 153.222 62.7884L156.386 63.8154C155.67 60.7953 153.988 58.0915 151.595 56.1154C149.456 54.3292 146.849 53.1933 144.085 52.8424C143.846 52.8098 143.629 52.688 143.476 52.5015C143.324 52.315 143.248 52.0777 143.264 51.8374V51.8184C143.273 51.683 143.31 51.5508 143.373 51.4307C143.436 51.3105 143.524 51.2051 143.631 51.1211C143.737 51.0372 143.861 50.9766 143.992 50.9434C144.124 50.9102 144.261 50.9051 144.395 50.9284C151.316 52.0844 155.854 56.0244 158.216 62.7764Z" fill="#3C23B6" stroke="#3C23B6" stroke-width="0.5"/>
<path d="M118.998 51.6901C119.018 49.6361 119.85 47.6735 121.313 46.2315C122.775 44.7894 124.75 43.9854 126.804 43.9952C128.858 44.005 130.824 44.8278 132.273 46.2837C133.722 47.7396 134.536 49.7101 134.536 51.7641C134.536 53.8182 133.722 55.7886 132.273 57.2445C130.824 58.7004 128.858 59.5233 126.804 59.533C124.75 59.5428 122.775 58.7387 121.313 57.2967C119.85 55.8547 119.018 53.8921 118.998 51.8381C118.998 51.7891 118.998 51.7401 118.998 51.6901ZM129.67 48.9901C129.555 48.9006 129.462 48.7861 129.398 48.6552C129.333 48.5244 129.3 48.3806 129.299 48.2348C129.299 48.0891 129.331 47.9451 129.395 47.8138C129.458 47.6825 129.551 47.5674 129.665 47.4771C129.999 47.2141 130.318 47.1771 130.291 46.9841C130.226 46.5181 128.551 46.2621 128.551 46.2621C128.46 46.2254 128.362 46.2115 128.265 46.2215C128.167 46.2314 128.074 46.265 127.993 46.3194C127.911 46.3737 127.845 46.4471 127.798 46.5331C127.752 46.6192 127.727 46.7153 127.726 46.8131V47.8191H125.77V46.5681C125.77 46.4927 125.752 46.4184 125.718 46.3512C125.684 46.2841 125.634 46.226 125.573 46.1819C125.512 46.1378 125.441 46.1088 125.366 46.0974C125.292 46.0859 125.216 46.0924 125.144 46.1161C124.538 46.2772 123.964 46.5385 123.444 46.8891C123.393 46.9728 123.355 47.0634 123.33 47.1581L123.811 47.5121C123.915 47.5888 124.003 47.686 124.068 47.7977C124.133 47.9094 124.175 48.0333 124.191 48.1617C124.207 48.2901 124.196 48.4204 124.16 48.5446C124.124 48.6689 124.063 48.7844 123.98 48.8841L123.724 49.1931C123.674 49.254 123.611 49.3039 123.541 49.3396C123.47 49.3754 123.393 49.3962 123.314 49.4009C123.236 49.4056 123.156 49.3941 123.082 49.3669C123.008 49.3398 122.94 49.2976 122.883 49.2431V49.2431C122.778 49.1439 122.65 49.0715 122.511 49.0322C122.371 48.9928 122.225 48.9877 122.083 49.0171C121.941 49.0466 121.809 49.1098 121.697 49.2013C121.585 49.2929 121.496 49.4101 121.439 49.5431L121.277 49.9281C121.237 50.0223 121.221 50.1248 121.231 50.2267C121.24 50.3285 121.275 50.4263 121.331 50.5115C121.388 50.5967 121.465 50.6665 121.555 50.7148C121.645 50.7631 121.746 50.7883 121.848 50.7881V50.7881C122.107 50.7881 122.356 50.891 122.539 51.0742C122.722 51.2575 122.825 51.506 122.825 51.7651V52.0971C122.825 52.2588 122.763 52.4141 122.651 52.5309C122.539 52.6477 122.387 52.7169 122.225 52.7241C122.082 52.7323 121.943 52.7746 121.819 52.8475C121.696 52.9204 121.592 53.0217 121.515 53.143C121.439 53.2643 121.392 53.4021 121.38 53.5449C121.368 53.6877 121.39 53.8314 121.444 53.9641L121.581 54.2871C121.622 54.3839 121.685 54.4695 121.766 54.5365C121.847 54.6034 121.943 54.6498 122.045 54.6717C122.148 54.6935 122.255 54.6901 122.356 54.6618C122.457 54.6335 122.55 54.5811 122.626 54.5091V54.5091C122.788 54.3564 123.003 54.2714 123.226 54.2714C123.449 54.2714 123.664 54.3564 123.826 54.5091L124.448 55.0901C124.486 55.1255 124.515 55.1688 124.535 55.2168C124.554 55.2648 124.563 55.3164 124.56 55.3681C124.557 55.4198 124.543 55.4703 124.519 55.5161C124.495 55.5618 124.461 55.6017 124.42 55.6331C124.301 55.7235 124.207 55.8439 124.15 55.982C124.092 56.12 124.071 56.2709 124.091 56.4194C124.11 56.5679 124.168 56.7086 124.259 56.8274C124.35 56.9463 124.471 57.0389 124.609 57.0961L124.944 57.2341C125.036 57.2722 125.137 57.287 125.236 57.2771C125.336 57.2672 125.431 57.233 125.514 57.1775C125.597 57.1219 125.665 57.0467 125.712 56.9586C125.759 56.8704 125.784 56.772 125.784 56.6721V56.6721C125.784 56.4122 125.887 56.1629 126.071 55.9792C126.255 55.7954 126.504 55.6921 126.764 55.6921C127.024 55.6921 127.273 55.7954 127.457 55.9792C127.641 56.1629 127.744 56.4122 127.744 56.6721V56.6921C127.744 56.7904 127.768 56.8872 127.815 56.9737C127.862 57.0603 127.929 57.1339 128.011 57.188C128.093 57.2421 128.187 57.275 128.285 57.2838C128.383 57.2925 128.482 57.2769 128.572 57.2381L130.072 56.5951C130.072 56.5951 130.158 56.3851 130.133 56.3181C130.079 56.1731 129.633 55.9511 129.633 55.9511C129.527 55.8726 129.438 55.7726 129.373 55.6576C129.308 55.5426 129.269 55.4152 129.256 55.2837C129.244 55.1522 129.26 55.0196 129.302 54.8946C129.345 54.7695 129.413 54.6549 129.503 54.5581L129.53 54.5291C129.614 54.4384 129.715 54.3654 129.828 54.3141C129.94 54.2627 130.062 54.2341 130.186 54.2299C130.309 54.2257 130.432 54.246 130.548 54.2896C130.664 54.3333 130.77 54.3994 130.86 54.4841V54.4841C130.941 54.5598 131.039 54.6148 131.145 54.6444C131.252 54.674 131.364 54.6773 131.472 54.654C131.58 54.6307 131.681 54.5815 131.766 54.5106C131.851 54.4398 131.918 54.3493 131.96 54.2471L132.194 53.6801C132.236 53.5787 132.253 53.4688 132.243 53.3595C132.233 53.2503 132.198 53.145 132.139 53.0525C132.08 52.9599 132 52.8828 131.905 52.8278C131.81 52.7727 131.704 52.7413 131.594 52.7361V52.7361C131.347 52.7306 131.112 52.6285 130.939 52.4517C130.766 52.2749 130.669 52.0374 130.669 51.7901V51.7681C130.669 51.6401 130.694 51.5134 130.742 51.3952C130.791 51.2769 130.863 51.1694 130.953 51.0788C131.044 50.9883 131.151 50.9164 131.269 50.8673C131.387 50.8183 131.514 50.7931 131.642 50.7931V50.7931C131.747 50.7932 131.85 50.7672 131.943 50.7176C132.035 50.668 132.114 50.5963 132.172 50.5088C132.23 50.4213 132.265 50.3209 132.275 50.2164C132.284 50.1119 132.268 50.0067 132.227 49.9101L131.82 48.9501C131.788 48.8733 131.736 48.8062 131.67 48.7554C131.604 48.7046 131.525 48.6717 131.443 48.6601C131.36 48.6484 131.276 48.6582 131.199 48.6887C131.121 48.7192 131.053 48.7694 131 48.8341C130.842 49.0277 130.614 49.1518 130.366 49.1801C130.118 49.2085 129.868 49.1389 129.67 48.9861V48.9901Z" fill="#3C23B6" stroke="#3C23B6" stroke-width="0.5"/>
<path d="M158.764 72.5697V73.6148C158.764 73.7244 158.72 73.8294 158.643 73.9068C158.565 73.9842 158.46 74.0277 158.35 74.0277H157.31L156.835 73.5808C156.735 72.1708 157.05 71.8747 158.442 72.1657C158.534 72.1859 158.616 72.2371 158.675 72.3106C158.734 72.3842 158.765 72.4757 158.764 72.5697V72.5697Z" fill="#3C23B6" stroke="#3C23B6" stroke-width="0.5"/>
<path d="M162.989 74.1683L163.663 74.8163C163.704 74.855 163.736 74.9015 163.758 74.9531C163.78 75.0046 163.792 75.0602 163.792 75.1163C163.792 75.1724 163.78 75.2279 163.758 75.2795C163.736 75.3311 163.704 75.3776 163.663 75.4163L162.956 76.0803C162.916 76.1179 162.869 76.1472 162.817 76.1665C162.766 76.1858 162.711 76.1946 162.656 76.1924C162.601 76.1903 162.547 76.1772 162.498 76.154C162.448 76.1308 162.403 76.0979 162.366 76.0573L161.746 75.3743C161.674 75.2946 161.635 75.1899 161.639 75.0824C161.642 74.9749 161.688 74.873 161.765 74.7983L162.419 74.1693C162.496 74.0959 162.598 74.0549 162.704 74.0547C162.81 74.0545 162.912 74.0952 162.989 74.1683V74.1683Z" fill="#3C23B6" stroke="#3C23B6" stroke-width="0.5"/>
<path d="M152.046 84.3672L152.734 83.6672C152.773 83.6264 152.819 83.5939 152.871 83.5717C152.923 83.5495 152.978 83.5381 153.034 83.5381C153.09 83.5381 153.146 83.5495 153.198 83.5717C153.249 83.5939 153.296 83.6264 153.334 83.6672L154 84.3672C154.038 84.4068 154.067 84.4534 154.087 84.5044C154.106 84.5554 154.115 84.6097 154.114 84.6642C154.112 84.7188 154.1 84.7725 154.077 84.8223C154.055 84.872 154.023 84.9169 153.983 84.9542L153.274 85.6172C153.195 85.6907 153.091 85.7306 152.983 85.7284C152.875 85.7262 152.772 85.682 152.696 85.6052L152.051 84.9482C151.974 84.8714 151.931 84.7675 151.93 84.6588C151.929 84.55 151.971 84.4453 152.046 84.3672V84.3672Z" fill="#3C23B6" stroke="#3C23B6" stroke-width="0.5"/>
<path d="M151.549 80.8192H150.494C150.384 80.8192 150.279 80.7757 150.202 80.6983C150.124 80.6209 150.08 80.5158 150.08 80.4062V79.4062C150.08 79.2964 150.124 79.1911 150.201 79.1135C150.279 79.0358 150.384 78.9922 150.494 78.9922H151.549C151.659 78.9922 151.764 79.0358 151.842 79.1135C151.919 79.1911 151.963 79.2964 151.963 79.4062V80.4062C151.963 80.5158 151.919 80.6209 151.841 80.6983C151.764 80.7757 151.659 80.8192 151.549 80.8192Z" fill="#3C23B6" stroke="#3C23B6" stroke-width="0.5"/>
<path d="M154.02 75.4373L153.32 76.1223C153.281 76.1608 153.234 76.191 153.183 76.2111C153.131 76.2312 153.076 76.2409 153.021 76.2395C152.966 76.2381 152.912 76.2257 152.862 76.203C152.811 76.1803 152.766 76.1477 152.728 76.1073L152.081 75.4074C152.008 75.3282 151.968 75.2235 151.971 75.1155C151.973 75.0075 152.018 74.9048 152.095 74.8294L152.795 74.1513C152.835 74.1128 152.881 74.0826 152.933 74.0623C152.984 74.042 153.038 74.0322 153.093 74.0333C153.148 74.0344 153.203 74.0465 153.253 74.0688C153.303 74.0911 153.349 74.1233 153.386 74.1634L154.038 74.8554C154.113 74.9352 154.152 75.0411 154.149 75.15C154.146 75.259 154.099 75.3622 154.02 75.4373V75.4373Z" fill="#3C23B6" stroke="#3C23B6" stroke-width="0.5"/>
<path d="M165.118 80.8345H164.107C163.998 80.8345 163.893 80.791 163.815 80.7136C163.737 80.6361 163.694 80.5311 163.693 80.4215V79.3945C163.693 79.2847 163.737 79.1794 163.815 79.1017C163.892 79.0241 163.998 78.9805 164.107 78.9805H165.118C165.228 78.9805 165.333 79.0241 165.411 79.1017C165.489 79.1794 165.532 79.2847 165.532 79.3945V80.4175C165.533 80.4721 165.522 80.5263 165.502 80.5768C165.481 80.6274 165.451 80.6734 165.412 80.7122C165.374 80.7509 165.328 80.7817 165.277 80.8027C165.227 80.8237 165.173 80.8345 165.118 80.8345V80.8345Z" fill="#3C23B6" stroke="#3C23B6" stroke-width="0.5"/>
<path d="M163.602 85.0075L162.948 85.6335C162.871 85.7083 162.768 85.7501 162.66 85.7501C162.553 85.7501 162.449 85.7083 162.372 85.6335L161.701 84.9755C161.662 84.937 161.63 84.8909 161.609 84.8401C161.587 84.7893 161.576 84.7347 161.576 84.6795C161.576 84.6243 161.587 84.5697 161.609 84.5188C161.63 84.468 161.662 84.422 161.701 84.3835L162.36 83.7435C162.438 83.6677 162.543 83.6259 162.652 83.627C162.761 83.6281 162.865 83.6721 162.942 83.7495L163.609 84.4195C163.647 84.4585 163.678 84.5047 163.698 84.5554C163.718 84.6061 163.728 84.6603 163.728 84.7149C163.727 84.7696 163.716 84.8235 163.694 84.8737C163.673 84.9239 163.641 84.9694 163.602 85.0075V85.0075Z" fill="#3C23B6" stroke="#3C23B6" stroke-width="0.5"/>
</g>
</g>
</g>
<defs>
<clipPath id="clip0_229_7">
<rect width="256" height="142" fill="white"/>
</clipPath>
<clipPath id="clip1_229_7">
<rect width="260" height="308" fill="white" transform="translate(0 -166)"/>
</clipPath>
<clipPath id="clip2_229_7">
<rect width="60.589" height="60.566" fill="white" transform="translate(112 37)"/>
</clipPath>
</defs>
</svg>
