<svg xmlns="http://www.w3.org/2000/svg" width="39.73" height="40.061" viewBox="0 0 39.73 40.061">
  <g id="noun-tick-3968147" transform="translate(0.5 0.5)">
    <path id="Path_173108" data-name="Path 173108" d="M120.94,25.306q-1.04,1.172-1.957,2.344c-.286.329-.53.658-.815,1.028a15.9,15.9,0,0,1,.775,4.852,15.58,15.58,0,1,1-7.991-13.692c.775-.781,1.549-1.521,2.365-2.261l.53-.452A19.052,19.052,0,0,0,103.369,14a19.531,19.531,0,1,0,19.365,19.53,19.851,19.851,0,0,0-1.794-8.223Z" transform="translate(-84.004 -13.999)" fill="#fff" stroke="#7c0ede" stroke-width="1"/>
    <path id="Path_173109" data-name="Path 173109" d="M239.213,67.379q-2.2,2.714-4.158,5.551c-.652.946-1.3,1.932-1.916,2.919l-5.218-6.5a1.858,1.858,0,0,0-2.976,2.22l6.564,9.827a2.144,2.144,0,0,0,.693.658,2.111,2.111,0,0,0,1.182.37,2.3,2.3,0,0,0,2-1.11c.367-.658,2.2-4.071,3.424-5.921,1.182-1.85,2.405-3.659,3.751-5.428,1.3-1.768,2.691-3.5,4.159-5.14a62.681,62.681,0,0,1,4.525-4.77l.041-.041a1.877,1.877,0,0,0,.122-2.59,1.814,1.814,0,0,0-2.609-.164c-1.794,1.6-3.384,3.207-4.974,4.893a69.039,69.039,0,0,0-4.607,5.222Z" transform="translate(-214.385 -53.646)" fill="#fff" stroke="#7c0ede" stroke-width="1"/>
  </g>
</svg>
