<svg width="256" height="142" viewBox="0 0 256 142" fill="none" xmlns="http://www.w3.org/2000/svg">
<g clip-path="url(#clip0_119_75)">
<path opacity="0.1" d="M68.9302 271.021C71.7854 288.26 67.1254 307.836 77.8797 321.884C86.3852 332.993 102.416 336.565 116.297 333.997C130.178 331.43 142.403 323.816 154.015 316.048C165.628 308.28 177.27 300.071 190.761 296.036C213.144 289.343 239.383 294.477 258.99 282.092C266.837 277.135 272.8 269.744 277.222 261.712C291.936 234.973 290.173 201.544 282.486 172.756C279.836 162.834 274.485 153.734 272.785 143.601C270.433 129.579 272.509 116.478 265.582 103.204C256.824 86.4176 239.34 75.7025 221.909 67.5569C206 60.1217 189.047 54.0229 171.481 53.3845C153.915 52.746 135.547 58.2167 123.887 70.8938C115.112 80.4377 110.69 93.2586 101.646 102.563C91.2211 113.286 74.8676 118.186 59.9309 115.064C52.9971 113.614 46.0578 110.553 39.1153 111.82C30.2583 113.436 24.3591 121.59 20.9023 129.673C13.4227 147.413 13.0863 167.356 19.9637 185.338C31.8293 216.156 63.5599 238.589 68.9302 271.021Z" fill="#3C23B6"/>
<g clip-path="url(#clip1_119_75)">
<path d="M133.991 75.9945C133.991 75.9945 134.912 90.823 157.464 90.7567C180.017 90.6904 179.892 72.2356 179.892 72.2356" stroke="#3C23B6" stroke-width="3" stroke-linecap="round"/>
<path d="M127.813 75.1367C127.813 75.1367 131.47 69.3346 133.991 69.3346C136.511 69.3346 140.168 75.1367 140.168 75.1367" stroke="#3C23B6" stroke-width="3" stroke-linecap="round" stroke-linejoin="round"/>
<path d="M178.91 58.0063C178.91 58.0063 177.988 43.177 155.436 43.2433C132.883 43.3096 133.009 61.7644 133.009 61.7644" stroke="#3C23B6" stroke-width="3" stroke-linecap="round"/>
<path d="M185.187 58.8633C185.187 58.8633 181.53 64.6654 179.009 64.6654C176.489 64.6654 172.832 58.8633 172.832 58.8633" stroke="#3C23B6" stroke-width="3" stroke-linecap="round" stroke-linejoin="round"/>
<path d="M167.752 62.0996L166.786 65.395H148.377L149.343 62.0996H167.752ZM159.115 84.3155L148.718 71.5882L148.661 69.2019H153.831C155.176 69.2019 156.322 69.0125 157.269 68.6337C158.216 68.2454 158.94 67.6678 159.442 66.9007C159.944 66.1242 160.195 65.1488 160.195 63.9746C160.195 62.2416 159.674 60.8827 158.632 59.8979C157.591 58.9036 155.99 58.4064 153.831 58.4064H148.377L149.343 55.2246H153.831C156.142 55.2246 158.036 55.6081 159.513 56.3751C161 57.1327 162.098 58.1744 162.808 59.5001C163.528 60.8164 163.888 62.3079 163.888 63.9746C163.888 65.4803 163.557 66.8676 162.894 68.1365C162.24 69.396 161.189 70.4092 159.74 71.1763C158.301 71.9433 156.397 72.3269 154.03 72.3269H153.945L163.547 84.0882V84.3155H159.115ZM167.752 55.2246L166.786 58.52L152.297 58.4064L153.263 55.2246H167.752Z" fill="#3C23B6"/>
</g>
</g>
<defs>
<clipPath id="clip0_119_75">
<rect width="256" height="142" fill="white"/>
</clipPath>
<clipPath id="clip1_119_75">
<rect width="61" height="50" fill="white" transform="translate(126 42)"/>
</clipPath>
</defs>
</svg>
