<svg width="256" height="142" viewBox="0 0 256 142" fill="none" xmlns="http://www.w3.org/2000/svg">
<g clip-path="url(#clip0_255_39)">
<g clip-path="url(#clip1_255_39)">
<path opacity="0.1" d="M214.133 27.9088C205.108 39.5088 198.017 52.4198 189.274 64.2218C184.121 71.1768 178.174 77.9108 170.324 81.8068C154.232 89.7878 134.845 84.0498 117.869 78.0418C100.893 72.0338 81.7692 65.8998 65.3592 73.2418C51.2192 79.5678 43.0592 94.7308 41.0812 109.737C39.1032 124.743 42.2622 139.879 45.1022 154.753C47.9422 169.627 50.4742 184.979 47.2792 199.785C43.7792 216.003 33.7192 230.128 28.2072 245.809C22.6952 261.49 23.1642 281.552 36.7972 291.509C43.3032 296.259 51.7512 297.827 59.8892 297.809C74.2762 297.773 88.2241 293.244 101.664 288.253C108.564 285.692 115.808 282.946 123.111 284.001C135.07 285.728 143.141 296.882 154.324 301.347C167.183 306.481 182.366 301.817 193.208 293.361C204.05 284.905 211.552 273.18 219.329 261.981C233.643 241.369 249.382 228.511 273.829 220.828C299.367 212.8 330.217 211.87 349.939 191.956C366.37 175.366 368.73 147.327 355.292 128.362C344.879 113.662 327.383 105.417 314.28 92.9158C297.986 77.3698 289.043 55.4908 286.757 33.4158C285.78 23.9788 285.588 13.5658 279.073 6.50378C271.831 -1.34422 259.116 -1.99621 248.807 1.28579C234.583 5.79979 223.157 16.3088 214.133 27.9088Z" fill="#3C23B6"/>
<g clip-path="url(#clip2_255_39)">
<path d="M178.306 52.4278C179.862 53.2467 181.594 53.6739 183.352 53.6719C185.189 53.6265 187.001 53.2311 188.69 52.5069C190.446 51.6341 191.94 50.314 193.024 48.6797C195.024 45.8157 194.334 40.0008 194.334 40.0008C193.61 40.3628 192.781 40.4547 191.995 40.2598C191.129 39.8868 190.337 39.3593 189.66 38.7029C187.757 37.5526 185.592 36.9058 183.37 36.8238C181.449 36.7879 179.569 37.3888 178.025 38.5328C176.403 39.7328 176.042 39.7958 175.009 40.5398C173.976 41.2838 172.603 40.1738 172.537 40.3038C172.471 40.4338 172.709 46.4517 174.393 48.6797C175.465 50.1509 176.79 51.42 178.306 52.4278V52.4278Z" stroke="#3C23B6" stroke-width="3"/>
<path d="M171.65 39.3827C171.319 38.9761 171.119 38.4782 171.078 37.9552C171.037 37.4323 171.156 36.9091 171.42 36.4557C172.553 34.9901 173.937 33.7373 175.508 32.7558C177.736 31.1884 180.427 30.4167 183.147 30.5648C185.956 30.6644 188.714 31.3454 191.247 32.5648C193.084 33.5663 194.588 35.0829 195.574 36.9279C195.68 37.3932 195.676 37.8768 195.562 38.3402C195.448 38.8036 195.227 39.234 194.917 39.5968C194.235 40.1467 193.377 40.431 192.502 40.3969C191.534 40.0872 190.646 39.5679 189.902 38.8759C187.946 37.6255 185.678 36.9487 183.357 36.9228C179.741 36.9228 178.843 37.7497 176.767 39.3827C174.691 41.0157 174.309 40.8247 173.754 40.7987C173.322 40.7294 172.909 40.5669 172.546 40.3224C172.183 40.0779 171.877 39.7572 171.65 39.3827V39.3827Z" stroke="#3C23B6" stroke-width="3"/>
<path d="M183.591 62.2661C184.294 62.3313 185.002 62.2441 185.668 62.0107C186.334 61.7774 186.941 61.4035 187.45 60.9141C188.209 60.0083 188.7 58.9081 188.867 57.738C189.01 56.824 188.867 52.4551 188.867 52.4551C187.194 53.1721 185.408 53.59 183.591 53.6899C181.771 53.6278 179.981 53.2083 178.324 52.4551C178.045 54.2028 178.011 55.981 178.224 57.738C178.308 58.9579 178.864 60.097 179.774 60.9141C180.828 61.833 182.193 62.3165 183.591 62.2661Z" stroke="#3C23B6" stroke-width="3"/>
<path d="M173.704 25.0242C172.957 25.6768 172.387 26.5076 172.048 27.4392C171.641 28.6062 172.184 35.5152 172.184 35.5152C173.323 34.3891 174.566 33.3736 175.897 32.4822C178.152 31.0789 180.788 30.4112 183.44 30.5713C185.663 30.6317 187.854 31.1212 189.891 32.0132C191.756 32.7921 193.428 33.9692 194.791 35.4622C194.791 35.4622 194.836 28.2753 194.791 27.8423C194.632 26.9606 194.24 26.1373 193.657 25.4573C193.268 24.9513 192.779 24.5318 192.219 24.2256C191.66 23.9195 191.042 23.7334 190.407 23.6792C188.722 23.3792 177.08 23.5162 176.207 23.6792C175.285 23.9416 174.431 24.4005 173.704 25.0242Z" stroke="#3C23B6" stroke-width="3"/>
<path d="M162.282 75.142C162.08 75.1859 161.897 75.2919 161.758 75.445C161.62 75.5982 161.532 75.7908 161.508 75.996C161.508 76.396 161.489 80.6369 161.508 81.1579C161.491 81.3911 161.52 81.6255 161.596 81.8469C161.671 82.0683 161.791 82.2721 161.947 82.446C162.357 82.8331 162.894 83.0559 163.457 83.072C164.224 83.143 167.757 83.117 168.168 83.072C168.849 82.9634 169.496 82.6979 170.057 82.2961C170.6 81.8287 171.028 81.2433 171.31 80.5849C171.477 80.088 171.55 79.5646 171.526 79.041C171.535 78.5123 171.462 77.9854 171.31 77.479C171.082 76.8034 170.643 76.219 170.057 75.812C169.516 75.3769 168.859 75.1101 168.168 75.0441C166.206 74.9748 164.241 75.0074 162.282 75.142Z" stroke="#3C23B6" stroke-width="3"/>
<path d="M204.75 75.142C204.951 75.1862 205.134 75.2922 205.273 75.4453C205.412 75.5983 205.499 75.7909 205.523 75.9961C205.523 76.3961 205.54 80.6369 205.523 81.1579C205.54 81.3912 205.51 81.6258 205.435 81.8471C205.359 82.0685 205.239 82.2721 205.083 82.446C204.673 82.8328 204.136 83.0556 203.573 83.072C202.804 83.143 199.273 83.117 198.861 83.072C198.18 82.9632 197.534 82.6976 196.973 82.2961C196.43 81.8287 196.002 81.2433 195.721 80.5849C195.554 80.088 195.48 79.5646 195.504 79.041C195.495 78.5122 195.568 77.9852 195.721 77.479C195.948 76.8033 196.387 76.2188 196.973 75.812C197.514 75.3766 198.17 75.1098 198.861 75.0441C200.824 74.9748 202.79 75.0074 204.75 75.142V75.142Z" stroke="#3C23B6" stroke-width="3"/>
<path d="M179.188 68.4629V78.1399L183.498 75.4707L187.836 78.1399V68.4629H179.188Z" stroke="#3C23B6" stroke-width="3"/>
<path d="M164.983 62.2927C164.136 63.1104 163.473 64.0991 163.038 65.1929C162.758 66.0189 162.504 75.0688 162.504 75.0688H169.224C169.201 73.1326 169.282 71.1964 169.467 69.2688C169.558 69.0183 169.717 68.798 169.925 68.6321C170.134 68.4662 170.384 68.3612 170.649 68.3289C171.181 68.2229 194.96 68.3507 196.065 68.4287C197.17 68.5067 197.465 69.0459 197.572 69.6499C197.679 70.2539 197.772 75.0249 197.772 75.0249H204.378C204.378 75.0249 204.531 66.7888 204.091 65.4248C203.625 64.1517 202.853 63.0131 201.842 62.1099C200.653 60.9789 199.241 60.1103 197.695 59.5608C196.528 59.0878 188.942 56.9729 188.942 56.9729C189.004 57.8601 188.812 58.7465 188.387 59.5278C187.673 60.8778 187.718 60.7538 187.24 61.2378C186.762 61.7218 185.557 62.2979 183.44 62.2979C182.841 62.3546 182.238 62.29 181.665 62.1079C181.092 61.9258 180.561 61.6297 180.105 61.2378C179.506 60.7908 179.025 60.2037 178.705 59.5278C178.337 58.6642 178.133 57.7392 178.105 56.8008C178.105 56.8008 171.205 58.7338 169.471 59.5278C167.813 60.1567 166.29 61.0949 164.983 62.2927V62.2927Z" stroke="#3C23B6" stroke-width="3"/>
<path d="M177.29 93.1746C177.29 93.1746 170.59 93.1296 170.044 92.9976C169.498 92.8656 169.343 92.3535 169.304 91.7795C169.265 91.2055 169.304 82.8047 169.304 82.8047" stroke="#3C23B6" stroke-width="3" stroke-linecap="round"/>
<path d="M189.834 93.1746C189.834 93.1746 196.534 93.1296 197.08 92.9976C197.626 92.8656 197.786 92.3535 197.82 91.7795C197.854 91.2055 197.82 82.8047 197.82 82.8047" stroke="#3C23B6" stroke-width="3" stroke-linecap="round"/>
</g>
</g>
</g>
<defs>
<clipPath id="clip0_255_39">
<rect width="256" height="142" fill="white"/>
</clipPath>
<clipPath id="clip1_255_39">
<rect width="260" height="308" fill="white" transform="translate(-4 -143)"/>
</clipPath>
<clipPath id="clip2_255_39">
<rect width="47.03" height="72.683" fill="white" transform="translate(160 22)"/>
</clipPath>
</defs>
</svg>
