<svg width="256" height="142" viewBox="0 0 256 142" fill="none" xmlns="http://www.w3.org/2000/svg">
<g clip-path="url(#clip0_255_54)">
<g clip-path="url(#clip1_255_54)">
<path opacity="0.1" d="M84.0519 170.254C69.4519 163.373 49.2259 143.508 62.1089 114.68C74.9919 85.8515 99.4679 92.6915 133.822 63.3745C175.522 27.7835 204.812 25.8275 242.036 41.3865C263.078 50.1865 266.513 86.3395 300.007 108.817C330.202 129.079 305.589 163.542 289.701 168.917C273.813 174.292 263.077 174.292 263.077 174.292C263.077 174.292 98.6499 177.134 84.0519 170.254Z" fill="#3C23B6"/>
<g clip-path="url(#clip2_255_54)">
<path d="M196.359 63.8942C196.259 64.3102 196.076 65.1252 195.869 65.9362C195.724 66.5052 195.577 67.0774 195.386 67.6364C195.066 68.4933 194.464 69.2154 193.68 69.6847C192.895 70.154 191.973 70.3421 191.067 70.2179C190.508 70.1413 189.945 70.0947 189.38 70.0773C189.312 70.076 189.245 70.0886 189.182 70.1144C189.118 70.1402 189.061 70.1785 189.014 70.2272C188.191 71.265 187.251 72.2043 186.213 73.027C186.159 73.084 186.116 73.1516 186.088 73.2257C186.061 73.2999 186.048 73.3791 186.053 73.4582C186.096 74.1042 186.202 74.7472 186.23 75.3942C186.286 76.2419 186.069 77.0855 185.61 77.8004C185.151 78.5154 184.474 79.064 183.68 79.3654C182.569 79.7569 181.433 80.0713 180.279 80.3063C179.344 80.5008 178.37 80.3549 177.532 79.8952C176.695 79.4354 176.049 78.6916 175.711 77.798C175.5 77.327 175.297 76.8501 175.057 76.3981C175.015 76.3242 174.959 76.2597 174.892 76.2082C174.825 76.1566 174.748 76.1191 174.666 76.0983C173.381 75.915 172.122 75.5793 170.917 75.0983C170.833 75.0814 170.746 75.0816 170.662 75.0988C170.579 75.116 170.499 75.1499 170.429 75.1984C169.792 75.6074 169.197 76.0872 168.539 76.4572C167.786 76.8734 166.919 77.035 166.067 76.9176C165.214 76.8003 164.423 76.4105 163.81 75.8063C163.139 75.1493 162.479 74.4821 161.819 73.8161C161.136 73.1431 160.715 72.2492 160.631 71.2941C160.548 70.3389 160.806 69.3849 161.361 68.6032C161.689 68.1272 162.019 67.6531 162.361 67.1911C162.434 67.1126 162.483 67.0149 162.5 66.9093C162.518 66.8038 162.505 66.6953 162.462 66.5973C161.973 65.4074 161.633 64.1621 161.449 62.8893C161.42 62.8095 161.375 62.7363 161.318 62.674C161.26 62.6116 161.191 62.5611 161.114 62.526C160.524 62.226 159.914 61.976 159.324 61.674C158.519 61.2605 157.879 60.5861 157.508 59.7614C157.137 58.9366 157.057 58.0102 157.281 57.1339C157.545 56.0989 157.814 55.0651 158.127 54.0451C158.428 53.1751 159.02 52.4357 159.804 51.9518C160.587 51.4679 161.514 51.2695 162.427 51.3893C163.02 51.4763 163.627 51.5042 164.222 51.5382C164.28 51.5347 164.336 51.519 164.388 51.4923C164.439 51.4656 164.485 51.4282 164.522 51.383C165.34 50.3415 166.28 49.4017 167.322 48.5832C167.369 48.5421 167.407 48.4916 167.433 48.4352C167.46 48.3788 167.475 48.3174 167.476 48.255C167.437 47.596 167.365 46.939 167.32 46.279C167.247 45.3841 167.477 44.4908 167.974 43.7428C168.471 42.9949 169.205 42.4364 170.058 42.1574C171.007 41.8574 171.973 41.6034 172.94 41.3664C173.905 41.0871 174.94 41.1795 175.84 41.6256C176.741 42.0717 177.442 42.8388 177.805 43.776C178.011 44.25 178.241 44.7132 178.45 45.1852C178.484 45.2804 178.544 45.3635 178.625 45.4245C178.706 45.4854 178.803 45.5214 178.903 45.528C180.131 45.6869 181.333 46.0069 182.477 46.4791C182.589 46.5341 182.714 46.5557 182.837 46.5412C182.96 46.5266 183.076 46.4765 183.171 46.3971C183.781 45.9278 184.421 45.4995 185.087 45.1144C185.837 44.7192 186.695 44.5759 187.533 44.7057C188.371 44.8355 189.146 45.2314 189.742 45.8351C190.408 46.4944 191.072 47.158 191.733 47.8253C192.397 48.4908 192.807 49.3675 192.893 50.3039C192.979 51.2402 192.735 52.1772 192.203 52.9523C191.858 53.4593 191.487 53.9524 191.163 54.4704C191.114 54.5526 191.082 54.6439 191.068 54.7389C191.055 54.8339 191.061 54.9304 191.086 55.0231C191.547 56.1588 191.866 57.3477 192.034 58.5622C192.042 58.6928 192.089 58.818 192.169 58.9215C192.249 59.0251 192.358 59.1023 192.483 59.1432C193.038 59.3722 193.582 59.6331 194.119 59.8961C194.844 60.269 195.443 60.8468 195.841 61.5578C196.24 62.2687 196.42 63.0815 196.359 63.8942ZM191.66 67.2272C192.116 67.2502 192.46 66.9891 192.649 66.2501C192.856 65.4601 193.076 64.6744 193.293 63.8874C193.381 63.6412 193.369 63.37 193.26 63.1325C193.15 62.8949 192.953 62.7098 192.709 62.6164C191.863 62.2164 191.016 61.809 190.162 61.422C189.896 61.3239 189.662 61.1527 189.488 60.9279C189.314 60.7031 189.207 60.4339 189.179 60.151C189.141 59.805 189.128 59.456 189.078 59.112C188.902 57.8252 188.522 56.575 187.953 55.4074C187.79 55.1242 187.717 54.7981 187.742 54.4723C187.767 54.1465 187.889 53.8362 188.094 53.5812C188.639 52.8322 189.165 52.0703 189.688 51.3073C189.771 51.207 189.835 51.0912 189.873 50.9665C189.912 50.8417 189.926 50.7103 189.914 50.5802C189.902 50.4501 189.864 50.3236 189.803 50.2082C189.742 50.0927 189.658 49.9905 189.557 49.9074C188.932 49.2734 188.302 48.6448 187.666 48.0221C187.578 47.9176 187.47 47.832 187.348 47.7702C187.226 47.7083 187.093 47.6716 186.957 47.6623C186.82 47.6529 186.684 47.6713 186.555 47.716C186.426 47.7606 186.307 47.8305 186.205 47.922C185.479 48.437 184.75 48.9453 184.033 49.4733C183.785 49.6776 183.483 49.803 183.163 49.8336C182.844 49.8643 182.523 49.7987 182.242 49.6452C180.852 48.9504 179.338 48.5397 177.787 48.4372C177.414 48.4436 177.049 48.3338 176.741 48.1227C176.434 47.9116 176.2 47.6093 176.072 47.2589C175.711 46.4209 175.311 45.598 174.911 44.778C174.825 44.576 174.67 44.4113 174.473 44.3131C174.277 44.215 174.052 44.1901 173.838 44.2423C172.938 44.4663 172.047 44.696 171.157 44.942C170.909 44.9884 170.69 45.1294 170.544 45.3346C170.398 45.5398 170.338 45.7933 170.376 46.0421C170.432 46.9761 170.496 47.9109 170.612 48.8419C170.67 49.1501 170.634 49.4689 170.509 49.7565C170.385 50.0441 170.177 50.2876 169.912 50.4562C168.563 51.3885 167.396 52.5591 166.466 53.9103C166.299 54.1619 166.062 54.3595 165.785 54.4801C165.507 54.6007 165.201 54.6389 164.902 54.59C163.97 54.507 163.036 54.4391 162.102 54.3961C161.964 54.3713 161.823 54.3753 161.686 54.4079C161.55 54.4404 161.422 54.5011 161.31 54.5856C161.198 54.6701 161.105 54.7768 161.036 54.8991C160.968 55.0214 160.925 55.1565 160.911 55.296C160.711 56.025 160.502 56.753 160.312 57.484C160.243 57.7005 160.21 57.9269 160.216 58.154C160.238 58.3463 160.314 58.5287 160.435 58.6798C160.556 58.831 160.717 58.9446 160.9 59.008C161.785 59.412 162.666 59.8255 163.544 60.2482C163.783 60.3535 163.987 60.5233 164.135 60.7389C164.282 60.9545 164.366 61.207 164.378 61.4679C164.476 63.1262 164.899 64.7494 165.624 66.2443C165.771 66.5152 165.836 66.8231 165.81 67.1305C165.784 67.4379 165.668 67.7312 165.476 67.9733C164.937 68.726 164.406 69.4842 163.883 70.2482C163.793 70.3511 163.725 70.4711 163.683 70.6012C163.641 70.7313 163.626 70.8689 163.639 71.005C163.652 71.1412 163.692 71.2732 163.757 71.3932C163.823 71.5133 163.912 71.6188 164.02 71.7033C164.629 72.3193 165.242 72.9309 165.859 73.5382C165.948 73.6505 166.058 73.7429 166.184 73.8102C166.31 73.8775 166.449 73.9183 166.591 73.9293C166.733 73.9403 166.876 73.9213 167.011 73.8742C167.146 73.827 167.269 73.7523 167.374 73.6549C168.074 73.1659 168.785 72.6933 169.466 72.1793C169.745 71.948 170.087 71.8071 170.447 71.776C170.808 71.7449 171.169 71.8248 171.483 72.005C172.866 72.6854 174.374 73.0759 175.914 73.153C176.236 73.1536 176.551 73.2513 176.816 73.4333C177.081 73.6152 177.286 73.873 177.402 74.173C177.79 75.052 178.202 75.9193 178.62 76.7863C178.719 77.0079 178.896 77.1857 179.117 77.2858C179.338 77.3859 179.589 77.4012 179.82 77.3292C180.668 77.1066 181.515 76.8824 182.361 76.6564C182.615 76.6145 182.843 76.4757 182.997 76.2692C183.151 76.0627 183.218 75.8043 183.185 75.549C183.127 74.615 183.054 73.6812 182.944 72.7492C182.886 72.4343 182.924 72.1093 183.054 71.8166C183.184 71.5238 183.4 71.2769 183.672 71.109C184.998 70.226 186.138 69.0917 187.026 67.7702C187.181 67.4969 187.414 67.2761 187.695 67.1354C187.976 66.9947 188.292 66.9405 188.604 66.9801C189.514 67.0661 190.437 67.1302 191.657 67.2272H191.66Z" fill="#3C23B6"/>
<path d="M194.821 79.1647C195.307 78.6367 195.81 78.1228 196.277 77.5778C199.007 74.4153 200.921 70.6325 201.853 66.5597C202.444 64.0777 202.647 61.5189 202.453 58.9747C202.089 53.7704 200.145 48.8012 196.881 44.7318C194.216 41.3677 190.741 38.7345 186.781 37.0787C184.376 36.0343 181.815 35.3925 179.201 35.1788C178.424 35.1208 177.645 35.0728 176.866 35.0468C176.658 35.0562 176.45 35.0235 176.255 34.9506C176.06 34.8776 175.882 34.7661 175.732 34.6224C175.581 34.4788 175.461 34.3061 175.379 34.1149C175.297 33.9237 175.254 33.7178 175.254 33.5097C175.259 33.3013 175.307 33.0962 175.393 32.9064C175.479 32.7166 175.603 32.546 175.756 32.4049C175.91 32.2638 176.09 32.155 176.286 32.0848C176.482 32.0147 176.691 31.9847 176.899 31.9967C179.99 32.029 183.058 32.5443 185.99 33.5238C189.45 34.6964 192.654 36.5175 195.432 38.8898C198.92 41.8552 201.646 45.6139 203.381 49.8507C204.335 52.1619 204.98 54.5888 205.299 57.0687C205.531 58.8085 205.598 60.5663 205.499 62.3187C205.248 67.0424 203.835 71.6308 201.384 75.6766C200.202 77.6345 198.79 79.4436 197.177 81.0648C197.098 81.1448 197.024 81.2307 196.883 81.3837C197.116 81.4037 197.253 81.4257 197.389 81.4257C198.483 81.4257 199.578 81.4257 200.673 81.4257C200.878 81.4115 201.084 81.4398 201.277 81.5089C201.471 81.578 201.648 81.6864 201.798 81.8273C201.948 81.9681 202.066 82.1385 202.147 82.3275C202.228 82.5165 202.269 82.7201 202.267 82.9257C202.267 83.1341 202.226 83.3406 202.145 83.5326C202.064 83.7246 201.945 83.8984 201.795 84.0433C201.645 84.1883 201.467 84.3015 201.273 84.3761C201.078 84.4508 200.87 84.4852 200.662 84.4777C198.195 84.4843 195.729 84.4843 193.262 84.4777C193.045 84.4852 192.828 84.4477 192.626 84.3676C192.425 84.2874 192.241 84.1663 192.089 84.0119C191.936 83.8574 191.817 83.6731 191.739 83.4703C191.66 83.2676 191.625 83.0509 191.635 82.8339C191.635 80.3565 191.635 77.8785 191.635 75.3998C191.623 75.1981 191.652 74.9961 191.721 74.8063C191.79 74.6164 191.898 74.4428 192.037 74.2963C192.176 74.1497 192.344 74.0333 192.53 73.9545C192.716 73.8756 192.916 73.8359 193.118 73.8378C193.323 73.8289 193.528 73.8623 193.719 73.9362C193.911 74.01 194.085 74.1225 194.231 74.2667C194.378 74.411 194.492 74.5839 194.569 74.7745C194.645 74.9652 194.681 75.1694 194.675 75.3746C194.687 76.4936 194.675 77.6128 194.675 78.7308V79.1078L194.821 79.1647Z" fill="#3C23B6"/>
<path d="M156.635 40.1867C156.408 40.1767 156.281 40.1657 156.154 40.1657C155.023 40.1657 153.892 40.1738 152.761 40.1588C152.427 40.1633 152.101 40.0553 151.835 39.8522C151.569 39.6491 151.38 39.3626 151.296 39.0387C151.205 38.7167 151.227 38.3733 151.357 38.0651C151.488 37.7569 151.72 37.5026 152.014 37.3439C152.281 37.2084 152.574 37.1349 152.873 37.1296C155.339 37.1136 157.805 37.1208 160.273 37.1208C160.483 37.1155 160.692 37.1527 160.888 37.2301C161.083 37.3075 161.26 37.4237 161.41 37.5714C161.559 37.7192 161.677 37.8951 161.757 38.0895C161.837 38.2839 161.876 38.4927 161.873 38.7028C161.841 41.2048 161.841 43.7067 161.873 46.2087C161.875 46.6128 161.718 47.0016 161.436 47.2912C161.154 47.5808 160.769 47.7485 160.365 47.758C160.163 47.7614 159.963 47.7229 159.776 47.6457C159.589 47.5684 159.42 47.4535 159.279 47.3083C159.139 47.1631 159.03 46.9906 158.958 46.8014C158.887 46.6123 158.855 46.4105 158.865 46.2087C158.865 45.1017 158.865 43.9948 158.865 42.8888C158.865 42.7508 158.849 42.6128 158.836 42.3888C158.732 42.4599 158.632 42.537 158.536 42.6198C156.137 45.0292 154.239 47.8903 152.952 51.0378C152.036 53.2473 151.443 55.5776 151.192 57.9567C151.08 59.1159 151.029 60.2804 151.039 61.445C151.061 63.4046 151.332 65.3533 151.844 67.2448C152.726 70.6792 154.315 73.8919 156.509 76.6769C159.519 80.5324 163.571 83.4441 168.184 85.0675C170 85.7366 171.895 86.1684 173.821 86.3517C174.765 86.4337 175.712 86.4888 176.659 86.5338C177.03 86.5095 177.396 86.6219 177.688 86.8503C177.981 87.0786 178.179 87.4066 178.245 87.7716C178.287 87.9629 178.291 88.1611 178.255 88.3537C178.219 88.5463 178.145 88.7296 178.038 88.8932C177.93 89.0569 177.791 89.1973 177.628 89.3063C177.466 89.4153 177.283 89.4908 177.09 89.528C176.784 89.5792 176.473 89.5873 176.164 89.5519C174.849 89.4459 173.529 89.368 172.222 89.195C170.163 88.9019 168.148 88.3564 166.222 87.571C162.063 85.9358 158.345 83.3492 155.365 80.0187C152.836 77.2154 150.889 73.938 149.636 70.3766C148.906 68.3281 148.42 66.2009 148.187 64.0387C147.875 61.2659 147.962 58.4624 148.447 55.7145C149.456 49.9393 152.228 44.6182 156.383 40.4826C156.443 40.4176 156.499 40.3427 156.635 40.1867Z" fill="#3C23B6"/>
<path d="M184.438 60.8171C184.435 61.8268 184.234 62.8261 183.844 63.7575C183.454 64.6889 182.883 65.5339 182.165 66.2438C181.447 66.9538 180.596 67.5147 179.66 67.8942C178.725 68.2737 177.723 68.464 176.713 68.4548C175.707 68.4478 174.712 68.2427 173.785 67.8508C172.859 67.4588 172.018 66.8877 171.312 66.1706C170.606 65.4534 170.049 64.6045 169.671 63.6716C169.294 62.7386 169.105 61.7403 169.114 60.7341C169.132 58.7034 169.955 56.7628 171.402 55.3381C172.849 53.9133 174.802 53.1206 176.833 53.134C178.858 53.1511 180.794 53.9685 182.219 55.4079C183.643 56.8472 184.441 58.7918 184.438 60.8171ZM176.738 65.4172C177.345 65.4226 177.948 65.3078 178.511 65.0802C179.074 64.8526 179.587 64.5164 180.02 64.0905C180.453 63.6646 180.798 63.1576 181.035 62.5983C181.272 62.039 181.397 61.4387 181.401 60.8312C181.412 60.2192 181.299 59.6108 181.072 59.0426C180.844 58.4745 180.505 57.9576 180.075 57.5221C179.645 57.0866 179.132 56.7413 178.566 56.5065C178.001 56.2717 177.395 56.1523 176.783 56.155C176.169 56.1433 175.559 56.2555 174.99 56.485C174.42 56.7146 173.903 57.0567 173.469 57.4909C173.035 57.925 172.693 58.4424 172.463 59.0119C172.234 59.5813 172.122 60.191 172.134 60.8049C172.129 61.411 172.244 62.0123 172.474 62.5734C172.703 63.1345 173.042 63.6442 173.47 64.0734C173.898 64.5026 174.407 64.8429 174.967 65.0739C175.528 65.3048 176.128 65.4222 176.734 65.4191L176.738 65.4172Z" fill="#3C23B6"/>
</g>
</g>
</g>
<defs>
<clipPath id="clip0_255_54">
<rect width="256" height="142" fill="white"/>
</clipPath>
<clipPath id="clip1_255_54">
<rect width="260" height="308" fill="white" transform="translate(0 -166)"/>
</clipPath>
<clipPath id="clip2_255_54">
<rect width="57.55" height="57.573" fill="white" transform="translate(148 32)"/>
</clipPath>
</defs>
</svg>
