<svg width="256" height="142" viewBox="0 0 256 142" fill="none" xmlns="http://www.w3.org/2000/svg">
<g clip-path="url(#clip0_255_69)">
<g clip-path="url(#clip1_255_69)">
<path opacity="0.1" d="M84.0519 170.254C69.4519 163.373 49.2259 143.508 62.1089 114.68C74.9919 85.8515 99.4679 92.6915 133.822 63.3745C175.522 27.7835 204.812 25.8275 242.036 41.3865C263.078 50.1865 266.513 86.3395 300.007 108.817C330.202 129.079 305.589 163.542 289.701 168.917C273.813 174.292 263.077 174.292 263.077 174.292C263.077 174.292 98.6499 177.134 84.0519 170.254Z" fill="#3C23B6"/>
<g clip-path="url(#clip2_255_69)">
<path d="M186.432 52.558H176.971V34.951C176.971 34.3675 176.739 33.8079 176.326 33.3953C175.914 32.9828 175.354 32.751 174.771 32.751H152.76C152.176 32.751 151.617 32.9828 151.204 33.3953C150.792 33.8079 150.56 34.3675 150.56 34.951V52.558C149.976 52.558 149.417 52.7898 149.004 53.2023C148.592 53.6149 148.36 54.1745 148.36 54.758C148.36 55.3415 148.592 55.901 149.004 56.3136C149.417 56.7262 149.976 56.958 150.56 56.958H160.808L158.827 63.558H154.961C154.377 63.558 153.818 63.7898 153.405 64.2023C152.993 64.6149 152.761 65.1745 152.761 65.758C152.761 66.3415 152.993 66.901 153.405 67.3136C153.818 67.7262 154.377 67.958 154.961 67.958H157.505L155.524 74.558H152.184L143.86 47.498C143.722 47.0486 143.443 46.6552 143.065 46.3755C142.687 46.0959 142.23 45.9446 141.76 45.944H132.96C132.376 45.944 131.817 46.1758 131.404 46.5883C130.992 47.0009 130.76 47.5605 130.76 48.144C130.76 48.7275 130.992 49.287 131.404 49.6996C131.817 50.1122 132.376 50.344 132.96 50.344H140.139L148.464 77.402C148.602 77.8514 148.88 78.2448 149.258 78.5244C149.636 78.8041 150.094 78.9553 150.564 78.956H152.281C151.421 79.9023 150.855 81.0778 150.651 82.3398C150.447 83.6018 150.614 84.8959 151.131 86.0649C151.648 87.2339 152.494 88.2274 153.566 88.9249C154.637 89.6223 155.888 89.9935 157.166 89.9935C158.445 89.9935 159.696 89.6223 160.767 88.9249C161.838 88.2274 162.684 87.2339 163.201 86.0649C163.719 84.8959 163.886 83.6018 163.682 82.3398C163.478 81.0778 162.911 79.9023 162.052 78.956H172.089C171.229 79.9023 170.663 81.0778 170.459 82.3398C170.255 83.6018 170.422 84.8959 170.939 86.0649C171.456 87.2339 172.302 88.2274 173.374 88.9249C174.445 89.6223 175.696 89.9935 176.974 89.9935C178.253 89.9935 179.504 89.6223 180.575 88.9249C181.646 88.2274 182.492 87.2339 183.009 86.0649C183.527 84.8959 183.694 83.6018 183.49 82.3398C183.286 81.0778 182.719 79.9023 181.86 78.956H183.577C184.05 78.9563 184.511 78.8038 184.891 78.5211C185.271 78.2384 185.55 77.8407 185.686 77.387L192.286 55.378C192.385 55.0493 192.405 54.702 192.346 54.364C192.286 54.026 192.148 53.7066 191.943 53.4313C191.739 53.156 191.472 52.9324 191.165 52.7785C190.858 52.6246 190.52 52.5447 190.177 52.545H186.432M178.414 56.945L176.433 63.545H172.225L174.206 56.945H178.414ZM161.564 37.135H165.964V42.377L164.747 41.769C164.441 41.616 164.104 41.5364 163.762 41.5364C163.42 41.5364 163.083 41.616 162.778 41.769L161.562 42.377L161.564 37.135ZM154.964 52.541V37.151H157.164V45.951C157.163 46.3262 157.259 46.6954 157.442 47.0232C157.624 47.3511 157.888 47.6268 158.207 47.8241C158.526 48.0214 158.89 48.1338 159.265 48.1506C159.64 48.1674 160.013 48.088 160.349 47.92L163.767 46.211L167.185 47.919C167.52 48.087 167.893 48.1664 168.268 48.1496C168.643 48.1328 169.007 48.0204 169.327 47.8231C169.646 47.6258 169.909 47.3501 170.092 47.0222C170.274 46.6943 170.37 46.3252 170.37 45.95V37.15H172.57V52.557L154.964 52.541ZM157.164 85.555C156.729 85.555 156.303 85.426 155.942 85.1842C155.58 84.9425 155.298 84.5989 155.131 84.1969C154.965 83.7949 154.921 83.3525 155.006 82.9258C155.091 82.499 155.3 82.107 155.608 81.7993C155.916 81.4917 156.308 81.2821 156.735 81.1973C157.161 81.1124 157.604 81.1559 158.006 81.3224C158.408 81.489 158.751 81.7709 158.993 82.1327C159.235 82.4945 159.364 82.9199 159.364 83.355C159.366 83.6454 159.31 83.9334 159.201 84.2023C159.091 84.4712 158.929 84.7157 158.724 84.9217C158.52 85.1277 158.276 85.2911 158.008 85.4026C157.74 85.514 157.452 85.5713 157.162 85.571L157.164 85.555ZM164.33 74.555H160.121L162.102 67.955H166.31L164.33 74.555ZM163.424 63.555L165.405 56.955H169.613L167.632 63.555H163.424ZM168.924 74.555L170.905 67.955H175.113L173.132 74.555H168.924ZM176.971 85.555C176.536 85.555 176.11 85.426 175.749 85.1842C175.387 84.9425 175.105 84.5989 174.938 84.1969C174.772 83.7949 174.728 83.3525 174.813 82.9258C174.898 82.499 175.107 82.107 175.415 81.7993C175.723 81.4917 176.115 81.2821 176.542 81.1973C176.968 81.1124 177.411 81.1559 177.813 81.3224C178.215 81.489 178.558 81.7709 178.8 82.1327C179.042 82.4945 179.171 82.9199 179.171 83.355C179.173 83.6452 179.118 83.933 179.008 84.2018C178.898 84.4706 178.737 84.715 178.532 84.921C178.328 85.127 178.084 85.2904 177.816 85.402C177.548 85.5136 177.261 85.571 176.971 85.571V85.555ZM181.936 74.555H177.728L179.709 67.955H183.917L181.936 74.555ZM185.236 63.555H181.028L183.009 56.955H187.218L185.236 63.555Z" fill="#3C23B6"/>
<path d="M186.432 52.558H176.971V34.951C176.971 34.3675 176.739 33.8079 176.326 33.3953C175.914 32.9828 175.354 32.751 174.771 32.751H152.76C152.176 32.751 151.617 32.9828 151.204 33.3953C150.792 33.8079 150.56 34.3675 150.56 34.951V52.558C149.976 52.558 149.417 52.7898 149.004 53.2023C148.592 53.6149 148.36 54.1745 148.36 54.758C148.36 55.3415 148.592 55.901 149.004 56.3136C149.417 56.7262 149.976 56.958 150.56 56.958H160.808L158.827 63.558H154.961C154.377 63.558 153.818 63.7898 153.405 64.2023C152.993 64.6149 152.761 65.1745 152.761 65.758C152.761 66.3415 152.993 66.901 153.405 67.3136C153.818 67.7262 154.377 67.958 154.961 67.958H157.505L155.524 74.558H152.184L143.86 47.498C143.722 47.0486 143.443 46.6552 143.065 46.3755C142.687 46.0959 142.23 45.9446 141.76 45.944H132.96C132.376 45.944 131.817 46.1758 131.404 46.5883C130.992 47.0009 130.76 47.5605 130.76 48.144C130.76 48.7275 130.992 49.287 131.404 49.6996C131.817 50.1122 132.376 50.344 132.96 50.344H140.139L148.464 77.402C148.602 77.8514 148.88 78.2448 149.258 78.5244C149.636 78.8041 150.094 78.9553 150.564 78.956H152.281C151.421 79.9023 150.855 81.0778 150.651 82.3398C150.447 83.6018 150.614 84.8959 151.131 86.0649C151.648 87.2339 152.494 88.2274 153.566 88.9249C154.637 89.6223 155.888 89.9935 157.166 89.9935C158.445 89.9935 159.696 89.6223 160.767 88.9249C161.838 88.2274 162.684 87.2339 163.201 86.0649C163.719 84.8959 163.886 83.6018 163.682 82.3398C163.478 81.0778 162.911 79.9023 162.052 78.956H172.089C171.229 79.9023 170.663 81.0778 170.459 82.3398C170.255 83.6018 170.422 84.8959 170.939 86.0649C171.456 87.2339 172.302 88.2274 173.374 88.9249C174.445 89.6223 175.696 89.9935 176.974 89.9935C178.253 89.9935 179.504 89.6223 180.575 88.9249C181.646 88.2274 182.492 87.2339 183.009 86.0649C183.527 84.8959 183.694 83.6018 183.49 82.3398C183.286 81.0778 182.719 79.9023 181.86 78.956H183.577C184.05 78.9563 184.511 78.8038 184.891 78.5211C185.271 78.2384 185.55 77.8407 185.686 77.387L192.286 55.378C192.385 55.0493 192.405 54.702 192.346 54.364C192.286 54.026 192.148 53.7066 191.943 53.4313C191.739 53.156 191.472 52.9324 191.165 52.7785C190.858 52.6246 190.52 52.5447 190.177 52.545H186.432M178.414 56.945L176.433 63.545H172.225L174.206 56.945H178.414ZM161.564 37.135H165.964V42.377L164.747 41.769C164.441 41.616 164.104 41.5364 163.762 41.5364C163.42 41.5364 163.083 41.616 162.778 41.769L161.562 42.377L161.564 37.135ZM154.964 52.541V37.151H157.164V45.951C157.163 46.3262 157.259 46.6954 157.442 47.0232C157.624 47.3511 157.888 47.6268 158.207 47.8241C158.526 48.0214 158.89 48.1338 159.265 48.1506C159.64 48.1674 160.013 48.088 160.349 47.92L163.767 46.211L167.185 47.919C167.52 48.087 167.893 48.1664 168.268 48.1496C168.643 48.1328 169.007 48.0204 169.327 47.8231C169.646 47.6258 169.909 47.3501 170.092 47.0222C170.274 46.6943 170.37 46.3252 170.37 45.95V37.15H172.57V52.557L154.964 52.541ZM157.164 85.555C156.729 85.555 156.303 85.426 155.942 85.1842C155.58 84.9425 155.298 84.5989 155.131 84.1969C154.965 83.7949 154.921 83.3525 155.006 82.9258C155.091 82.499 155.3 82.107 155.608 81.7993C155.916 81.4917 156.308 81.2821 156.735 81.1973C157.161 81.1124 157.604 81.1559 158.006 81.3224C158.408 81.489 158.751 81.7709 158.993 82.1327C159.235 82.4945 159.364 82.9199 159.364 83.355C159.366 83.6454 159.31 83.9334 159.201 84.2023C159.091 84.4712 158.929 84.7157 158.724 84.9217C158.52 85.1277 158.276 85.2911 158.008 85.4026C157.74 85.514 157.452 85.5713 157.162 85.571L157.164 85.555ZM164.33 74.555H160.121L162.102 67.955H166.31L164.33 74.555ZM163.424 63.555L165.405 56.955H169.613L167.632 63.555H163.424ZM168.924 74.555L170.905 67.955H175.113L173.132 74.555H168.924ZM176.971 85.555C176.536 85.555 176.11 85.426 175.749 85.1842C175.387 84.9425 175.105 84.5989 174.938 84.1969C174.772 83.7949 174.728 83.3525 174.813 82.9258C174.898 82.499 175.107 82.107 175.415 81.7993C175.723 81.4917 176.115 81.2821 176.542 81.1973C176.968 81.1124 177.411 81.1559 177.813 81.3224C178.215 81.489 178.558 81.7709 178.8 82.1327C179.042 82.4945 179.171 82.9199 179.171 83.355C179.173 83.6452 179.118 83.933 179.008 84.2018C178.898 84.4706 178.737 84.715 178.532 84.921C178.328 85.127 178.084 85.2904 177.816 85.402C177.548 85.5136 177.261 85.571 176.971 85.571V85.555ZM181.936 74.555H177.728L179.709 67.955H183.917L181.936 74.555ZM185.236 63.555H181.028L183.009 56.955H187.218L185.236 63.555Z" stroke="#EFEDF9" stroke-width="1.5"/>
</g>
</g>
</g>
<defs>
<clipPath id="clip0_255_69">
<rect width="256" height="142" fill="white"/>
</clipPath>
<clipPath id="clip1_255_69">
<rect width="260" height="308" fill="white" transform="translate(0 -166)"/>
</clipPath>
<clipPath id="clip2_255_69">
<rect width="63.142" height="58.725" fill="white" transform="translate(130 32)"/>
</clipPath>
</defs>
</svg>
