<svg width="286" height="207" viewBox="0 0 286 207" fill="none" xmlns="http://www.w3.org/2000/svg">
<g clip-path="url(#clip0_214_2)">
<path opacity="0.1" d="M288.576 58.3358C275.704 65.4271 264.688 74.2411 252.084 81.5928C244.656 85.925 236.39 89.8209 226.665 90.6998C206.731 92.4968 186.364 81.551 168.762 71.1265C151.161 60.702 131.182 49.5 111.044 50.6521C93.6915 51.6446 80.9424 62.0483 75.1601 74.2457C69.3779 86.4432 69.3228 100.354 68.9724 113.941C68.622 127.528 67.8128 141.428 60.7139 153.075C52.9376 165.833 38.3055 174.757 28.4016 186.429C18.4976 198.101 14.2569 215.379 27.1727 228.133C33.3368 234.218 42.4336 238.192 51.5598 240.714C67.6949 245.17 84.4052 245.652 100.656 245.582C108.999 245.547 117.771 245.461 125.706 248.639C138.701 253.843 145.098 265.885 156.572 273.186C169.766 281.58 187.893 282.332 202.055 278.492C216.217 274.652 227.411 266.979 238.789 259.841C259.731 246.703 280.428 240.632 309.656 241.695C340.189 242.803 374.99 251.63 401.827 240.775C424.186 231.732 433.493 208.524 422.936 188.138C414.757 172.338 397.104 159.841 385.387 145.079C370.816 126.723 365.99 105.25 368.672 85.6865C369.819 77.3232 372.078 68.3711 366.453 60.3088C360.2 51.3486 346.102 46.8267 333.767 46.4144C316.751 45.8333 301.447 51.2442 288.576 58.3358Z" fill="#3C23B6"/>
</g>
<defs>
<clipPath id="clip0_214_2">
<rect width="286" height="207" fill="white"/>
</clipPath>
</defs>
</svg>
