<svg xmlns="http://www.w3.org/2000/svg" xmlns:xlink="http://www.w3.org/1999/xlink" width="300.815" height="218.921" viewBox="0 0 300.815 218.921">
  <defs>
    <clipPath id="clip-path">
      <path id="Path_148768" data-name="Path 148768" d="M315.893,274.966c-67.594-4-122.328-72.233-86.36-114.442,27.9-32.736,34.467-57.139,69.158-81.145C329.38,58.142,440.7,53.562,482.326,74.589c30.488,15.4,35.522,80.4,36.458,111.544,2.2,73.285-37.35,61.591-69.642,82.282S315.893,274.966,315.893,274.966Z" transform="translate(-218.135 -60.942)" fill="#e7f3fe"/>
    </clipPath>
    <linearGradient id="linear-gradient" x1="0.5" x2="0.5" y2="1" gradientUnits="objectBoundingBox">
      <stop offset="0" stop-color="#ab01fc"/>
      <stop offset="1" stop-color="#3325b0"/>
    </linearGradient>
    <clipPath id="clip-path-2">
      <path id="Path_148255" data-name="Path 148255" d="M315.15,323.354c-67.594-4-121.8-76.731-85.834-118.939,27.9-32.736,65.091,14.913,99.782-9.093,53.371-36.933,139.837-43.647,151.282,2.91s-26.466,119.3-54.719,123.668S315.15,323.354,315.15,323.354Z" transform="translate(-217.853 -165.452)" fill="none"/>
    </clipPath>
  </defs>
  <g id="Group_136868" data-name="Group 136868" transform="translate(-174 -2128)">
    <g id="Group_136129" data-name="Group 136129" transform="translate(174 2128)">
      <path id="Path_148249" data-name="Path 148249" d="M325.139,332.447c-74.584-4.341-134.345-78.928-94.657-124.722,30.781-35.517,71.822,16.18,110.1-9.866,58.89-40.07,154.3-47.355,166.927,3.157s-20.246,113.615-63,128.937S325.139,332.447,325.139,332.447Z" transform="translate(-217.827 -118.555)" fill="#3c23b6" opacity="0.1"/>
      <g id="Mask_Group_104261" data-name="Mask Group 104261" transform="translate(0.078 0)" clip-path="url(#clip-path)">
        <g id="Group_136128" data-name="Group 136128" transform="translate(105.465 39.074)">
          <g id="Group_136128-2" data-name="Group 136128" transform="translate(18.927 0)">
            <path id="Rectangle_30266" data-name="Rectangle 30266" d="M4.605,0H120.691a4.6,4.6,0,0,1,4.6,4.6V78.648a4.605,4.605,0,0,1-4.605,4.605H4.605A4.605,4.605,0,0,1,0,78.648V4.605A4.605,4.605,0,0,1,4.605,0Z" transform="translate(0 0)" fill="#3c23b6"/>
          </g>
          <g id="Group_136126" data-name="Group 136126" transform="translate(0 19.362)">
            <g id="Group_136124" data-name="Group 136124" transform="translate(0 0)">
              <g id="Group_136123" data-name="Group 136123">
                <path id="Path_148760" data-name="Path 148760" d="M236.233,1131.715h0c0-.056,0-.081,0-.087C236.233,1131.639,236.233,1131.715,236.233,1131.715Z" transform="translate(-236.233 -1123.784)" fill="#d9ffff"/>
                <path id="Path_148761" data-name="Path 148761" d="M236.233,1131.715h0c0-.056,0-.081,0-.087C236.233,1131.639,236.233,1131.715,236.233,1131.715Z" transform="translate(-236.233 -1123.784)" fill="#d9ffff"/>
                <path id="Path_148762" data-name="Path 148762" d="M830.386,1134.371s0-.077,0-.087c0,.006,0,.031,0,.087Z" transform="translate(-792.534 -1126.289)" fill="#d9ffff"/>
                <path id="Path_148763" data-name="Path 148763" d="M830.386,1134.371s0-.077,0-.087c0,.006,0,.031,0,.087Z" transform="translate(-792.534 -1126.289)" fill="#d9ffff"/>
                <path id="Path_148764" data-name="Path 148764" d="M268.407,993.546c-4.19,4-10.876,7.282-18.031,8.68,0,.426-.014,2.787-.068,13.667-.073,14.514,15.419,21.607,17.824,22.7,2.33-.956,18.017-8.038,18.09-22.553.054-10.88.066-13.241.068-13.667C279.15,1000.914,272.557,997.582,268.407,993.546Z" transform="translate(-249.411 -993.546)" fill="#fff"/>
              </g>
            </g>
            <path id="Path_148767" data-name="Path 148767" d="M371.57,1250.216c-5.01.689-11.832,4.762-16.135,9.662-.6-2.309-3.314-4.418-4.731-4.88l-4.3,3.849c2.682,1.078,5.613,4.132,6,7.257l4.291.594c1.809-3.187,6.482-10.808,15.777-14.907A6.079,6.079,0,0,0,371.57,1250.216Z" transform="translate(-339.389 -1235.636)" fill="url(#linear-gradient)"/>
          </g>
        </g>
        <path id="Path_148250" data-name="Path 148250" d="M421.842,360.922c.715,17.459.536,26.916-5.722,34.191s-23.783,5.456-23.783,5.456-1.729,25.7-26.227,26.795-28.015-32.008-8.822-40.5c18.271-8.079,24.081-10.427,30.4-30.432,5.772-18.276,23.783-14.792,28.075-7.153S421.842,360.922,421.842,360.922Z" transform="translate(-315.848 -240.971)"/>
        <path id="Path_148251" data-name="Path 148251" d="M644.513,791.408s11.564,2.3,12.16,2.182,13.233-5.82,14.544-4.971,8.941,4.122,10.61,4.85-.954.97-2.265.97-8.822-3.152-9.656-2.546,6.557,1.819,6.557,2.3-19.789,5.092-20.981,5.092-10.372-.849-10.372-.849Z" transform="translate(-546.566 -582.343)" fill="#e38540"/>
        <path id="Path_148252" data-name="Path 148252" d="M602.737,525.923c6.229,1.243,9.895,7.947,11.087,13.819S602.737,525.923,602.737,525.923Z" transform="translate(-514.386 -381.087)"/>
        <g id="Group_135075" data-name="Group 135075" transform="translate(-0.065 60.619)">
          <g id="Group_135074" data-name="Group 135074" clip-path="url(#clip-path-2)">
            <path id="Path_148253" data-name="Path 148253" d="M487.783,501.5s-11.981,8.184-18.419,12.185c-2.562,1.592-2.717,9.379-1.816,19.435,1.305,14.583,4.995,34.037,6.287,43.672,2.146,16,39.34,1.455,39.34,1.455s-2.5-13.458.715-35.1c2.306-15.5-6.139-25.219-10.968-31.948C490.737,494.215,487.783,501.5,487.783,501.5Z" transform="translate(-409.798 -421.798)" fill="#3c23b6"/>
            <path id="Path_148254" data-name="Path 148254" d="M470.576,559.525c13.769,17.1,18.424,20.291,15.021,31.826-2.682,9.093-3.576,12.367-4.113,15.459s25.571-2,25.571-2l-.179,10s-20.564,10-30.578,12-16.272-.364-16.272-.364Z" transform="translate(-404.394 -467.457)" fill="#070139"/>
          </g>
        </g>
        <path id="Path_148257" data-name="Path 148257" d="M555.744,432.9l-6.2,18.671s6.795,18.732,12.517,14.549c1.954-1.428-.715-12.731-.715-12.731l4.172-15.155Z" transform="translate(-473.414 -309.798)" fill="#f09959"/>
        <path id="Path_148258" data-name="Path 148258" d="M437.227,556.369c-8.56.967-9.3,12.73-13.233,32.372s-2.752,32.606-.894,35.1c4.47,6,54.719-14.913,60.978-14.731,4.32.126.715-7.274.715-7.274l-47.924,7.456s6.8-22.733,6.8-34.372S440.446,556.005,437.227,556.369Z" transform="translate(-374.686 -404.41)" fill="#f09959"/>
        <path id="Path_148259" data-name="Path 148259" d="M644.639,742c5.007-1.273,12.338-4.183,13.769-2.91s7.332,10.366,9.3,12.912-.894.546-3.04-1.455a27.373,27.373,0,0,0-3.934-3.092,33.891,33.891,0,0,1-5.186,4c-2.5,1.455-3.4-1.455-7.689-2.183s-15.021,3.092-15.021,3.092Z" transform="translate(-537.572 -544.207)" fill="#f09959"/>
        <path id="Path_148260" data-name="Path 148260" d="M439.7,549.648c-5.245.242-9.3,4.728-10.729,11.639s-5.6,28.856-5.6,28.856-.835.606,7.868,2.182a41.226,41.226,0,0,0,15.856-.242s1.788-12.488,1.311-21.1-2.384-16.732-5.484-19.52S439.7,549.648,439.7,549.648Z" transform="translate(-376.205 -399.144)" fill="#3c23b6"/>
        <path id="Path_148261" data-name="Path 148261" d="M577.061,453.391l4.173-15.155-9.776-5.335-1.493,4.5c-.325,15.057,3.467,20.092,6.023,21.933.8.575,1.485.131,2.06-.808C577.628,455.794,577.061,453.391,577.061,453.391Z" transform="translate(-489.127 -309.798)" fill="#e38540"/>
        <path id="Path_148262" data-name="Path 148262" d="M602.3,395.087c0,8.111-.952,18.057-7.868,17.823-10.729-.364-17.49-8.846-17.49-16.957s5.61-14.687,12.53-14.687S602.3,386.975,602.3,395.087Z" transform="translate(-494.515 -270.225)" fill="#f09959"/>
        <path id="Path_148263" data-name="Path 148263" d="M901.014,706.792H860.793l16.544-37.017A2.973,2.973,0,0,1,880.046,668h36.5a1.18,1.18,0,0,1,1.057,1.67Z" transform="translate(-713.162 -489.972)" fill="#070139"/>
        <path id="Path_148264" data-name="Path 148264" d="M786.7,818.419H712.5a4.721,4.721,0,0,1,4.681-4.761H786.7Z" transform="translate(-598.931 -601.598)" fill="#070139"/>
        <path id="Path_148265" data-name="Path 148265" d="M931.081,668H898.914a2.973,2.973,0,0,0-2.709,1.774l-16.544,37.017h35.887l16.59-37.12A1.18,1.18,0,0,0,931.081,668Z" transform="translate(-727.695 -489.972)"/>
        <path id="Path_148266" data-name="Path 148266" d="M596.2,369.1c7.6-.546,12.1,6.517,13.411,12.7.946,4.461.477,5.335.477,5.335s-.835,1.212-6.8,1.576a55.754,55.754,0,0,1-6.676.243l-.358-7.032-1.788,6.789s-.953,1.334-4.649-.485-5.365-7.881-5.365-7.881-.834-4,2.027-6.668S596.2,369.1,596.2,369.1Z" transform="translate(-500.216 -260.882)"/>
        <g id="Group_135076" data-name="Group 135076" transform="translate(28.528 113.972)">
          <path id="Path_148271" data-name="Path 148271" d="M342.6,439h-.026a.279.279,0,0,1-.248-.306,16.907,16.907,0,0,1,4.614-9.651,28.251,28.251,0,0,1,12.388-7.443c11.351-3.57,21.254-8.11,27.477-27.583a.275.275,0,0,1,.348-.18.281.281,0,0,1,.177.353c-2.86,8.95-6.753,15.465-11.9,19.92-4.54,3.929-9.655,6.05-15.938,8.026a27.7,27.7,0,0,0-12.149,7.291,16.343,16.343,0,0,0-4.467,9.321A.278.278,0,0,1,342.6,439Z" transform="translate(-342.322 -393.817)" fill="#303c60"/>
        </g>
        <g id="Group_135077" data-name="Group 135077" transform="translate(33.654 115.791)">
          <path id="Path_148272" data-name="Path 148272" d="M364.912,431.5a.274.274,0,0,1-.218-.109.283.283,0,0,1,.049-.393,32.86,32.86,0,0,1,11.912-5.387c13.464-3.017,22.5-11.251,26.141-23.811a.275.275,0,0,1,.342-.19.281.281,0,0,1,.187.348,32.8,32.8,0,0,1-12.565,18.2,38.588,38.588,0,0,1-13.987,6,32.288,32.288,0,0,0-11.693,5.283A.272.272,0,0,1,364.912,431.5Z" transform="translate(-364.636 -401.602)"/>
        </g>
        <g id="Group_135090" data-name="Group 135090" transform="translate(204.987 137.989)">
          <path id="Path_148293" data-name="Path 148293" d="M1158.142,566.073c0-.757,8.97-25.97,2.905-42.2-4.246-11.365-4.917-25-4.917-25s-8.269,12.046-2.682,30.457c3.439,11.331,4.842,14.471,5.14,17.8s-1.341,20-1.341,20Z" transform="translate(-1148.979 -497.887)" fill="#44a724"/>
          <g id="Group_135084" data-name="Group 135084" transform="translate(2.266 0.705)">
            <path id="Path_148294" data-name="Path 148294" d="M1156.357,566.495a.274.274,0,0,1-.109-.023.281.281,0,0,1-.166-.286c.016-.166,1.633-16.679,1.341-19.948-.194-2.175-.855-4.231-2.3-8.735-.741-2.307-1.664-5.179-2.827-9.011a41.114,41.114,0,0,1-.757-22.286,28.471,28.471,0,0,1,3.476-8.414.274.274,0,0,1,.3-.109.28.28,0,0,1,.2.256c.007.136.718,13.725,4.9,24.916,2.267,6.07,2.723,14.073,1.353,23.788a120.341,120.341,0,0,1-3.877,17.219c-.19.645-.354,1.2-.365,1.3a.248.248,0,0,1-.066.17l-.894,1.061A.274.274,0,0,1,1156.357,566.495Zm-1.336-67.652a31.024,31.024,0,0,0-2.958,7.531,40.557,40.557,0,0,0,.758,21.952c1.161,3.828,2.083,6.7,2.824,9,1.46,4.546,2.127,6.621,2.327,8.859.26,2.916-.919,15.644-1.256,19.169l.273-.323c.032-.167.128-.5.373-1.333,5.18-17.612,6.033-31.287,2.536-40.647C1156.3,513.426,1155.255,502.048,1155.022,498.843Z" transform="translate(-1150.354 -497.671)" fill="#74b570"/>
          </g>
          <path id="Path_148295" data-name="Path 148295" d="M1188.234,565.418c-1.341-28.032,5.215-43.336,18.624-55.458s14-15.3,14-15.3-2.086,23.638-9.833,31.82-19.071,14.244-20.709,18.486-1.043,18.486-1.043,18.486l-1.043,2.576Z" transform="translate(-1177.135 -494.656)" fill="#85b808"/>
          <path id="Path_148296" data-name="Path 148296" d="M1181.658,708.009c-.149-.455,2.831-26.214,13.707-27.729s13.409,1.061,20.858-.152a45.918,45.918,0,0,0,9.387-2.576s-2.822,7.3-12.515,10.3c-6.853,2.121-15.793-1.364-21.008-.455s-7.9,12.273-7.9,12.273l-.894,5.909Z" transform="translate(-1172.197 -634.822)" fill="#44a724"/>
          <g id="Group_135085" data-name="Group 135085" transform="translate(10.536 8.66)">
            <path id="Path_148297" data-name="Path 148297" d="M1186.769,592.439a.277.277,0,0,1-.274-.255c-.016-.181-1.559-18.278,5.993-32.133,3.9-7.157,8.161-11.3,12.281-15.316,3.838-3.737,7.462-7.266,10.211-12.857a.274.274,0,0,1,.37-.125.282.282,0,0,1,.123.376c-2.791,5.678-6.45,9.24-10.323,13.011-4.09,3.983-8.32,8.1-12.18,15.183-7.468,13.7-5.943,31.631-5.926,31.81a.279.279,0,0,1-.249.305Z" transform="translate(-1186.354 -531.723)" fill="#5d7e0b"/>
          </g>
          <g id="Group_135086" data-name="Group 135086" transform="translate(9.93 45.486)">
            <path id="Path_148298" data-name="Path 148298" d="M1183.993,709.6a.263.263,0,0,1-.077-.011.28.28,0,0,1-.188-.347c2.852-10,6.125-15.83,10.3-18.356,3.733-2.259,7.591-1.566,11.676-.832,1,.18,2.033.366,3.057.5,8.876,1.184,13.2-1.01,13.247-1.032a.274.274,0,0,1,.371.121.282.282,0,0,1-.118.377c-.179.095-4.5,2.3-13.571,1.09-1.035-.138-2.075-.325-3.081-.506-3.98-.715-7.74-1.391-11.3.761-4.048,2.449-7.242,8.178-10.053,18.031A.276.276,0,0,1,1183.993,709.6Z" transform="translate(-1183.717 -689.347)" fill="#74b570"/>
          </g>
          <g id="Group_135087" data-name="Group 135087" transform="translate(24.158 20.782)">
            <path id="Path_148299" data-name="Path 148299" d="M1245.931,589.7a.273.273,0,0,1-.218-.109.283.283,0,0,1,.05-.393,33.144,33.144,0,0,1,12.706-5.584.276.276,0,0,1,.323.223.28.28,0,0,1-.218.328,32.526,32.526,0,0,0-12.474,5.478A.272.272,0,0,1,1245.931,589.7Z" transform="translate(-1245.656 -583.607)" fill="#678d0a"/>
          </g>
          <g id="Group_135088" data-name="Group 135088" transform="translate(15.741 27.146)">
            <path id="Path_148300" data-name="Path 148300" d="M1209.287,622.772a.273.273,0,0,1-.141-.039.283.283,0,0,1-.1-.384c3.88-6.654,8.424-8.331,18.331-11.489a.275.275,0,0,1,.346.184.281.281,0,0,1-.181.351c-9.768,3.114-14.245,4.763-18.022,11.24A.275.275,0,0,1,1209.287,622.772Z" transform="translate(-1209.012 -610.846)" fill="#678d0a"/>
          </g>
          <path id="Path_148301" data-name="Path 148301" d="M1154.1,786.726h-6.653a4.918,4.918,0,0,1-4.808-4.044l-2.145-11.412h20.561l-2.145,11.412A4.918,4.918,0,0,1,1154.1,786.726Z" transform="translate(-1140.491 -706.644)" fill="#070139"/>
          <g id="Group_135089" data-name="Group 135089" transform="translate(0.119 66.414)">
            <path id="Path_148302" data-name="Path 148302" d="M1160.929,780.044h-19.369a.561.561,0,0,1,0-1.121h19.369a.561.561,0,0,1,0,1.121Z" transform="translate(-1141.009 -778.923)" fill="#fffaf8"/>
          </g>
        </g>
        <path id="Path_148758" data-name="Path 148758" d="M769.036,1308.133c.5,2.655-.478,5.074-2.179,5.4s-3.483-1.556-3.98-4.21.478-5.074,2.178-5.4S768.538,1305.479,769.036,1308.133Z" transform="translate(-683.302 -1180.783)" fill="#f09959"/>
      </g>
    </g>
    <text id="_" data-name="?" transform="translate(354.504 2225.393)" fill="#fff" font-size="54" font-family="Poppins-Medium, Poppins" font-weight="500"><tspan x="0" y="0">?</tspan></text>
    <text id="_2" data-name="?" transform="translate(346.113 2234.289) rotate(-45)" fill="#fff" font-size="39" font-family="Poppins-Medium, Poppins" font-weight="500"><tspan x="0" y="0">?</tspan></text>
    <text id="_3" data-name="?" transform="matrix(-0.695, -0.719, 0.719, -0.695, 407.791, 2216.527)" fill="#fff" font-size="39" font-family="Poppins-Medium, Poppins" font-weight="500"><tspan x="0" y="0">?</tspan></text>
  </g>
</svg>
