<svg width="256" height="142" viewBox="0 0 256 142" fill="none" xmlns="http://www.w3.org/2000/svg">
<g clip-path="url(#clip0_229_2)">
<g clip-path="url(#clip1_229_2)">
<path opacity="0.1" d="M214.133 27.9088C205.108 39.5088 198.017 52.4198 189.274 64.2218C184.121 71.1768 178.174 77.9108 170.324 81.8068C154.232 89.7878 134.845 84.0498 117.869 78.0418C100.893 72.0338 81.7692 65.8998 65.3592 73.2418C51.2192 79.5678 43.0592 94.7308 41.0812 109.737C39.1032 124.743 42.2622 139.879 45.1022 154.753C47.9422 169.627 50.4742 184.979 47.2792 199.785C43.7792 216.003 33.7192 230.128 28.2072 245.809C22.6952 261.49 23.1642 281.552 36.7972 291.509C43.3032 296.259 51.7512 297.827 59.8892 297.809C74.2762 297.773 88.2241 293.244 101.664 288.253C108.564 285.692 115.808 282.946 123.111 284.001C135.07 285.728 143.141 296.882 154.324 301.347C167.183 306.481 182.366 301.817 193.208 293.361C204.05 284.905 211.552 273.18 219.329 261.981C233.643 241.369 249.382 228.511 273.829 220.828C299.367 212.8 330.217 211.87 349.939 191.956C366.37 175.366 368.73 147.327 355.292 128.362C344.879 113.662 327.383 105.417 314.28 92.9158C297.986 77.3698 289.043 55.4908 286.757 33.4158C285.78 23.9788 285.588 13.5658 279.073 6.50378C271.831 -1.34422 259.116 -1.99621 248.807 1.28579C234.583 5.79979 223.157 16.3088 214.133 27.9088Z" fill="#3C23B6"/>
<g clip-path="url(#clip2_229_2)">
<path d="M165.477 94.8804C164.672 96.3504 163.106 96.7164 161.489 96.7164C153.705 96.7131 145.922 96.7131 138.138 96.7164C134.171 96.7164 130.204 96.7244 126.238 96.7164C123.121 96.7084 121.56 95.1274 121.559 92.0164C121.559 79.0358 121.559 66.0554 121.559 53.0754C121.559 50.0454 123.059 48.5124 126.109 48.5104C137.971 48.4997 149.833 48.4997 161.697 48.5104C162.659 48.4008 163.628 48.6396 164.429 49.1834C165.23 49.7271 165.81 50.5399 166.064 51.4744C166.147 51.8399 166.17 52.2167 166.13 52.5894C166.134 59.0648 166.13 65.5407 166.117 72.0174C166.458 72.7924 165.792 95.3034 165.477 94.8804Z" stroke="#3C23B6" stroke-width="3"/>
<path d="M97.4528 81.9082C97.4806 81.9871 97.4918 82.0708 97.486 82.1542C97.4801 82.2376 97.4572 82.3189 97.4187 82.3931C97.3802 82.4673 97.3269 82.5329 97.262 82.5857C97.1972 82.6385 97.1223 82.6775 97.0418 82.7002C96.9638 82.3242 96.9438 81.9782 97.4528 81.9082Z" fill="#3C23B6"/>
<path d="M174.015 95.3778H173.984L173.184 94.9388H173.176C170.26 93.3388 167.245 91.6878 164.276 90.0648L164.266 90.0598C163.934 89.8788 163.59 89.6918 163.833 89.2378C164.076 88.7838 163.874 88.5708 163.509 88.3688C163.422 88.316 163.324 88.286 163.222 88.2818C163.009 88.2818 162.873 88.4538 162.741 88.6188C162.704 88.6658 162.666 88.7138 162.626 88.7568C161.586 89.9254 160.374 90.9289 159.032 91.7328C157.681 92.5265 156.205 93.0842 154.667 93.3818C153.857 93.5373 153.034 93.6143 152.209 93.6118C149.001 93.5945 145.904 92.4396 143.468 90.3528C140.993 88.2855 139.375 85.3722 138.928 82.1788C138.659 80.2284 138.793 78.2435 139.321 76.3468C139.819 74.5566 140.681 72.8885 141.853 71.4468C142.984 70.0512 144.391 68.9044 145.986 68.0783C147.581 67.2523 149.33 66.765 151.122 66.6468C151.477 66.6248 151.834 66.6118 152.186 66.6118C154.249 66.5944 156.288 67.0555 158.143 67.959C159.998 68.8624 161.619 70.1836 162.877 71.8188C164.178 73.5442 165.062 75.5477 165.459 77.6721C165.856 79.7965 165.755 81.984 165.164 84.0628C165.135 84.1604 165.099 84.256 165.057 84.3488C164.925 84.6608 164.788 84.9828 165.157 85.2848L165.229 85.3478C165.338 85.4478 165.474 85.5648 165.596 85.5648C165.632 85.5636 165.666 85.553 165.696 85.534C165.726 85.515 165.751 85.4884 165.767 85.4568C166.016 85.0748 166.276 84.8898 166.561 84.8898C166.884 84.9354 167.186 85.0744 167.43 85.2898C167.548 85.3753 167.67 85.4548 167.796 85.5278C170.516 87.0278 173.335 88.6208 176.176 90.2488C176.616 90.5008 176.738 91.0488 176.531 91.8268C176.106 93.4228 174.535 95.3778 174.015 95.3778ZM150.83 69.2848C150.769 69.2861 150.71 69.3029 150.657 69.3335C150.605 69.3641 150.561 69.4076 150.53 69.4598L150.24 69.5498C150.034 69.6148 149.823 69.6808 149.613 69.7388C147.236 70.3608 145.14 71.7708 143.668 73.7384C142.196 75.706 141.435 78.1147 141.51 80.5708C141.622 83.0638 142.579 85.4445 144.223 87.3214C145.868 89.1983 148.102 90.4596 150.559 90.8978C151.149 90.9961 151.745 91.0456 152.343 91.0458C154.514 91.0481 156.635 90.3885 158.421 89.1548C160.208 87.9211 161.576 86.172 162.343 84.1408C162.552 83.568 162.727 82.9837 162.869 82.3908C162.937 82.1268 163.008 81.8558 163.083 81.5908V81.5848C163.083 81.4848 163.083 81.3918 163.083 81.2958C163.083 81.0758 163.088 80.8478 163.096 80.6238C163.208 78.25 162.526 75.9066 161.156 73.9645C159.786 72.0225 157.808 70.5928 155.534 69.9018C155.222 69.8018 154.906 69.7088 154.6 69.6168L154.034 69.4458C153.997 69.3973 153.95 69.3578 153.895 69.3305C153.841 69.3031 153.781 69.2885 153.72 69.2878C153.598 69.2967 153.479 69.3337 153.373 69.3958L151.173 69.4028C151.07 69.3369 150.952 69.2964 150.83 69.2848V69.2848Z" fill="#3C23B6"/>
<path d="M143.54 62.6768C148.406 62.6768 153.273 62.6768 158.14 62.6768C158.624 62.607 159.119 62.6763 159.566 62.8767C159.851 62.9989 160.075 63.2288 160.191 63.5162C160.307 63.8035 160.305 64.1251 160.185 64.4107C159.917 65.1177 159.443 65.0858 158.812 64.8668C155.485 63.7214 151.867 63.7397 148.552 64.9187C147.863 65.1597 147.14 65.2858 146.411 65.2917C140.491 65.2844 134.572 65.2807 128.653 65.2807C128.329 65.2928 128.005 65.2768 127.684 65.2327C127.374 65.2099 127.084 65.0723 126.87 64.8469C126.656 64.6214 126.534 64.3243 126.528 64.0137C126.519 63.6822 126.641 63.3605 126.867 63.1175C127.093 62.8745 127.404 62.7296 127.736 62.7137C128.098 62.6738 128.463 62.6625 128.828 62.6797L143.54 62.6768Z" fill="#3C23B6"/>
<path d="M143.37 57.4429C140.979 57.4429 138.589 57.4519 136.199 57.4349C135.756 57.4307 135.315 57.3692 134.888 57.2519C134.647 57.1952 134.432 57.0587 134.278 56.8647C134.124 56.6707 134.04 56.4305 134.04 56.1829C134.016 55.916 134.086 55.6491 134.24 55.4295C134.393 55.2099 134.62 55.0516 134.879 54.9828C135.225 54.8737 135.587 54.8207 135.95 54.8259C140.934 54.8159 145.917 54.8159 150.9 54.8259C151.182 54.8099 151.466 54.8372 151.74 54.9069C152.313 55.0899 152.779 55.4289 152.757 56.1069C152.754 56.3946 152.652 56.6725 152.468 56.8938C152.284 57.1151 152.029 57.2662 151.747 57.3218C150.99 57.4705 150.215 57.5099 149.447 57.4388C147.421 57.4538 145.395 57.4429 143.37 57.4429Z" fill="#3C23B6"/>
<path d="M141.205 89.035H133.897C131.99 89.035 130.082 89.03 128.175 89.035C127.305 89.035 126.554 88.746 126.532 87.801C126.508 86.757 127.306 86.501 128.218 86.508C131.344 86.517 134.468 86.508 137.594 86.508C139.921 86.513 140.172 86.68 141.205 89.035Z" fill="#3C23B6"/>
<path d="M140.869 70.6887C140.429 71.4977 140.062 72.1166 139.752 72.7636C139.52 73.2506 139.115 73.1857 138.719 73.1867C135.197 73.1867 131.674 73.1867 128.151 73.1867C127.288 73.1867 126.534 72.9257 126.531 71.9567C126.531 71.0177 127.224 70.6796 128.115 70.6816C132.284 70.6936 136.451 70.6887 140.869 70.6887Z" fill="#3C23B6"/>
<path d="M132.707 81.0066H128.082C127.2 81.0066 126.494 80.6715 126.533 79.7065C126.569 78.8325 127.242 78.4955 128.073 78.4955C131.197 78.4955 134.32 78.5165 137.444 78.4835C138.523 78.4715 138.185 79.2215 138.19 79.7465C138.195 80.2715 138.524 81.0466 137.453 81.0196C135.871 80.9826 134.288 81.0066 132.707 81.0066Z" fill="#3C23B6"/>
<path d="M157.6 76.7203C157.573 76.9057 157.508 77.0837 157.411 77.2441C157.314 77.4044 157.186 77.5438 157.034 77.6542C155.26 79.3802 153.466 81.0862 151.716 82.8372C151.611 82.9982 151.467 83.1301 151.298 83.2206C151.128 83.311 150.938 83.3571 150.746 83.3546C150.554 83.3521 150.365 83.3011 150.198 83.2063C150.031 83.1115 149.89 82.9759 149.789 82.8123C148.983 81.9573 148.098 81.1762 147.269 80.3422C146.827 79.8962 146.633 79.3602 147.135 78.8422C147.66 78.2952 148.173 78.4312 148.726 78.9012C150.92 80.7672 150.926 80.7532 153.026 78.7012C153.925 77.8206 154.828 76.9449 155.735 76.0742C155.88 75.9011 156.077 75.7802 156.296 75.73C156.516 75.6798 156.746 75.7031 156.951 75.7963C157.132 75.8783 157.288 76.0072 157.402 76.1697C157.516 76.3322 157.584 76.5223 157.6 76.7203V76.7203Z" fill="#3C23B6"/>
</g>
</g>
</g>
<defs>
<clipPath id="clip0_229_2">
<rect width="256" height="142" fill="white"/>
</clipPath>
<clipPath id="clip1_229_2">
<rect width="260" height="308" fill="white" transform="translate(-4 -143)"/>
</clipPath>
<clipPath id="clip2_229_2">
<rect width="79.629" height="51.215" fill="white" transform="translate(97 47)"/>
</clipPath>
</defs>
</svg>
