<svg width="256" height="142" viewBox="0 0 256 142" fill="none" xmlns="http://www.w3.org/2000/svg">
<g clip-path="url(#clip0_229_12)">
<g clip-path="url(#clip1_229_12)">
<path opacity="0.1" d="M296.527 67.1068C282.955 72.7466 270.418 80.4808 256.992 86.4354C249.079 89.9442 240.584 92.8691 231.834 92.3866C213.899 91.3928 199.864 76.8395 188.06 63.2404C176.255 49.6413 162.644 34.8732 144.748 33.1667C129.327 31.6959 114.75 40.8618 105.629 52.9402C96.5069 65.0185 91.7899 79.7436 86.9245 94.0834C82.0592 108.423 76.6901 123.027 66.6084 134.331C55.5649 146.713 39.8471 154.039 27.3182 164.962C14.7893 175.884 5.30262 193.568 12.2513 208.953C15.5683 216.294 22.1439 221.825 29.2321 225.823C41.7654 232.887 56.1326 235.827 70.2858 238.113C77.5513 239.289 85.2074 240.473 91.04 244.992C100.592 252.393 102.111 266.077 109.638 275.476C118.292 286.284 133.8 289.716 147.402 287.707C161.004 285.698 173.313 279.198 185.602 273.292C208.22 262.421 228.253 258.998 253.309 264.372C279.484 269.984 306.78 284.39 333.758 276.794C356.234 270.465 372.116 247.238 369.779 224.112C367.971 206.189 356.817 190.387 351.584 173.05C345.077 151.49 348.089 128.047 356.987 107.716C360.792 99.0246 365.761 89.8715 363.576 80.5149C361.147 70.116 350.407 63.2778 339.821 61.0484C325.221 57.9599 310.098 61.4665 296.527 67.1068Z" fill="#3C23B6"/>
<g clip-path="url(#clip2_229_12)">
<path d="M160.788 99.2H119.719C118.865 99.2 118.047 98.8609 117.443 98.2572C116.839 97.6535 116.5 96.8347 116.5 95.981V41.719C116.5 40.8653 116.839 40.0465 117.443 39.4428C118.047 38.8391 118.865 38.5 119.719 38.5H160.787C161.641 38.5 162.46 38.8391 163.063 39.4428C163.667 40.0465 164.006 40.8653 164.006 41.719V95.982C164.006 96.8354 163.667 97.6537 163.063 98.2572C162.46 98.8606 161.641 99.1997 160.788 99.2V99.2Z" stroke="#3C23B6" stroke-width="3"/>
<path d="M121.614 61.122C121.614 61.2953 121.648 61.4669 121.714 61.627C121.781 61.7872 121.878 61.9327 122 62.0553C122.123 62.1779 122.268 62.2751 122.428 62.3415C122.588 62.4078 122.76 62.442 122.933 62.442H138.933C139.283 62.442 139.619 62.3029 139.867 62.0553C140.114 61.8078 140.253 61.472 140.253 61.122C140.247 59.3968 139.761 57.7075 138.849 56.2428C137.938 54.7781 136.637 53.5957 135.092 52.828C136.044 51.9842 136.716 50.871 137.02 49.6362C137.324 48.4013 137.245 47.1032 136.794 45.9142C136.343 44.7252 135.541 43.7016 134.494 42.9793C133.447 42.257 132.206 41.8701 130.934 41.8701C129.662 41.8701 128.42 42.257 127.374 42.9793C126.327 43.7016 125.525 44.7252 125.074 45.9142C124.622 47.1032 124.543 48.4013 124.847 49.6362C125.151 50.871 125.824 51.9842 126.775 52.828C125.23 53.5956 123.929 54.7779 123.018 56.2426C122.106 57.7073 121.62 59.3967 121.613 61.122H121.614Z" stroke="#3C23B6" stroke-width="3"/>
<path d="M122.191 71.63H158.314C158.469 71.6724 158.632 71.6785 158.789 71.6478C158.947 71.6172 159.095 71.5506 159.222 71.4532C159.35 71.3559 159.453 71.2304 159.525 71.0866C159.596 70.9428 159.633 70.7845 159.633 70.6241C159.633 70.4636 159.596 70.3053 159.525 70.1615C159.453 70.0177 159.35 69.8922 159.222 69.7949C159.095 69.6976 158.947 69.631 158.789 69.6003C158.632 69.5696 158.469 69.5757 158.314 69.6181H122.191C122.037 69.5757 121.874 69.5696 121.717 69.6003C121.559 69.631 121.411 69.6976 121.283 69.7949C121.156 69.8922 121.052 70.0177 120.981 70.1615C120.91 70.3053 120.873 70.4636 120.873 70.6241C120.873 70.7845 120.91 70.9428 120.981 71.0866C121.052 71.2304 121.156 71.3559 121.283 71.4532C121.411 71.5506 121.559 71.6172 121.717 71.6478C121.874 71.6785 122.037 71.6724 122.191 71.63Z" fill="#3C23B6"/>
<path d="M122.191 77.965H158.314C158.469 78.0074 158.632 78.0134 158.789 77.9828C158.947 77.9521 159.095 77.8855 159.222 77.7882C159.35 77.6908 159.453 77.5654 159.525 77.4216C159.596 77.2778 159.633 77.1194 159.633 76.959C159.633 76.7985 159.596 76.6403 159.525 76.4964C159.453 76.3526 159.35 76.2272 159.222 76.1298C159.095 76.0325 158.947 75.9659 158.789 75.9352C158.632 75.9046 158.469 75.9107 158.314 75.953H122.191C122.037 75.9107 121.874 75.9046 121.717 75.9352C121.559 75.9659 121.411 76.0325 121.283 76.1298C121.156 76.2272 121.052 76.3526 120.981 76.4964C120.91 76.6403 120.873 76.7985 120.873 76.959C120.873 77.1194 120.91 77.2778 120.981 77.4216C121.052 77.5654 121.156 77.6908 121.283 77.7882C121.411 77.8855 121.559 77.9521 121.717 77.9828C121.874 78.0134 122.037 78.0074 122.191 77.965Z" fill="#3C23B6"/>
<path d="M122.191 84.3009H158.314C158.469 84.3433 158.632 84.3494 158.789 84.3187C158.947 84.2881 159.095 84.2215 159.222 84.1241C159.35 84.0268 159.453 83.9013 159.525 83.7575C159.596 83.6137 159.633 83.4554 159.633 83.295C159.633 83.1345 159.596 82.9762 159.525 82.8324C159.453 82.6886 159.35 82.5631 159.222 82.4658C159.095 82.3685 158.947 82.3019 158.789 82.2712C158.632 82.2405 158.469 82.2466 158.314 82.2889H122.191C122.037 82.2466 121.874 82.2405 121.717 82.2712C121.559 82.3019 121.411 82.3685 121.283 82.4658C121.156 82.5631 121.052 82.6886 120.981 82.8324C120.91 82.9762 120.873 83.1345 120.873 83.295C120.873 83.4554 120.91 83.6137 120.981 83.7575C121.052 83.9013 121.156 84.0268 121.283 84.1241C121.411 84.2215 121.559 84.2881 121.717 84.3187C121.874 84.3494 122.037 84.3433 122.191 84.3009Z" fill="#3C23B6"/>
<path d="M122.191 90.6359H158.314C158.469 90.6783 158.632 90.6843 158.789 90.6537C158.947 90.623 159.095 90.5564 159.222 90.4591C159.35 90.3617 159.453 90.2363 159.525 90.0925C159.596 89.9487 159.633 89.7904 159.633 89.6299C159.633 89.4695 159.596 89.3111 159.525 89.1673C159.453 89.0235 159.35 88.8981 159.222 88.8007C159.095 88.7034 158.947 88.6368 158.789 88.6061C158.632 88.5755 158.469 88.5816 158.314 88.6239H122.191C122.037 88.5816 121.874 88.5755 121.717 88.6061C121.559 88.6368 121.411 88.7034 121.283 88.8007C121.156 88.8981 121.052 89.0235 120.981 89.1673C120.91 89.3111 120.873 89.4695 120.873 89.6299C120.873 89.7904 120.91 89.9487 120.981 90.0925C121.052 90.2363 121.156 90.3617 121.283 90.4591C121.411 90.5564 121.559 90.623 121.717 90.6537C121.874 90.6843 122.037 90.6783 122.191 90.6359Z" fill="#3C23B6"/>
</g>
</g>
</g>
<defs>
<clipPath id="clip0_229_12">
<rect width="256" height="142" fill="white"/>
</clipPath>
<clipPath id="clip1_229_12">
<rect width="260" height="308" fill="white" transform="translate(-4 -143)"/>
</clipPath>
<clipPath id="clip2_229_12">
<rect width="50.506" height="63.7" fill="white" transform="translate(115 37)"/>
</clipPath>
</defs>
</svg>
