<svg width="256" height="142" viewBox="0 0 256 142" fill="none" xmlns="http://www.w3.org/2000/svg">
<g clip-path="url(#clip0_229_32)">
<g clip-path="url(#clip1_229_32)">
<path opacity="0.1" d="M296.527 67.1068C282.955 72.7466 270.418 80.4808 256.992 86.4354C249.079 89.9442 240.584 92.8691 231.834 92.3866C213.899 91.3928 199.864 76.8395 188.06 63.2404C176.255 49.6413 162.644 34.8732 144.748 33.1667C129.327 31.6959 114.75 40.8618 105.629 52.9402C96.5069 65.0185 91.7899 79.7436 86.9245 94.0834C82.0592 108.423 76.6901 123.027 66.6084 134.331C55.5649 146.713 39.8471 154.039 27.3182 164.962C14.7893 175.884 5.30262 193.568 12.2513 208.953C15.5683 216.294 22.1439 221.825 29.2321 225.823C41.7654 232.887 56.1326 235.827 70.2858 238.113C77.5513 239.289 85.2074 240.473 91.04 244.992C100.592 252.393 102.111 266.077 109.638 275.476C118.292 286.284 133.8 289.716 147.402 287.707C161.004 285.698 173.313 279.198 185.602 273.292C208.22 262.421 228.253 258.998 253.309 264.372C279.484 269.984 306.78 284.39 333.758 276.794C356.234 270.465 372.116 247.238 369.779 224.112C367.971 206.189 356.817 190.387 351.584 173.05C345.077 151.49 348.089 128.047 356.987 107.716C360.792 99.0246 365.761 89.8715 363.576 80.5149C361.147 70.116 350.407 63.2778 339.821 61.0484C325.221 57.9599 310.098 61.4665 296.527 67.1068Z" fill="#3C23B6"/>
<g clip-path="url(#clip2_229_32)">
<path d="M99.6784 60.9442V59.8442C99.6784 53.0209 99.6784 46.1976 99.6784 39.3742C99.6189 38.6557 99.7161 37.9329 99.9634 37.2556C100.211 36.5784 100.602 35.963 101.111 35.4518C101.619 34.9407 102.232 34.5461 102.908 34.2953C103.584 34.0445 104.307 33.9435 105.025 33.9992C126.967 33.9992 148.91 33.9992 170.852 33.9992C171.571 33.94 172.294 34.0375 172.971 34.285C173.648 34.5325 174.263 34.924 174.774 35.4325C175.285 35.941 175.68 36.5544 175.93 37.2303C176.181 37.9062 176.282 38.6285 176.226 39.3472C176.232 43.3646 176.232 47.3819 176.226 51.3992V52.3912C176.744 52.4212 177.184 52.4142 177.614 52.4782C178.799 52.6354 179.887 53.2186 180.673 54.1189C181.459 55.0192 181.891 56.1749 181.887 57.3702C181.905 68.2696 181.905 79.1696 181.887 90.0702C181.888 90.7159 181.761 91.3553 181.513 91.9514C181.265 92.5476 180.902 93.0886 180.443 93.5433C179.985 93.998 179.441 94.3572 178.843 94.6003C178.244 94.8433 177.604 94.9653 176.958 94.9592C170.816 94.9866 164.673 94.9866 158.53 94.9592C157.871 94.9663 157.216 94.8408 156.606 94.5902C155.995 94.3395 155.442 93.9688 154.977 93.5C154.513 93.0313 154.147 92.474 153.902 91.8613C153.657 91.2486 153.538 90.5929 153.551 89.9332C153.534 88.3422 153.551 86.7512 153.551 85.1022H146.891L147.567 87.8792C148.578 87.8792 149.549 87.8662 150.52 87.8792C150.735 87.8526 150.953 87.8748 151.158 87.9444C151.362 88.0139 151.549 88.1289 151.703 88.2807C151.857 88.4326 151.974 88.6173 152.046 88.821C152.119 89.0248 152.144 89.2423 152.12 89.4572C152.14 90.7566 152.14 92.0566 152.12 93.3572C152.105 94.4392 151.567 94.9572 150.452 94.9572C146.852 94.9662 143.246 94.9572 139.643 94.9572C135.007 94.9572 130.37 94.9572 125.734 94.9572C124.219 94.9572 123.777 94.5182 123.774 93.0182C123.774 91.8362 123.761 90.6552 123.774 89.4732C123.747 89.2584 123.769 89.0402 123.839 88.8351C123.908 88.63 124.023 88.4434 124.176 88.2893C124.328 88.1353 124.513 88.0177 124.717 87.9456C124.921 87.8736 125.139 87.8488 125.354 87.8732C126.325 87.8542 127.298 87.8732 128.326 87.8732L129.026 85.0732H116.69C116.69 85.9732 116.706 86.8732 116.69 87.7732C116.729 88.8628 116.679 89.9537 116.541 91.0352C116.34 92.1374 115.756 93.1334 114.894 93.8487C114.032 94.564 112.945 94.9529 111.824 94.9472C107.513 94.9799 103.201 94.9799 98.8894 94.9472C97.601 94.9433 96.3664 94.4298 95.4551 93.519C94.5438 92.6081 94.0299 91.3737 94.0254 90.0852C93.9967 81.9919 93.9967 73.8986 94.0254 65.8052C94.0375 64.5341 94.5413 63.3171 95.4312 62.4093C96.321 61.5016 97.5278 60.9737 98.7984 60.9362C99.0544 60.9352 99.3114 60.9442 99.6784 60.9442ZM102.513 60.9442C105.663 60.9442 108.674 60.9262 111.684 60.9492C112.343 60.9413 112.997 61.0652 113.607 61.3137C114.217 61.5622 114.772 61.9302 115.238 62.3961C115.703 62.8619 116.071 63.4163 116.32 64.0265C116.568 64.6367 116.692 65.2904 116.684 65.9492C116.697 66.7762 116.684 67.6032 116.684 68.4302C116.684 70.1632 116.684 71.8952 116.684 73.6412H153.542V72.6212C153.542 67.6592 153.542 62.6976 153.542 57.7362C153.493 57.0252 153.598 56.3118 153.848 55.6446C154.099 54.9774 154.49 54.3719 154.996 53.8693C155.501 53.3666 156.109 52.9785 156.777 52.7312C157.446 52.4839 158.16 52.3834 158.87 52.4362C163.388 52.4322 167.905 52.4322 172.423 52.4362H173.386C173.386 48.0182 173.386 43.7362 173.386 39.4572C173.386 37.6052 172.61 36.8412 170.737 36.8412C148.887 36.8412 127.036 36.8412 105.185 36.8412C103.26 36.8412 102.508 37.5922 102.508 39.5182C102.508 46.3409 102.508 53.1632 102.508 59.9852L102.513 60.9442ZM156.382 73.6152C156.382 78.9006 156.382 84.1862 156.382 89.4722C156.382 91.3882 157.137 92.1362 159.072 92.1362C164.829 92.1362 170.586 92.1362 176.342 92.1362C178.327 92.1362 179.062 91.4002 179.062 89.4122C179.062 82.4436 179.062 75.4749 179.062 68.5062C179.062 64.8742 179.07 61.2422 179.062 57.6062C179.092 57.2953 179.053 56.9818 178.948 56.6876C178.843 56.3934 178.675 56.1256 178.456 55.9032C178.237 55.6807 177.972 55.5088 177.679 55.3997C177.387 55.2905 177.074 55.2467 176.762 55.2712C175.7 55.2552 174.635 55.2332 173.575 55.2922C173.423 55.3195 173.28 55.3808 173.155 55.4716C173.03 55.5623 172.927 55.6801 172.854 55.8162C172.547 56.5162 172.347 57.2602 172.102 57.9862C171.655 59.3142 171.375 59.5192 170.002 59.5202C168.939 59.5202 167.877 59.5202 166.814 59.5202C163.647 59.5312 163.94 59.7372 162.95 56.7522C162.457 55.2662 162.458 55.2662 160.939 55.2662C160.319 55.2662 159.699 55.2662 159.079 55.2662C157.142 55.2662 156.391 56.0112 156.39 57.9302C156.384 63.1589 156.381 68.3862 156.382 73.6122V73.6152ZM96.8434 77.8662C96.8434 81.7929 96.8434 85.7196 96.8434 89.6462C96.7945 89.9862 96.8259 90.3328 96.9351 90.6585C97.0442 90.9841 97.2281 91.2797 97.4719 91.5215C97.7158 91.7633 98.0129 91.9447 98.3394 92.0511C98.666 92.1575 99.0129 92.186 99.3524 92.1342C103.337 92.1396 107.322 92.1396 111.307 92.1342C113.052 92.1342 113.849 91.3342 113.85 89.5902C113.854 81.8256 113.854 74.0589 113.85 66.2902C113.906 65.9355 113.873 65.5726 113.756 65.2331C113.64 64.8936 113.442 64.5878 113.18 64.3421C112.918 64.0964 112.601 63.9182 112.254 63.8231C111.908 63.728 111.544 63.7188 111.193 63.7962C111.041 63.8231 110.897 63.8842 110.772 63.975C110.647 64.0658 110.545 64.1839 110.472 64.3202C110.123 65.1622 109.872 66.0442 109.577 66.9092C109.494 67.2425 109.297 67.5362 109.021 67.7401C108.744 67.9439 108.405 68.0451 108.062 68.0262C106.262 68.0262 104.462 68.0262 102.662 68.0262C102.32 68.0512 101.979 67.9562 101.699 67.7575C101.419 67.5588 101.216 67.2688 101.126 66.9372C100.826 66.0732 100.578 65.1912 100.232 64.3472C100.165 64.2083 100.067 64.0864 99.9457 63.9906C99.8245 63.8948 99.6832 63.8277 99.5324 63.7942C97.7384 63.6612 96.8454 64.5282 96.8434 66.3432C96.8407 70.1826 96.8407 74.0229 96.8434 77.8642V77.8662ZM116.736 76.5762V82.1592H153.484V76.5762H116.736ZM131.286 87.8312H144.623L143.931 85.0852H131.966L131.286 87.8312ZM149.254 90.7772H126.654V92.0902H149.254V90.7772ZM169.885 55.3312H165.531C165.823 56.6892 165.823 56.6892 167.091 56.6892H168.411C169.69 56.6862 169.69 56.6862 169.885 55.3282V55.3312ZM103.165 63.8212C103.424 65.1972 103.424 65.1972 104.692 65.1972H106.011C107.279 65.1972 107.279 65.1972 107.524 63.8212H103.165Z" fill="#3C23B6"/>
<path d="M167.645 90.7155C166.759 90.7155 165.873 90.7345 164.988 90.7105C164.795 90.7236 164.602 90.6972 164.42 90.6329C164.239 90.5686 164.072 90.4678 163.931 90.3367C163.789 90.2055 163.676 90.0468 163.598 89.8703C163.521 89.6939 163.48 89.5034 163.479 89.3105C163.476 89.1175 163.513 88.926 163.588 88.748C163.662 88.57 163.773 88.4094 163.913 88.2762C164.052 88.1431 164.218 88.0403 164.4 87.9742C164.581 87.9082 164.774 87.8803 164.967 87.8925C166.797 87.8692 168.627 87.8692 170.459 87.8925C170.651 87.8786 170.845 87.9043 171.027 87.9682C171.21 88.032 171.377 88.1326 171.519 88.2637C171.661 88.3948 171.775 88.5536 171.853 88.7304C171.931 88.9071 171.972 89.0981 171.974 89.2913C171.975 89.4846 171.937 89.676 171.861 89.8539C171.786 90.0318 171.674 90.1923 171.534 90.3255C171.394 90.4588 171.229 90.5618 171.047 90.6284C170.866 90.695 170.673 90.7236 170.48 90.7125C169.536 90.7355 168.59 90.7155 167.645 90.7155Z" fill="#3C23B6"/>
<path d="M105.358 87.8824C106.273 87.8824 107.189 87.8623 108.104 87.8883C108.297 87.8772 108.49 87.9058 108.671 87.9723C108.853 88.0388 109.019 88.1417 109.159 88.2749C109.299 88.408 109.41 88.5685 109.486 88.7464C109.561 88.9242 109.599 89.1157 109.598 89.309C109.597 89.5023 109.556 89.6932 109.478 89.87C109.4 90.0468 109.286 90.2057 109.144 90.3368C109.002 90.468 108.835 90.5686 108.652 90.6325C108.47 90.6964 108.276 90.7222 108.084 90.7083C106.253 90.7303 104.422 90.7303 102.592 90.7083C102.4 90.7171 102.209 90.6867 102.03 90.6192C101.85 90.5516 101.686 90.4483 101.548 90.3153C101.41 90.1824 101.3 90.0228 101.226 89.8461C101.152 89.6694 101.114 89.4795 101.115 89.2878C101.117 89.0961 101.157 88.9067 101.234 88.7311C101.311 88.5555 101.423 88.3975 101.563 88.2665C101.703 88.1356 101.868 88.0345 102.048 87.9695C102.229 87.9045 102.42 87.8769 102.612 87.8883C103.527 87.8633 104.443 87.8824 105.358 87.8824Z" fill="#3C23B6"/>
<path d="M137.886 80.7871C137.443 80.7871 136.999 80.8081 136.558 80.7871C136.372 80.7899 136.188 80.7562 136.016 80.6878C135.844 80.6195 135.687 80.5178 135.554 80.3887C135.421 80.2597 135.314 80.1056 135.241 79.9355C135.168 79.7653 135.128 79.5824 135.126 79.3971C135.12 79.2115 135.152 79.0267 135.219 78.8537C135.287 78.6807 135.388 78.523 135.518 78.3901C135.648 78.2571 135.803 78.1516 135.974 78.0798C136.145 78.008 136.329 77.9714 136.515 77.9721C137.458 77.9331 138.405 77.9371 139.349 77.9721C139.534 77.9677 139.718 78.0002 139.891 78.0677C140.064 78.1351 140.221 78.2362 140.355 78.3651C140.488 78.4939 140.594 78.6479 140.668 78.8182C140.741 78.9885 140.78 79.1717 140.782 79.3571C140.784 79.5499 140.747 79.7411 140.673 79.919C140.598 80.097 140.489 80.258 140.35 80.3922C140.212 80.5263 140.048 80.6309 139.868 80.6995C139.687 80.7681 139.495 80.7993 139.303 80.7911C138.832 80.8061 138.359 80.7881 137.886 80.7871Z" fill="#3C23B6"/>
</g>
</g>
</g>
<defs>
<clipPath id="clip0_229_32">
<rect width="256" height="142" fill="white"/>
</clipPath>
<clipPath id="clip1_229_32">
<rect width="260" height="308" fill="white" transform="translate(-4 -143)"/>
</clipPath>
<clipPath id="clip2_229_32">
<rect width="87.904" height="60.983" fill="white" transform="translate(94 34)"/>
</clipPath>
</defs>
</svg>
