<svg width="256" height="142" viewBox="0 0 256 142" fill="none" xmlns="http://www.w3.org/2000/svg">
<g clip-path="url(#clip0_229_16)">
<g clip-path="url(#clip1_229_16)">
<path opacity="0.1" d="M236.562 39.4859C225.089 51.0859 216.074 63.9969 204.959 75.7989C198.408 82.7539 190.847 89.4879 180.868 93.3839C160.41 101.365 135.763 95.6269 114.182 89.6189C92.5999 83.6109 68.2875 77.4769 47.4254 84.8189C29.4492 91.1449 19.0754 106.308 16.5607 121.314C14.0461 136.32 18.0621 151.456 21.6726 166.33C25.2831 181.204 28.5021 196.556 24.4403 211.362C19.9907 227.58 7.20146 241.705 0.194037 257.386C-6.81338 273.067 -6.21718 293.129 11.1145 303.086C19.3856 307.836 30.1255 309.404 40.4714 309.386C58.7616 309.35 76.4937 304.821 93.58 299.83C102.352 297.269 111.561 294.523 120.846 295.578C136.049 297.305 146.31 308.459 160.527 312.924C176.874 318.058 196.177 313.394 209.96 304.938C223.744 296.482 233.281 284.757 243.168 273.558C261.365 252.946 281.374 240.088 312.454 232.405C344.92 224.377 384.14 223.447 409.213 203.533C430.101 186.943 433.102 158.904 416.018 139.939C402.78 125.239 380.537 116.994 363.879 104.493C343.165 88.9469 331.795 67.0679 328.889 44.9929C327.647 35.5559 327.403 25.1429 319.121 18.0809C309.914 10.2329 293.749 9.58094 280.643 12.8629C262.56 17.3769 248.034 27.8859 236.562 39.4859Z" fill="#3C23B6"/>
<g clip-path="url(#clip2_229_16)">
<path d="M155.29 43.5H158.978C159.13 43.533 159.278 43.575 159.436 43.6C160.884 43.808 162.353 43.9259 163.779 44.2339C169.502 45.334 174.74 48.1925 178.761 52.4109C187.561 61.889 189.809 72.9 185.14 84.9109C182.208 92.307 176.492 98.2575 169.219 101.483C161.947 104.709 153.699 104.952 146.249 102.161C135.46 98.1959 129.134 90.304 126.959 79.108C126.746 78.008 126.651 76.892 126.502 75.782V72.1169C126.547 71.9677 126.58 71.8153 126.602 71.6609C126.789 68.6309 127.476 65.6527 128.635 62.847C133.03 52.447 140.802 46.1549 151.953 43.9709C153.053 43.7529 154.177 43.653 155.29 43.5ZM136.044 93.105C138.88 90.288 141.686 87.505 144.477 84.705C144.615 84.5233 144.686 84.2992 144.677 84.071C144.693 82.436 144.684 80.8 144.686 79.165C144.639 78.5752 144.722 77.9824 144.928 77.4278C145.134 76.8732 145.458 76.3701 145.878 75.9537C146.298 75.5372 146.804 75.2173 147.361 75.0164C147.917 74.8154 148.511 74.7381 149.1 74.79C150.726 74.784 152.351 74.79 153.977 74.79C154.152 74.79 154.392 74.82 154.491 74.723C155.13 74.101 155.738 73.448 156.416 72.743H155.761C153.481 72.743 151.201 72.753 148.921 72.743C148.361 72.7723 147.8 72.6843 147.276 72.4845C146.752 72.2847 146.275 71.9776 145.877 71.5828C145.478 71.1881 145.166 70.7144 144.961 70.1921C144.757 69.6698 144.663 69.1105 144.687 68.55C144.678 63.9 144.678 59.2497 144.687 54.599C144.663 54.043 144.755 53.4882 144.956 52.9693C145.157 52.4504 145.463 51.9786 145.855 51.5836C146.247 51.1885 146.716 50.8786 147.234 50.6734C147.751 50.4682 148.305 50.372 148.861 50.391C154.254 50.3663 159.646 50.3663 165.039 50.391C165.595 50.3731 166.149 50.47 166.666 50.6758C167.183 50.8816 167.652 51.1917 168.043 51.5869C168.435 51.9821 168.741 52.4538 168.942 52.9726C169.143 53.4914 169.235 54.0461 169.212 54.602C169.221 56.238 169.212 57.873 169.212 59.509C169.214 59.6253 169.222 59.7415 169.236 59.857L176.287 52.857C170.717 47.7299 163.342 45.0194 155.777 45.3193C148.213 45.6192 141.076 48.905 135.929 54.457C131.014 59.6977 128.288 66.619 128.309 73.8038C128.331 80.9887 131.098 87.8936 136.044 93.105ZM137.509 94.705C145.426 101.461 154.498 104.005 164.618 101.122C175.852 97.9219 182.793 90.328 185.058 78.943C186.901 69.683 184.209 61.492 177.958 54.392C177.812 54.507 177.746 54.549 177.692 54.603C174.959 57.3183 172.228 60.038 169.501 62.762C169.33 62.965 169.236 63.2216 169.235 63.487C169.212 65.142 169.227 66.797 169.222 68.452C169.257 69.0272 169.17 69.6033 168.964 70.1418C168.759 70.6804 168.442 71.1689 168.032 71.5748C167.623 71.9806 167.132 72.2944 166.592 72.4952C166.052 72.696 165.475 72.7791 164.9 72.739C163.255 72.745 161.609 72.739 159.964 72.745C159.751 72.718 159.536 72.759 159.348 72.862C158.713 73.441 158.116 74.062 157.383 74.79H158.183C160.483 74.79 162.783 74.767 165.083 74.798C165.634 74.7797 166.182 74.8751 166.695 75.0782C167.207 75.2814 167.672 75.588 168.06 75.9788C168.449 76.3696 168.752 76.8363 168.952 77.3497C169.152 77.8632 169.245 78.4123 169.223 78.963C169.234 83.6516 169.234 88.3406 169.223 93.03C169.237 93.5666 169.144 94.1006 168.948 94.6002C168.751 95.0999 168.457 95.5548 168.081 95.9382C167.705 96.3215 167.256 96.6253 166.76 96.8314C166.265 97.0375 165.733 97.1418 165.196 97.138C159.705 97.1767 154.214 97.1767 148.723 97.138C148.187 97.1396 147.655 97.0336 147.16 96.8263C146.666 96.619 146.218 96.3146 145.843 95.931C145.468 95.5474 145.173 95.0925 144.977 94.5931C144.781 94.0938 144.687 93.5602 144.701 93.024C144.687 91.389 144.701 89.754 144.701 88.118C144.701 87.932 144.685 87.745 144.678 87.59L137.509 94.705ZM159.989 76.823C158.572 76.823 157.189 76.804 155.805 76.839C155.503 76.855 155.215 76.9747 154.991 77.178C152.341 79.782 149.708 82.4017 147.091 85.037C146.877 85.2752 146.754 85.5812 146.744 85.901C146.716 88.201 146.726 90.511 146.73 92.816C146.693 93.1283 146.728 93.445 146.832 93.7419C146.935 94.0388 147.106 94.308 147.329 94.5292C147.553 94.7504 147.824 94.9177 148.122 95.0184C148.42 95.119 148.737 95.1503 149.049 95.11C154.322 95.1147 159.596 95.1147 164.869 95.11C165.181 95.1498 165.498 95.1179 165.797 95.0166C166.095 94.9154 166.366 94.7475 166.589 94.5257C166.812 94.3039 166.982 94.0341 167.086 93.7368C167.189 93.4395 167.223 93.1225 167.186 92.81C167.186 90.3473 167.186 87.8843 167.186 85.421C167.186 83.254 167.193 81.086 167.186 78.921C167.215 78.4205 167.051 77.928 166.729 77.5441C166.407 77.1603 165.95 76.9141 165.452 76.856C164.352 76.788 163.243 76.84 162.102 76.84C162.092 77.066 162.076 77.2589 162.076 77.45C162.076 80.9373 162.076 84.4247 162.076 87.912C162.11 88.3302 162.008 88.7482 161.787 89.1044C161.565 89.4607 161.235 89.7364 160.845 89.891C160.482 90.0361 160.082 90.0559 159.707 89.9472C159.332 89.8385 159.004 89.6075 158.775 89.291C158.201 88.672 157.607 88.071 157.047 87.491C156.975 87.5208 156.905 87.557 156.839 87.599C156.263 88.169 155.678 88.73 155.117 89.315C154.885 89.6154 154.563 89.8345 154.199 89.9412C153.834 90.0479 153.446 90.0367 153.088 89.909C152.709 89.7569 152.386 89.4911 152.164 89.1482C151.943 88.8053 151.832 88.402 151.849 87.994C151.84 86.3586 151.84 84.7233 151.849 83.088C151.849 82.343 152.249 81.906 152.885 81.915C153.503 81.923 153.876 82.34 153.885 83.061C153.894 84.401 153.885 85.741 153.89 87.081C153.89 87.224 153.918 87.367 153.948 87.657C154.535 87.05 155.02 86.532 155.523 86.032C155.691 85.8062 155.909 85.6229 156.161 85.4968C156.412 85.3707 156.689 85.3052 156.971 85.3057C157.252 85.3062 157.529 85.3726 157.78 85.4996C158.031 85.6266 158.249 85.8107 158.416 86.037C158.916 86.537 159.393 87.0449 160.001 87.674L159.989 76.823ZM162.069 52.4789V53.133C162.069 56.6203 162.069 60.1079 162.069 63.5959C162.094 64.0051 161.987 64.4116 161.764 64.7551C161.54 65.0986 161.211 65.3608 160.827 65.503C160.473 65.6416 160.083 65.66 159.718 65.5554C159.352 65.4508 159.031 65.2289 158.804 64.924C158.21 64.298 157.59 63.698 156.928 63.034C156.562 63.425 156.256 63.759 155.94 64.085C155.624 64.411 155.296 64.7269 154.975 65.049C154.794 65.2465 154.569 65.4001 154.32 65.498C154.07 65.596 153.801 65.6356 153.534 65.614C153.039 65.5466 152.589 65.2929 152.276 64.9048C151.962 64.5168 151.808 64.0236 151.846 63.526C151.84 60.0593 151.84 56.5926 151.846 53.126V52.476C150.646 52.476 149.5 52.407 148.363 52.498C147.895 52.5616 147.468 52.7986 147.167 53.1622C146.865 53.5258 146.712 53.9894 146.736 54.461C146.726 59.2097 146.726 63.9583 146.736 68.707C146.732 68.9758 146.783 69.2425 146.886 69.4908C146.989 69.7392 147.142 69.9639 147.335 70.1512C147.528 70.3384 147.757 70.4843 148.008 70.5799C148.259 70.6755 148.527 70.7187 148.796 70.707C151.929 70.7183 155.063 70.7166 158.196 70.702C158.424 70.6959 158.643 70.6099 158.814 70.459C161.531 67.7817 164.238 65.0936 166.934 62.395C167.078 62.2432 167.164 62.045 167.175 61.836C167.191 59.3727 167.191 56.9096 167.175 54.447C167.198 53.9855 167.049 53.532 166.758 53.1731C166.467 52.8142 166.054 52.5752 165.598 52.502C164.445 52.408 163.275 52.483 162.069 52.483V52.4789ZM159.85 63.159L160.001 63.051V52.472H153.914V63.309C154.547 62.647 155.049 62.097 155.578 61.573C155.745 61.3677 155.955 61.2023 156.195 61.0891C156.434 60.9758 156.695 60.9176 156.96 60.9187C157.224 60.9198 157.485 60.98 157.723 61.0952C157.961 61.2103 158.171 61.3773 158.336 61.584C158.856 62.097 159.348 62.632 159.85 63.159ZM167.171 65.306L161.743 70.694C162.919 70.694 164.182 70.737 165.443 70.679C165.893 70.6397 166.314 70.4401 166.629 70.1165C166.944 69.7928 167.132 69.3668 167.159 68.916C167.214 67.683 167.17 66.447 167.17 65.303L167.171 65.306ZM146.73 82.289L152.191 76.858C150.962 76.858 149.659 76.796 148.367 76.879C147.919 76.9399 147.509 77.1599 147.21 77.4986C146.911 77.8373 146.744 78.2723 146.739 78.724C146.704 79.921 146.73 81.12 146.73 82.289Z" fill="#3C23B6" stroke="#3C23B6"/>
</g>
</g>
</g>
<defs>
<clipPath id="clip0_229_16">
<rect width="256" height="142" fill="white"/>
</clipPath>
<clipPath id="clip1_229_16">
<rect width="260" height="308" fill="white" transform="translate(-4 -143)"/>
</clipPath>
<clipPath id="clip2_229_16">
<rect width="62.059" height="61.647" fill="white" transform="translate(126 43)"/>
</clipPath>
</defs>
</svg>
