<svg width="256" height="142" viewBox="0 0 256 142" fill="none" xmlns="http://www.w3.org/2000/svg">
<g clip-path="url(#clip0_231_256)">
<g clip-path="url(#clip1_231_256)">
<path opacity="0.1" d="M84.0519 170.254C69.4519 163.373 49.2259 143.508 62.1089 114.68C74.9919 85.8515 99.4679 92.6915 133.822 63.3745C175.522 27.7835 204.812 25.8275 242.036 41.3865C263.078 50.1865 266.513 86.3395 300.007 108.817C330.202 129.079 305.589 163.542 289.701 168.917C273.813 174.292 263.077 174.292 263.077 174.292C263.077 174.292 98.6499 177.134 84.0519 170.254Z" fill="#3C23B6"/>
<g clip-path="url(#clip2_231_256)">
<path d="M109.686 71.7448C109.686 69.9608 109.686 68.1772 109.686 66.3938C109.686 65.9628 109.733 65.9358 110.107 66.1518C113.181 67.9258 116.255 69.7011 119.328 71.4778C119.783 71.7408 119.783 71.7528 119.328 72.0178C116.242 73.8032 113.157 75.5875 110.071 77.3708C109.771 77.5468 109.677 77.5068 109.68 77.1398C109.694 75.3428 109.686 73.5438 109.686 71.7448Z" fill="#3C23B6"/>
<path d="M152.707 68.2307C152.66 68.3077 152.62 68.3827 152.572 68.4517C152.315 68.8167 152.054 69.1787 151.798 69.5437C151.739 69.6289 151.702 69.7274 151.691 69.8304C151.679 69.9334 151.693 70.0376 151.732 70.1338C151.77 70.23 151.832 70.3151 151.912 70.3816C151.991 70.4481 152.086 70.4938 152.187 70.5147C152.614 70.5877 153.04 70.6667 153.469 70.7267C153.698 70.7587 153.816 70.8317 153.808 71.0977C153.789 71.7297 153.794 72.3627 153.808 72.9977C153.808 73.2227 153.754 73.3297 153.508 73.3577C153.066 73.4077 152.628 73.4987 152.189 73.5707C152.089 73.5904 151.995 73.6343 151.916 73.6984C151.836 73.7626 151.773 73.8451 151.733 73.9389C151.692 74.0327 151.675 74.1349 151.683 74.2368C151.691 74.3387 151.723 74.4372 151.777 74.5237C152.032 74.8897 152.287 75.2557 152.556 75.6117C152.689 75.7877 152.712 75.9057 152.529 76.0767C152.059 76.5174 151.603 76.9727 151.161 77.4427C150.993 77.6217 150.878 77.6097 150.7 77.4737C150.336 77.1957 149.96 76.9327 149.582 76.6737C149.499 76.6297 149.407 76.6048 149.313 76.6007C149.219 76.5966 149.125 76.6134 149.038 76.6499C148.952 76.6865 148.874 76.7418 148.811 76.812C148.749 76.8822 148.702 76.9654 148.675 77.0557C148.597 77.5067 148.516 77.9557 148.452 78.4107C148.423 78.6187 148.345 78.7107 148.12 78.7047C147.464 78.6914 146.806 78.6914 146.148 78.7047C145.924 78.7047 145.848 78.6287 145.824 78.4127C145.769 77.9717 145.681 77.5337 145.607 77.0947C145.586 76.9957 145.542 76.9033 145.477 76.8252C145.413 76.7472 145.331 76.6859 145.237 76.6466C145.144 76.6073 145.043 76.5911 144.942 76.5995C144.841 76.6079 144.744 76.6406 144.658 76.6947C144.274 76.9677 143.885 77.2327 143.509 77.5157C143.486 77.5432 143.456 77.5648 143.422 77.5789C143.389 77.5929 143.353 77.599 143.316 77.5967C143.28 77.5944 143.245 77.5837 143.214 77.5655C143.182 77.5473 143.155 77.522 143.135 77.4917C142.661 77.0024 142.178 76.5207 141.687 76.0467C141.657 76.0261 141.632 75.9989 141.615 75.9671C141.597 75.9354 141.586 75.9 141.584 75.8636C141.582 75.8272 141.588 75.7908 141.602 75.7572C141.616 75.7236 141.638 75.6937 141.665 75.6697C141.947 75.2927 142.215 74.9057 142.486 74.5207C142.539 74.4346 142.571 74.3371 142.578 74.2363C142.586 74.1355 142.569 74.0344 142.529 73.9415C142.489 73.8486 142.428 73.7666 142.35 73.7024C142.272 73.6382 142.179 73.5938 142.08 73.5727C141.629 73.4967 141.18 73.4087 140.725 73.3517C140.525 73.3267 140.482 73.2387 140.484 73.0617C140.49 72.3927 140.493 71.7227 140.484 71.0537C140.478 71.0144 140.48 70.9741 140.49 70.9356C140.501 70.8971 140.52 70.8615 140.546 70.8312C140.572 70.8009 140.604 70.7767 140.641 70.7604C140.677 70.7441 140.717 70.736 140.756 70.7367C141.209 70.6677 141.656 70.5917 142.111 70.5127C142.204 70.486 142.29 70.4385 142.362 70.374C142.435 70.3094 142.491 70.2294 142.528 70.1399C142.565 70.0504 142.581 69.9537 142.576 69.8571C142.57 69.7604 142.543 69.6663 142.495 69.5817C142.232 69.2057 141.967 68.8317 141.689 68.4677C141.657 68.4399 141.633 68.4051 141.617 68.3659C141.601 68.3267 141.594 68.2843 141.597 68.2422C141.6 68.2 141.614 68.1591 141.636 68.123C141.657 68.0868 141.687 68.0562 141.723 68.0337C142.19 67.5897 142.646 67.134 143.09 66.6667C143.267 66.4797 143.39 66.4887 143.59 66.6387C143.941 66.9137 144.309 67.1667 144.676 67.4197C144.764 67.4651 144.86 67.4903 144.959 67.4934C145.057 67.4964 145.155 67.4774 145.245 67.4375C145.335 67.3976 145.415 67.338 145.478 67.2631C145.542 67.1882 145.588 67.0999 145.613 67.0047C145.688 66.5537 145.775 66.1047 145.834 65.6497C145.861 65.4377 145.962 65.3867 146.153 65.3887C146.81 65.3947 147.468 65.3987 148.125 65.3887C148.35 65.3887 148.425 65.4797 148.456 65.6887C148.52 66.1417 148.601 66.5887 148.679 67.0437C148.708 67.1333 148.757 67.2155 148.82 67.2846C148.884 67.3537 148.962 67.4082 149.05 67.4441C149.137 67.4801 149.23 67.4967 149.324 67.4928C149.418 67.489 149.511 67.4647 149.594 67.4217C149.994 67.1464 150.388 66.8664 150.775 66.5817C150.891 66.4977 150.981 66.4647 151.096 66.5817C151.601 67.0937 152.112 67.5997 152.62 68.1087C152.652 68.1473 152.681 68.1881 152.707 68.2307V68.2307Z" fill="#3C23B6"/>
<path d="M147.136 70.4112C147.351 70.4087 147.563 70.449 147.762 70.5296C147.96 70.6102 148.141 70.7296 148.293 70.8808C148.444 71.0321 148.565 71.2121 148.646 71.4103C148.727 71.6085 148.768 71.821 148.766 72.0353C148.768 72.2524 148.726 72.4677 148.644 72.6688C148.562 72.8699 148.442 73.053 148.289 73.2074C148.136 73.3618 147.955 73.4847 147.755 73.5689C147.554 73.6531 147.34 73.6971 147.123 73.6982C146.69 73.6874 146.279 73.5113 145.973 73.2062C145.666 72.9011 145.489 72.4903 145.477 72.0582C145.476 71.8408 145.519 71.6254 145.603 71.4246C145.686 71.2238 145.809 71.0416 145.963 70.8884C146.117 70.7353 146.301 70.6142 146.502 70.5323C146.703 70.4504 146.919 70.4093 147.136 70.4112V70.4112Z" fill="#FFFAF8"/>
<path d="M147.772 59.0255C146.054 59.0219 144.353 59.3569 142.765 60.0113C141.177 60.6657 139.733 61.6268 138.517 62.8395L129.566 71.1465L120.615 79.4705L120.508 79.5775C119.047 81.0074 117.197 81.9742 115.189 82.3569C113.181 82.7396 111.105 82.5211 109.22 81.7288C107.336 80.9364 105.727 79.6055 104.596 77.9029C103.465 76.2002 102.862 74.2016 102.862 72.1575C102.862 70.1134 103.465 68.1148 104.596 66.4121C105.727 64.7095 107.336 63.3786 109.22 62.5863C111.105 61.7939 113.181 61.5754 115.189 61.9581C117.197 62.3408 119.047 63.3077 120.508 64.7375L125.52 69.3925C125.795 69.5518 126.117 69.611 126.431 69.5601C126.745 69.5091 127.031 69.3512 127.242 69.113C127.453 68.8748 127.575 68.5711 127.587 68.2533C127.599 67.9356 127.501 67.6233 127.31 67.3695L122.369 62.7865C120.524 60.9665 118.183 59.7325 115.639 59.2398C113.095 58.747 110.462 59.0175 108.071 60.0172C105.68 61.0168 103.638 62.7011 102.202 64.8581C100.766 67.0152 100 69.5487 100 72.14C100 74.7313 100.766 77.2648 102.202 79.4219C103.638 81.5789 105.68 83.2632 108.071 84.2629C110.462 85.2625 113.095 85.533 115.639 85.0403C118.183 84.5475 120.524 83.3135 122.369 81.4935L131.32 73.1865L140.271 64.8625L140.378 64.7555C141.838 63.3231 143.688 62.3537 145.697 61.9689C147.705 61.5841 149.783 61.8012 151.669 62.5928C153.554 63.3844 155.165 64.7152 156.297 66.4185C157.429 68.1217 158.033 70.1213 158.033 72.1665C158.033 74.2117 157.429 76.2114 156.297 77.9146C155.165 79.6178 153.554 80.9487 151.669 81.7403C149.783 82.5319 147.705 82.7489 145.697 82.3641C143.688 81.9794 141.838 81.0099 140.378 79.5775L135.366 74.9405C135.243 74.7776 135.085 74.644 134.904 74.5495C134.723 74.455 134.524 74.4018 134.32 74.3939C134.116 74.386 133.912 74.4235 133.725 74.5037C133.537 74.5839 133.369 74.7048 133.234 74.8577C133.099 75.0106 132.999 75.1916 132.942 75.3877C132.886 75.5838 132.873 75.7901 132.906 75.9916C132.939 76.1931 133.016 76.3848 133.132 76.5529C133.247 76.721 133.399 76.8612 133.576 76.9635L138.517 81.5465C140.056 83.0559 141.942 84.1634 144.01 84.7716C146.078 85.3798 148.264 85.4699 150.375 85.034C152.486 84.5981 154.457 83.6495 156.115 82.272C157.773 80.8944 159.067 79.1301 159.882 77.1347C160.697 75.1392 161.009 72.9739 160.79 70.8295C160.57 68.6851 159.827 66.6276 158.625 64.8383C157.423 63.049 155.799 61.5829 153.897 60.5692C151.995 59.5555 149.872 59.0254 147.717 59.0255H147.772Z" fill="#3C23B6"/>
</g>
</g>
</g>
<defs>
<clipPath id="clip0_231_256">
<rect width="256" height="142" fill="white"/>
</clipPath>
<clipPath id="clip1_231_256">
<rect width="260" height="308" fill="white" transform="translate(0 -166)"/>
</clipPath>
<clipPath id="clip2_231_256">
<rect width="60.857" height="26.307" fill="white" transform="translate(100 59)"/>
</clipPath>
</defs>
</svg>
