<svg width="256" height="142" viewBox="0 0 256 142" fill="none" xmlns="http://www.w3.org/2000/svg">
<g clip-path="url(#clip0_231_233)">
<g clip-path="url(#clip1_231_233)">
<path opacity="0.1" d="M296.527 67.1068C282.955 72.7466 270.418 80.4808 256.992 86.4354C249.079 89.9442 240.584 92.8691 231.834 92.3866C213.899 91.3928 199.864 76.8395 188.06 63.2404C176.255 49.6413 162.644 34.8733 144.748 33.1667C129.327 31.6959 114.75 40.8618 105.629 52.9402C96.5069 65.0185 91.7899 79.7436 86.9245 94.0834C82.0592 108.423 76.6901 123.027 66.6084 134.331C55.5649 146.713 39.8471 154.039 27.3182 164.962C14.7893 175.884 5.30262 193.568 12.2513 208.953C15.5683 216.294 22.1439 221.825 29.2321 225.823C41.7654 232.887 56.1326 235.827 70.2858 238.113C77.5513 239.289 85.2074 240.473 91.04 244.992C100.592 252.393 102.111 266.077 109.638 275.476C118.292 286.284 133.8 289.716 147.402 287.707C161.004 285.698 173.313 279.198 185.602 273.292C208.22 262.421 228.253 258.998 253.309 264.372C279.484 269.984 306.78 284.39 333.758 276.794C356.234 270.465 372.116 247.238 369.779 224.112C367.971 206.189 356.817 190.387 351.584 173.05C345.077 151.49 348.089 128.047 356.987 107.716C360.792 99.0246 365.761 89.8715 363.576 80.5149C361.147 70.116 350.407 63.2778 339.821 61.0484C325.221 57.9599 310.098 61.4665 296.527 67.1068Z" fill="#3C23B6"/>
<g clip-path="url(#clip2_231_233)">
<path d="M117.674 56.2592L120.228 51.6702C121.449 49.4702 122.628 47.2572 123.902 45.0902C124.504 43.8978 125.457 42.9186 126.633 42.2844C127.809 41.6503 129.151 41.3916 130.478 41.5432C133.372 41.8242 136.263 41.6872 139.154 41.7692C141.87 41.8472 144.591 41.7782 147.306 41.8882C148.174 41.8765 149.029 42.0956 149.785 42.5231C150.54 42.9506 151.169 43.5712 151.606 44.3212C152.642 46.0932 153.692 47.8582 154.737 49.6212C154.788 49.7082 154.837 49.7942 154.921 49.9212L160.999 46.3922C160.972 46.4884 160.939 46.5827 160.899 46.6742C158.33 51.3156 155.757 55.9542 153.18 60.5902C153.13 60.6553 153.068 60.7092 152.996 60.7484C152.924 60.7875 152.844 60.811 152.763 60.8172C150.381 60.9492 147.998 61.0682 145.615 61.1852C142.404 61.3432 139.192 61.4996 135.981 61.6542C135.844 61.6657 135.706 61.6416 135.581 61.5842L142.608 57.5842L138.499 50.6172L131.227 63.6962L117.674 56.2592ZM134.862 43.0072C135.261 43.4213 135.635 43.8591 135.982 44.3182C136.905 45.6932 137.814 47.0792 138.675 48.4942C139.881 50.4762 141.039 52.4882 142.218 54.4872L144.311 58.0332L140.669 60.1182C141.643 60.1482 142.583 60.0982 143.523 60.0532C146.326 59.9199 149.13 59.7866 151.933 59.6532C152.051 59.6581 152.169 59.6278 152.27 59.566C152.371 59.5042 152.452 59.4138 152.502 59.3062C154.203 56.2109 155.911 53.1192 157.625 50.0312C157.668 49.9542 157.696 49.8692 157.762 49.7142L154.475 51.6142C154.39 51.4782 154.328 51.3843 154.275 51.2873C153.083 49.2663 151.853 47.2672 150.713 45.2172C150.365 44.5596 149.838 44.0136 149.193 43.6421C148.548 43.2706 147.812 43.0887 147.068 43.1172C144.198 43.0532 141.327 43.0392 138.457 43.0172C137.255 42.9942 136.059 43.0032 134.862 43.0032V43.0072ZM119.362 55.7722L130.729 62.0132C130.791 61.9132 130.829 61.8622 130.857 61.8072C133.113 57.7499 135.37 53.6936 137.629 49.6382C137.68 49.5611 137.704 49.4695 137.699 49.3772C137.694 49.285 137.658 49.1969 137.599 49.1262C136.773 47.8382 135.964 46.5382 135.136 45.2512C134.637 44.4744 133.946 43.8396 133.13 43.4082C132.464 43.1162 131.758 42.9293 131.035 42.8542C129.863 42.612 128.644 42.7521 127.558 43.254C126.471 43.7558 125.574 44.5929 124.999 45.6422C124.048 47.3312 123.116 49.0312 122.174 50.7252C121.247 52.3902 120.316 54.0592 119.364 55.7682L119.362 55.7722Z" fill="#3C23B6" stroke="#3C23B6"/>
<path d="M160.551 58.7373C160.951 59.4373 161.344 60.1073 161.73 60.7813C163.5 63.8683 165.33 66.9203 167.017 70.0533C167.63 71.1344 167.927 72.3658 167.874 73.6074C167.821 74.8489 167.42 76.0505 166.717 77.0753C165.742 78.6303 164.706 80.1464 163.717 81.6964C161.665 84.9264 159.639 88.1723 157.582 91.3963C157.13 92.1669 156.481 92.8032 155.701 93.2397C154.922 93.6763 154.04 93.8974 153.146 93.8803C151.219 93.8863 149.293 93.8373 147.366 93.8123C147.153 93.8123 146.939 93.8123 146.681 93.8123C146.641 96.1553 146.603 98.4583 146.564 100.76L146.498 100.785C146.366 100.562 146.231 100.341 146.098 100.116C143.55 95.6977 141.001 91.279 138.451 86.8604C138.394 86.7881 138.359 86.6999 138.353 86.6075C138.346 86.5151 138.368 86.4229 138.415 86.3433C141.112 81.3793 143.802 76.4126 146.486 71.4433C146.528 71.3555 146.599 71.2849 146.686 71.2433C146.624 73.9133 146.563 76.5843 146.5 79.3143H154.574L147.174 66.4443L160.551 58.7373ZM145.299 76.3123C145.244 76.3933 145.207 76.4403 145.179 76.4923C143.4 79.7763 141.624 83.0623 139.851 86.3503C139.822 86.4211 139.809 86.4972 139.812 86.5735C139.814 86.6499 139.833 86.7249 139.867 86.7933C141.648 89.902 143.436 93.0063 145.231 96.1063C145.275 96.1706 145.324 96.2315 145.376 96.2883L145.476 96.2653V92.5583C145.724 92.5583 145.901 92.5583 146.076 92.5583C148.461 92.5893 150.846 92.6433 153.232 92.6423C153.889 92.6544 154.536 92.4917 155.109 92.171C155.681 91.8503 156.158 91.3831 156.49 90.8173C158.204 88.1293 159.898 85.4293 161.6 82.7333C162.107 81.9333 162.611 81.1243 163.085 80.3693C162.292 80.5088 161.49 80.6007 160.685 80.6443C155.799 80.6443 150.913 80.5944 146.028 80.5634C145.779 80.5634 145.528 80.5634 145.301 80.5634L145.299 76.3123ZM148.889 66.8903C148.911 66.9482 148.935 67.0049 148.962 67.0603C151.29 71.107 153.621 75.1517 155.955 79.1943C156.003 79.254 156.063 79.3027 156.131 79.3372C156.199 79.3717 156.273 79.3912 156.349 79.3943C157.842 79.4143 159.336 79.4303 160.829 79.4113C161.301 79.4122 161.77 79.3448 162.222 79.2113C163.247 78.8959 164.171 78.3186 164.904 77.5364C165.637 76.7542 166.153 75.7942 166.401 74.7513C166.609 74.0632 166.674 73.34 166.593 72.6259C166.512 71.9118 166.287 71.2216 165.93 70.5974C164.669 68.3364 163.361 66.0973 162.073 63.8543L160.099 60.4233L148.889 66.8903Z" fill="#3C23B6" stroke="#3C23B6"/>
<path d="M132.109 76.0823L125.218 71.9082L121.186 78.8722H136.063V94.3422H135.619C131.509 94.3422 127.398 94.4152 123.29 94.3252C122.073 94.3443 120.874 94.032 119.821 93.4218C118.768 92.8116 117.901 91.9265 117.313 90.8612C116.633 89.6812 116.091 88.4242 115.453 87.2192C113.365 83.2742 111.243 79.3472 109.175 75.3912C108.74 74.6255 108.52 73.7562 108.54 72.8758C108.56 71.9953 108.818 71.1367 109.287 70.3912C110.308 68.6685 111.331 66.9469 112.356 65.2262C112.42 65.1182 112.481 65.0082 112.564 64.8632L106.557 61.2862L106.571 61.2152C106.703 61.2092 106.835 61.1982 106.971 61.1982C112.203 61.1982 117.437 61.1956 122.671 61.1902C122.776 61.1795 122.882 61.2006 122.975 61.2506C123.068 61.3007 123.144 61.3775 123.194 61.4712C126.148 66.2586 129.106 71.0432 132.069 75.8252C132.108 75.8872 132.139 75.9542 132.174 76.0192L132.109 76.0823ZM114.262 64.4252C112.937 66.6552 111.638 68.8353 110.345 71.0173C109.991 71.5767 109.794 72.2216 109.777 72.8835C109.759 73.5454 109.921 74.1997 110.245 74.7772C112.13 78.3772 114.055 81.9632 115.965 85.5542C116.002 85.623 116.043 85.6897 116.088 85.7543C116.387 84.9699 116.727 84.2021 117.109 83.4542C119.401 79.4482 121.729 75.4622 124.045 71.4692C124.285 71.0552 124.531 70.6442 124.782 70.2182L128.463 72.4392C128.39 72.2842 128.37 72.2282 128.34 72.1792C126.374 69.0019 124.406 65.8266 122.434 62.6532C122.382 62.5899 122.317 62.5384 122.243 62.502C122.17 62.4656 122.09 62.4453 122.008 62.4422C118.435 62.4316 114.862 62.4316 111.29 62.4422C111.213 62.4422 111.136 62.4602 110.98 62.4802L114.262 64.4252ZM134.843 80.1492C134.791 80.1372 134.738 80.1285 134.685 80.1232C130.028 80.1232 125.371 80.1272 120.714 80.1352C120.632 80.1469 120.554 80.176 120.485 80.2205C120.416 80.265 120.358 80.3239 120.314 80.3932C119.595 81.5932 118.882 82.8052 118.196 84.0282C117.921 84.4863 117.703 84.9759 117.546 85.4862C117.353 86.2491 117.316 87.0426 117.435 87.8202C117.554 88.5978 117.827 89.3438 118.239 90.0142C118.724 90.9584 119.465 91.7472 120.378 92.2909C121.29 92.8345 122.336 93.1111 123.398 93.0892C127.071 93.1552 130.747 93.1092 134.421 93.1112H134.84L134.843 80.1492Z" fill="#3C23B6" stroke="#3C23B6"/>
</g>
</g>
</g>
<defs>
<clipPath id="clip0_231_233">
<rect width="256" height="142" fill="white"/>
</clipPath>
<clipPath id="clip1_231_233">
<rect width="260" height="308" fill="white" transform="translate(-4 -143)"/>
</clipPath>
<clipPath id="clip2_231_233">
<rect width="62.403" height="60.404" fill="white" transform="translate(106 41)"/>
</clipPath>
</defs>
</svg>
