<svg width="256" height="142" viewBox="0 0 256 142" fill="none" xmlns="http://www.w3.org/2000/svg">
<g clip-path="url(#clip0_231_206)">
<g clip-path="url(#clip1_231_206)">
<path d="M160.461 40C157.079 40 153.831 41.49 151.317 44.1955C148.842 46.8597 147.422 50.3858 147.422 53.8697C147.422 57.2936 148.774 60.5145 151.228 62.939C153.692 65.3733 156.971 66.7139 160.461 66.7139C163.951 66.7139 167.23 65.3733 169.694 62.939C172.149 60.5145 173.501 57.2936 173.501 53.8697C173.501 50.3858 172.081 46.8597 169.605 44.1955C167.091 41.49 163.844 40 160.461 40ZM160.461 37C169.319 37 176.501 45.1191 176.501 53.8697C176.501 62.6202 169.319 69.714 160.461 69.714C151.603 69.714 144.422 62.6202 144.422 53.8697C144.422 45.1191 151.603 37 160.461 37Z" fill="#3C23B6"/>
<path d="M170.883 73.9172C170.667 73.6516 170.395 73.4375 170.086 73.2904C169.777 73.1434 169.44 73.0671 169.098 73.0671C168.755 73.0671 168.418 73.1434 168.109 73.2904C167.8 73.4375 167.528 73.6516 167.312 73.9172L159.567 81.9882C159.143 82.4591 158.626 82.8378 158.049 83.1008C157.472 83.3638 156.848 83.5055 156.214 83.5172H146.3C145.894 83.4554 145.528 83.2391 145.278 82.9135C145.028 82.5879 144.914 82.1782 144.959 81.7702C144.913 81.3619 145.027 80.9517 145.277 80.6257C145.527 80.2996 145.894 80.083 146.3 80.0212H152.863C153.599 79.9542 154.287 79.6241 154.799 79.0915C155.312 78.5589 155.615 77.8594 155.654 77.1212C155.93 74.9322 154.639 73.0322 153 73.0322H139.593C138.416 73.0591 137.257 73.328 136.189 73.8221C135.12 74.3162 134.165 75.0249 133.382 75.9042L129.482 80.0212H124.841C124.435 80.083 124.069 80.2995 123.819 80.6253C123.569 80.9512 123.455 81.3611 123.5 81.7692V92.2532C123.455 92.6612 123.569 93.0709 123.819 93.3965C124.069 93.7221 124.435 93.9384 124.841 94.0002H154.748C155.381 93.9867 156.005 93.8442 156.582 93.5813C157.158 93.3184 157.675 92.9407 158.1 92.4712L170.774 79.2572C171.406 78.5165 171.762 77.58 171.782 76.6067C171.802 75.6333 171.484 74.6831 170.883 73.9172Z" stroke="#3C23B6" stroke-width="3"/>
<path d="M165.498 48.892L165.015 50.5398H155.81L156.293 48.892H165.498ZM161.18 60L155.981 53.6364L155.952 52.4432H158.538C159.21 52.4432 159.783 52.3485 160.256 52.1591C160.73 51.965 161.092 51.6761 161.343 51.2926C161.594 50.9044 161.719 50.4167 161.719 49.8295C161.719 48.9631 161.459 48.2836 160.938 47.7912C160.417 47.294 159.617 47.0455 158.538 47.0455H155.81L156.293 45.4545H158.538C159.693 45.4545 160.64 45.6463 161.379 46.0298C162.122 46.4086 162.671 46.9295 163.026 47.5923C163.386 48.2505 163.566 48.9962 163.566 49.8295C163.566 50.5824 163.4 51.276 163.069 51.9105C162.742 52.5402 162.217 53.0469 161.492 53.4304C160.772 53.8139 159.821 54.0057 158.637 54.0057H158.594L163.396 59.8864V60H161.18ZM165.498 45.4545L165.015 47.1023L157.771 47.0455L158.254 45.4545H165.498Z" fill="#3C23B6"/>
</g>
<path opacity="0.1" d="M107.667 262.396C116.884 253.729 124.759 243.625 133.781 234.738C139.099 229.502 145.02 224.58 152.004 222.416C166.318 217.986 181.003 225.972 193.697 233.819C206.391 241.665 220.797 249.954 235.262 246.128C247.725 242.831 256.838 230.937 260.937 218.222C265.036 205.506 265.012 191.88 265.202 178.532C265.392 165.183 265.91 151.468 270.958 139.114C276.487 125.583 286.959 114.885 294.022 102.131C301.085 89.3778 304.053 71.8948 294.715 61.1396C290.258 56.0085 283.704 53.3375 277.135 52.0911C265.522 49.8912 253.513 51.6585 241.837 53.9055C235.843 55.0579 229.54 56.3175 223.824 54.2694C214.463 50.916 209.812 39.9846 201.535 34.3755C192.016 27.9259 178.988 29.6187 168.83 35.2756C158.672 40.9326 150.664 49.9444 142.521 58.4571C127.534 74.1248 112.691 82.8425 91.6855 85.7187C69.742 88.7251 44.6969 84.7478 25.4631 98.9712C9.43904 110.82 2.85772 134.787 10.536 153.329C16.4852 167.701 29.2257 177.57 37.712 190.451C48.2649 206.469 51.8306 226.843 49.9925 246.355C49.2066 254.696 47.6245 263.762 51.7028 270.901C56.2366 278.835 66.3864 281.373 75.2512 280.123C87.4802 278.412 98.4518 271.064 107.667 262.396Z" fill="#3C23B6"/>
</g>
<defs>
<clipPath id="clip0_231_206">
<rect width="256" height="142" fill="white"/>
</clipPath>
<clipPath id="clip1_231_206">
<rect width="54.5" height="58.5" fill="white" transform="translate(122 37)"/>
</clipPath>
</defs>
</svg>
