<svg width="256" height="142" viewBox="0 0 256 142" fill="none" xmlns="http://www.w3.org/2000/svg">
<g clip-path="url(#clip0_231_170)">
<g clip-path="url(#clip1_231_170)">
<path opacity="0.1" d="M214.133 27.9088C205.108 39.5088 198.017 52.4198 189.274 64.2218C184.121 71.1768 178.174 77.9108 170.324 81.8068C154.232 89.7878 134.845 84.0498 117.869 78.0418C100.893 72.0338 81.7692 65.8998 65.3592 73.2418C51.2192 79.5678 43.0592 94.7308 41.0812 109.737C39.1032 124.743 42.2622 139.879 45.1022 154.753C47.9422 169.627 50.4742 184.979 47.2792 199.785C43.7792 216.003 33.7192 230.128 28.2072 245.809C22.6952 261.49 23.1642 281.552 36.7972 291.509C43.3032 296.259 51.7512 297.827 59.8892 297.809C74.2762 297.773 88.2241 293.244 101.664 288.253C108.564 285.692 115.808 282.946 123.111 284.001C135.07 285.728 143.141 296.882 154.324 301.347C167.183 306.481 182.366 301.817 193.208 293.361C204.05 284.905 211.552 273.18 219.329 261.981C233.643 241.369 249.382 228.511 273.829 220.828C299.367 212.8 330.217 211.87 349.939 191.956C366.37 175.366 368.73 147.327 355.292 128.362C344.879 113.662 327.383 105.417 314.28 92.9158C297.986 77.3698 289.043 55.4908 286.757 33.4158C285.78 23.9788 285.588 13.5658 279.073 6.50378C271.831 -1.34422 259.116 -1.99621 248.807 1.28579C234.583 5.79979 223.157 16.3088 214.133 27.9088Z" fill="#3C23B6"/>
<g clip-path="url(#clip2_231_170)">
<path d="M150.911 98.9838C142.589 98.9838 134.267 98.9668 125.946 99.0048C125.472 99.0441 124.996 98.9708 124.556 98.791C124.116 98.6111 123.724 98.3297 123.414 97.9698C122.58 97.0178 121.64 96.1578 120.735 95.2698C120.357 94.9314 120.125 94.4597 120.088 93.9538C119.868 91.2018 119.851 91.2038 122.666 91.2038C129.516 91.2038 136.366 91.2188 143.217 91.1868C143.666 91.1235 144.124 91.1778 144.547 91.3445C144.969 91.5112 145.341 91.7845 145.626 92.1378C145.897 92.5046 146.261 92.7919 146.681 92.9699C147.101 93.1479 147.562 93.21 148.014 93.1498C149.635 93.0788 151.262 93.0858 152.884 93.1438C154.445 93.1998 155.933 93.1998 156.914 91.6768C157.224 91.1958 157.764 91.2008 158.285 91.2008C165.744 91.2008 173.203 91.2188 180.662 91.1858C181.646 91.1858 181.962 91.4798 181.995 92.4788C182.017 93.1223 181.91 93.7638 181.68 94.3651C181.45 94.9664 181.101 95.5152 180.654 95.9788C179.786 97.0739 178.656 97.9317 177.367 98.4721C176.079 99.0126 174.675 99.2182 173.286 99.0698C165.834 98.8148 158.37 98.9838 150.911 98.9838Z" fill="#3C23B6"/>
<path d="M151.067 89.315C144.573 89.315 138.078 89.274 131.585 89.347C130.179 89.363 129.686 89.087 129.7 87.547C129.785 79.684 129.766 71.82 129.713 63.957C129.704 62.68 129.961 62.204 131.366 62.21C144.505 62.264 157.644 62.2677 170.784 62.221C171.937 62.221 172.371 62.485 172.362 63.738C172.307 71.7534 172.307 79.769 172.362 87.785C172.373 89.128 171.889 89.347 170.697 89.338C164.152 89.289 157.612 89.315 151.067 89.315Z" stroke="#3C23B6" stroke-width="2"/>
<path d="M151.216 58.3078C157.92 58.3078 164.623 58.3078 171.325 58.3078C174.769 58.3078 176.143 59.6808 176.143 63.0848C176.143 71.3115 176.139 79.5378 176.13 87.7638C176.13 88.2638 176.443 89.0238 175.757 89.2288C175.071 89.4338 174.19 89.6018 174.223 88.3078C174.27 86.4308 174.232 84.5508 174.232 82.6718C174.232 76.2225 174.232 69.7731 174.232 63.3238C174.232 60.8938 173.68 60.3328 171.309 60.3318C157.802 60.3318 144.294 60.3318 130.786 60.3318C128.396 60.3318 127.844 60.8898 127.843 63.3078C127.837 71.4832 127.837 79.6588 127.843 87.8348C127.843 88.5748 128.042 89.3818 126.775 89.3348C125.548 89.2928 125.875 88.4608 125.875 87.8348C125.859 79.5068 125.857 71.1788 125.867 62.8508C125.867 59.8748 127.375 58.3228 130.35 58.3118C137.302 58.2918 144.259 58.3078 151.216 58.3078Z" fill="#3C23B6"/>
<path d="M150.882 39C151.47 39.036 151.982 39.051 152.482 39.1C154.331 39.282 154.458 39.457 154.073 41.236C153.901 41.9049 153.978 42.6136 154.291 43.2294C154.604 43.8452 155.131 44.3259 155.772 44.5813C156.414 44.8368 157.127 44.8495 157.777 44.6171C158.428 44.3848 158.971 43.9232 159.306 43.319C160.265 41.769 160.506 41.725 161.937 42.865C163.05 43.7508 164.048 44.7735 164.905 45.909C165.612 46.841 165.555 47.483 164.419 48.065C164.075 48.2006 163.762 48.4038 163.498 48.6628C163.234 48.9217 163.024 49.2311 162.882 49.5724C162.74 49.9138 162.668 50.2802 162.67 50.65C162.672 51.0198 162.749 51.3853 162.895 51.725C163.495 53.167 164.795 53.748 166.548 53.285C167.256 53.099 167.921 52.985 168.162 53.836C168.39 54.645 168.802 55.67 168.182 56.288C168.037 56.4138 167.863 56.5011 167.676 56.5417C167.488 56.5823 167.294 56.5749 167.11 56.5203C166.926 56.4656 166.759 56.3655 166.624 56.2291C166.49 56.0927 166.391 55.9244 166.339 55.74C166.154 55.301 165.613 55.503 165.226 55.473C164.303 55.4507 163.408 55.1489 162.66 54.6074C161.912 54.0658 161.345 53.3101 161.036 52.44C160.649 51.5989 160.534 50.6582 160.707 49.7486C160.879 48.8391 161.331 48.0059 161.999 47.365C162.764 46.608 162.61 46.196 161.942 45.555C161.32 44.955 160.951 44.622 160.142 45.455C159.469 46.0951 158.626 46.5274 157.714 46.7C156.802 46.8725 155.859 46.7781 154.999 46.4279C154.139 46.0777 153.399 45.4867 152.866 44.7259C152.334 43.9651 152.033 43.0668 151.999 42.139C151.974 41.424 151.872 41.006 151.015 41C150.109 40.993 150.123 41.5 150.072 42.168C150.028 43.1095 149.711 44.0178 149.158 44.7814C148.606 45.5449 147.842 46.1304 146.961 46.466C146.08 46.8016 145.121 46.8727 144.2 46.6706C143.28 46.4684 142.438 46.0018 141.779 45.328C141.049 44.546 140.668 44.969 140.217 45.468C139.787 45.945 138.994 46.309 139.886 47.16C140.581 47.8312 141.059 48.6953 141.259 49.6408C141.459 50.5864 141.371 51.57 141.007 52.4651C140.642 53.3602 140.018 54.1258 139.215 54.6631C138.412 55.2004 137.466 55.4849 136.5 55.48C136.086 55.485 135.725 55.507 135.546 56.02C135.283 56.771 134.601 56.462 134.107 56.412C133.407 56.341 133.679 55.719 133.679 55.318C133.679 53.324 134.011 53.057 135.955 53.424C136.619 53.568 137.313 53.4681 137.91 53.1427C138.506 52.8173 138.966 52.288 139.204 51.6517C139.443 51.0153 139.445 50.3144 139.209 49.6769C138.973 49.0395 138.516 48.5081 137.921 48.18C136.374 47.233 136.316 46.942 137.442 45.543C138.362 44.3914 139.429 43.3645 140.614 42.488C141.448 41.874 142.03 41.97 142.569 42.927C143.551 44.673 144.829 45.191 146.299 44.574C147.769 43.957 148.315 42.717 147.818 40.785C147.565 39.803 147.879 39.316 148.839 39.197C149.544 39.108 150.251 39.059 150.882 39Z" fill="#3C23B6"/>
<path d="M159.686 55.461C159.732 56.026 159.677 56.461 158.928 56.469C158.247 56.475 157.828 56.387 157.696 55.544C157.556 54.3778 157.104 53.271 156.388 52.34C155.672 51.409 154.718 50.6884 153.627 50.254C152.704 49.8583 151.703 49.6763 150.7 49.7216C149.697 49.767 148.717 50.0385 147.833 50.5158C146.95 50.9932 146.185 51.664 145.598 52.4783C145.01 53.2925 144.614 54.2291 144.439 55.218C144.255 56.118 144.006 56.618 143.012 56.459C141.745 56.253 142.383 55.375 142.488 54.807C142.871 52.8575 143.908 51.0971 145.427 49.817C146.947 48.5369 148.858 47.8137 150.844 47.7671C152.83 47.7204 154.773 48.3531 156.351 49.5605C157.929 50.7679 159.047 52.4776 159.522 54.407C159.603 54.755 159.632 55.11 159.686 55.461Z" fill="#3C23B6"/>
<path d="M151.041 52.5586C151.858 52.5621 152.653 52.824 153.313 53.3068C153.973 53.7896 154.463 54.4685 154.713 55.2466C154.813 55.6116 155.245 56.2116 154.544 56.3866C154.012 56.5196 153.374 56.7116 152.891 56.0766C151.28 53.9576 150.83 53.9586 149.156 56.0766C148.952 56.3042 148.679 56.4572 148.378 56.5116C148.078 56.5659 147.768 56.5184 147.498 56.3766C146.846 56.1766 147.222 55.6156 147.343 55.2236C147.602 54.4477 148.098 53.7728 148.762 53.2946C149.426 52.8163 150.223 52.5589 151.041 52.5586V52.5586Z" fill="#3C23B6"/>
<path d="M150.917 97.0352H126.855C125.664 97.0352 122.597 94.8902 122.215 93.8062C122.08 93.4232 122.215 93.2262 122.605 93.2062C122.959 93.1852 123.315 93.1822 123.67 93.1822C129.914 93.1822 136.158 93.1992 142.402 93.1622C142.853 93.1133 143.309 93.18 143.727 93.356C144.145 93.532 144.511 93.8115 144.791 94.1682C145.05 94.51 145.393 94.7789 145.786 94.9487C146.18 95.1185 146.611 95.1835 147.037 95.1372C149.726 95.0752 152.418 95.0842 155.108 95.1372C155.51 95.1822 155.917 95.1222 156.289 94.9631C156.661 94.8039 156.985 94.5511 157.23 94.2292C157.523 93.8506 157.908 93.5538 158.349 93.3674C158.79 93.1811 159.271 93.1114 159.747 93.1652C166.041 93.2062 172.336 93.1812 178.631 93.1952C179.054 93.1952 179.654 92.9642 179.859 93.4702C180.064 93.9762 179.437 94.1952 179.184 94.5462C177.726 96.5622 175.828 97.1692 173.303 97.1072C165.844 96.9172 158.379 97.0352 150.917 97.0352Z" fill="#FFFAF8"/>
<path d="M154.874 68.3457C157.222 71.2787 159.546 74.0917 161.757 76.9917C162.536 78.0127 162.965 77.8917 163.812 77.0757C164.778 76.1397 165.405 74.5947 167.149 74.7597C167.69 74.8107 168.429 74.4867 168.481 75.5097C168.523 76.3517 168.381 76.8447 167.362 76.8097C166.443 76.7827 166.089 77.7217 165.474 78.2167C164.426 79.0617 163.664 80.8887 162.488 80.7257C161.522 80.5917 160.76 78.8987 159.932 77.8777C158.532 76.1437 157.11 74.4177 155.764 72.6387C155.157 71.8387 154.83 71.8287 154.269 72.6937C152.228 75.8427 150.079 78.9227 148.063 82.0877C147.369 83.1777 147.012 83.0747 146.29 82.1307C144.29 79.5137 142.158 76.9917 140.149 74.3777C139.516 73.5537 139.101 73.4847 138.432 74.2867C137.849 74.9867 137.115 75.5537 136.512 76.2367C135.812 77.0307 134.932 76.7697 134.101 76.7207C133.528 76.6877 133.619 76.1567 133.618 75.7697C133.617 75.3827 133.524 74.7907 134.079 74.8127C135.679 74.8777 136.318 73.5627 137.225 72.6877C139.549 70.4437 139.525 70.4137 141.496 72.8807C143.081 74.8597 144.696 76.8167 146.235 78.8327C146.904 79.7097 147.264 79.6567 147.851 78.7487C149.889 75.5977 151.995 72.4907 154.081 69.3707C154.3 69.0487 154.561 68.7497 154.874 68.3457Z" fill="#3C23B6"/>
</g>
</g>
</g>
<defs>
<clipPath id="clip0_231_170">
<rect width="256" height="142" fill="white"/>
</clipPath>
<clipPath id="clip1_231_170">
<rect width="260" height="308" fill="white" transform="translate(-4 -143)"/>
</clipPath>
<clipPath id="clip2_231_170">
<rect width="61.999" height="60.073" fill="white" transform="translate(120 39)"/>
</clipPath>
</defs>
</svg>
