<svg width="256" height="142" viewBox="0 0 256 142" fill="none" xmlns="http://www.w3.org/2000/svg">
<g clip-path="url(#clip0_231_200)">
<g clip-path="url(#clip1_231_200)">
<path opacity="0.1" d="M236.562 39.4859C225.089 51.0859 216.074 63.9969 204.959 75.7989C198.408 82.7539 190.847 89.4879 180.868 93.3839C160.41 101.365 135.763 95.6269 114.182 89.6189C92.5999 83.6109 68.2875 77.4769 47.4254 84.8189C29.4492 91.1449 19.0754 106.308 16.5607 121.314C14.0461 136.32 18.0621 151.456 21.6726 166.33C25.2831 181.204 28.5021 196.556 24.4403 211.362C19.9907 227.58 7.20146 241.705 0.194037 257.386C-6.81338 273.067 -6.21718 293.129 11.1145 303.086C19.3856 307.836 30.1255 309.404 40.4714 309.386C58.7616 309.35 76.4937 304.821 93.58 299.83C102.352 297.269 111.561 294.523 120.846 295.578C136.049 297.305 146.31 308.459 160.527 312.924C176.875 318.058 196.177 313.394 209.96 304.938C223.744 296.482 233.281 284.757 243.168 273.558C261.365 252.946 281.374 240.088 312.454 232.405C344.92 224.377 384.14 223.447 409.213 203.533C430.101 186.943 433.102 158.904 416.018 139.939C402.78 125.239 380.537 116.994 363.879 104.493C343.165 88.9469 331.795 67.0679 328.889 44.9929C327.647 35.5559 327.403 25.1429 319.121 18.0809C309.914 10.2329 293.749 9.58094 280.643 12.8629C262.56 17.3769 248.034 27.8859 236.562 39.4859Z" fill="#3C23B6"/>
<g clip-path="url(#clip2_231_200)">
<path d="M176.036 98.4277H168.136C167.743 98.4277 167.366 98.2716 167.089 97.9939C166.811 97.7162 166.655 97.3395 166.655 96.9467V74.6167H137.89V96.9107C137.89 97.3035 137.734 97.6802 137.456 97.9579C137.178 98.2356 136.802 98.3917 136.409 98.3917H128.49C128.292 98.3965 128.096 98.3617 127.912 98.2895C127.728 98.2172 127.56 98.1089 127.419 97.9709C127.278 97.8329 127.165 97.668 127.088 97.4859C127.012 97.3039 126.972 97.1083 126.972 96.9107V74.6167H124.485C124.092 74.6167 123.715 74.4606 123.438 74.1829C123.16 73.9052 123.004 73.5285 123.004 73.1357V67.1917C123.004 66.9444 123.066 66.7011 123.184 66.484C123.302 66.2669 123.473 66.0828 123.681 65.9487L151.461 48.0807C151.701 47.9278 151.98 47.8467 152.265 47.8467C152.55 47.8467 152.829 47.9278 153.07 48.0807L180.85 65.9297C181.058 66.0639 181.228 66.2479 181.347 66.4651C181.465 66.6822 181.527 66.9254 181.527 67.1727V73.1347C181.527 73.5275 181.371 73.9042 181.093 74.1819C180.815 74.4596 180.439 74.6157 180.046 74.6157H177.559V96.9097C177.564 97.1104 177.528 97.31 177.453 97.4964C177.379 97.6828 177.267 97.8521 177.125 97.994C176.983 98.136 176.814 98.2477 176.628 98.3222C176.441 98.3967 176.242 98.4326 176.041 98.4277H176.036ZM169.617 95.4467H174.573V73.1357C174.573 72.7429 174.729 72.3662 175.007 72.0885C175.284 71.8107 175.661 71.6547 176.054 71.6547H178.541V67.9967L152.26 51.1887L125.98 67.9957V71.6537H128.49C128.88 71.6584 129.252 71.8165 129.526 72.0938C129.799 72.371 129.953 72.745 129.953 73.1347V95.4467H134.909V73.1347C134.909 72.7419 135.065 72.3652 135.343 72.0874C135.62 71.8097 135.997 71.6537 136.39 71.6537H168.139C168.532 71.6537 168.908 71.8097 169.186 72.0874C169.464 72.3652 169.62 72.7419 169.62 73.1347L169.617 95.4467Z" fill="#3C23B6"/>
<path d="M158.206 64.7051H146.318C145.929 64.6951 145.56 64.5336 145.288 64.2552C145.017 63.9767 144.865 63.6034 144.865 63.2146C144.865 62.8259 145.017 62.4525 145.288 62.1741C145.56 61.8957 145.929 61.7342 146.318 61.7241H158.224C158.423 61.719 158.621 61.7537 158.806 61.8263C158.991 61.8989 159.16 62.0079 159.303 62.1468C159.445 62.2857 159.559 62.4517 159.636 62.6351C159.713 62.8185 159.753 63.0156 159.753 63.2146C159.753 63.4137 159.713 63.6107 159.636 63.7941C159.559 63.9775 159.445 64.1436 159.303 64.2825C159.16 64.4214 158.991 64.5304 158.806 64.6029C158.621 64.6755 158.423 64.7103 158.224 64.7051H158.206Z" fill="#3C23B6"/>
<path d="M152.262 98.428H142.35C142.151 98.4307 141.953 98.393 141.769 98.3174C141.584 98.2419 141.417 98.1299 141.277 97.9881C141.137 97.8464 141.027 97.6779 140.954 97.4926C140.88 97.3074 140.845 97.1092 140.85 96.91V88.022C140.85 87.6292 141.006 87.2525 141.284 86.9748C141.562 86.6971 141.938 86.541 142.331 86.541H152.261C152.654 86.541 153.031 86.6971 153.308 86.9748C153.586 87.2525 153.742 87.6292 153.742 88.022V96.91C153.747 97.1076 153.713 97.3043 153.64 97.4883C153.568 97.6723 153.46 97.8401 153.322 97.9816C153.184 98.1231 153.019 98.2355 152.837 98.3121C152.654 98.3888 152.459 98.4282 152.261 98.428H152.262ZM143.831 95.447H150.781V89.503H143.831V95.447Z" fill="#3C23B6"/>
<path d="M162.169 98.428H152.256C151.864 98.428 151.487 98.272 151.209 97.9943C150.931 97.7165 150.775 97.3398 150.775 96.947V88.022C150.775 87.6292 150.931 87.2525 151.209 86.9748C151.487 86.6971 151.864 86.541 152.256 86.541H162.169C162.562 86.541 162.939 86.6971 163.217 86.9748C163.494 87.2525 163.65 87.6292 163.65 88.022V96.91C163.655 97.1076 163.621 97.3042 163.548 97.4882C163.476 97.6721 163.368 97.8398 163.23 97.9813C163.092 98.1227 162.927 98.2351 162.745 98.3119C162.563 98.3886 162.367 98.4281 162.169 98.428V98.428ZM153.738 95.447H160.688V89.503H153.738V95.447Z" fill="#3C23B6"/>
<path d="M157.216 89.5036H147.303C146.91 89.5036 146.534 89.3476 146.256 89.0699C145.978 88.7921 145.822 88.4154 145.822 88.0226V79.0806C145.822 78.6878 145.978 78.3111 146.256 78.0334C146.534 77.7556 146.91 77.5996 147.303 77.5996H157.216C157.609 77.5996 157.986 77.7556 158.263 78.0334C158.541 78.3111 158.697 78.6878 158.697 79.0806V88.0056C158.7 88.2017 158.663 88.3963 158.59 88.5782C158.517 88.7601 158.408 88.9256 158.27 89.0652C158.132 89.2047 157.968 89.3155 157.787 89.3911C157.607 89.4667 157.412 89.5056 157.216 89.5056V89.5036ZM148.785 86.5226H155.735V80.5806H148.785V86.5226Z" fill="#3C23B6"/>
<path d="M177.08 63C183.707 63 189.08 57.6274 189.08 51C189.08 44.3726 183.707 39 177.08 39C170.453 39 165.08 44.3726 165.08 51C165.08 57.6274 170.453 63 177.08 63Z" stroke="#3B22B4" stroke-width="2"/>
<path d="M178.273 59.4917C178.03 59.2197 177.779 58.9533 177.544 58.6743C175.889 56.7053 174.215 54.7525 172.46 52.8745C172.41 52.8245 172.371 52.7652 172.344 52.6997C172.318 52.6343 172.305 52.5642 172.307 52.4937C172.307 52.0577 172.307 51.6215 172.307 51.1855C172.307 50.8755 172.451 50.7423 172.765 50.7383C173.395 50.7283 174.026 50.7387 174.654 50.7017C175.414 50.6871 176.152 50.4429 176.771 50.0015C177.163 49.7113 177.441 49.2925 177.557 48.8184H172.82C172.753 48.8202 172.686 48.8181 172.62 48.8115C172.541 48.8076 172.467 48.7747 172.412 48.7192C172.356 48.6638 172.324 48.59 172.32 48.5117C172.31 48.0817 172.31 47.6517 172.32 47.2217C172.322 47.1439 172.354 47.0697 172.408 47.0142C172.463 46.9586 172.536 46.9254 172.614 46.9214C172.687 46.9133 172.76 46.9099 172.834 46.9106H177.367L177.399 46.8735C177.293 46.7231 177.179 46.5785 177.058 46.4404C176.686 46.0707 176.204 45.8326 175.685 45.7617C175.214 45.6891 174.74 45.6443 174.264 45.6284C173.771 45.6064 173.277 45.6285 172.784 45.6235C172.449 45.6235 172.309 45.4825 172.308 45.1455C172.308 44.7048 172.308 44.2641 172.308 43.8228C172.308 43.4778 172.429 43.3613 172.774 43.3613H182.115C182.451 43.3613 182.579 43.4887 182.581 43.8267C182.581 44.1267 182.581 44.4357 182.581 44.7407C182.581 45.1497 182.466 45.2666 182.062 45.2666H179.555C179.654 45.4053 179.743 45.5511 179.822 45.7026C179.969 46.048 180.104 46.3981 180.227 46.7534C180.268 46.8724 180.313 46.9156 180.442 46.9136C180.998 46.9056 181.555 46.9136 182.112 46.9136C182.488 46.9136 182.598 47.0253 182.599 47.4023C182.599 47.7273 182.599 48.0534 182.599 48.3794C182.599 48.7054 182.473 48.8154 182.157 48.8154C181.59 48.8154 181.023 48.8154 180.457 48.8154C180.351 48.8154 180.305 48.8366 180.282 48.9546C180.146 49.7405 179.798 50.4741 179.274 51.0757C178.751 51.6773 178.072 52.124 177.313 52.3667C176.798 52.5587 176.249 52.6597 175.713 52.8027C175.734 52.8267 175.776 52.8787 175.821 52.9277C177.589 54.8407 179.243 56.8503 180.897 58.8623C181.097 59.1003 181.045 59.3156 180.762 59.4966L178.273 59.4917Z" fill="#3C23B6"/>
<path d="M169.58 60.5L184.58 42.5" stroke="#3C23B6" stroke-width="2.5"/>
</g>
</g>
</g>
<defs>
<clipPath id="clip0_231_200">
<rect width="256" height="142" fill="white"/>
</clipPath>
<clipPath id="clip1_231_200">
<rect width="260" height="308" fill="white" transform="translate(-4 -143)"/>
</clipPath>
<clipPath id="clip2_231_200">
<rect width="67.08" height="60.468" fill="white" transform="translate(123 38)"/>
</clipPath>
</defs>
</svg>
