<svg width="256" height="142" viewBox="0 0 256 142" fill="none" xmlns="http://www.w3.org/2000/svg">
<g clip-path="url(#clip0_231_186)">
<g clip-path="url(#clip1_231_186)">
<path opacity="0.1" d="M214.133 27.9088C205.108 39.5088 198.017 52.4198 189.274 64.2218C184.121 71.1768 178.174 77.9108 170.324 81.8068C154.232 89.7878 134.845 84.0498 117.869 78.0418C100.893 72.0338 81.7692 65.8998 65.3592 73.2418C51.2192 79.5678 43.0592 94.7308 41.0812 109.737C39.1032 124.743 42.2622 139.879 45.1022 154.753C47.9422 169.627 50.4742 184.979 47.2792 199.785C43.7792 216.003 33.7192 230.128 28.2072 245.809C22.6952 261.49 23.1642 281.552 36.7972 291.509C43.3032 296.259 51.7512 297.827 59.8892 297.809C74.2762 297.773 88.2241 293.244 101.664 288.253C108.564 285.692 115.808 282.946 123.111 284.001C135.07 285.728 143.141 296.882 154.324 301.347C167.183 306.481 182.366 301.817 193.208 293.361C204.05 284.905 211.552 273.18 219.329 261.981C233.643 241.369 249.382 228.511 273.829 220.828C299.367 212.8 330.217 211.87 349.939 191.956C366.37 175.366 368.73 147.327 355.292 128.362C344.879 113.662 327.383 105.417 314.28 92.9158C297.986 77.3698 289.043 55.4908 286.757 33.4158C285.78 23.9788 285.588 13.5658 279.073 6.50378C271.831 -1.34422 259.116 -1.99621 248.807 1.28579C234.583 5.79979 223.157 16.3088 214.133 27.9088Z" fill="#3C23B6"/>
<g clip-path="url(#clip2_231_186)">
<path d="M160.306 60.4278C161.862 61.2467 163.594 61.6739 165.352 61.6719C167.189 61.6265 169.001 61.2311 170.69 60.5069C172.446 59.6341 173.94 58.314 175.024 56.6797C177.024 53.8157 176.334 48.0008 176.334 48.0008C175.61 48.3628 174.781 48.4547 173.995 48.2598C173.129 47.8868 172.337 47.3593 171.66 46.7029C169.757 45.5526 167.592 44.9058 165.37 44.8238C163.449 44.7879 161.569 45.3888 160.025 46.5328C158.403 47.7328 158.042 47.7958 157.009 48.5398C155.976 49.2838 154.603 48.1738 154.537 48.3038C154.471 48.4338 154.709 54.4517 156.393 56.6797C157.465 58.1509 158.79 59.42 160.306 60.4278V60.4278Z" stroke="#3C23B6" stroke-width="3"/>
<path d="M153.65 47.3827C153.319 46.9761 153.119 46.4782 153.078 45.9552C153.037 45.4323 153.156 44.9091 153.42 44.4557C154.553 42.9901 155.937 41.7373 157.508 40.7558C159.736 39.1884 162.427 38.4167 165.147 38.5648C167.956 38.6644 170.714 39.3454 173.247 40.5648C175.084 41.5663 176.588 43.0829 177.574 44.9279C177.68 45.3932 177.676 45.8768 177.562 46.3402C177.448 46.8036 177.227 47.234 176.917 47.5968C176.235 48.1467 175.377 48.431 174.502 48.3969C173.534 48.0872 172.646 47.5679 171.902 46.8759C169.946 45.6255 167.678 44.9487 165.357 44.9228C161.741 44.9228 160.843 45.7497 158.767 47.3827C156.691 49.0157 156.309 48.8247 155.754 48.7987C155.322 48.7294 154.909 48.5669 154.546 48.3224C154.183 48.0779 153.877 47.7572 153.65 47.3827V47.3827Z" stroke="#3C23B6" stroke-width="3"/>
<path d="M165.591 70.2661C166.294 70.3313 167.002 70.2441 167.668 70.0107C168.334 69.7774 168.941 69.4035 169.45 68.9141C170.209 68.0083 170.7 66.9081 170.867 65.738C171.01 64.824 170.867 60.4551 170.867 60.4551C169.194 61.1721 167.408 61.59 165.591 61.6899C163.771 61.6278 161.981 61.2083 160.324 60.4551C160.045 62.2028 160.011 63.981 160.224 65.738C160.308 66.9579 160.864 68.097 161.774 68.9141C162.828 69.833 164.193 70.3165 165.591 70.2661Z" stroke="#3C23B6" stroke-width="3"/>
<path d="M155.704 33.0242C154.957 33.6768 154.387 34.5076 154.048 35.4392C153.641 36.6062 154.184 43.5152 154.184 43.5152C155.323 42.3891 156.566 41.3736 157.897 40.4822C160.152 39.0789 162.788 38.4112 165.44 38.5713C167.663 38.6317 169.854 39.1212 171.891 40.0132C173.756 40.7921 175.428 41.9692 176.791 43.4622C176.791 43.4622 176.836 36.2753 176.791 35.8423C176.632 34.9606 176.24 34.1373 175.657 33.4573C175.268 32.9513 174.779 32.5318 174.219 32.2256C173.66 31.9195 173.042 31.7334 172.407 31.6792C170.722 31.3792 159.08 31.5162 158.207 31.6792C157.285 31.9416 156.431 32.4005 155.704 33.0242Z" stroke="#3C23B6" stroke-width="3"/>
<path d="M144.282 83.142C144.08 83.1859 143.897 83.2919 143.758 83.445C143.62 83.5982 143.532 83.7908 143.508 83.996C143.508 84.396 143.489 88.6369 143.508 89.1579C143.491 89.3911 143.52 89.6255 143.596 89.8469C143.671 90.0683 143.791 90.2721 143.947 90.446C144.357 90.8331 144.894 91.0559 145.457 91.072C146.224 91.143 149.757 91.117 150.168 91.072C150.849 90.9634 151.496 90.6979 152.057 90.2961C152.6 89.8287 153.028 89.2433 153.31 88.5849C153.477 88.088 153.55 87.5646 153.526 87.041C153.535 86.5123 153.462 85.9854 153.31 85.479C153.082 84.8034 152.643 84.219 152.057 83.812C151.516 83.3769 150.859 83.1101 150.168 83.0441C148.206 82.9748 146.241 83.0074 144.282 83.142Z" stroke="#3C23B6" stroke-width="3"/>
<path d="M186.75 83.142C186.951 83.1862 187.134 83.2922 187.273 83.4453C187.412 83.5983 187.499 83.7909 187.523 83.9961C187.523 84.3961 187.54 88.6369 187.523 89.1579C187.54 89.3912 187.51 89.6258 187.435 89.8471C187.359 90.0685 187.239 90.2721 187.083 90.446C186.673 90.8328 186.136 91.0556 185.573 91.072C184.804 91.143 181.273 91.117 180.861 91.072C180.18 90.9632 179.534 90.6976 178.973 90.2961C178.43 89.8287 178.002 89.2433 177.721 88.5849C177.554 88.088 177.48 87.5646 177.504 87.041C177.495 86.5122 177.568 85.9852 177.721 85.479C177.948 84.8033 178.387 84.2188 178.973 83.812C179.514 83.3766 180.17 83.1098 180.861 83.0441C182.824 82.9748 184.79 83.0074 186.75 83.142V83.142Z" stroke="#3C23B6" stroke-width="3"/>
<path d="M161.188 76.4629V86.1399L165.498 83.4707L169.836 86.1399V76.4629H161.188Z" stroke="#3C23B6" stroke-width="3"/>
<path d="M146.983 70.2927C146.136 71.1104 145.473 72.0991 145.038 73.1929C144.758 74.0189 144.504 83.0688 144.504 83.0688H151.224C151.201 81.1326 151.282 79.1964 151.467 77.2688C151.558 77.0183 151.717 76.798 151.925 76.6321C152.134 76.4662 152.384 76.3612 152.649 76.3289C153.181 76.2229 176.96 76.3507 178.065 76.4287C179.17 76.5067 179.465 77.0459 179.572 77.6499C179.679 78.2539 179.772 83.0249 179.772 83.0249H186.378C186.378 83.0249 186.531 74.7888 186.091 73.4248C185.625 72.1517 184.853 71.0131 183.842 70.1099C182.653 68.9789 181.241 68.1103 179.695 67.5608C178.528 67.0878 170.942 64.9729 170.942 64.9729C171.004 65.8601 170.812 66.7465 170.387 67.5278C169.673 68.8778 169.718 68.7538 169.24 69.2378C168.762 69.7218 167.557 70.2979 165.44 70.2979C164.841 70.3546 164.238 70.29 163.665 70.1079C163.092 69.9258 162.561 69.6297 162.105 69.2378C161.506 68.7908 161.025 68.2037 160.705 67.5278C160.337 66.6642 160.133 65.7392 160.105 64.8008C160.105 64.8008 153.205 66.7338 151.471 67.5278C149.813 68.1567 148.29 69.0949 146.983 70.2927V70.2927Z" stroke="#3C23B6" stroke-width="3"/>
<path d="M159.29 101.175C159.29 101.175 152.59 101.13 152.044 100.998C151.498 100.866 151.343 100.354 151.304 99.7795C151.265 99.2055 151.304 90.8047 151.304 90.8047" stroke="#3C23B6" stroke-width="3" stroke-linecap="round"/>
<path d="M171.834 101.175C171.834 101.175 178.534 101.13 179.08 100.998C179.626 100.866 179.786 100.354 179.82 99.7795C179.854 99.2055 179.82 90.8047 179.82 90.8047" stroke="#3C23B6" stroke-width="3" stroke-linecap="round"/>
</g>
</g>
</g>
<defs>
<clipPath id="clip0_231_186">
<rect width="256" height="142" fill="white"/>
</clipPath>
<clipPath id="clip1_231_186">
<rect width="260" height="308" fill="white" transform="translate(-4 -143)"/>
</clipPath>
<clipPath id="clip2_231_186">
<rect width="47.03" height="72.684" fill="white" transform="translate(142 30)"/>
</clipPath>
</defs>
</svg>
