<svg width="256" height="142" viewBox="0 0 256 142" fill="none" xmlns="http://www.w3.org/2000/svg">
<g clip-path="url(#clip0_119_98)">
<g clip-path="url(#clip1_119_98)">
<path opacity="0.1" d="M214.134 39.909C205.109 51.509 198.018 64.42 189.275 76.222C184.122 83.177 178.175 89.911 170.325 93.807C154.233 101.788 134.846 96.05 117.87 90.042C100.894 84.034 81.7702 77.9 65.3602 85.242C51.2202 91.568 43.0601 106.731 41.0821 121.737C39.1041 136.743 42.2631 151.879 45.1031 166.753C47.9431 181.627 50.4751 196.979 47.2801 211.785C43.7801 228.003 33.7202 242.128 28.2082 257.809C22.6962 273.49 23.1652 293.552 36.7982 303.509C43.3042 308.259 51.7521 309.827 59.8901 309.809C74.2771 309.773 88.2251 305.244 101.665 300.253C108.565 297.692 115.809 294.946 123.112 296.001C135.071 297.728 143.142 308.882 154.325 313.347C167.184 318.481 182.367 313.817 193.209 305.361C204.051 296.905 211.553 285.18 219.33 273.981C233.644 253.369 249.383 240.511 273.83 232.828C299.368 224.8 330.218 223.87 349.94 203.956C366.371 187.366 368.731 159.327 355.293 140.362C344.88 125.662 327.384 117.417 314.281 104.916C297.987 89.37 289.044 67.491 286.758 45.416C285.781 35.979 285.589 25.566 279.074 18.504C271.832 10.656 259.117 10.004 248.808 13.286C234.584 17.8 223.158 28.309 214.134 39.909Z" fill="#3C23B6"/>
<g clip-path="url(#clip2_119_98)">
<path d="M208.689 90.1471C208.168 89.749 207.51 89.5307 206.831 89.5307C206.151 89.5307 205.493 89.749 204.972 90.1471L196.912 96.0118C195.922 96.7341 194.691 97.1263 193.422 97.1232H183.103C182.917 97.1276 182.731 97.0979 182.558 97.036C182.384 96.9741 182.226 96.8813 182.093 96.7629C181.959 96.6445 181.853 96.503 181.781 96.3467C181.708 96.1904 181.671 96.0225 181.671 95.8529C181.671 95.6833 181.708 95.5154 181.781 95.3591C181.853 95.2028 181.959 95.0613 182.093 94.9429C182.226 94.8245 182.384 94.7317 182.558 94.6698C182.731 94.6079 182.917 94.5782 183.103 94.5826H189.933C190.612 94.5949 191.273 94.3907 191.803 94.0054C192.334 93.6201 192.699 93.0781 192.836 92.4733C192.904 92.1089 192.884 91.7353 192.777 91.3787C192.67 91.022 192.479 90.6908 192.217 90.4082C191.955 90.1256 191.629 89.8982 191.261 89.742C190.893 89.5859 190.492 89.5046 190.086 89.5038H176.124C173.77 89.5043 171.488 90.2407 169.66 91.5897L165.603 94.5851H160.771C160.401 94.586 160.047 94.7201 159.785 94.9583C159.523 95.1964 159.376 95.5191 159.375 95.8558V103.478C159.376 103.814 159.524 104.137 159.785 104.375C160.047 104.613 160.401 104.747 160.771 104.748H191.896C193.164 104.748 194.394 104.356 195.385 103.636L208.575 94.0294C208.893 93.7986 209.151 93.5075 209.332 93.1763C209.513 92.8452 209.613 92.4821 209.624 92.1123C209.634 91.7426 209.556 91.3751 209.395 91.0357C209.233 90.6962 208.992 90.393 208.689 90.1471Z" stroke="#3C23B6" stroke-width="3"/>
<path d="M196.778 44.2515H172.942C172.183 44.2515 171.567 44.8119 171.567 45.5031V80.5462C171.567 81.2374 172.183 81.7977 172.942 81.7977H196.778C197.537 81.7977 198.153 81.2374 198.153 80.5462V45.5031C198.153 44.8119 197.537 44.2515 196.778 44.2515Z" stroke="#3C23B6" stroke-width="3"/>
<path d="M190.819 47.1718H179.818C179.059 47.1718 178.443 47.7321 178.443 48.4234C178.443 49.1146 179.059 49.6749 179.818 49.6749H190.819C191.578 49.6749 192.194 49.1146 192.194 48.4234C192.194 47.7321 191.578 47.1718 190.819 47.1718Z" fill="#3C23B6"/>
<path d="M190.532 62.5731L190.049 64.2208H180.845L181.328 62.5731H190.532ZM186.214 73.681L181.015 67.3174L180.987 66.1242H183.572C184.244 66.1242 184.817 66.0295 185.291 65.8401C185.764 65.646 186.126 65.3572 186.377 64.9736C186.628 64.5854 186.754 64.0977 186.754 63.5106C186.754 62.6441 186.493 61.9646 185.972 61.4722C185.452 60.9751 184.651 60.7265 183.572 60.7265H180.845L181.328 59.1356H183.572C184.727 59.1356 185.674 59.3273 186.413 59.7109C187.156 60.0896 187.705 60.6105 188.06 61.2734C188.42 61.9315 188.6 62.6772 188.6 63.5106C188.6 64.2634 188.435 64.9571 188.103 65.5915C187.776 66.2213 187.251 66.7279 186.526 67.1114C185.807 67.495 184.855 67.6867 183.671 67.6867H183.629L188.43 73.5674V73.681H186.214ZM190.532 59.1356L190.049 60.7833L182.805 60.7265L183.288 59.1356H190.532Z" fill="#3C23B6"/>
</g>
</g>
</g>
<defs>
<clipPath id="clip0_119_98">
<rect width="256" height="142" fill="white"/>
</clipPath>
<clipPath id="clip1_119_98">
<rect width="260" height="308" fill="white" transform="translate(-4 -131)"/>
</clipPath>
<clipPath id="clip2_119_98">
<rect width="53" height="63" fill="white" transform="translate(158 43)"/>
</clipPath>
</defs>
</svg>
