<svg width="256" height="142" viewBox="0 0 256 142" fill="none" xmlns="http://www.w3.org/2000/svg">
<g clip-path="url(#clip0_119_2)">
<g clip-path="url(#clip1_119_2)">
<path opacity="0.1" d="M84.0509 170.253C69.4509 163.372 49.2249 143.507 62.1079 114.679C74.9909 85.851 99.4669 92.691 133.821 63.374C175.521 27.783 204.811 25.827 242.035 41.386C263.077 50.186 266.512 86.339 300.006 108.816C330.201 129.078 305.588 163.541 289.7 168.916C273.812 174.291 263.076 174.291 263.076 174.291C263.076 174.291 98.6489 177.133 84.0509 170.253Z" fill="#3C23B6"/>
<g clip-path="url(#clip2_119_2)">
<path d="M152.97 59.915C154.327 60.6662 155.838 61.0581 157.372 61.0563C158.975 61.0147 160.555 60.6519 162.029 59.9875C163.56 59.1868 164.865 57.9757 165.81 56.4765C167.555 53.849 166.953 48.5143 166.953 48.5143C166.321 48.8464 165.598 48.9307 164.912 48.752C164.156 48.4098 163.466 47.9258 162.875 47.3237C161.215 46.2684 159.326 45.675 157.388 45.5997C155.711 45.5668 154.071 46.1181 152.724 47.1676C151.309 48.2684 150.994 48.3263 150.093 49.0089C149.192 49.6914 147.994 48.673 147.937 48.7923C147.879 48.9115 148.087 54.4325 149.556 56.4765C150.491 57.8261 151.647 58.9904 152.97 59.915V59.915Z" stroke="#3C23B6" stroke-width="3"/>
<path d="M147.163 47.9471C146.874 47.574 146.7 47.1172 146.665 46.6375C146.629 46.1577 146.733 45.6778 146.963 45.2618C147.951 43.9172 149.159 42.7679 150.529 41.8675C152.473 40.4295 154.821 39.7216 157.194 39.8575C159.645 39.9489 162.051 40.5736 164.26 41.6923C165.863 42.611 167.175 44.0023 168.036 45.695C168.128 46.1219 168.124 46.5656 168.025 46.9907C167.925 47.4158 167.733 47.8106 167.462 48.1435C166.867 48.648 166.119 48.9088 165.355 48.8775C164.511 48.5934 163.736 48.1169 163.087 47.4821C161.38 46.335 159.402 45.7141 157.377 45.6903C154.222 45.6903 153.439 46.4489 151.628 47.9471C149.817 49.4452 149.483 49.27 148.999 49.2461C148.622 49.1826 148.262 49.0335 147.945 48.8092C147.628 48.5848 147.362 48.2906 147.163 47.9471V47.9471Z" stroke="#3C23B6" stroke-width="3"/>
<path d="M157.581 68.9405C158.194 69.0003 158.812 68.9202 159.393 68.7062C159.974 68.4922 160.504 68.1491 160.948 67.7001C161.61 66.8691 162.038 65.8599 162.184 64.7864C162.309 63.9479 162.184 59.9398 162.184 59.9398C160.724 60.5976 159.166 60.9809 157.581 61.0726C155.993 61.0156 154.432 60.6308 152.986 59.9398C152.742 61.5432 152.713 63.1744 152.899 64.7864C152.972 65.9055 153.457 66.9505 154.251 67.7001C155.171 68.5432 156.361 68.9867 157.581 68.9405Z" stroke="#3C23B6" stroke-width="3"/>
<path d="M148.956 34.7742C148.304 35.3729 147.807 36.1351 147.511 36.9898C147.156 38.0604 147.63 44.3987 147.63 44.3987C148.623 43.3656 149.708 42.434 150.869 41.6162C152.837 40.3289 155.136 39.7163 157.45 39.8632C159.389 39.9185 161.3 40.3677 163.078 41.186C164.705 41.9006 166.164 42.9805 167.352 44.3501C167.352 44.3501 167.392 37.7568 167.352 37.3596C167.214 36.5507 166.872 35.7953 166.363 35.1715C166.024 34.7073 165.597 34.3224 165.109 34.0416C164.621 33.7607 164.082 33.59 163.528 33.5403C162.058 33.2651 151.901 33.3908 151.139 33.5403C150.335 33.7811 149.59 34.202 148.956 34.7742Z" stroke="#3C23B6" stroke-width="3"/>
<path d="M138.991 80.753C138.815 80.7932 138.655 80.8905 138.534 81.0309C138.413 81.1714 138.337 81.3481 138.316 81.5365C138.316 81.9034 138.299 85.794 138.316 86.272C138.301 86.4859 138.326 86.701 138.392 86.9041C138.458 87.1072 138.562 87.2942 138.699 87.4537C139.056 87.8088 139.525 88.0132 140.016 88.028C140.685 88.0931 143.767 88.0693 144.126 88.028C144.72 87.9284 145.285 87.6848 145.774 87.3162C146.247 86.8874 146.621 86.3503 146.867 85.7463C147.013 85.2905 147.076 84.8102 147.056 84.3299C147.063 83.8449 147 83.3615 146.867 82.8969C146.668 82.2771 146.285 81.741 145.774 81.3676C145.302 80.9685 144.729 80.7237 144.126 80.6632C142.414 80.5996 140.7 80.6295 138.991 80.753Z" stroke="#3C23B6" stroke-width="3"/>
<path d="M176.04 80.753C176.216 80.7935 176.376 80.8907 176.497 81.0312C176.618 81.1716 176.694 81.3482 176.715 81.5365C176.715 81.9034 176.73 85.794 176.715 86.272C176.73 86.4861 176.704 86.7012 176.638 86.9043C176.572 87.1073 176.467 87.2941 176.331 87.4537C175.974 87.8085 175.505 88.0129 175.014 88.028C174.343 88.0931 171.263 88.0693 170.903 88.028C170.309 87.9282 169.745 87.6846 169.256 87.3162C168.782 86.8874 168.409 86.3503 168.163 85.7463C168.018 85.2905 167.954 84.8102 167.975 84.3299C167.966 83.8448 168.03 83.3613 168.163 82.8969C168.362 82.277 168.745 81.7408 169.256 81.3676C169.727 80.9682 170.3 80.7234 170.903 80.6632C172.616 80.5996 174.331 80.6295 176.04 80.753V80.753Z" stroke="#3C23B6" stroke-width="3"/>
<path d="M153.74 74.6248V83.5025L157.5 81.0538L161.285 83.5025V74.6248H153.74Z" stroke="#3C23B6" stroke-width="3"/>
<path d="M141.346 68.9642C140.608 69.7144 140.029 70.6214 139.65 71.6248C139.405 72.3826 139.184 80.6851 139.184 80.6851H145.046C145.026 78.9088 145.097 77.1325 145.258 75.3641C145.338 75.1343 145.476 74.9322 145.658 74.78C145.84 74.6278 146.059 74.5315 146.289 74.5018C146.754 74.4046 167.499 74.5218 168.463 74.5934C169.427 74.665 169.684 75.1596 169.778 75.7137C169.871 76.2678 169.952 80.6448 169.952 80.6448H175.715C175.715 80.6448 175.849 73.0889 175.465 71.8376C175.059 70.6696 174.385 69.6251 173.503 68.7964C172.466 67.7588 171.233 66.962 169.885 66.4579C168.867 66.024 162.249 64.0837 162.249 64.0837C162.303 64.8976 162.135 65.7109 161.764 66.4277C161.141 67.6662 161.181 67.5524 160.764 67.9964C160.347 68.4404 159.296 68.9689 157.449 68.9689C156.926 69.021 156.4 68.9617 155.9 68.7946C155.4 68.6276 154.937 68.356 154.539 67.9964C154.016 67.5863 153.597 67.0477 153.318 66.4277C152.997 65.6353 152.819 64.7868 152.794 63.9258C152.794 63.9258 146.774 65.6992 145.262 66.4277C143.815 67.0045 142.487 67.8653 141.346 68.9642V68.9642Z" stroke="#3C23B6" stroke-width="3"/>
<path d="M152.084 97.2955C152.084 97.2955 146.239 97.2542 145.763 97.1331C145.286 97.012 145.152 96.5423 145.118 96.0157C145.084 95.4891 145.118 87.7821 145.118 87.7821" stroke="#3C23B6" stroke-width="3" stroke-linecap="round"/>
<path d="M163.027 97.2955C163.027 97.2955 168.872 97.2542 169.349 97.1331C169.825 97.012 169.965 96.5423 169.994 96.0157C170.024 95.4891 169.994 87.7821 169.994 87.7821" stroke="#3C23B6" stroke-width="3" stroke-linecap="round"/>
</g>
</g>
</g>
<defs>
<clipPath id="clip0_119_2">
<rect width="256" height="142" fill="white"/>
</clipPath>
<clipPath id="clip1_119_2">
<rect width="260" height="308" fill="white" transform="translate(0 -166)"/>
</clipPath>
<clipPath id="clip2_119_2">
<rect width="41.03" height="66.68" fill="white" transform="translate(137 32)"/>
</clipPath>
</defs>
</svg>
