<svg width="256" height="142" viewBox="0 0 256 142" fill="none" xmlns="http://www.w3.org/2000/svg">
<g clip-path="url(#clip0_255_64)">
<g clip-path="url(#clip1_255_64)">
<path opacity="0.1" d="M84.0519 170.254C69.4519 163.373 49.2259 143.508 62.1089 114.68C74.9919 85.8515 99.4679 92.6915 133.822 63.3745C175.522 27.7835 204.812 25.8275 242.036 41.3865C263.078 50.1865 266.513 86.3395 300.007 108.817C330.202 129.079 305.589 163.542 289.701 168.917C273.813 174.292 263.077 174.292 263.077 174.292C263.077 174.292 98.6499 177.134 84.0519 170.254Z" fill="#3C23B6"/>
<g clip-path="url(#clip2_255_64)">
<path d="M183.036 92.4277H175.136C174.743 92.4277 174.366 92.2716 174.089 91.9939C173.811 91.7162 173.655 91.3395 173.655 90.9467V68.6167H144.89V90.9107C144.89 91.3035 144.734 91.6802 144.456 91.9579C144.178 92.2356 143.802 92.3917 143.409 92.3917H135.49C135.292 92.3965 135.096 92.3617 134.912 92.2895C134.728 92.2172 134.56 92.1089 134.419 91.9709C134.278 91.8329 134.165 91.668 134.088 91.4859C134.012 91.3039 133.972 91.1083 133.972 90.9107V68.6167H131.485C131.092 68.6167 130.715 68.4606 130.438 68.1829C130.16 67.9052 130.004 67.5285 130.004 67.1357V61.1917C130.004 60.9444 130.066 60.7011 130.184 60.484C130.302 60.2669 130.473 60.0828 130.681 59.9487L158.461 42.0807C158.701 41.9278 158.98 41.8467 159.265 41.8467C159.55 41.8467 159.829 41.9278 160.07 42.0807L187.85 59.9297C188.058 60.0639 188.228 60.2479 188.347 60.4651C188.465 60.6822 188.527 60.9254 188.527 61.1727V67.1347C188.527 67.5275 188.371 67.9042 188.093 68.1819C187.815 68.4596 187.439 68.6157 187.046 68.6157H184.559V90.9097C184.564 91.1104 184.528 91.31 184.453 91.4964C184.379 91.6828 184.267 91.8521 184.125 91.994C183.983 92.136 183.814 92.2477 183.628 92.3222C183.441 92.3967 183.242 92.4326 183.041 92.4277H183.036ZM176.617 89.4467H181.573V67.1357C181.573 66.7429 181.729 66.3662 182.007 66.0885C182.284 65.8107 182.661 65.6547 183.054 65.6547H185.541V61.9967L159.26 45.1887L132.98 61.9957V65.6537H135.49C135.88 65.6584 136.252 65.8165 136.526 66.0938C136.799 66.371 136.953 66.745 136.953 67.1347V89.4467H141.909V67.1347C141.909 66.7419 142.065 66.3652 142.343 66.0874C142.62 65.8097 142.997 65.6537 143.39 65.6537H175.139C175.532 65.6537 175.908 65.8097 176.186 66.0874C176.464 66.3652 176.62 66.7419 176.62 67.1347L176.617 89.4467Z" fill="#3C23B6"/>
<path d="M165.206 58.7051H153.318C152.929 58.6951 152.56 58.5336 152.288 58.2552C152.017 57.9767 151.865 57.6034 151.865 57.2146C151.865 56.8259 152.017 56.4525 152.288 56.1741C152.56 55.8957 152.929 55.7342 153.318 55.7241H165.224C165.423 55.719 165.621 55.7537 165.806 55.8263C165.991 55.8989 166.16 56.0079 166.303 56.1468C166.445 56.2857 166.559 56.4517 166.636 56.6351C166.713 56.8185 166.753 57.0156 166.753 57.2146C166.753 57.4137 166.713 57.6107 166.636 57.7941C166.559 57.9775 166.445 58.1436 166.303 58.2825C166.16 58.4214 165.991 58.5304 165.806 58.6029C165.621 58.6755 165.423 58.7103 165.224 58.7051H165.206Z" fill="#3C23B6"/>
<path d="M159.262 92.428H149.35C149.151 92.4307 148.953 92.393 148.769 92.3174C148.584 92.2419 148.417 92.1299 148.277 91.9881C148.137 91.8464 148.027 91.6779 147.954 91.4926C147.88 91.3074 147.845 91.1092 147.85 90.91V82.022C147.85 81.6292 148.006 81.2525 148.284 80.9748C148.562 80.6971 148.938 80.541 149.331 80.541H159.261C159.654 80.541 160.031 80.6971 160.308 80.9748C160.586 81.2525 160.742 81.6292 160.742 82.022V90.91C160.747 91.1076 160.713 91.3043 160.64 91.4883C160.568 91.6723 160.46 91.8401 160.322 91.9816C160.184 92.1231 160.019 92.2355 159.837 92.3121C159.654 92.3888 159.459 92.4282 159.261 92.428H159.262ZM150.831 89.447H157.781V83.503H150.831V89.447Z" fill="#3C23B6"/>
<path d="M169.169 92.428H159.256C158.864 92.428 158.487 92.272 158.209 91.9943C157.931 91.7165 157.775 91.3398 157.775 90.947V82.022C157.775 81.6292 157.931 81.2525 158.209 80.9748C158.487 80.6971 158.864 80.541 159.256 80.541H169.169C169.562 80.541 169.939 80.6971 170.217 80.9748C170.494 81.2525 170.65 81.6292 170.65 82.022V90.91C170.655 91.1076 170.621 91.3042 170.548 91.4882C170.476 91.6721 170.368 91.8398 170.23 91.9813C170.092 92.1227 169.927 92.2351 169.745 92.3119C169.563 92.3886 169.367 92.4281 169.169 92.428V92.428ZM160.738 89.447H167.688V83.503H160.738V89.447Z" fill="#3C23B6"/>
<path d="M164.216 83.5036H154.303C153.91 83.5036 153.534 83.3476 153.256 83.0699C152.978 82.7921 152.822 82.4154 152.822 82.0226V73.0806C152.822 72.6878 152.978 72.3111 153.256 72.0334C153.534 71.7556 153.91 71.5996 154.303 71.5996H164.216C164.609 71.5996 164.986 71.7556 165.263 72.0334C165.541 72.3111 165.697 72.6878 165.697 73.0806V82.0056C165.7 82.2017 165.663 82.3963 165.59 82.5782C165.517 82.7601 165.408 82.9256 165.27 83.0652C165.132 83.2047 164.968 83.3155 164.787 83.3911C164.607 83.4667 164.412 83.5056 164.216 83.5056V83.5036ZM155.785 80.5226H162.735V74.5806H155.785V80.5226Z" fill="#3C23B6"/>
<path d="M184.08 57C190.707 57 196.08 51.6274 196.08 45C196.08 38.3726 190.707 33 184.08 33C177.453 33 172.08 38.3726 172.08 45C172.08 51.6274 177.453 57 184.08 57Z" stroke="#3B22B4" stroke-width="2"/>
<path d="M185.273 53.4917C185.03 53.2197 184.779 52.9533 184.544 52.6743C182.889 50.7053 181.215 48.7525 179.46 46.8745C179.41 46.8245 179.371 46.7652 179.344 46.6997C179.318 46.6343 179.305 46.5642 179.307 46.4937C179.307 46.0577 179.307 45.6215 179.307 45.1855C179.307 44.8755 179.451 44.7423 179.765 44.7383C180.395 44.7283 181.026 44.7387 181.654 44.7017C182.414 44.6871 183.152 44.4429 183.771 44.0015C184.163 43.7113 184.441 43.2925 184.557 42.8184H179.82C179.753 42.8202 179.686 42.8181 179.62 42.8115C179.541 42.8076 179.467 42.7747 179.412 42.7192C179.356 42.6638 179.324 42.59 179.32 42.5117C179.31 42.0817 179.31 41.6517 179.32 41.2217C179.322 41.1439 179.354 41.0697 179.408 41.0142C179.463 40.9586 179.536 40.9254 179.614 40.9214C179.687 40.9133 179.76 40.9099 179.834 40.9106H184.367L184.399 40.8735C184.293 40.7231 184.179 40.5785 184.058 40.4404C183.686 40.0707 183.204 39.8326 182.685 39.7617C182.214 39.6891 181.74 39.6443 181.264 39.6284C180.771 39.6064 180.277 39.6285 179.784 39.6235C179.449 39.6235 179.309 39.4825 179.308 39.1455C179.308 38.7048 179.308 38.2641 179.308 37.8228C179.308 37.4778 179.429 37.3613 179.774 37.3613H189.115C189.451 37.3613 189.579 37.4887 189.581 37.8267C189.581 38.1267 189.581 38.4357 189.581 38.7407C189.581 39.1497 189.466 39.2666 189.062 39.2666H186.555C186.654 39.4053 186.743 39.5511 186.822 39.7026C186.969 40.048 187.104 40.3981 187.227 40.7534C187.268 40.8724 187.313 40.9156 187.442 40.9136C187.998 40.9056 188.555 40.9136 189.112 40.9136C189.488 40.9136 189.598 41.0253 189.599 41.4023C189.599 41.7273 189.599 42.0534 189.599 42.3794C189.599 42.7054 189.473 42.8154 189.157 42.8154C188.59 42.8154 188.023 42.8154 187.457 42.8154C187.351 42.8154 187.305 42.8366 187.282 42.9546C187.146 43.7405 186.798 44.4741 186.274 45.0757C185.751 45.6773 185.072 46.124 184.313 46.3667C183.798 46.5587 183.249 46.6597 182.713 46.8027C182.734 46.8267 182.776 46.8787 182.821 46.9277C184.589 48.8407 186.243 50.8503 187.897 52.8623C188.097 53.1003 188.045 53.3156 187.762 53.4966L185.273 53.4917Z" fill="#3C23B6"/>
<path d="M176.58 54.5L191.58 36.5" stroke="#3C23B6" stroke-width="2.5"/>
</g>
</g>
</g>
<defs>
<clipPath id="clip0_255_64">
<rect width="256" height="142" fill="white"/>
</clipPath>
<clipPath id="clip1_255_64">
<rect width="260" height="308" fill="white" transform="translate(0 -166)"/>
</clipPath>
<clipPath id="clip2_255_64">
<rect width="67.08" height="60.468" fill="white" transform="translate(130 32)"/>
</clipPath>
</defs>
</svg>
