<svg width="256" height="142" viewBox="0 0 256 142" fill="none" xmlns="http://www.w3.org/2000/svg">
<g clip-path="url(#clip0_255_44)">
<g clip-path="url(#clip1_255_44)">
<path opacity="0.1" d="M214.133 27.9088C205.108 39.5088 198.017 52.4198 189.274 64.2218C184.121 71.1768 178.174 77.9108 170.324 81.8068C154.232 89.7878 134.845 84.0498 117.869 78.0418C100.893 72.0338 81.7692 65.8998 65.3592 73.2418C51.2192 79.5678 43.0592 94.7308 41.0812 109.737C39.1032 124.743 42.2622 139.879 45.1022 154.753C47.9422 169.627 50.4742 184.979 47.2792 199.785C43.7792 216.003 33.7192 230.128 28.2072 245.809C22.6952 261.49 23.1642 281.552 36.7972 291.509C43.3032 296.259 51.7512 297.827 59.8892 297.809C74.2762 297.773 88.2241 293.244 101.664 288.253C108.564 285.692 115.808 282.946 123.111 284.001C135.07 285.728 143.141 296.882 154.324 301.347C167.183 306.481 182.366 301.817 193.208 293.361C204.05 284.905 211.552 273.18 219.329 261.981C233.643 241.369 249.382 228.511 273.829 220.828C299.367 212.8 330.217 211.87 349.939 191.956C366.37 175.366 368.73 147.327 355.292 128.362C344.879 113.662 327.383 105.417 314.28 92.9158C297.986 77.3698 289.043 55.4908 286.757 33.4158C285.78 23.9788 285.588 13.5658 279.073 6.50378C271.831 -1.34422 259.116 -1.99621 248.807 1.28579C234.583 5.79979 223.157 16.3088 214.133 27.9088Z" fill="#3C23B6"/>
<g clip-path="url(#clip2_255_44)">
<path d="M173.52 34.6448L177.285 48.4646L163.326 44.6413L166.951 41.1467C166.497 40.9127 166.129 40.7324 165.772 40.5364C164.334 39.7977 162.824 39.2067 161.266 38.7717C160.223 38.484 159.16 38.276 158.085 38.1496C156.559 37.899 155.009 37.8237 153.465 37.9255C152.422 38.0095 151.387 38.1886 150.347 38.3176C149.366 38.418 148.399 38.6292 147.465 38.9475C146.858 39.1675 146.254 39.3984 145.653 39.6404C144.966 39.9174 144.279 40.1976 143.606 40.5046C142.671 40.9229 141.785 41.4415 140.962 42.0515C140.4 42.4745 139.823 42.8764 139.262 43.3044C138.672 43.7242 138.108 44.1796 137.573 44.6677C136.905 45.3227 136.316 46.0578 135.683 46.7488C134.478 48.1067 133.456 49.6174 132.645 51.2424C131.953 52.4727 131.419 53.7861 131.056 55.1506C130.9 55.8276 130.631 56.4795 130.473 57.1565C130.312 57.8209 130.197 58.4959 130.13 59.1765C129.984 60.4716 129.904 61.7732 129.889 63.0764C129.867 65.3451 130.2 67.6036 130.874 69.7698C131.294 71.0939 131.805 72.3867 132.405 73.6394C132.971 74.7603 133.611 75.8432 134.318 76.8806C134.818 77.5905 135.357 78.2722 135.932 78.9226C136.434 79.5288 136.968 80.1069 137.532 80.6545C138.123 81.2059 138.745 81.7214 139.397 82.1985C140.333 82.8935 141.281 83.5775 142.265 84.1985C142.926 84.6056 143.62 84.9548 144.34 85.2424C145.496 85.762 146.684 86.2042 147.898 86.5657C150.305 87.2278 152.795 87.5326 155.29 87.4704C156.64 87.4391 157.983 87.2808 159.303 86.9968C159.911 86.8578 160.538 86.7968 161.136 86.6238C161.933 86.4002 162.717 86.1328 163.484 85.8235C164.412 85.4475 165.318 85.0127 166.224 84.5837C167.473 83.966 168.652 83.2164 169.742 82.3484C170.49 81.7808 171.203 81.169 171.877 80.5163C172.51 79.8953 173.057 79.1887 173.647 78.5227C173.812 78.3182 173.997 78.1299 174.198 77.9607C174.324 77.8968 174.47 77.8847 174.604 77.9275C175.764 78.2275 176.921 78.5495 178.078 78.8655C178.151 78.8939 178.222 78.9274 178.29 78.9656C178.024 79.2906 177.775 79.5873 177.535 79.8913C177.003 80.5633 176.513 81.2736 175.935 81.9036C175.273 82.6286 174.546 83.2946 173.828 83.9656C173.329 84.4543 172.797 84.9102 172.238 85.3298C171.208 86.0648 170.166 86.7894 169.076 87.4294C168.005 88.0563 166.9 88.624 165.766 89.1296C164.892 89.5214 163.986 89.8385 163.058 90.0784C161.527 90.4724 159.983 90.8484 158.423 91.0964C156.602 91.4214 154.744 91.4918 152.903 91.3054C151.41 91.1254 149.917 90.9255 148.438 90.6575C147.066 90.3716 145.72 89.9721 144.414 89.4626C143.25 89.0436 142.19 88.4284 141.061 87.9514C140.705 87.7765 140.36 87.5783 140.03 87.3577C139.693 87.1815 139.367 86.9856 139.053 86.7707C138.053 86.0127 137.064 85.2414 136.085 84.4568C135.516 84.0249 134.979 83.5519 134.479 83.0417C133.517 82.0004 132.586 80.9287 131.688 79.8274C131.174 79.1853 130.702 78.5113 130.274 77.8088C129.822 77.0828 129.402 76.3336 129.024 75.5666C128.567 74.672 128.159 73.7534 127.8 72.8147C127.409 71.742 127.079 70.6485 126.81 69.5388C126.574 68.5608 126.462 67.5538 126.293 66.5598C125.987 64.6265 125.917 62.6629 126.085 60.7126C126.161 59.6946 126.336 58.6826 126.485 57.6726C126.572 56.9464 126.706 56.2268 126.885 55.5178C127.328 53.723 127.975 51.9846 128.813 50.3367C129.241 49.5687 129.633 48.7798 130.071 48.0178C130.396 47.4366 130.754 46.8743 131.142 46.3337C131.834 45.3927 132.542 44.4597 133.294 43.5647C133.768 43.0295 134.275 42.5255 134.814 42.0564C135.614 41.3274 136.414 40.6037 137.25 39.9167C137.845 39.4326 138.467 38.9816 139.111 38.5657C139.769 38.1377 140.45 37.7387 141.146 37.3757C141.963 36.9275 142.805 36.5267 143.667 36.1755C144.864 35.6873 146.092 35.28 147.343 34.9558C150.358 34.1647 153.482 33.8738 156.591 34.0954C157.835 34.2124 159.07 34.4458 160.306 34.6448C160.921 34.7448 161.535 34.8688 162.14 35.0198C162.709 35.1618 163.273 35.3345 163.827 35.5295C164.534 35.7765 165.237 36.0408 165.927 36.3298C166.467 36.5578 166.992 36.8238 167.509 37.1008C168.232 37.4888 168.938 37.9065 169.66 38.3005C169.719 38.3325 169.86 38.2785 169.927 38.2195C170.282 37.8861 170.629 37.5455 170.968 37.1975C171.194 36.9665 171.393 36.7097 171.623 36.4827C172.244 35.8727 172.869 35.2758 173.52 34.6448Z" fill="#3C23B6"/>
<path d="M143.964 67.4072H144.464C146.239 67.4072 148.013 67.4144 149.788 67.4004C150.11 67.4004 150.201 67.4945 150.193 67.8105C150.172 68.6555 150.175 69.5002 150.193 70.3452C150.193 70.6192 150.105 70.6953 149.839 70.6943C146.265 70.6877 142.692 70.6877 139.118 70.6943C138.887 70.6943 138.794 70.6272 138.797 70.3882C138.807 69.6882 138.797 68.9886 138.806 68.2886C138.806 68.1585 138.85 68.0318 138.93 67.9292C139.368 67.4482 139.822 66.9813 140.272 66.5103C140.864 65.8903 141.465 65.2804 142.046 64.6504C142.569 64.0844 143.06 63.4884 143.583 62.9224C144.206 62.2494 144.874 61.6154 145.477 60.9224C145.841 60.593 146.077 60.1454 146.142 59.6587C146.208 59.172 146.1 58.6774 145.836 58.2632C145.715 58.0377 145.55 57.8393 145.35 57.6792C145.151 57.5191 144.921 57.4007 144.675 57.3315C144.429 57.2624 144.171 57.2436 143.917 57.2764C143.664 57.3092 143.419 57.3929 143.199 57.5225C142.711 57.8563 142.259 58.2397 141.851 58.6665C141.204 59.3075 141.184 59.2944 140.427 58.8154C139.864 58.4584 139.312 58.0802 138.738 57.7402C138.53 57.6162 138.523 57.4773 138.645 57.3403C139.25 56.5378 140.001 55.8572 140.86 55.3345C141.543 54.939 142.281 54.6472 143.05 54.4692C144.199 54.2173 145.397 54.3242 146.484 54.7754C147.061 55.0022 147.601 55.316 148.084 55.7056C148.691 56.2468 149.145 56.9381 149.4 57.7105C149.655 58.4828 149.703 59.309 149.538 60.1055C149.258 61.1954 148.695 62.1917 147.906 62.9941C147.393 63.6578 146.844 64.2926 146.261 64.8945C145.79 65.4085 145.282 65.8895 144.807 66.3945C144.537 66.6875 144.29 67.0132 143.964 67.4072Z" fill="#3C23B6"/>
<path d="M160.476 54.5094L155.063 63.6095C155.904 63.6095 156.633 63.6203 157.363 63.5943C157.442 63.5943 157.575 63.3876 157.578 63.2726C157.598 62.6206 157.587 61.9725 157.586 61.3165V60.8976C158.647 60.8976 159.658 60.8913 160.669 60.9103C160.735 60.9103 160.85 61.1045 160.853 61.2105C160.87 61.8985 160.87 62.5868 160.853 63.2755C160.847 63.5425 160.932 63.6434 161.204 63.6324C161.626 63.6164 162.049 63.6325 162.472 63.6275C162.656 63.6275 162.732 63.6934 162.731 63.8814C162.731 64.8114 162.725 65.7405 162.731 66.6705C162.731 66.8855 162.631 66.9342 162.441 66.9312C162.041 66.9222 161.641 66.9424 161.241 66.9234C160.949 66.9094 160.841 66.9962 160.841 67.3072C160.861 68.2252 160.848 69.1422 160.848 70.0602V70.4703H157.593C157.585 70.3393 157.572 70.2126 157.572 70.0846C157.572 69.1676 157.559 68.2492 157.58 67.3312C157.587 67.0142 157.497 66.9165 157.175 66.9195C155.315 66.9325 153.456 66.9192 151.596 66.9332C151.243 66.9332 151.142 66.8335 151.153 66.4845C151.178 65.6845 151.194 64.8903 151.153 64.0953C151.191 63.603 151.385 63.1357 151.707 62.7613C152.116 62.0613 152.531 61.3694 152.947 60.6754C153.332 60.0314 153.723 59.3892 154.109 58.7452C154.543 58.0232 154.977 57.3032 155.409 56.5792C155.774 55.9612 156.127 55.3373 156.497 54.7223C156.551 54.6323 156.666 54.5226 156.754 54.5226C157.953 54.5046 159.147 54.5094 160.476 54.5094Z" fill="#3C23B6"/>
<path d="M183.208 57.7622C181.851 57.7622 180.572 57.7622 179.293 57.7622C179.067 57.7622 179.039 57.8885 179.041 58.0625C179.041 58.4625 179.056 58.8623 179.03 59.2563C179.023 59.3563 178.891 59.5351 178.813 59.5361C177.813 59.5541 176.813 59.5465 175.807 59.5425C175.756 59.5323 175.706 59.5142 175.66 59.4893V54.8662H187.448C187.448 55.6662 187.458 56.4465 187.44 57.2285C187.413 57.3941 187.352 57.5522 187.261 57.6934C186.768 58.6934 186.268 59.6932 185.774 60.6992C185.377 61.5039 184.984 62.3095 184.593 63.1162C184.182 63.9662 183.78 64.8165 183.369 65.6675C182.98 66.4675 182.579 67.2674 182.192 68.0674C181.725 69.0384 181.268 70.0123 180.792 71.0063H176.892L183.208 57.7622Z" fill="#3C23B6"/>
<path d="M175.625 52.1261C175.349 52.7331 175.125 53.2262 174.895 53.7262C174.501 54.5942 174.11 55.4643 173.715 56.3263C173.289 57.2613 172.856 58.1931 172.431 59.1261C172.051 59.9621 171.666 60.7963 171.303 61.6413C170.85 62.6943 170.434 63.7622 169.972 64.8102C169.672 65.5002 169.296 66.1589 168.981 66.8439C168.551 67.7779 168.152 68.7272 167.728 69.6642C167.315 70.5772 166.88 71.4802 166.468 72.3932C166.335 72.6862 166.252 73.001 166.125 73.298C166.105 73.3428 166.074 73.3824 166.036 73.4137C165.998 73.4451 165.954 73.4675 165.906 73.4792C164.857 73.4912 163.806 73.4879 162.664 73.4879C162.808 73.1339 162.918 72.8389 163.048 72.5519C163.362 71.8566 163.681 71.164 164.006 70.4733C164.342 69.7583 164.69 69.0511 165.026 68.3361C165.433 67.4694 165.835 66.6027 166.233 65.736C166.647 64.836 167.054 63.9281 167.463 63.0241C168.238 61.3161 169.013 59.6074 169.788 57.8981C170.134 57.1391 170.493 56.3841 170.845 55.6271C171.327 54.5871 171.834 53.5581 172.275 52.5011C172.424 52.1461 172.615 52.1011 172.939 52.1081C173.805 52.1371 174.673 52.1261 175.625 52.1261Z" fill="#3C23B6"/>
</g>
</g>
</g>
<defs>
<clipPath id="clip0_255_44">
<rect width="256" height="142" fill="white"/>
</clipPath>
<clipPath id="clip1_255_44">
<rect width="260" height="308" fill="white" transform="translate(-4 -143)"/>
</clipPath>
<clipPath id="clip2_255_44">
<rect width="61.453" height="57.409" fill="white" transform="translate(126 34)"/>
</clipPath>
</defs>
</svg>
