<svg width="256" height="142" viewBox="0 0 256 142" fill="none" xmlns="http://www.w3.org/2000/svg">
<g clip-path="url(#clip0_119_22)">
<g clip-path="url(#clip1_119_22)">
<g clip-path="url(#clip2_119_22)">
<path opacity="0.1" d="M135.483 239.319C117.967 238.813 82.7684 177.648 91.4518 140.194C100.135 102.74 138.491 138.744 157.851 87.4415C175.883 41.7395 209.769 72.0742 253.485 71.0691C278.194 70.5022 272.803 49.6491 316.209 58.5235C355.338 66.524 347.932 118.803 335.046 133.09C322.16 147.377 311.71 152.842 311.71 152.842C311.71 152.842 153 239.825 135.483 239.319Z" fill="#3C23B6"/>
<g clip-path="url(#clip3_119_22)">
<path d="M162.622 79.3882C162.186 79.3885 161.767 79.2164 161.456 78.9089C161.303 78.7577 161.182 78.5776 161.099 78.379C161.016 78.1803 160.973 77.9671 160.973 77.7517C160.974 76.89 161.145 76.037 161.477 75.2423C161.808 74.4476 162.293 73.7269 162.904 73.1222C164.147 71.8917 165.823 71.2026 167.568 71.204C167.856 71.2034 168.139 71.2787 168.39 71.4224C168.64 71.5661 168.849 71.7732 168.995 72.0231C169.14 72.2713 169.216 72.5537 169.216 72.8414C169.216 73.129 169.14 73.4114 168.995 73.6596C168.849 73.9093 168.64 74.1162 168.39 74.2598C168.139 74.4033 167.856 74.4785 167.568 74.4779C166.696 74.4778 165.86 74.8221 165.239 75.4365C164.934 75.7389 164.691 76.0993 164.525 76.4967C164.359 76.8942 164.274 77.3207 164.273 77.7517C164.273 77.9671 164.23 78.1804 164.147 78.379C164.065 78.5777 163.943 78.7578 163.79 78.9089C163.48 79.2165 163.061 79.3887 162.625 79.3882H162.622Z" fill="#3C23B6" stroke="#E7F3FE"/>
<path d="M187.444 62.6886H150.123C149.863 62.6953 149.604 62.639 149.37 62.5244C149.136 62.4097 148.932 62.2401 148.776 62.0298C148.627 61.8432 148.545 61.6107 148.545 61.3711C148.545 61.1314 148.627 60.899 148.776 60.7123C148.923 60.4928 149.125 60.3162 149.362 60.2005C149.598 60.0848 149.861 60.0341 150.123 60.0535H187.444C187.705 60.0469 187.963 60.1032 188.197 60.2179C188.432 60.3325 188.635 60.5021 188.791 60.7123C188.927 60.9049 189 61.1351 189 61.3711C189 61.6071 188.927 61.8372 188.791 62.0298C188.635 62.2401 188.432 62.4096 188.197 62.5242C187.963 62.6389 187.705 62.6952 187.444 62.6886Z" fill="#3C23B6"/>
<path d="M156.24 56.8395C156.252 57.1051 156.185 57.3683 156.047 57.5951C155.909 57.822 155.706 58.002 155.465 58.1121C155.224 58.2222 154.956 58.2573 154.695 58.2128C154.435 58.1684 154.193 58.0464 154.002 57.8627C153.81 57.679 153.678 57.4419 153.622 57.182C153.566 56.9221 153.589 56.6513 153.688 56.4045C153.786 56.1577 153.956 55.9462 154.175 55.7972C154.394 55.6483 154.653 55.5687 154.917 55.5688C155.087 55.5648 155.256 55.5946 155.415 55.6564C155.573 55.7181 155.718 55.8106 155.841 55.9286C155.963 56.0466 156.062 56.1878 156.13 56.3441C156.199 56.5004 156.236 56.6687 156.24 56.8395" fill="#3C23B6"/>
<path d="M170.794 58.1102H169.471C169.242 58.112 169.016 58.0546 168.815 57.9433C168.614 57.832 168.446 57.6707 168.325 57.4749C168.209 57.2834 168.147 57.0636 168.147 56.8395C168.147 56.6154 168.209 56.3955 168.325 56.2041C168.446 56.0083 168.614 55.847 168.815 55.7357C169.016 55.6244 169.242 55.5669 169.471 55.5688H170.794C171.023 55.5669 171.249 55.6243 171.45 55.7356C171.65 55.8469 171.819 56.0082 171.94 56.2041C172.056 56.3955 172.117 56.6154 172.117 56.8395C172.117 57.0636 172.056 57.2834 171.94 57.4749C171.819 57.6708 171.65 57.8321 171.45 57.9434C171.249 58.0547 171.023 58.1121 170.794 58.1102V58.1102Z" fill="#3C23B6"/>
<path d="M180.757 58.1102H179.108C178.82 58.1108 178.536 58.0355 178.286 57.892C178.035 57.7485 177.827 57.5416 177.681 57.2919C177.536 57.0436 177.459 56.761 177.459 56.4732C177.459 56.1855 177.536 55.9029 177.681 55.6546C177.827 55.4049 178.035 55.198 178.286 55.0545C178.536 54.9109 178.82 54.8357 179.108 54.8363H180.757C181.045 54.8357 181.328 54.9109 181.579 55.0545C181.829 55.198 182.038 55.4049 182.184 55.6546C182.328 55.9029 182.405 56.1855 182.405 56.4732C182.405 56.761 182.328 57.0435 182.184 57.2919C182.038 57.5416 181.829 57.7485 181.579 57.892C181.328 58.0355 181.045 58.1108 180.757 58.1102V58.1102Z" fill="#3C23B6" stroke="#E7F3FE"/>
<path d="M183.219 52.9606H153.036C150.417 52.9606 148.293 55.095 148.293 57.7279V88.9324C148.293 91.5654 150.417 93.6998 153.036 93.6998H183.219C185.839 93.6998 187.962 91.5654 187.962 88.9324V57.7279C187.962 55.095 185.839 52.9606 183.219 52.9606Z" stroke="#3C23B6" stroke-width="3"/>
<path d="M187.079 64.7039C192.559 64.7039 197.001 60.293 197.001 54.852C197.001 49.4109 192.559 45 187.079 45C181.599 45 177.156 49.4109 177.156 54.852C177.156 60.293 181.599 64.7039 187.079 64.7039Z" fill="white"/>
<path d="M187.079 63.4037C191.844 63.4037 195.707 59.5749 195.707 54.8519C195.707 50.1289 191.844 46.3002 187.079 46.3002C182.313 46.3002 178.45 50.1289 178.45 54.8519C178.45 59.5749 182.313 63.4037 187.079 63.4037Z" stroke="#3C23B6" stroke-width="3"/>
<path d="M167.26 86.1726C172.499 86.1726 176.746 81.9037 176.746 76.6379C176.746 71.372 172.499 67.1031 167.26 67.1031C162.021 67.1031 157.774 71.372 157.774 76.6379C157.774 81.9037 162.021 86.1726 167.26 86.1726Z" stroke="#3C23B6" stroke-width="3"/>
<path d="M191.261 53.5509L190.922 54.7043H184.479L184.817 53.5509H191.261ZM188.238 61.3265L184.599 56.8719L184.579 56.0367H186.388C186.859 56.0367 187.26 55.9704 187.591 55.8378C187.923 55.702 188.176 55.4998 188.352 55.2313C188.528 54.9595 188.616 54.6181 188.616 54.2072C188.616 53.6006 188.433 53.125 188.069 52.7803C187.704 52.4323 187.144 52.2583 186.388 52.2583H184.479L184.817 51.1447H186.388C187.197 51.1447 187.86 51.2789 188.377 51.5474C188.897 51.8125 189.282 52.1771 189.53 52.6411C189.782 53.1018 189.908 53.6238 189.908 54.2072C189.908 54.7341 189.792 55.2197 189.56 55.6638C189.332 56.1046 188.964 56.4593 188.457 56.7278C187.953 56.9962 187.287 57.1305 186.458 57.1305H186.428L189.789 61.2469V61.3265H188.238ZM191.261 51.1447L190.922 52.2981L185.851 52.2583L186.189 51.1447H191.261Z" fill="#3C23B6"/>
</g>
</g>
</g>
</g>
<defs>
<clipPath id="clip0_119_22">
<rect width="256" height="142" fill="white"/>
</clipPath>
<clipPath id="clip1_119_22">
<rect width="260" height="308" fill="white" transform="translate(0 -166)"/>
</clipPath>
<clipPath id="clip2_119_22">
<rect width="256" height="308" fill="white" transform="translate(0 -162)"/>
</clipPath>
<clipPath id="clip3_119_22">
<rect width="50" height="50" fill="white" transform="translate(147 45)"/>
</clipPath>
</defs>
</svg>
