<svg width="256" height="142" viewBox="0 0 256 142" fill="none" xmlns="http://www.w3.org/2000/svg">
<g clip-path="url(#clip0_255_49)">
<g clip-path="url(#clip1_255_49)">
<path opacity="0.1" d="M214.133 27.9088C205.108 39.5088 198.017 52.4198 189.274 64.2218C184.121 71.1768 178.174 77.9108 170.324 81.8068C154.232 89.7878 134.845 84.0498 117.869 78.0418C100.893 72.0338 81.7692 65.8998 65.3592 73.2418C51.2192 79.5678 43.0592 94.7308 41.0812 109.737C39.1032 124.743 42.2622 139.879 45.1022 154.753C47.9422 169.627 50.4742 184.979 47.2792 199.785C43.7792 216.003 33.7192 230.128 28.2072 245.809C22.6952 261.49 23.1642 281.552 36.7972 291.509C43.3032 296.259 51.7512 297.827 59.8892 297.809C74.2762 297.773 88.2241 293.244 101.664 288.253C108.564 285.692 115.808 282.946 123.111 284.001C135.07 285.728 143.141 296.882 154.324 301.347C167.183 306.481 182.366 301.817 193.208 293.361C204.05 284.905 211.552 273.18 219.329 261.981C233.643 241.369 249.382 228.511 273.829 220.828C299.367 212.8 330.217 211.87 349.939 191.956C366.37 175.366 368.73 147.327 355.292 128.362C344.879 113.662 327.383 105.417 314.28 92.9158C297.986 77.3698 289.043 55.4908 286.757 33.4158C285.78 23.9788 285.588 13.5658 279.073 6.50378C271.831 -1.34422 259.116 -1.99621 248.807 1.28579C234.583 5.79979 223.157 16.3088 214.133 27.9088Z" fill="#3C23B6"/>
<g clip-path="url(#clip2_255_49)">
<path d="M193.626 65.062C193.626 72.6373 190.617 79.9024 185.26 85.259C179.903 90.6156 172.638 93.625 165.063 93.625C157.488 93.625 150.223 90.6156 144.866 85.259C139.509 79.9024 136.5 72.6373 136.5 65.062C136.5 63.8154 136.58 62.5701 136.741 61.334C136.758 61.1871 136.804 61.0451 136.877 60.9163C136.949 60.7874 137.047 60.6742 137.163 60.5833C137.28 60.4924 137.413 60.4255 137.556 60.3866C137.698 60.3477 137.847 60.3376 137.994 60.3567C138.141 60.3758 138.282 60.4239 138.41 60.4981C138.538 60.5724 138.649 60.6713 138.739 60.7891C138.828 60.9069 138.893 61.0413 138.93 61.1844C138.967 61.3276 138.975 61.4766 138.954 61.623C138.806 62.7633 138.732 63.912 138.732 65.062C138.734 71.2018 140.882 77.1478 144.804 81.8716C148.726 86.5954 154.176 89.7999 160.211 90.9308C166.245 92.0617 172.486 91.048 177.852 88.0648C183.218 85.0817 187.373 80.3168 189.598 74.5943C191.823 68.8719 191.978 62.5517 190.037 56.727C188.095 50.9023 184.179 45.9394 178.965 42.6967C173.751 39.454 167.568 38.1355 161.485 38.9691C155.402 39.8027 149.802 42.7362 145.653 47.262H149.171C149.32 47.2575 149.469 47.283 149.608 47.3371C149.747 47.3911 149.874 47.4726 149.982 47.5766C150.089 47.6806 150.174 47.8051 150.232 47.9427C150.29 48.0803 150.32 48.2281 150.32 48.3775C150.32 48.5268 150.29 48.6747 150.232 48.8122C150.174 48.9498 150.089 49.0743 149.982 49.1783C149.874 49.2823 149.747 49.3638 149.608 49.4178C149.469 49.4719 149.32 49.4974 149.171 49.493H143.264C142.968 49.493 142.684 49.3754 142.475 49.1661C142.266 48.9568 142.148 48.6729 142.148 48.377V42.469C142.148 42.173 142.266 41.8891 142.475 41.6798C142.684 41.4705 142.968 41.353 143.264 41.353C143.56 41.353 143.844 41.4705 144.053 41.6798C144.262 41.8891 144.38 42.173 144.38 42.469V45.361C146.669 42.9619 149.355 40.9757 152.319 39.49C156.674 37.3209 161.512 36.3002 166.372 36.5245C171.233 36.7489 175.956 38.2109 180.093 40.772C184.23 43.333 187.644 46.9083 190.013 51.1588C192.381 55.4093 193.624 60.1942 193.625 65.06L193.626 65.062ZM165.062 82.762C161.561 82.762 158.139 81.7239 155.228 79.779C152.318 77.8341 150.049 75.0697 148.709 71.8354C147.37 68.6012 147.019 65.0423 147.702 61.6089C148.385 58.1754 150.071 55.0216 152.546 52.5462C155.022 50.0708 158.175 48.385 161.609 47.7021C165.042 47.0191 168.601 47.3696 171.835 48.7093C175.07 50.049 177.834 52.3176 179.779 55.2284C181.724 58.1391 182.762 61.5612 182.762 65.062C182.757 69.7546 180.89 74.2535 177.572 77.5715C174.254 80.8896 169.755 82.7559 165.062 82.761V82.762ZM165.062 80.531C168.121 80.531 171.112 79.6238 173.655 77.9242C176.199 76.2246 178.182 73.8089 179.352 70.9825C180.523 68.1562 180.83 65.0461 180.233 62.0457C179.636 59.0452 178.163 56.2891 176 54.1258C173.837 51.9625 171.081 50.4892 168.08 49.8923C165.08 49.2953 161.97 49.6015 159.143 50.7721C156.317 51.9427 153.901 53.9251 152.201 56.4687C150.502 59.0122 149.594 62.0027 149.594 65.062C149.598 69.1631 151.229 73.0951 154.129 75.9952C157.029 78.8952 160.961 80.5265 165.062 80.531V80.531Z" fill="#3C23B6" stroke="#3C23B6"/>
<path d="M166.161 75.4807C166.048 75.3983 165.942 75.3067 165.843 75.2067C163.491 72.4067 161.127 69.6187 158.631 66.9457C158.56 66.8739 158.504 66.7883 158.467 66.694C158.43 66.5998 158.413 66.4989 158.416 66.3977C158.425 65.8557 158.416 65.3127 158.416 64.7697C158.416 64.3427 158.592 64.1757 159.027 64.1697C159.854 64.1577 160.683 64.1697 161.508 64.1187C162.457 64.0906 163.377 63.7842 164.152 63.2377C164.634 62.8881 164.988 62.3915 165.162 61.8227C165.174 61.7772 165.182 61.7311 165.187 61.6847H159.055C158.555 61.6847 158.417 61.5447 158.416 61.0437C158.416 60.6367 158.416 60.2297 158.416 59.8227C158.416 59.3877 158.569 59.2337 159.003 59.2337H164.992C164.771 58.7854 164.416 58.4163 163.977 58.1767C163.251 57.7876 162.44 57.5816 161.615 57.5767C160.768 57.5457 159.915 57.5607 159.071 57.5557C158.571 57.5557 158.416 57.3987 158.416 56.8987C158.416 56.3357 158.416 55.7727 158.416 55.2097C158.416 54.8037 158.581 54.6377 158.982 54.6377H171.113C171.501 54.6377 171.669 54.8027 171.674 55.1957C171.681 55.643 171.681 56.0907 171.674 56.5387C171.668 56.9307 171.505 57.0897 171.11 57.0907C170.079 57.0907 169.048 57.0907 168.016 57.0907H167.777C167.94 57.3413 168.089 57.6011 168.222 57.8687C168.386 58.2457 168.516 58.6377 168.644 59.0297C168.69 59.1707 168.744 59.2297 168.903 59.2297C169.642 59.2197 170.382 59.2237 171.121 59.2297C171.545 59.2297 171.7 59.3847 171.702 59.8037C171.702 60.2517 171.702 60.7037 171.702 61.1467C171.713 61.2199 171.706 61.2945 171.683 61.3646C171.659 61.4347 171.62 61.4983 171.567 61.5502C171.514 61.6021 171.45 61.6409 171.38 61.6634C171.309 61.6859 171.234 61.6915 171.161 61.6797C170.422 61.6797 169.682 61.6797 168.943 61.6797C168.798 61.6797 168.734 61.7097 168.705 61.8687C168.494 63.1388 167.84 64.2929 166.857 65.1257C165.963 65.8723 164.895 66.3807 163.751 66.6037C163.434 66.6717 163.114 66.7227 162.768 66.7867C162.828 66.8567 162.879 66.9177 162.932 66.9747C165.22 69.4527 167.363 72.0547 169.503 74.6587C169.76 74.9707 169.703 75.2257 169.334 75.4787L166.161 75.4807Z" fill="#3C23B6"/>
</g>
</g>
</g>
<defs>
<clipPath id="clip0_255_49">
<rect width="256" height="142" fill="white"/>
</clipPath>
<clipPath id="clip1_255_49">
<rect width="260" height="308" fill="white" transform="translate(-4 -143)"/>
</clipPath>
<clipPath id="clip2_255_49">
<rect width="58.126" height="58.126" fill="white" transform="translate(136 36)"/>
</clipPath>
</defs>
</svg>
