<svg width="256" height="142" viewBox="0 0 256 142" fill="none" xmlns="http://www.w3.org/2000/svg">
<g clip-path="url(#clip0_255_59)">
<g clip-path="url(#clip1_255_59)">
<path opacity="0.1" d="M84.0519 170.254C69.4519 163.373 49.2259 143.508 62.1089 114.68C74.9919 85.8515 99.4679 92.6915 133.822 63.3745C175.522 27.7835 204.812 25.8275 242.036 41.3865C263.078 50.1865 266.513 86.3395 300.007 108.817C330.202 129.079 305.589 163.542 289.701 168.917C273.813 174.292 263.077 174.292 263.077 174.292C263.077 174.292 98.6499 177.134 84.0519 170.254Z" fill="#3C23B6"/>
<g clip-path="url(#clip2_255_59)">
<path d="M166.126 32.0011C165.905 32.0002 165.686 32.043 165.481 32.1272C165.277 32.2114 165.091 32.3353 164.935 32.4917C164.778 32.648 164.654 32.8338 164.57 33.0383C164.486 33.2428 164.443 33.4619 164.444 33.6831V38.4441H159.682C159.461 38.4432 159.242 38.486 159.037 38.5702C158.833 38.6544 158.647 38.7783 158.491 38.9347C158.334 39.0911 158.21 39.2768 158.126 39.4813C158.042 39.6858 157.999 39.905 158 40.1261V87.2981C158.001 87.5181 158.045 87.7359 158.13 87.9389C158.215 88.1418 158.339 88.3261 158.495 88.4811C158.651 88.6361 158.837 88.7588 159.04 88.8422C159.244 88.9256 159.462 88.968 159.682 88.9671H193.595C194.038 88.9663 194.462 88.7903 194.775 88.4776C195.089 88.1648 195.265 87.7408 195.267 87.2981V82.5231H200.042C200.484 82.5212 200.908 82.3448 201.22 82.0322C201.533 81.7196 201.709 81.2962 201.711 80.8541V64.6841L213.459 52.9261C214.379 51.9934 214.914 50.748 214.956 49.4384C214.999 48.1288 214.546 46.8514 213.688 45.8611V45.8611C213.622 45.7594 213.545 45.6652 213.459 45.5801C212.482 44.6114 211.162 44.0679 209.786 44.0679C208.41 44.0679 207.089 44.6114 206.112 45.5801L201.712 49.9801V33.6781C201.714 33.2338 201.539 32.807 201.226 32.4916C200.913 32.1762 200.487 31.9979 200.043 31.9961L166.126 32.0011ZM167.795 35.3521H198.36V53.3281L189.119 62.5631C188.929 62.7581 188.79 62.9963 188.713 63.2571L186.461 70.4791C186.37 70.7711 186.36 71.0826 186.433 71.3797C186.506 71.6768 186.659 71.9483 186.875 72.1647C187.092 72.381 187.363 72.534 187.66 72.6071C187.958 72.6801 188.269 72.6705 188.561 72.5791L195.783 70.3311C196.044 70.2532 196.282 70.1128 196.477 69.9221L198.359 68.0401V79.1781H167.795V35.3521ZM161.352 41.7951H164.444V80.8551C164.445 81.0751 164.489 81.2929 164.574 81.4959C164.659 81.6988 164.783 81.8831 164.939 82.0381C165.095 82.1931 165.281 82.3158 165.484 82.3992C165.688 82.4826 165.906 82.525 166.126 82.5241H191.913V85.6161H161.352V41.7951ZM174.128 41.8831C173.905 41.8776 173.682 41.9169 173.474 41.9987C173.266 42.0804 173.077 42.203 172.917 42.3591C172.757 42.5152 172.629 42.7018 172.543 42.9078C172.456 43.1138 172.411 43.3351 172.411 43.5586C172.411 43.7821 172.456 44.0034 172.543 44.2094C172.629 44.4154 172.757 44.602 172.917 44.7581C173.077 44.9142 173.266 45.0368 173.474 45.1185C173.682 45.2002 173.905 45.2395 174.128 45.2341H192.035C192.258 45.2395 192.481 45.2002 192.689 45.1185C192.897 45.0368 193.087 44.9142 193.247 44.7581C193.406 44.602 193.534 44.4154 193.62 44.2094C193.707 44.0034 193.752 43.7821 193.752 43.5586C193.752 43.3351 193.707 43.1138 193.62 42.9078C193.534 42.7018 193.406 42.5152 193.247 42.3591C193.087 42.203 192.897 42.0804 192.689 41.9987C192.481 41.9169 192.258 41.8776 192.035 41.8831H174.128ZM209.782 47.3971C210.026 47.3987 210.267 47.4486 210.491 47.5441C210.715 47.6395 210.918 47.7786 211.088 47.9531C211.264 48.1217 211.405 48.3243 211.501 48.5487C211.597 48.7731 211.646 49.0146 211.646 49.2586C211.646 49.5026 211.597 49.7441 211.501 49.9685C211.405 50.1929 211.264 50.3955 211.088 50.5641L198.917 62.7351C198.876 62.7724 198.837 62.8118 198.799 62.8531L196.158 65.4941L193.547 62.8831L208.476 47.9541C208.646 47.7795 208.849 47.6405 209.073 47.545C209.297 47.4496 209.538 47.3996 209.782 47.3981V47.3971ZM174.128 51.0231C173.905 51.0176 173.682 51.0569 173.474 51.1387C173.266 51.2204 173.077 51.343 172.917 51.4991C172.757 51.6552 172.629 51.8418 172.543 52.0478C172.456 52.2538 172.411 52.4751 172.411 52.6986C172.411 52.9221 172.456 53.1434 172.543 53.3494C172.629 53.5554 172.757 53.742 172.917 53.8981C173.077 54.0542 173.266 54.1768 173.474 54.2585C173.682 54.3402 173.905 54.3795 174.128 54.3741H192.035C192.258 54.3795 192.481 54.3402 192.689 54.2585C192.897 54.1768 193.087 54.0542 193.247 53.8981C193.406 53.742 193.534 53.5554 193.62 53.3494C193.707 53.1434 193.752 52.9221 193.752 52.6986C193.752 52.4751 193.707 52.2538 193.62 52.0478C193.534 51.8418 193.406 51.6552 193.247 51.4991C193.087 51.343 192.897 51.2204 192.689 51.1387C192.481 51.0569 192.258 51.0176 192.035 51.0231H174.128ZM173.958 60.1631C173.52 60.1942 173.112 60.3958 172.821 60.7247C172.529 61.0535 172.379 61.4833 172.401 61.9219C172.423 62.3605 172.617 62.7728 172.94 63.0705C173.262 63.3682 173.689 63.5274 174.128 63.5141H184.754C184.977 63.5195 185.2 63.4802 185.408 63.3985C185.616 63.3168 185.806 63.1942 185.965 63.0381C186.125 62.882 186.253 62.6954 186.339 62.4894C186.426 62.2834 186.471 62.0621 186.471 61.8386C186.471 61.6151 186.426 61.3938 186.339 61.1878C186.253 60.9818 186.125 60.7952 185.965 60.6391C185.806 60.483 185.616 60.3604 185.408 60.2787C185.2 60.1969 184.977 60.1576 184.754 60.1631H174.128C174.072 60.1631 174.015 60.1631 173.958 60.1631ZM191.499 65.5851L193.456 67.5421L190.619 68.4221L191.499 65.5851ZM174.129 69.2851C173.692 69.2958 173.276 69.477 172.97 69.79C172.665 70.1031 172.494 70.5232 172.494 70.9606C172.494 71.398 172.665 71.8181 172.97 72.1311C173.276 72.4442 173.692 72.6254 174.129 72.6361H182.294C182.517 72.6416 182.74 72.6023 182.948 72.5205C183.156 72.4388 183.346 72.3162 183.505 72.1601C183.665 72.004 183.793 71.8174 183.879 71.6114C183.966 71.4054 184.011 71.1841 184.011 70.9606C184.011 70.737 183.966 70.5158 183.879 70.3098C183.793 70.1038 183.665 69.9172 183.505 69.7611C183.346 69.605 183.156 69.4824 182.948 69.4007C182.74 69.3189 182.517 69.2796 182.294 69.2851H174.129Z" fill="#3C23B6"/>
</g>
</g>
</g>
<defs>
<clipPath id="clip0_255_59">
<rect width="256" height="142" fill="white"/>
</clipPath>
<clipPath id="clip1_255_59">
<rect width="260" height="308" fill="white" transform="translate(0 -166)"/>
</clipPath>
<clipPath id="clip2_255_59">
<rect width="56.959" height="56.968" fill="white" transform="translate(158 32)"/>
</clipPath>
</defs>
</svg>
