<svg width="256" height="142" viewBox="0 0 256 142" fill="none" xmlns="http://www.w3.org/2000/svg">
<g clip-path="url(#clip0_119_211)">
<g clip-path="url(#clip1_119_211)">
<path opacity="0.1" d="M42.4102 307.774C40.4844 329.632 30.5828 352.742 37.2411 372.379C42.5074 387.909 57.1808 395.784 71.4341 395.627C85.6874 395.471 99.7035 388.738 113.164 381.683C126.625 374.628 140.234 367.036 154.509 364.988C178.19 361.59 202.402 373.6 224.929 362.588C233.945 358.181 241.787 350.366 248.301 341.428C269.976 311.67 277.395 270.102 277.761 232.968C277.887 220.169 275.151 207.798 276.262 194.944C277.799 177.159 283.408 161.466 280.275 143.612C276.314 121.032 262.174 104.042 247.384 90.23C233.886 77.623 219.003 66.4362 202.029 61.8441C185.055 57.2521 165.627 60.0132 150.778 73.1063C139.602 82.9642 131.78 97.8027 120.406 107.307C107.298 118.26 89.9926 120.755 76.2643 113.672C69.8916 110.384 63.954 105.109 56.8299 105.167C47.7414 105.239 39.7529 114.007 34.1683 123.217C22.0162 143.453 16.2351 167.953 18.0329 191.597C21.1908 232.139 46.0347 266.651 42.4102 307.774Z" fill="#3C23B6"/>
<g clip-path="url(#clip2_119_211)">
<path d="M160.961 83.9851H144.803L150.791 77.9911L144.803 71.96H162.016L164.283 76.5854L160.961 83.9851Z" stroke="#3C23B6" stroke-width="3"/>
<path d="M201.672 83.5329L217.11 84.0138L211.122 78.0051L217.11 71.9593L201.672 71.5147L198.925 76.9908L199.101 77.4115L201.672 83.5329Z" stroke="#3C23B6" stroke-width="3"/>
<path d="M189.73 58.0257L181.771 61.2812L173.812 58.0257L170.515 65.8851L162.556 69.1406L165.853 77L162.556 84.8594L170.515 88.1149L173.812 95.9743L181.771 92.7188L189.73 95.9743L193.027 88.1149L200.986 84.8594L197.689 77L200.986 69.1406L193.027 65.8851L189.73 58.0257ZM172.542 55L181.771 58.7746L190.999 55L194.821 64.1127L204.05 67.8873L200.227 77L204.05 86.1127L194.821 89.8873L190.999 99L181.771 95.2254L172.542 99L168.72 89.8873L159.492 86.1127L163.314 77L159.492 67.8873L168.72 64.1127L172.542 55Z" fill="#3C23B6"/>
<path d="M174.53 76.807L179.441 81.6539L189.258 71.96" stroke="#3C23B6" stroke-width="3" stroke-linecap="round" stroke-linejoin="round"/>
</g>
</g>
</g>
<defs>
<clipPath id="clip0_119_211">
<rect width="256" height="142" fill="white"/>
</clipPath>
<clipPath id="clip1_119_211">
<rect width="260" height="388.712" fill="white" transform="translate(87.689 -232.918) rotate(12.5115)"/>
</clipPath>
<clipPath id="clip2_119_211">
<rect width="78" height="44" fill="white" transform="translate(142 55)"/>
</clipPath>
</defs>
</svg>
