<svg width="256" height="142" viewBox="0 0 256 142" fill="none" xmlns="http://www.w3.org/2000/svg">
<g clip-path="url(#clip0_255_34)">
<g clip-path="url(#clip1_255_34)">
<path opacity="0.1" d="M214.133 27.9088C205.108 39.5088 198.017 52.4198 189.274 64.2218C184.121 71.1768 178.174 77.9108 170.324 81.8068C154.232 89.7878 134.845 84.0498 117.869 78.0418C100.893 72.0338 81.7692 65.8998 65.3592 73.2418C51.2192 79.5678 43.0592 94.7308 41.0812 109.737C39.1032 124.743 42.2622 139.879 45.1022 154.753C47.9422 169.627 50.4742 184.979 47.2792 199.785C43.7792 216.003 33.7192 230.128 28.2072 245.809C22.6952 261.49 23.1642 281.552 36.7972 291.509C43.3032 296.259 51.7512 297.827 59.8892 297.809C74.2762 297.773 88.2241 293.244 101.664 288.253C108.564 285.692 115.808 282.946 123.111 284.001C135.07 285.728 143.141 296.882 154.324 301.347C167.183 306.481 182.366 301.817 193.208 293.361C204.05 284.905 211.552 273.18 219.329 261.981C233.643 241.369 249.382 228.511 273.829 220.828C299.367 212.8 330.217 211.87 349.939 191.956C366.37 175.366 368.73 147.327 355.292 128.362C344.879 113.662 327.383 105.417 314.28 92.9158C297.986 77.3698 289.043 55.4908 286.757 33.4158C285.78 23.9788 285.588 13.5658 279.073 6.50378C271.831 -1.34422 259.116 -1.99621 248.807 1.28579C234.583 5.79979 223.157 16.3088 214.133 27.9088Z" fill="#3C23B6"/>
<g clip-path="url(#clip2_255_34)">
<path d="M161.257 68.5487H140.587L148.247 60.7837L140.587 52.9707H162.606L165.506 58.9627L161.257 68.5487Z" stroke="#3C23B6" stroke-width="3"/>
<path d="M213.333 67.9635L233.082 68.5865L225.422 60.8025L233.082 52.9705L213.333 52.3945L209.819 59.4885L210.045 60.0335L213.333 67.9635Z" stroke="#3C23B6" stroke-width="3"/>
<path d="M198.056 34.9197L187.875 39.137L177.694 34.9197L173.476 45.1012L163.295 49.3185L167.512 59.5L163.295 69.6815L173.476 73.8988L177.693 84.0803L187.875 79.863L198.056 84.0803L202.274 73.8988L212.455 69.6815L208.238 59.5L212.455 49.3185L202.274 45.1012L198.056 34.9197ZM176.07 31L187.875 35.8898L199.68 31L204.57 42.8051L216.375 47.6949L211.485 59.5L216.375 71.3051L204.57 76.1949L199.68 88L187.875 83.1102L176.07 88L171.18 76.1949L159.375 71.3051L164.265 59.5L159.375 47.6949L171.18 42.8051L176.07 31Z" fill="#3C23B6"/>
<path d="M178.613 59.2497L184.895 65.5287L197.454 52.9707" stroke="#3C23B6" stroke-width="3" stroke-linecap="round" stroke-linejoin="round"/>
</g>
</g>
</g>
<defs>
<clipPath id="clip0_255_34">
<rect width="256" height="142" fill="white"/>
</clipPath>
<clipPath id="clip1_255_34">
<rect width="260" height="308" fill="white" transform="translate(-4 -143)"/>
</clipPath>
<clipPath id="clip2_255_34">
<rect width="99.78" height="57" fill="white" transform="translate(137 31)"/>
</clipPath>
</defs>
</svg>
