<svg xmlns="http://www.w3.org/2000/svg" xmlns:xlink="http://www.w3.org/1999/xlink" width="79.093" height="86.063" viewBox="0 0 79.093 86.063">
  <defs>
    <linearGradient id="linear-gradient" x1="0.5" x2="0.5" y2="1" gradientUnits="objectBoundingBox">
      <stop offset="0" stop-color="#ab01fc"/>
      <stop offset="1" stop-color="#3325b0"/>
    </linearGradient>
  </defs>
  <g id="Group_140425" data-name="Group 140425" transform="translate(17516.186 273.057)">
    <path id="Path_149379" data-name="Path 149379" d="M11.275,18.5c2.251.417,4.441.713,6.569,1.255a26.94,26.94,0,0,1,4.306,1.667c2.655,1.192,5.224,2.589,7.925,3.657a17.2,17.2,0,0,0,12.76.048,104.168,104.168,0,0,0,15.1-7.3q4.981-2.845,9.813-5.946A22.733,22.733,0,0,0,71.067,9c.282-.271.554-.942.412-1.173a1.626,1.626,0,0,0-1.224-.7,13.162,13.162,0,0,0-3.2.517,63.57,63.57,0,0,0-10.208,4.679c-1.621.836-5.595,2.545-7.212,3.389-.575.3-.342.074-.826-.379-.434-.406-.774-.916-.517-1.446a14.924,14.924,0,0,1,2.364-1.248c4.621-2.308,9.226-4.652,13.893-6.864A11.981,11.981,0,0,1,70.441,4.51a3.856,3.856,0,0,1,3.722,3.013,3.184,3.184,0,0,1-.759,2.7,15.6,15.6,0,0,1-2.974,2.9q-5.33,3.506-10.837,6.74a136.583,136.583,0,0,1-13.982,7.016c-6.655,2.933-13.1,2.52-19.516-.587-1.482-.717-3-1.385-4.417-2.21a23.368,23.368,0,0,0-9.338-2.727c-.326-.037-.652-.067-1.077-.111-.016.293-.038.558-.044.824a2.009,2.009,0,0,1-2.177,2.181q-3.462.012-6.925,0A1.949,1.949,0,0,1,.007,22.179q-.013-9.852,0-19.7A2.219,2.219,0,0,1,2.155.1s1.691-.179,3.308-.18,2.791,0,2.791,0c1.835,0,2.63.848,3.076,2.728,1.231-.377,2.46-.738,3.679-1.13A25.912,25.912,0,0,1,22.6.1a13.309,13.309,0,0,1,6.848,1.711c.882.5,1.723,1.07,2.609,1.559,2.191,1.209,4.354,2.479,6.608,3.56,3.376,1.619,6.687,3.327,9.323,6.044a9.51,9.51,0,0,1,1.986,2.922,3.592,3.592,0,0,1-3.454,5.048,16.948,16.948,0,0,1-5.54-1.212c-3.466-1.131-6.9-2.376-10.394-3.4a45.532,45.532,0,0,0-5.6-.993,1.252,1.252,0,0,1-1.232-1.12c-.124-.951.557-1.543,1.645-1.447A36.148,36.148,0,0,1,33.713,14.5c3.171,1.059,6.318,2.188,9.5,3.211a15.354,15.354,0,0,0,3.266.626,1.019,1.019,0,0,0,1.051-1.561,8.22,8.22,0,0,0-1.439-2.025,22.149,22.149,0,0,0-7.035-4.718,56.936,56.936,0,0,1-9.528-5.185C25.972,2.389,22.1,2.245,18.093,3.33c-2.15.582-4.279,1.246-6.407,1.906a.762.762,0,0,0-.445.543c-.019,4.209-.007,8.418,0,12.628a.173.173,0,0,0,.033.09M8.628,2.968c-1.879,0-3.627.018-5.374-.011-.54-.009-.688.175-.686.7q.022,8.671,0,17.343c0,.537.177.7.7.689,1.47-.028,2.944-.059,4.412.01.792.037.97-.221.966-.978-.031-5.6-.016-11.207-.016-16.81V2.968" transform="translate(-17515.686 -216.352)" fill="#3c23b6" stroke="#3c23b6" stroke-width="1"/>
    <text id="_" data-name="₹" transform="translate(-17485.738 -228.846)" fill="#3c23b6" font-size="26" font-family="SegoeUI-Bold, Segoe UI" font-weight="700"><tspan x="0" y="0">₹</tspan></text>
    <g id="Ellipse_1338" data-name="Ellipse 1338" transform="translate(-17497.686 -258.057)" fill="none" stroke="#3c23b6" stroke-width="4">
      <circle cx="20" cy="20" r="20" stroke="none"/>
      <circle cx="20" cy="20" r="18" fill="none"/>
    </g>
    <path id="Stroke_3" data-name="Stroke 3" d="M0,23.608C0,5.9,6.15,0,24.594,0S49.187,5.9,49.187,23.608s-6.15,23.608-24.594,23.608S0,41.313,0,23.608Z" transform="translate(-17486.279 -273.057)" opacity="0.2" fill="url(#linear-gradient)"/>
  </g>
</svg>
