<svg width="256" height="142" viewBox="0 0 256 142" fill="none" xmlns="http://www.w3.org/2000/svg">
<g clip-path="url(#clip0_204_13)">
<g clip-path="url(#clip1_204_13)">
<path opacity="0.1" d="M214.133 27.9088C205.108 39.5088 198.017 52.4198 189.274 64.2218C184.121 71.1768 178.174 77.9108 170.324 81.8068C154.232 89.7878 134.845 84.0498 117.869 78.0418C100.893 72.0338 81.7692 65.8998 65.3592 73.2418C51.2192 79.5678 43.0592 94.7308 41.0812 109.737C39.1032 124.743 42.2622 139.879 45.1022 154.753C47.9422 169.627 50.4742 184.979 47.2792 199.785C43.7792 216.003 33.7192 230.128 28.2072 245.809C22.6952 261.49 23.1642 281.552 36.7972 291.509C43.3032 296.259 51.7512 297.827 59.8892 297.809C74.2762 297.773 88.2241 293.244 101.664 288.253C108.564 285.692 115.808 282.946 123.111 284.001C135.07 285.728 143.141 296.882 154.324 301.347C167.183 306.481 182.366 301.817 193.208 293.361C204.05 284.905 211.552 273.18 219.329 261.981C233.643 241.369 249.382 228.511 273.829 220.828C299.367 212.8 330.217 211.87 349.939 191.956C366.37 175.366 368.73 147.327 355.292 128.362C344.879 113.662 327.383 105.417 314.28 92.9158C297.986 77.3698 289.043 55.4908 286.757 33.4158C285.78 23.9788 285.588 13.5658 279.073 6.50378C271.831 -1.34422 259.116 -1.99621 248.807 1.28579C234.583 5.79979 223.157 16.3088 214.133 27.9088Z" fill="#3C23B6"/>
<g clip-path="url(#clip2_204_13)">
<path d="M197.382 42.4199H158.618C155.746 42.4199 153.418 44.7504 153.418 47.6253V87.3753C153.418 90.2501 155.746 92.5806 158.618 92.5806H197.382C200.253 92.5806 202.582 90.2501 202.582 87.3753V47.6253C202.582 44.7504 200.253 42.4199 197.382 42.4199Z" stroke="#3C23B6" stroke-width="3"/>
<path d="M178.09 82.0297C181.509 82.0297 189.322 78.5374 189.322 68.9046C189.322 59.2719 189.728 58.5195 188.828 57.5929C185.763 55.1636 181.998 53.7885 178.09 53.6719C174.182 53.788 170.417 55.1631 167.352 57.5929C166.45 58.5195 166.861 59.2728 166.861 68.9046C166.861 78.5364 174.673 82.0297 178.09 82.0297Z" stroke="#3C23B6" stroke-width="3" stroke-linecap="round" stroke-linejoin="round"/>
<path d="M174.285 67.3942L177.055 70.2468L182.762 64.3789" stroke="#3C23B6" stroke-width="3" stroke-linecap="round" stroke-linejoin="round"/>
</g>
</g>
</g>
<defs>
<clipPath id="clip0_204_13">
<rect width="256" height="142" fill="white"/>
</clipPath>
<clipPath id="clip1_204_13">
<rect width="260" height="308" fill="white" transform="translate(-4 -143)"/>
</clipPath>
<clipPath id="clip2_204_13">
<rect width="52" height="53" fill="white" transform="translate(152 41)"/>
</clipPath>
</defs>
</svg>
