<svg xmlns="http://www.w3.org/2000/svg" width="41.852" height="43.239" viewBox="0 0 41.852 43.239">
  <g id="Paper" transform="translate(1.5 1.5)">
    <path id="Stroke_1" data-name="Stroke 1" d="M12.5.5H0" transform="translate(12.161 27.123)" fill="none" stroke="#fffaf8" stroke-linecap="round" stroke-linejoin="round" stroke-miterlimit="10" stroke-width="3"/>
    <path id="Stroke_2" data-name="Stroke 2" d="M7.766.5H0" transform="translate(12.159 18.399)" fill="none" stroke="#fffaf8" stroke-linecap="round" stroke-linejoin="round" stroke-miterlimit="10" stroke-width="3"/>
    <path id="Stroke_3" data-name="Stroke 3" d="M38.2,12.072,25.084.326A44.767,44.767,0,0,0,19.414,0C4.859,0,0,5.046,0,20.12c0,15.1,4.859,20.12,19.414,20.12,14.578,0,19.438-5.024,19.438-20.12A43.09,43.09,0,0,0,38.2,12.072Z" transform="translate(0)" fill="none" stroke="#fffaf8" stroke-linecap="round" stroke-linejoin="round" stroke-miterlimit="10" stroke-width="3"/>
    <path id="Stroke_5" data-name="Stroke 5" d="M0,0V5.788A7.559,7.559,0,0,0,7.784,13.1h6.829" transform="translate(23.798 0.18)" fill="none" stroke="#fffaf8" stroke-linecap="round" stroke-linejoin="round" stroke-miterlimit="10" stroke-width="3"/>
  </g>
</svg>
